<svg width="205" height="308" viewBox="0 0 205 308" fill="none" xmlns="http://www.w3.org/2000/svg">
<path d="M138.396 124.23C141.932 120.788 144.989 123.917 148.525 120.475C152.061 117.033 149.004 113.904 152.54 110.462C156.076 107.02 159.13 110.149 162.666 106.707C166.202 103.265 163.148 100.135 166.684 96.6931C170.22 93.251 173.277 96.3802 176.813 92.938" stroke="#4BB762" stroke-width="0.625846" stroke-miterlimit="10" stroke-dasharray="1.56 1.56"/>
<path d="M112.213 39.3501C114.316 45.4051 108.402 47.4579 110.502 53.513C112.601 59.568 118.516 57.5184 120.618 63.5766C122.721 69.6347 116.807 71.6844 118.907 77.7426C121.006 83.8008 126.921 81.748 129.02 87.8062C131.12 93.8644 125.209 95.914 127.312 101.969C129.415 108.024 135.326 105.978 137.425 112.036C139.525 118.094 133.614 120.144 135.717 126.202" stroke="#4BB762" stroke-width="0.625846" stroke-miterlimit="10" stroke-dasharray="1.56 1.56"/>
<path d="M137.159 124.634C141.672 124.906 141.409 129.281 145.921 129.553C150.434 129.825 150.7 125.454 155.215 125.729C159.731 126.005 159.465 130.376 163.977 130.648C168.489 130.921 168.758 126.549 173.271 126.825C177.783 127.1 177.52 131.471 182.033 131.744" stroke="#4BB762" stroke-width="0.625846" stroke-miterlimit="10" stroke-dasharray="1.56 1.56"/>
<path d="M135.285 124.903C130.25 122.475 132.966 116.836 127.931 114.411C122.896 111.986 120.177 117.621 115.142 115.193C110.107 112.765 112.823 107.129 107.788 104.701C102.753 102.273 100.034 107.911 94.9961 105.483C89.9581 103.055 92.6774 97.4191 87.6424 94.9909C82.6075 92.5626 79.8882 98.2015 74.8502 95.7763C69.8121 93.3511 72.5314 87.7091 67.4933 85.2809C62.4553 82.8526 59.7391 88.4915 54.701 86.0632" stroke="#4BB762" stroke-width="0.625846" stroke-miterlimit="10" stroke-dasharray="1.56 1.56"/>
<path d="M135.301 126.402C136.59 120.356 142.711 121.664 144 115.622C145.289 109.579 139.172 108.271 140.461 102.229C141.75 96.1863 147.874 97.4943 149.163 91.4517C150.453 85.4092 144.335 84.1012 145.624 78.0586C146.913 72.0161 153.037 73.321 154.326 67.2784C155.616 61.2359 149.498 59.9279 150.787 53.8853C152.077 47.8428 158.2 49.1477 159.49 43.102C160.779 37.0564 154.661 35.7515 155.954 29.7089" stroke="#4BB762" stroke-width="0.625846" stroke-miterlimit="10" stroke-dasharray="1.56 1.56"/>
<path d="M137.813 125.795C131.593 125.951 131.436 119.696 125.218 119.849C119.001 120.003 119.157 126.261 112.936 126.421C106.715 126.58 106.562 120.322 100.341 120.475C94.12 120.629 94.2796 126.887 88.0618 127.047C81.844 127.206 81.6845 120.948 75.4635 121.101C69.2426 121.254 69.4022 127.513 63.1845 127.673C56.9667 127.832 56.8071 121.574 50.5862 121.727C44.3653 121.88 44.5217 128.139 38.304 128.298" stroke="#4BB762" stroke-width="0.625846" stroke-miterlimit="10" stroke-dasharray="1.56 1.56"/>
<path d="M55.0704 15.2769C58.9507 20.1835 54.044 24.0669 57.9274 28.9735C61.8108 33.8801 66.7174 29.9967 70.6008 34.919C74.4842 39.8413 69.5775 43.7122 73.4578 48.6188C77.338 53.5254 82.2509 49.642 86.1312 54.5643C90.0114 59.4866 85.111 63.323 88.9913 68.2172C92.8715 73.1113 97.7844 69.2404 101.668 74.1627C105.551 79.085 100.641 82.9527 104.525 87.8593C108.408 92.766 113.315 88.8857 117.198 93.8049C121.082 98.724 116.175 102.595 120.058 107.502C123.942 112.408 128.848 108.528 132.732 113.447C136.615 118.366 131.708 122.24 135.592 127.147" stroke="#4BB762" stroke-width="0.625846" stroke-miterlimit="10" stroke-dasharray="1.56 1.56"/>
<path d="M204.698 80.6121C204.698 92.2528 194.712 101.687 182.392 101.687C170.073 101.687 160.084 93.9489 160.084 82.2988C160.084 70.6486 169.209 59.5305 181.529 59.5305C193.848 59.5305 204.698 68.9745 204.698 80.6121Z" fill="#7062C1"/>
<path d="M200.58 78.6657C200.58 79.1131 200.564 79.5544 200.533 79.9956C199.866 89.1204 192.484 96.4835 183.369 97.6319C182.539 97.7373 181.702 97.7906 180.865 97.7915C170.164 97.7915 161.852 90.1531 161.852 79.5857C161.852 69.0183 170.839 59.5398 181.541 59.5398C192.243 59.5398 200.58 68.1014 200.58 78.6657Z" fill="white"/>
<path d="M200.523 79.9956C199.866 89.1205 192.484 96.4835 183.369 97.632C176.754 97.4161 171.108 93.4795 168.627 87.9314C169.903 89.7441 171.555 91.26 173.471 92.3753C175.387 93.4907 177.521 94.1793 179.727 94.3941C181.934 94.6088 184.16 94.3447 186.255 93.6197C188.35 92.8947 190.264 91.726 191.865 90.1934C193.467 88.6608 194.719 86.8004 195.535 84.7394C196.352 82.6785 196.714 80.4656 196.596 78.2519C196.479 76.0382 195.885 73.876 194.855 71.913C193.825 69.95 192.383 68.2325 190.629 66.8779C196.017 69.156 199.926 74.1033 200.523 79.9956Z" fill="#E3E2E0"/>
<path d="M181.207 92.6001C188.683 92.6001 194.744 86.5394 194.744 79.0631C194.744 71.5868 188.683 65.526 181.207 65.526C173.73 65.526 167.669 71.5868 167.669 79.0631C167.669 86.5394 173.73 92.6001 181.207 92.6001Z" fill="#F0A17A"/>
<path d="M169.788 80.3085C169.786 82.457 170.296 84.575 171.276 86.4872C172.255 88.3994 173.676 90.0508 175.421 91.3047C173.718 90.5027 172.201 89.3543 170.966 87.933C169.732 86.5116 168.808 84.8485 168.253 83.0499C167.698 81.2512 167.524 79.3565 167.742 77.4869C167.961 75.6172 168.567 73.8137 169.522 72.1914C170.476 70.5691 171.759 69.1638 173.288 68.0652C174.816 66.9666 176.557 66.1989 178.399 65.8111C180.241 65.4233 182.144 65.4238 183.985 65.8128C185.827 66.2018 187.567 66.9706 189.095 68.0701C187.032 67.0959 184.757 66.6589 182.48 66.7998C180.203 66.9406 177.998 67.6548 176.071 68.8759C174.144 70.097 172.557 71.7853 171.458 73.7841C170.358 75.7829 169.782 78.0272 169.782 80.3085H169.788Z" fill="#E07554"/>
<path d="M177.464 80.6152C178.707 80.6152 179.714 79.6078 179.714 78.3652C179.714 77.1226 178.707 76.1153 177.464 76.1153C176.221 76.1153 175.214 77.1226 175.214 78.3652C175.214 79.6078 176.221 80.6152 177.464 80.6152Z" fill="#EA614E"/>
<path d="M181.207 85.1307C181.991 85.1307 182.627 84.4946 182.627 83.71C182.627 82.9254 181.991 82.2893 181.207 82.2893C180.422 82.2893 179.786 82.9254 179.786 83.71C179.786 84.4946 180.422 85.1307 181.207 85.1307Z" fill="#25283A"/>
<path d="M182.026 78.115C182.026 78.115 178.878 74.8919 182.749 71.797C182.743 71.797 185.853 75.7274 182.026 78.115Z" fill="#347C27"/>
<path d="M183.463 79.329C183.463 79.329 183.857 75.5051 188.003 76.35C188.003 76.3531 187.124 80.5401 183.463 79.329Z" fill="#877B74"/>
<path d="M128.97 24.4674C128.97 37.9795 117.392 48.9349 103.135 48.9349C88.8786 48.9349 77.288 39.713 77.288 26.1979C77.288 12.6828 87.6301 0 101.899 0C116.169 0 128.97 10.9523 128.97 24.4674Z" fill="#FEA500"/>
<path d="M126.749 26.9301C126.749 38.7679 115.693 48.3559 103.42 48.3559C91.1473 48.3559 81.7471 39.9727 81.7471 28.138C81.7471 16.3032 92.0016 5.50424 104.278 5.50424C116.553 5.50424 126.749 15.0922 126.749 26.9301Z" fill="#D05701"/>
<path d="M122.868 25.015C122.868 35.7952 113.168 44.5257 102.384 44.5257C91.601 44.5257 83.3524 36.8935 83.3524 26.1133C83.3524 15.3332 92.3551 5.50424 103.135 5.50424C113.916 5.50424 122.868 14.2348 122.868 25.015Z" fill="white"/>
<path d="M115.583 31.9964C111.112 40.2732 104.34 37.4569 101.915 36.7654C101.411 36.6214 100.857 35.6639 101.129 35.2164C101.104 35.2845 101.092 35.3571 101.096 35.4297C101.099 35.5024 101.117 35.5736 101.149 35.6391C101.18 35.7046 101.225 35.7631 101.28 35.8109C101.334 35.8587 101.398 35.8949 101.467 35.9173C103.589 36.5901 110.379 38.0609 114.419 30.9763C118.459 23.8917 117.924 20.1679 113.067 15.6431C118.985 20.653 119.924 24.3893 115.583 31.9964Z" fill="#BC7440"/>
<path d="M110.436 13.3868C110.348 13.3166 110.246 13.2672 110.136 13.2424C110.026 13.2176 109.913 13.218 109.803 13.2437C109.694 13.2693 109.592 13.3194 109.504 13.3903C109.417 13.4612 109.347 13.5509 109.3 13.6528C108.314 15.8978 107.734 18.2995 107.585 20.7468C107.253 25.1027 102.538 32.9508 101.186 35.1068C101.142 35.1763 101.114 35.255 101.105 35.3369C101.096 35.4187 101.106 35.5015 101.134 35.5789C101.163 35.6563 101.208 35.7261 101.267 35.7832C101.327 35.8402 101.398 35.8829 101.477 35.9079C103.595 36.5807 110.389 38.0483 114.429 30.97C119.11 22.762 117.655 19.0539 110.436 13.3868Z" fill="#D19064"/>
<path d="M111.208 32.8166L102.868 35.2364L103.177 36.3032L111.517 33.8835L111.208 32.8166Z" fill="#A31E0D"/>
<path d="M115.657 27.6044L102.325 31.4725L102.635 32.5394L115.966 28.6713L115.657 27.6044Z" fill="#A31E0D"/>
<path d="M116.803 22.9298L104.809 26.4099L105.118 27.4767L117.112 23.9967L116.803 22.9298Z" fill="#A31E0D"/>
<path d="M116.452 19.2598L106.82 22.0545L107.129 23.1214L116.761 20.3267L116.452 19.2598Z" fill="#A31E0D"/>
<path d="M113.871 16.2521L109.113 17.6324L109.423 18.6993L114.18 17.319L113.871 16.2521Z" fill="#A31E0D"/>
<path d="M106.158 12.9738H99.6556V19.1321H106.158V12.9738Z" fill="#74C963"/>
<path d="M97.4026 15.1423H91.044V21.5009H97.4026V15.1423Z" fill="#74C963"/>
<path d="M98.429 22.7276H92.2988V28.8578H98.429V22.7276Z" fill="#74C963"/>
<path d="M101.646 17.2514H95.3655V23.5318H101.646V17.2514Z" fill="#55AB44"/>
<path d="M98.5072 30.4286H95.3655V33.5704H98.5072V30.4286Z" fill="#55AB44"/>
<path d="M89.5171 24.8649H87.4518V26.9302H89.5171V24.8649Z" fill="#55AB44"/>
<path d="M96.5703 13.9439H94.2234V16.2908H96.5703V13.9439Z" fill="#FAE185"/>
<path d="M99.2019 10.9805H96.007V14.1754H99.2019V10.9805Z" fill="#55AB44"/>
<path d="M91.0909 26.9301H89.1633V28.8578H91.0909V26.9301Z" fill="#FAE185"/>
<path d="M95.9631 21.5009C96.8687 21.5009 97.6028 20.7668 97.6028 19.8612C97.6028 18.9556 96.8687 18.2215 95.9631 18.2215C95.0575 18.2215 94.3234 18.9556 94.3234 19.8612C94.3234 20.7668 95.0575 21.5009 95.9631 21.5009Z" fill="#EA614E"/>
<path d="M104.547 20.5309C105.452 20.5309 106.186 19.7967 106.186 18.8911C106.186 17.9856 105.452 17.2514 104.547 17.2514C103.641 17.2514 102.907 17.9856 102.907 18.8911C102.907 19.7967 103.641 20.5309 104.547 20.5309Z" fill="#EA614E"/>
<path d="M99.1989 26.7048C100.025 26.7048 100.695 26.0352 100.695 25.2091C100.695 24.383 100.025 23.7133 99.1989 23.7133C98.3728 23.7133 97.7031 24.383 97.7031 25.2091C97.7031 26.0352 98.3728 26.7048 99.1989 26.7048Z" fill="#EA614E"/>
<path d="M93.4409 30.9825C94.6144 30.9825 95.5657 30.0312 95.5657 28.8578C95.5657 27.6843 94.6144 26.733 93.4409 26.733C92.2674 26.733 91.3162 27.6843 91.3162 28.8578C91.3162 30.0312 92.2674 30.9825 93.4409 30.9825Z" fill="#EA614E"/>
<path d="M103.645 22.7276H101.646V24.7272H103.645V22.7276Z" fill="#FAE185"/>
<path d="M92.9642 35.9481C93.4282 35.6802 93.4702 34.8843 93.058 34.1704C92.6458 33.4565 91.9355 33.0949 91.4716 33.3627C91.0076 33.6306 90.9656 34.4265 91.3778 35.1404C91.79 35.8544 92.5002 36.216 92.9642 35.9481Z" fill="#26293B"/>
<path d="M103.167 28.4812C103.232 27.9494 102.622 27.4372 101.804 27.3371C100.985 27.2371 100.269 27.5871 100.204 28.1189C100.139 28.6507 100.75 29.1629 101.568 29.2629C102.386 29.363 103.102 29.0129 103.167 28.4812Z" fill="#26293B"/>
<path d="M91.8589 18.0707C92.3535 17.4112 92.407 16.616 91.9784 16.2945C91.5498 15.9731 90.8014 16.2471 90.3068 16.9066C89.8122 17.5661 89.7586 18.3613 90.1872 18.6828C90.6158 19.0042 91.3643 18.7302 91.8589 18.0707Z" fill="#26293B"/>
<path d="M102.541 15.0968C103.038 14.4391 103.094 13.6441 102.667 13.3211C102.239 12.9981 101.49 13.2694 100.993 13.927C100.496 14.5847 100.44 15.3797 100.867 15.7027C101.294 16.0258 102.044 15.7545 102.541 15.0968Z" fill="#26293B"/>
<path d="M93.441 32.8788C93.441 32.8788 98.0597 33.3357 98.8014 36.8154" stroke="#408634" stroke-width="0.938769" stroke-miterlimit="10"/>
<path d="M54.7825 266.297C54.5259 268.54 54.1692 270.772 53.7123 272.994C53.268 275.213 52.7454 277.428 52.0914 279.612C51.4622 281.817 50.7164 283.986 49.8571 286.112C48.9899 288.271 47.9855 290.373 46.8499 292.405C44.5468 296.473 41.5928 300.387 37.5655 303.466C37.0429 303.826 36.536 304.205 36.0009 304.549C35.4658 304.893 34.9151 305.238 34.3268 305.529L33.46 305.982L32.5556 306.389C31.9439 306.659 31.317 306.893 30.6781 307.09C28.0436 307.908 25.2694 308.179 22.5264 307.885C19.7781 307.512 17.1351 306.582 14.7597 305.15C12.5125 303.752 10.5049 302.001 8.81416 299.965C7.23271 298.022 5.88032 295.903 4.78371 293.65C3.72609 291.473 2.85716 289.21 2.18645 286.885C0.906245 282.356 0.190489 277.686 0.0554426 272.981C-0.0415635 270.678 -0.00401275 268.344 0.111769 266.041C0.22755 263.738 0.468501 261.444 0.79707 259.157C1.12564 256.869 1.53557 254.616 2.04876 252.375C2.57888 250.131 3.22542 247.916 3.98576 245.738C5.45712 241.32 7.46547 237.1 9.96571 233.171C11.2451 231.178 12.6874 229.294 14.2778 227.539C15.9047 225.736 17.7302 224.122 19.7195 222.729C21.8 221.305 24.09 220.215 26.5068 219.497C29.0158 218.779 31.6445 218.58 34.2329 218.912C36.8007 219.313 39.2594 220.236 41.4583 221.621C43.5472 222.986 45.4044 224.677 46.9595 226.628C48.4389 228.51 49.6988 230.554 50.7145 232.721C51.7082 234.827 52.5246 237.013 53.1553 239.255C53.7814 241.461 54.2664 243.705 54.6073 245.973C54.951 248.22 55.1756 250.483 55.2801 252.754C55.4053 255.017 55.4084 257.282 55.3208 259.538C55.2332 261.794 55.0704 264.048 54.7825 266.297ZM50.5988 265.747C50.8491 263.638 51.0066 261.523 51.0713 259.404C51.0713 258.875 51.0869 258.346 51.0869 257.817L51.0462 256.231C51.0462 255.702 50.993 255.176 50.9649 254.647L50.9179 253.859L50.846 253.073C50.4785 248.913 49.5847 244.817 48.1861 240.882C46.8093 237.027 44.8535 233.428 42.3345 230.59C41.1316 229.217 39.7285 228.033 38.1726 227.079C36.7132 226.184 35.0853 225.598 33.3901 225.359C31.6949 225.12 29.9686 225.233 28.3186 225.689C26.5476 226.182 24.8601 226.936 23.3119 227.927C21.6543 228.989 20.1135 230.224 18.715 231.61C17.2616 233.052 15.9312 234.612 14.7378 236.276C12.2901 239.711 10.292 243.445 8.79225 247.388L8.51062 248.135L8.25089 248.89C8.08505 249.396 7.89729 249.897 7.74709 250.41L7.28083 251.944C7.13689 252.461 7.00129 252.983 6.87403 253.508C6.37336 255.594 5.9676 257.697 5.65676 259.817C5.39808 261.947 5.23327 264.083 5.16235 266.225C5.16235 266.761 5.14357 267.296 5.1467 267.831L5.19051 269.436C5.19051 269.968 5.24683 270.503 5.27187 271.035L5.32194 271.833L5.39704 272.628C5.79911 276.836 6.73713 280.975 8.18831 284.945C9.61837 288.828 11.6524 292.458 14.2653 295.312C15.5165 296.698 16.9691 297.888 18.5742 298.841C20.0753 299.73 21.7439 300.299 23.4752 300.511C25.2066 300.724 26.9632 300.576 28.6347 300.077C30.4056 299.548 32.0863 298.753 33.6196 297.721C36.8082 295.6 39.6246 292.595 41.9433 289.207C44.2964 285.75 46.2036 282.01 47.6197 278.076C48.338 276.083 48.9449 274.052 49.4378 271.993C49.9228 269.927 50.3046 267.837 50.5988 265.734V265.747Z" fill="#242569"/>
<path d="M53.6466 217.434L33.5601 260.984L31.8516 260.208L51.403 216.417L53.6466 217.434Z" fill="#437C6D"/>
<path d="M71.8243 215.125L52.5169 218.179L51.9224 211.198L71.4675 210.938L71.8243 215.125Z" fill="#437C6D"/>
<path d="M114.651 251.193L100.081 236.848C99.7411 236.513 99.4703 236.115 99.2843 235.675C99.0983 235.236 99.0007 234.764 98.9971 234.286C98.9935 233.809 99.0839 233.336 99.2632 232.894C99.4425 232.451 99.7071 232.049 100.042 231.708C100.377 231.368 100.776 231.098 101.215 230.912C101.655 230.726 102.127 230.628 102.604 230.624C103.081 230.621 103.554 230.711 103.997 230.891C104.439 231.07 104.842 231.334 105.182 231.669C105.303 231.789 105.416 231.917 105.52 232.051L117.937 248.292C118.321 248.728 118.517 249.298 118.481 249.878C118.445 250.458 118.18 251 117.744 251.385C117.308 251.77 116.738 251.966 116.158 251.929C115.578 251.893 115.036 251.628 114.651 251.193V251.193Z" fill="#437C6D"/>
<path d="M50.3297 195.924L66.5078 257.32L61.767 258.587L45.1226 197.317L50.3297 195.924Z" fill="#242569"/>
<path d="M50.8365 197.758L67.0866 259.135L65.4343 259.576L49.0247 198.243L50.8365 197.758Z" fill="#437C6D"/>
<path d="M97.6561 179.796L111.54 181.023L112.166 181.079L112.561 181.392C113.869 182.326 114.955 183.536 115.743 184.937C116.504 186.357 116.926 187.934 116.976 189.544C117.019 191.054 116.826 192.562 116.403 194.012C116.009 195.404 115.463 196.748 114.776 198.021C114.435 198.669 114.054 199.296 113.637 199.898C113.409 200.226 113.161 200.539 112.895 200.837C112.817 200.922 112.733 201.012 112.626 201.112C112.52 201.213 112.435 201.275 112.357 201.338C112.21 201.457 112.066 201.569 111.932 201.669C110.846 202.492 109.779 203.256 108.702 204.032C106.551 205.572 104.396 207.099 102.237 208.613L100.576 206.341C102.628 204.693 104.69 203.058 106.759 201.435C107.789 200.624 108.834 199.808 109.813 199C109.938 198.897 110.048 198.803 110.151 198.709L110.254 198.622L110.32 198.546C110.481 198.346 110.63 198.137 110.768 197.921C111.089 197.431 111.379 196.922 111.637 196.397C112.695 194.269 113.362 191.891 113.218 189.747C113.158 188.724 112.868 187.727 112.37 186.831C111.846 185.941 111.132 185.178 110.279 184.596V184.596L111.303 184.956L97.3713 184.515L97.6561 179.796Z" fill="#242569"/>
<path d="M64.1357 247.801L32.7057 258.65" stroke="#000" stroke-width="0.625846" stroke-miterlimit="10"/>
<path d="M67.5028 269.949L30.5027 270.991" stroke="#000" stroke-width="0.625846" stroke-miterlimit="10"/>
<path d="M66.7643 270.541C72.0354 270.541 76.3085 265.231 76.3085 258.681C76.3085 252.131 72.0354 246.821 66.7643 246.821C61.4932 246.821 57.2202 252.131 57.2202 258.681C57.2202 265.231 61.4932 270.541 66.7643 270.541Z" fill="#242569"/>
<path d="M36.2322 265.614C37.1705 261.822 35.8123 258.224 33.1986 257.577C30.5848 256.931 27.7054 259.48 26.7671 263.271C25.8288 267.063 27.187 270.661 29.8008 271.307C32.4145 271.954 35.294 269.405 36.2322 265.614Z" fill="#242569"/>
<path d="M42.638 195.361L43.3358 198.581C43.4181 198.96 43.5819 199.317 43.8157 199.627C44.0496 199.937 44.348 200.192 44.6903 200.375C45.0325 200.558 45.4105 200.664 45.798 200.687C46.1855 200.709 46.5732 200.647 46.9344 200.505L60.6435 195.079C62.6556 194.284 62.0079 191.287 59.8487 191.393L44.8284 191.427C43.1793 191.509 42.2875 193.743 42.638 195.361Z" fill="#242569"/>
<path d="M139.043 250.786C138.652 252.748 138.18 254.694 137.613 256.619C137.047 258.543 136.443 260.461 135.711 262.342C135.006 264.242 134.201 266.103 133.301 267.918C132.392 269.76 131.368 271.541 130.235 273.254C129.072 274.997 127.767 276.642 126.332 278.17C124.854 279.755 123.195 281.162 121.388 282.36C119.471 283.601 117.365 284.523 115.152 285.088C112.809 285.673 110.366 285.738 107.996 285.278C105.625 284.818 103.384 283.844 101.43 282.425C99.5511 281.063 97.9021 279.408 96.5452 277.525C95.269 275.716 94.2053 273.766 93.3753 271.714C92.5645 269.727 91.9197 267.677 91.4477 265.584C90.5667 261.485 90.1936 257.294 90.3368 253.105C90.5861 244.839 92.3488 236.689 95.5376 229.06C97.1377 225.208 99.206 221.569 101.696 218.223C102.977 216.525 104.397 214.937 105.942 213.476C107.522 211.968 109.27 210.647 111.152 209.539C113.124 208.41 115.26 207.595 117.483 207.124C119.79 206.66 122.168 206.671 124.47 207.155C126.744 207.706 128.88 208.717 130.748 210.125C132.509 211.502 134.037 213.153 135.273 215.016C136.436 216.808 137.389 218.728 138.111 220.739C138.82 222.691 139.365 224.698 139.741 226.741C140.111 228.747 140.354 230.775 140.467 232.812C140.587 234.828 140.603 236.849 140.514 238.867C140.448 240.876 140.267 242.875 140.016 244.862C139.766 246.849 139.456 248.827 139.043 250.786ZM135.529 250.044C135.858 248.185 136.111 246.317 136.274 244.446C136.434 242.579 136.495 240.705 136.459 238.832C136.398 235.145 135.872 231.48 134.894 227.924C133.955 224.438 132.491 221.146 130.497 218.502C129.553 217.229 128.422 216.105 127.143 215.169C125.952 214.299 124.594 213.686 123.155 213.367C121.715 213.048 120.225 213.031 118.778 213.316C117.207 213.625 115.691 214.168 114.282 214.928C111.321 216.493 108.561 218.886 106.208 221.684C103.802 224.544 101.768 227.699 100.156 231.072C99.3339 232.78 98.6078 234.533 97.9815 236.323C97.3713 238.122 96.8425 239.956 96.3919 241.811C95.9413 243.667 95.6409 245.566 95.3937 247.444C95.1522 249.339 95.0091 251.245 94.965 253.155C94.8753 256.956 95.2632 260.753 96.1196 264.457C97.0302 268.109 98.4697 271.636 100.613 274.571C101.663 276.01 102.93 277.277 104.368 278.326C105.778 279.324 107.374 280.026 109.062 280.391C110.749 280.706 112.482 280.674 114.157 280.298C115.877 279.891 117.523 279.221 119.038 278.311C122.114 276.433 124.755 273.748 126.968 270.757C129.168 267.706 130.98 264.394 132.362 260.896C133.072 259.148 133.69 257.364 134.215 255.552C134.734 253.737 135.179 251.903 135.529 250.044Z" fill="#242569"/>
<path d="M104.544 289.523C104.563 289.407 104.622 289.302 104.71 289.226C104.799 289.15 104.912 289.108 105.029 289.106C105.445 289.106 107.601 290.737 111.428 290.687C115.255 290.637 118.312 290.148 120.259 291.262C122.205 292.376 114.839 295.922 112.401 296.617C109.963 297.311 102.109 301.902 100.716 302.18C99.324 302.459 96.9614 302.737 96.2667 302.18C95.572 301.623 96.5452 292.583 97.4495 291.472C98.3539 290.361 104.544 289.523 104.544 289.523Z" fill="#272B4C"/>
<path d="M70.9137 290.393C70.9137 290.393 70.1564 299.664 71.5395 300.916C76.2678 301.82 79.1654 299.161 81.8315 298.065C87.8459 296.222 93.6037 293.343 93.9667 292.711C94.7083 291.413 92.9685 291.075 83.9532 290.674C83.9532 290.674 80.5454 290.067 79.4659 289.094C78.3863 288.121 78.5271 287.658 78.2455 287.564C77.3442 287.52 76.4521 287.761 75.6951 288.252C74.3589 289.1 70.9137 290.393 70.9137 290.393Z" fill="#272B4C"/>
<path d="M131.812 119.684L140.458 122.5C140.502 122.514 140.543 122.538 140.578 122.569C140.613 122.601 140.641 122.639 140.66 122.682C140.679 122.725 140.688 122.771 140.688 122.818C140.688 122.865 140.677 122.911 140.658 122.954L138.264 128.183C138.227 128.262 138.161 128.324 138.079 128.355C137.997 128.386 137.906 128.384 137.826 128.348L129.177 124.525C129.135 124.505 129.097 124.478 129.066 124.443C129.035 124.408 129.011 124.368 128.997 124.324C128.982 124.279 128.977 124.233 128.982 124.187C128.987 124.14 129.001 124.096 129.024 124.055L131.424 119.85C131.459 119.781 131.517 119.727 131.588 119.697C131.659 119.667 131.738 119.662 131.812 119.684V119.684Z" fill="#4BB762"/>
<path d="M128.757 146.761L125.049 144.383L123.194 143.19L122.255 142.596L121.792 142.299L121.648 142.202C121.598 142.161 121.548 142.12 121.501 142.076C121.407 141.982 121.324 141.877 121.254 141.763C121.113 141.538 121.032 141.281 121.019 141.016C121.014 140.882 121.027 140.748 121.056 140.618C121.07 140.552 121.089 140.487 121.113 140.424L121.182 140.261L121.651 139.266L122.59 137.273L124.467 133.283L128.222 125.307L130.1 121.32L130.569 120.322C130.654 120.129 130.751 119.942 130.86 119.762C131.015 119.542 131.226 119.368 131.471 119.258C131.71 119.149 131.974 119.102 132.237 119.124C132.365 119.135 132.491 119.16 132.613 119.199L132.876 119.283L133.927 119.63L138.126 120.97L140.226 121.643L140.489 121.724C140.523 121.724 140.598 121.761 140.655 121.786C140.715 121.811 140.774 121.839 140.83 121.871C141.057 122.001 141.249 122.183 141.39 122.403C141.532 122.624 141.617 122.876 141.637 123.138C141.658 123.399 141.612 123.662 141.506 123.902L137.751 131.885L133.996 139.861L132.118 143.851L131.18 145.844L131.061 146.091C131.005 146.207 130.938 146.318 130.86 146.42C130.694 146.625 130.479 146.785 130.234 146.886C129.996 146.985 129.738 147.025 129.481 147.003C129.224 146.982 128.976 146.898 128.757 146.761V146.761ZM129.524 145.569C129.55 145.582 129.579 145.589 129.609 145.589C129.638 145.589 129.667 145.582 129.693 145.569C129.716 145.557 129.736 145.541 129.753 145.522V145.522V145.497L129.868 145.246L130.807 143.247L132.675 139.232C133.301 137.902 133.902 136.563 134.531 135.236L136.437 131.262L138.342 127.288L139.281 125.301L139.757 124.306L140.245 123.332C140.262 123.3 140.27 123.265 140.27 123.229C140.27 123.193 140.262 123.158 140.245 123.126C140.228 123.084 140.202 123.047 140.17 123.016C140.17 123.016 140.154 122.997 140.142 122.991C140.123 122.978 140.103 122.967 140.082 122.96L139.826 122.86L137.788 122.04C136.421 121.495 135.044 120.973 133.648 120.516L132.6 120.175L132.337 120.09C132.285 120.072 132.23 120.06 132.175 120.056C132.068 120.046 131.96 120.063 131.862 120.106C131.767 120.148 131.685 120.214 131.624 120.297C131.58 120.353 131.489 120.563 131.411 120.719L130.942 121.727C130.316 123.052 129.69 124.381 129.064 125.714L127.209 129.713L125.384 133.724L123.56 137.739L122.662 139.742L122.205 140.743C122.193 140.769 122.182 140.795 122.174 140.822C122.174 140.84 122.174 140.859 122.174 140.875C122.17 140.909 122.17 140.944 122.174 140.978C122.183 141.049 122.21 141.117 122.252 141.175C122.274 141.205 122.299 141.233 122.327 141.257L122.374 141.291L122.449 141.338L122.921 141.626C123.234 141.817 123.547 142.004 123.86 142.186L125.766 143.3C127.021 144.032 128.272 144.802 129.524 145.572V145.569Z" fill="#242569"/>
<path d="M134.119 129.522L129.666 127.737C129.496 127.669 129.303 127.751 129.235 127.921L129.164 128.099C129.096 128.269 129.179 128.462 129.349 128.53L133.801 130.314C133.971 130.383 134.165 130.3 134.233 130.13L134.304 129.953C134.372 129.783 134.289 129.59 134.119 129.522Z" fill="#DDDDDD"/>
<path d="M134.289 132.217L128.777 129.697C128.61 129.621 128.413 129.694 128.337 129.861L128.234 130.085C128.158 130.252 128.232 130.449 128.398 130.525L133.911 133.045C134.077 133.122 134.274 133.048 134.35 132.882L134.453 132.657C134.529 132.49 134.456 132.293 134.289 132.217Z" fill="#DDDDDD"/>
<path d="M130.608 133.297L127.694 131.964C127.528 131.888 127.331 131.961 127.255 132.128L127.197 132.253C127.121 132.42 127.195 132.617 127.361 132.693L130.275 134.025C130.442 134.101 130.639 134.028 130.715 133.861L130.772 133.736C130.848 133.57 130.775 133.373 130.608 133.297Z" fill="#DDDDDD"/>
<path d="M129.667 135.355L126.752 134.023C126.586 133.946 126.389 134.02 126.313 134.186C126.237 134.353 126.31 134.55 126.477 134.626L129.391 135.958C129.557 136.035 129.754 135.961 129.83 135.795C129.907 135.628 129.833 135.431 129.667 135.355Z" fill="#DDDDDD"/>
<path d="M130.162 138.008L125.889 135.829C125.726 135.746 125.526 135.811 125.443 135.974L125.394 136.069C125.311 136.232 125.376 136.431 125.539 136.515L129.813 138.694C129.976 138.777 130.176 138.712 130.259 138.549L130.307 138.454C130.39 138.291 130.326 138.092 130.162 138.008Z" fill="#DDDDDD"/>
<path d="M130.609 140.951L124.758 137.967C124.595 137.884 124.395 137.949 124.312 138.112L124.219 138.293C124.136 138.456 124.201 138.656 124.364 138.739L130.215 141.723C130.378 141.807 130.578 141.742 130.661 141.579L130.754 141.397C130.837 141.234 130.772 141.034 130.609 140.951Z" fill="#DDDDDD"/>
<path d="M136.323 125.454L132.657 123.985C132.487 123.917 132.294 123.999 132.226 124.169C132.158 124.339 132.24 124.532 132.411 124.601L136.076 126.07C136.246 126.138 136.439 126.055 136.507 125.885C136.576 125.715 136.493 125.522 136.323 125.454Z" fill="white"/>
<path d="M106.509 164.497C106.438 164.535 106.383 164.597 106.354 164.671C106.326 164.746 106.325 164.829 106.352 164.904C106.928 166.444 109.885 174.07 112.817 176.316C116.084 178.82 118.728 175.412 119.285 174.367C119.842 173.322 125.124 163.59 125.891 160.808C126.658 158.026 131.837 148.848 135.87 146.589C136.994 145.882 138.921 131.944 138.339 130.004C137.92 128.611 135.836 131.324 135.764 136.053C135.836 137.883 133.749 138.728 133.123 139.426C132.134 140.296 130.341 143.563 130.131 145.162C129.962 146.47 127.002 145.325 125.91 144.849C125.864 144.829 125.814 144.819 125.763 144.821C125.713 144.824 125.664 144.837 125.62 144.862C125.576 144.886 125.538 144.92 125.509 144.961C125.48 145.002 125.461 145.05 125.453 145.099C125.318 145.935 125.024 147.75 124.918 148.279C124.777 148.973 122.274 153.773 120.953 154.747L114.526 160.217L114.466 160.257L106.509 164.497Z" fill="#F48A65"/>
<path opacity="0.4" d="M106.509 164.497C106.438 164.535 106.383 164.597 106.354 164.671C106.326 164.746 106.325 164.829 106.352 164.904C106.928 166.444 109.885 174.07 112.817 176.316C113.452 176.84 114.234 177.152 115.055 177.208C115.103 177.21 115.151 177.201 115.195 177.183C115.239 177.164 115.279 177.136 115.312 177.101C115.345 177.066 115.369 177.024 115.384 176.978C115.399 176.932 115.404 176.884 115.399 176.836C114.794 171.834 113.215 166.999 110.752 162.604C110.709 162.529 110.638 162.473 110.554 162.45C110.471 162.426 110.381 162.435 110.304 162.476L106.509 164.497Z" fill="#000"/>
<path d="M63.9449 151.408C61.2382 156.975 51.9412 175.725 43.4923 187.932C43.4548 187.989 43.3999 188.032 43.3358 188.054C42.3971 188.414 34.815 191.515 36.9021 198.381C38.5168 203.61 43.242 201.707 44.8128 200.903C44.8677 200.881 44.9152 200.844 44.9499 200.796C44.9846 200.749 45.0051 200.692 45.009 200.633C45.013 200.574 45.0002 200.515 44.9721 200.463C44.944 200.411 44.9018 200.369 44.8504 200.34C44.389 200.03 44.0071 199.615 43.7353 199.13C43.4635 198.646 43.3095 198.104 43.2858 197.548C43.195 195.358 46.415 194.967 48.2049 194.776C48.2694 194.77 48.3306 194.745 48.3802 194.704C48.6649 194.469 49.5724 193.559 50.0418 191.121C50.0508 191.08 50.0667 191.041 50.0887 191.005L62.8967 171.291C62.9276 171.245 62.9459 171.193 62.9498 171.138L64.5583 151.589C64.5597 151.517 64.5372 151.446 64.4943 151.387C64.4514 151.328 64.3904 151.285 64.3208 151.265C64.2511 151.244 64.1766 151.247 64.1087 151.273C64.0408 151.299 63.9833 151.346 63.9449 151.408V151.408Z" fill="#F48A65"/>
<path opacity="0.4" d="M61.1692 157.009C58.6095 162.955 54.7324 173.481 54.6761 182.838C54.6715 182.913 54.6927 182.988 54.7362 183.05C54.7797 183.112 54.8429 183.158 54.9156 183.179C54.9882 183.2 55.0659 183.197 55.1361 183.168C55.2063 183.14 55.2647 183.088 55.3019 183.022L62.9247 171.285C62.9556 171.239 62.974 171.186 62.9779 171.131L63.0123 170.718V170.699L63.3503 154.08C63.351 154.006 63.3266 153.933 63.281 153.874C63.2355 153.815 63.1714 153.773 63.0991 153.755C63.0268 153.737 62.9505 153.744 62.8825 153.774C62.8146 153.805 62.7589 153.858 62.7245 153.924C62.277 154.828 61.7638 155.858 61.1943 156.99L61.1692 157.009Z" fill="#000"/>
<path d="M96.8926 282.432C97.3213 284.219 97.6686 289.172 97.4778 291.219C97.4682 291.293 97.4857 291.368 97.527 291.431C97.5684 291.494 97.6309 291.539 97.7031 291.56C98.7107 291.873 102.475 292.849 104.431 289.707C104.464 289.655 104.482 289.594 104.482 289.532C104.482 289.47 104.464 289.409 104.431 289.357C104.055 288.731 102.913 286.227 103.711 279.656C104.653 271.861 96.3763 281.527 96.8926 282.432Z" fill="#F48A65"/>
<path d="M96.8926 282.432C97.3213 284.219 97.6686 289.172 97.4777 291.215C97.4675 291.291 97.4851 291.367 97.5271 291.431C97.5691 291.494 97.6328 291.54 97.7062 291.56C97.8783 291.616 98.138 291.691 98.4541 291.763C98.5081 291.774 98.5641 291.772 98.617 291.757C98.67 291.741 98.7183 291.713 98.7576 291.674C98.7969 291.635 98.8261 291.587 98.8425 291.535C98.8588 291.482 98.8619 291.426 98.8515 291.372C98.138 287.726 98.1255 282.976 98.1349 281.8C98.1314 281.725 98.1031 281.653 98.0543 281.597C98.0055 281.54 97.9391 281.501 97.8658 281.487L97.5216 281.418C97.453 281.405 97.3821 281.413 97.3187 281.443C97.2553 281.472 97.2026 281.52 97.168 281.581C96.927 281.984 96.8175 282.3 96.8926 282.432Z" fill="#885550"/>
<path d="M70.2064 277.75L71.0075 290.352C71.012 290.433 71.0464 290.51 71.1042 290.568C71.1619 290.626 71.2389 290.66 71.3204 290.665C72.4657 290.746 76.7152 290.818 78.2047 287.686C78.2362 287.618 78.245 287.543 78.2298 287.47C78.0358 286.59 76.7872 280.711 77.4287 278.598C78.0389 276.586 71.9557 277.222 70.4974 277.4C70.4134 277.41 70.3364 277.452 70.2823 277.517C70.2281 277.582 70.201 277.666 70.2064 277.75V277.75Z" fill="#F48A65"/>
<path d="M72.5157 277.876L72.6065 277.713C72.635 277.66 72.649 277.601 72.6471 277.542C72.6451 277.482 72.6272 277.424 72.5953 277.374C72.5634 277.323 72.5186 277.282 72.4656 277.255C72.4125 277.228 72.3531 277.215 72.2935 277.218C71.5206 277.272 70.8603 277.347 70.4942 277.394C70.4519 277.397 70.4107 277.408 70.373 277.428C70.3353 277.447 70.302 277.474 70.2751 277.507C70.2482 277.54 70.2282 277.578 70.2164 277.619C70.2046 277.659 70.2011 277.702 70.2063 277.744L71.0074 290.346C71.0074 290.429 71.0404 290.508 71.0991 290.567C71.1578 290.626 71.2374 290.658 71.3203 290.658C71.7216 290.681 72.1238 290.681 72.5251 290.658C72.5687 290.656 72.6114 290.645 72.6507 290.626C72.69 290.607 72.7252 290.581 72.7543 290.548C72.7834 290.516 72.8057 290.478 72.8201 290.436C72.8345 290.395 72.8406 290.352 72.838 290.308C72.5595 285.614 72.4782 278.871 72.4719 278.026C72.4736 277.973 72.4886 277.921 72.5157 277.876V277.876Z" fill="#885550"/>
<path d="M102.804 119.155C96.8926 123.12 95.015 127.638 95.015 127.638C94.7021 129.732 85.5773 132.87 83.9845 133.402C83.916 133.425 83.842 133.425 83.7737 133.402C83.7053 133.378 83.6464 133.334 83.6059 133.274C82.9415 132.286 82.3486 131.252 81.8316 130.179C80.5799 127.557 79.5003 123.977 81.5187 121.799C82.2478 121.007 82.7046 119.853 82.9675 118.529C83.7029 114.877 82.9957 109.917 82.5732 107.577C82.4887 107.107 82.4136 106.744 82.3667 106.513C82.3509 106.434 82.364 106.353 82.4037 106.283C82.4434 106.213 82.5069 106.161 82.5826 106.134L86.9166 104.601L88.356 104.091L104.888 98.2266C104.933 98.2103 104.981 98.2042 105.029 98.2086C105.077 98.2129 105.124 98.2277 105.166 98.2518C105.207 98.2759 105.243 98.3088 105.271 98.3482C105.299 98.3877 105.317 98.4326 105.326 98.48C105.417 98.9588 105.573 99.8694 105.736 101.059C105.839 101.819 105.945 102.692 106.049 103.64C106.171 104.942 106.265 106.378 106.28 107.846C106.302 112.411 105.617 117.271 102.804 119.155Z" fill="#F48A65"/>
<path opacity="0.6" d="M106.249 107.667C106.25 107.718 106.24 107.769 106.218 107.815C106.196 107.861 106.164 107.902 106.124 107.933C102.373 110.93 97.6537 112.448 92.859 112.202C82.5326 111.742 89.3324 105.292 90.0834 104.61C90.1263 104.572 90.1779 104.545 90.2336 104.532L105.367 101.124C105.412 101.114 105.458 101.114 105.503 101.123C105.548 101.132 105.591 101.15 105.629 101.177C105.667 101.203 105.698 101.237 105.722 101.277C105.746 101.316 105.761 101.36 105.767 101.406C105.855 102.075 105.942 102.823 106.021 103.628C106.136 104.879 106.23 106.256 106.249 107.667Z" fill="#000"/>
<path d="M95.6409 109.21C95.6335 110.211 95.499 111.207 95.2403 112.174C94.4862 114.915 92.3958 118.091 86.8196 118.585C85.6529 118.683 84.4799 118.674 83.3148 118.56C83.2691 118.555 83.2248 118.541 83.1848 118.519C83.1447 118.496 83.1097 118.465 83.0819 118.429C83.0541 118.392 83.034 118.35 83.0229 118.306C83.0119 118.261 83.01 118.215 83.0175 118.169C83.6434 114.624 82.9894 110.011 82.5795 107.689C82.5729 107.647 82.5579 107.607 82.5353 107.571C82.5127 107.535 82.483 107.504 82.448 107.48C82.1424 107.262 81.8537 107.021 81.5844 106.76C81.5306 106.71 81.4962 106.642 81.4874 106.569C81.3766 105.739 81.3118 104.903 81.2933 104.066V104.066C81.5718 103.552 81.8003 103.158 81.938 102.924C81.978 102.856 82.0411 102.804 82.1158 102.779C82.1904 102.754 82.2717 102.756 82.3448 102.786L86.9009 104.595L88.2277 105.12L89.2009 105.505L95.3968 107.962C95.4537 107.985 95.5033 108.023 95.5403 108.072C95.5772 108.121 95.6001 108.179 95.6064 108.24C95.6221 108.434 95.644 108.775 95.6409 109.21Z" fill="#000"/>
<path d="M106.077 240.988C104.547 266.301 104.547 278.539 104.446 280.845C103.717 281.944 100.444 282.748 98.1192 283.195L97.4933 283.314L97.2899 283.352L97.0427 283.396L96.8862 283.421L96.7329 283.449L96.5827 283.474H96.5295L96.3105 283.508L95.9631 283.561L95.8411 283.58L95.7096 283.599L94.8116 274.784C94.8116 274.784 89.8486 256.982 92.909 237.646C92.9258 237.589 92.9383 237.53 92.9465 237.471C92.9465 237.433 92.9465 237.396 92.9653 237.352C92.9638 237.344 92.9638 237.335 92.9653 237.327C92.9638 237.311 92.9638 237.296 92.9653 237.28C93.1437 235.434 90.7404 227.16 88.4592 221.737L88.4217 221.712C88.4217 221.712 86.9009 240.569 83.4681 248.777C80.0353 256.985 78.7398 275.826 78.8087 278.539C77.0501 278.755 74.5122 278.376 72.4689 277.96L72.3844 277.941L72.2185 277.907L71.9244 277.847L71.4393 277.738L71.1483 277.672L70.3629 277.484L70.1345 277.428L69.9248 277.375L69.737 277.325L69.2864 277.206L69.1644 277.171H69.1049H69.0799C69.0799 277.171 69.7777 274.042 69.2207 272.096C68.6637 270.15 67.0866 260.389 68.5949 254.015C68.6199 253.907 68.6449 253.794 68.67 253.677C70.0439 247.509 70.7986 241.22 70.923 234.902C70.9925 231.103 70.7833 227.305 70.2972 223.536C69.636 218.25 68.3047 213.069 66.3356 208.119C66.3356 208.119 71.1671 207.383 71.1796 207.374C71.3799 207.252 72.8131 206.373 73.5797 205.982L73.7456 205.897L73.9991 205.772L74.4278 205.562L74.8471 205.365L75.0348 205.277L75.2633 205.174L75.7921 204.936L76.0299 204.833C76.4273 204.658 76.8373 204.486 77.2566 204.314L77.7666 204.104L78.5458 203.791L78.8087 203.688L79.2061 203.534H79.2405L79.6129 203.394L79.7474 203.344L79.8257 203.312C80.3733 203.106 80.9334 202.902 81.4998 202.686L82.1945 202.442L83.0018 202.164L83.8217 201.885L84.1065 201.791L84.6416 201.613L85.4708 201.341L85.9465 201.188L86.6255 200.972L87.0135 200.85L87.4829 200.703L87.9523 200.555L88.7628 200.308L89.1915 200.177L89.9174 199.958C90.6851 199.728 91.4414 199.506 92.1861 199.291L92.5867 199.175L93.2125 199L93.6005 198.891L94.4141 198.659L95.1088 198.468L95.4781 198.365L96.0664 198.205L96.1571 198.18L96.9238 197.971C101.305 196.791 104.396 196.059 104.396 196.059C104.396 196.059 107.601 215.676 106.077 240.988Z" fill="#4A457B"/>
<path d="M81.5029 121.796C78.6866 127.15 86.0434 134.175 95.0149 127.638C107.463 131.256 110.282 133.271 116.225 160.182C115.083 166.159 105.933 166.068 105.933 166.068C105.933 166.068 104.769 159.628 102.265 156.846C102.265 156.846 98.8388 185.635 107.185 195.924C107.185 195.924 101.899 203.021 87.1574 201.072C72.4156 199.122 66.9927 139.877 66.9927 139.877C66.9927 139.877 72.0902 120.963 81.5029 121.796Z" fill="#55CAA9"/>
<path opacity="0.3" d="M101.58 239.84C101.536 254.253 98.0691 272.384 98.1192 283.202L97.4933 283.32L97.2899 283.358L97.0427 283.402L96.8862 283.427L96.7329 283.455L96.5827 283.48H96.5295L96.3105 283.514L95.9631 283.568L95.8411 283.586L95.7096 283.605L94.8116 274.784C94.8116 274.784 89.8486 256.982 92.909 237.646C92.9258 237.589 92.9383 237.53 92.9465 237.471C92.9465 237.433 92.9465 237.396 92.9653 237.352C92.9638 237.344 92.9638 237.335 92.9653 237.327C92.9638 237.311 92.9638 237.296 92.9653 237.28C93.1437 235.434 90.7404 227.16 88.4592 221.737C87.3703 219.14 86.3063 217.197 85.5647 216.928C85.5647 216.928 75.1944 231.253 76.3053 253.784C76.3053 257.955 72.8287 264.63 72.8287 268.525C72.8287 268.525 72.3875 274.365 72.4689 277.96L72.3844 277.941L72.2185 277.907L71.9244 277.847L71.4393 277.738L71.1483 277.672L70.3629 277.484L70.1345 277.428L69.9248 277.375L69.737 277.325L69.2864 277.206L69.1644 277.171H69.1049H69.0799C69.0799 277.171 69.7777 274.042 69.2207 272.096C68.6637 270.149 67.0866 260.389 68.5949 254.015C68.6199 253.907 68.6449 253.794 68.67 253.677C70.0439 247.509 70.7986 241.22 70.923 234.902C70.9925 231.103 70.7833 227.305 70.2972 223.536C69.636 218.25 68.3047 213.069 66.3356 208.119C66.3356 208.119 75.185 205.209 75.2633 205.174L75.7921 204.936C75.8703 204.902 76.8373 204.486 77.2566 204.31C77.4256 204.239 78.283 203.897 78.5458 203.794L78.8087 203.691L79.2061 203.538L79.7474 203.334C79.7725 203.334 83.5495 201.982 83.8154 201.888L84.6353 201.616L85.4646 201.344L85.9402 201.191L86.6192 200.975C86.7507 200.934 93.2469 186.533 93.5035 186.465C93.6569 187.403 95.6032 200.158 95.766 201.188C97.6279 212.985 101.611 229.754 101.58 239.84Z" fill="#000"/>
<path d="M81.5031 121.799C72.6411 122.613 68.498 138.418 67.3808 143.56C67.1649 144.564 67.0679 145.162 67.0679 145.162L66.7206 141.685C66.8747 139.405 67.1547 137.135 67.5592 134.885C70.9951 116.11 81.5031 121.799 81.5031 121.799Z" fill="#55CAA9"/>
<path opacity="0.4" d="M81.5031 121.799C72.6411 122.613 68.498 138.418 67.3808 143.56C67.1649 144.564 67.0679 145.162 67.0679 145.162L66.7206 141.685C66.8747 139.405 67.1547 137.135 67.5592 134.885C70.9951 116.11 81.5031 121.799 81.5031 121.799Z" fill="#000"/>
<path opacity="0.4" d="M102.265 156.846C104.484 159.872 105.933 166.068 105.933 166.068C107.989 166.043 110.024 165.65 111.941 164.907C108.095 156.793 102.372 152.215 102.265 156.846Z" fill="#000"/>
<path d="M119.144 96.9498C119.144 96.9498 112.085 99.1746 108.192 101.731C107.475 102.174 106.826 102.718 106.265 103.346L106.027 103.628C104.046 105.89 100.632 108.149 95.647 109.213C93.7105 109.616 91.7388 109.826 89.761 109.839C89.2159 109.839 88.6713 109.805 88.1306 109.736C87.8177 109.695 87.5048 109.645 87.2106 109.582C85.536 109.247 83.9519 108.559 82.5637 107.564C82.1864 107.303 81.8334 107.009 81.5092 106.685C81.3869 105.816 81.3169 104.94 81.2995 104.062V104.062C81.1274 98.117 82.6482 84.22 100.782 85.8253C102.068 85.9974 103.126 87.0614 103.886 88.1441C104.429 88.9262 104.883 89.7657 105.241 90.6475V90.6475C105.413 90.5442 111.03 87.2053 113.859 87.3149C114.486 87.3526 115.093 87.5485 115.624 87.8844C117.968 89.2706 120.036 93.0226 119.144 96.9498Z" fill="#F35C56"/>
<path d="M115.624 87.8781C115.624 87.8781 110.339 90.2751 107.926 93.7986C105.564 95.2349 105.238 90.6444 105.238 90.6444C105.41 90.5411 111.027 87.2022 113.856 87.3117C114.484 87.348 115.092 87.5428 115.624 87.8781V87.8781Z" fill="#8B3E48"/>
<path d="M89.2448 186.468C89.2448 186.468 99.3491 185.983 101.449 167.623C101.449 167.623 103.549 186.605 91.1943 193.142C79.7914 199.172 89.2448 186.468 89.2448 186.468Z" fill="#000"/>
<path d="M91.795 162.964C92.884 171.582 93.4097 178.776 93.5036 184.75C93.5411 187.3 93.5036 189.625 93.3909 191.744C93.2781 194.237 93.0138 196.721 92.5992 199.182C92.4647 199.97 92.3114 200.712 92.1486 201.41C91.9421 202.292 91.7137 203.103 91.4696 203.85C90.5778 206.401 87.7145 212.475 83.4494 213.958C80.9233 214.781 78.2568 215.083 75.6107 214.847C73.2263 214.607 70.9406 213.77 68.9642 212.415C62.8152 208.222 59.6798 199.36 59.1572 190.22C58.5313 179.267 60.5497 151.389 67.5529 134.882C69.9186 129.303 72.8538 125.025 76.4493 123.138C79.7193 121.145 81.503 121.796 81.503 121.796C81.503 121.796 70.7478 125.795 70.1908 145.628C70.1908 152.118 75.9799 153.11 75.9799 153.11L76.1364 153.151C77.2347 153.392 83.8718 154.365 87.436 143.588C91.0972 132.513 95.572 128.408 96.1009 127.957L96.1509 127.917C96.1509 127.917 98.7763 127.644 100.707 129.522L100.776 129.588C100.776 129.588 88.6157 139.404 91.795 162.964Z" fill="#02527E"/>
<path d="M60.703 179.386C62.4898 179.849 64.2265 180.425 65.957 181.02C67.6874 181.614 69.3991 182.256 71.1045 182.897C72.81 183.539 74.5091 184.224 76.1989 184.912C77.8887 185.601 79.5722 186.302 81.2558 187.025L79.9039 187.882C79.9728 186.005 80.1105 184.127 80.2732 182.249C80.4359 180.372 80.6424 178.526 80.8521 176.67C81.2871 172.959 81.7909 169.266 82.3416 165.571C82.3439 165.554 82.3495 165.538 82.3582 165.523C82.3669 165.508 82.3785 165.496 82.3923 165.486C82.4061 165.476 82.4217 165.469 82.4383 165.465C82.4548 165.461 82.472 165.461 82.4887 165.464V165.464L83.2553 165.693C83.3321 165.711 83.4074 165.735 83.4806 165.765C83.5201 165.776 83.5564 165.797 83.587 165.824C83.6089 165.855 83.587 165.88 83.587 165.912L83.5714 166.084L83.5401 166.431L83.4806 167.126L83.3649 168.512L83.1521 171.294L82.7766 176.852C82.6545 178.701 82.545 180.55 82.4636 182.397C82.3823 184.243 82.3197 186.08 82.2978 187.901C82.292 188.289 82.1326 188.658 81.8545 188.929C81.5764 189.199 81.2024 189.348 80.8145 189.343C80.616 189.342 80.4198 189.3 80.2388 189.218H80.2231C78.6209 188.395 76.9875 187.585 75.3603 186.79C73.7331 185.995 72.0902 185.21 70.4443 184.446C68.7983 183.683 67.1461 182.938 65.4782 182.231C63.8103 181.523 62.133 180.844 60.4245 180.275C60.305 180.24 60.2044 180.158 60.1448 180.049C60.0852 179.939 60.0716 179.811 60.1069 179.691C60.1421 179.572 60.2234 179.471 60.3329 179.412C60.4423 179.352 60.571 179.338 60.6905 179.374L60.703 179.386Z" fill="#000"/>
<path d="M60.5966 192.989C62.2739 193.23 63.9418 193.515 65.6034 193.821C67.265 194.128 68.9298 194.475 70.582 194.866C72.2342 195.258 73.8802 195.693 75.5074 196.24C76.3315 196.508 77.1401 196.822 77.9294 197.179C78.7784 197.539 79.5619 198.037 80.2482 198.653L80.4203 198.816L80.4359 199.094C80.5486 200.205 80.6018 201.285 80.6049 202.408C80.6165 203.524 80.5642 204.64 80.4485 205.75C80.3928 206.324 80.2998 206.894 80.17 207.455C80.1023 207.757 80.0145 208.054 79.9071 208.344L79.8164 208.576L79.7037 208.813C79.6662 208.892 79.6098 208.979 79.5629 209.061L79.5253 209.123L79.444 209.233C79.3872 209.298 79.3255 209.359 79.2594 209.414C79.0562 209.578 78.8188 209.695 78.5647 209.755C78.3813 209.802 78.1936 209.831 78.0045 209.84C77.6862 209.856 77.367 209.847 77.0501 209.812C76.4759 209.742 75.9064 209.637 75.3447 209.499C73.2028 208.948 71.1004 208.254 69.0518 207.421C67.0116 206.607 65.0088 205.731 63.0374 204.777C62.9754 204.746 62.9281 204.692 62.9058 204.626C62.8836 204.56 62.8881 204.489 62.9185 204.426C62.9462 204.37 62.9931 204.327 63.0505 204.302C63.108 204.278 63.1722 204.276 63.2314 204.295C65.2936 204.986 67.3652 205.665 69.4367 206.301C70.4798 206.624 71.5229 206.927 72.5659 207.208C73.6048 207.496 74.6469 207.753 75.6952 207.947C76.1964 208.047 76.7032 208.117 77.2128 208.156C77.4399 208.174 77.668 208.174 77.895 208.156C77.9777 208.149 78.0595 208.133 78.1391 208.109C78.1985 208.094 78.2173 208.066 78.1704 208.109C78.1556 208.119 78.1429 208.132 78.1328 208.147C78.1247 208.154 78.1173 208.163 78.1109 208.172V208.147C78.1297 208.109 78.1485 208.081 78.1704 208.037L78.2298 207.906L78.283 207.756C78.3601 207.532 78.4229 207.303 78.4708 207.07C78.5709 206.589 78.6492 206.075 78.7117 205.556C78.9464 203.469 79.0028 201.294 79.0935 199.15L79.2813 199.592C78.7296 199.056 78.0958 198.612 77.4037 198.277C76.6701 197.9 75.917 197.561 75.1476 197.263C73.5986 196.653 71.9964 196.14 70.3817 195.671C68.767 195.201 67.1367 194.776 65.4939 194.381C63.851 193.987 62.2051 193.624 60.5528 193.299C60.5113 193.292 60.4743 193.268 60.45 193.234C60.4256 193.2 60.4159 193.157 60.423 193.116C60.43 193.074 60.4533 193.037 60.4876 193.013C60.5219 192.988 60.5645 192.979 60.606 192.986L60.5966 192.989Z" fill="#000"/>
<path d="M82.8078 165.583C82.8078 165.583 66.0227 159.14 61.5666 159.556C61.5666 159.556 59.7579 173.115 59.7579 179.095L80.4109 186.468L82.8078 165.583Z" fill="url(#paint0_linear_1586_1033)"/>
<path d="M89.592 149.264C86.4127 150.932 89.5232 180.697 86.8915 196.897C86.8727 199.316 89.6609 200.696 90.6466 196.897C93.1375 173.003 88.6314 167.902 89.592 149.264Z" fill="url(#paint1_linear_1586_1033)"/>
<path d="M103.886 88.141C103.627 88.1629 91.5854 89.2769 89.1102 99.9163C88.7822 101.289 88.5273 102.678 88.3466 104.078C88.2997 104.441 88.2653 104.785 88.234 105.114C88.1776 105.74 88.1464 106.309 88.1307 106.851C88.0932 107.899 88.1307 108.819 88.1307 109.733C88.1307 110.168 88.1307 110.603 88.1307 111.047C88.0994 112.993 87.8741 115.146 86.8227 118.585C86.4785 119.718 86.0404 120.992 85.4928 122.444C84.6934 124.461 83.7781 126.43 82.7516 128.342C82.4386 128.937 82.1414 129.544 81.8347 130.176C79.6442 134.666 77.4538 140.471 76.1395 153.148C75.3822 160.432 74.9128 169.986 74.9066 182.875C74.9066 183.664 74.9066 184.468 74.9066 185.285C74.9191 188.831 74.9671 192.623 75.0505 196.659C75.1069 199.371 75.1799 202.212 75.2696 205.18C75.304 206.323 75.3415 207.48 75.3791 208.66C75.4479 210.669 75.5251 212.734 75.6107 214.856C73.2263 214.616 70.9406 213.78 68.9642 212.425C62.8152 208.231 59.6798 199.369 59.1572 190.229C58.5313 179.277 60.5497 151.398 67.5529 134.892C70.9951 116.116 81.503 121.805 81.503 121.805C82.2321 121.014 82.689 119.859 82.9518 118.535C83.6872 114.883 82.98 109.924 82.5575 107.583C82.1802 107.322 81.8272 107.028 81.503 106.704C81.3807 105.834 81.3107 104.959 81.2933 104.081V104.081C81.1212 98.1357 82.642 84.2388 100.776 85.8441C102.062 85.9943 103.12 87.0583 103.886 88.141Z" fill="#000" fill-opacity="0.35"/>
<path d="M37.8534 94.509C51.5012 94.509 62.5649 83.4453 62.5649 69.7975C62.5649 56.1497 51.5012 45.0859 37.8534 45.0859C24.2056 45.0859 13.1418 56.1497 13.1418 69.7975C13.1418 83.4453 24.2056 94.509 37.8534 94.509Z" fill="#E85C63"/>
<path d="M35.9195 89.1049C47.744 89.1049 57.3297 79.5192 57.3297 67.6947C57.3297 55.8702 47.744 46.2845 35.9195 46.2845C24.095 46.2845 14.5093 55.8702 14.5093 67.6947C14.5093 79.5192 24.095 89.1049 35.9195 89.1049Z" fill="white"/>
<path d="M31.4071 55.9913H27.8241V59.5743H31.4071V55.9913Z" fill="#3A862B"/>
<path d="M33.632 60.9386H29.6141V64.5215H33.632V60.9386Z" fill="#3A862B"/>
<path d="M44.6593 63.0477H37.9095V68.5583H44.6593V63.0477Z" fill="#3A862B"/>
<path d="M43.8896 68.8274H37.1399V74.338H43.8896V68.8274Z" fill="#3A862B"/>
<path d="M32.4554 68.6052H27.7772V74.6227H32.4554V68.6052Z" fill="#3A862B"/>
<path d="M35.134 78.0555H30.4558V84.073H35.134V78.0555Z" fill="#3A862B"/>
<path d="M29.7487 56.9739H22.5828V64.1398H29.7487V56.9739Z" fill="#74CA63"/>
<path d="M46.4336 57.0552H39.2677V64.2211H46.4336V57.0552Z" fill="#74CA63"/>
<path d="M51.9474 64.9754H47.2942V69.6285H51.9474V64.9754Z" fill="#74CA63"/>
<path d="M43.7237 74.8543H38.8109V81.7731H43.7237V74.8543Z" fill="#74CA63"/>
<path d="M30.578 73.3898H27.1921V77.3984H30.578V73.3898Z" fill="#74CA63"/>
<path d="M30.578 67.9763H27.1921V71.9848H30.578V67.9763Z" fill="#74CA63"/>
<path d="M39.0111 63.9521H32.5367V70.4265H39.0111V63.9521Z" fill="#74CA63"/>
<path d="M37.9097 54.7427H31.4354V61.8773H37.9097V54.7427Z" fill="#74CA63"/>
<path d="M31.4353 52.2675H27.5206V56.1822H31.4353V52.2675Z" fill="#74CA63"/>
<path d="M30.2776 64.9754H23.6843V69.1623H30.2776V64.9754Z" fill="#74CA63"/>
<path d="M34.5739 51.8795C34.3298 52.3301 35.0589 62.3781 35.0245 63.8332C34.9901 65.2883 40.6759 63.3481 40.6759 57.5278C40.6759 52.3645 34.7116 51.0816 34.5739 51.8795Z" fill="#CD7257"/>
<path d="M34.574 51.8791C34.5806 51.8519 34.5929 51.8264 34.6101 51.8044C34.6273 51.7823 34.649 51.7642 34.6738 51.7512C34.6485 51.7635 34.6263 51.7814 34.609 51.8035C34.5917 51.8257 34.5797 51.8516 34.574 51.8791V51.8791Z" fill="#A44D30"/>
<path d="M35.084 64.0679C35.0417 63.9971 35.021 63.9155 35.0246 63.8332C35.0195 63.9157 35.0403 63.9977 35.084 64.0679V64.0679Z" fill="#A44D30"/>
<path d="M34.6741 51.7512C35.4627 51.2662 40.6729 52.69 40.6729 57.5277C40.6729 62.9789 35.688 65.0379 35.0841 64.0678C35.7099 65.1662 41.233 64.0491 41.3425 57.7343C41.4145 52.327 35.519 51.2098 34.6741 51.7512Z" fill="#A44D30"/>
<path d="M37.3721 53.337L35.2709 55.0385L35.7061 55.5759L37.8073 53.8745L37.3721 53.337Z" fill="#A44D30"/>
<path d="M39.8077 54.1609L34.3457 58.584L34.7809 59.1214L40.2429 54.6984L39.8077 54.1609Z" fill="#A44D30"/>
<path d="M39.1391 58.3881L35.1801 61.5941L35.6153 62.1315L39.5743 58.9255L39.1391 58.3881Z" fill="#A44D30"/>
<path d="M50.5988 69.0621C50.1701 68.8712 40.8731 69.9477 39.5213 69.9821C38.1695 70.0165 40.2692 74.8699 45.6765 74.6134C50.4736 74.3849 51.3466 69.156 50.5988 69.0621Z" fill="#CD7257"/>
<path d="M50.5986 69.0621C50.6241 69.0658 50.6484 69.075 50.6699 69.089C50.6915 69.103 50.7097 69.1215 50.7234 69.1432C50.7096 69.1216 50.6913 69.1032 50.6697 69.0892C50.6482 69.0752 50.624 69.066 50.5986 69.0621V69.0621Z" fill="#A44D30"/>
<path d="M39.3052 70.0447C39.3701 70.0044 39.4448 69.9827 39.5212 69.9821C39.4448 69.9829 39.3702 70.0045 39.3052 70.0447Z" fill="#A44D30"/>
<path d="M50.7238 69.156C51.2182 69.8225 50.1606 74.4131 45.6764 74.6259C40.6133 74.8668 38.4479 70.6236 39.3053 70.0572C38.3196 70.6549 39.6495 75.4019 45.5199 75.2079C50.5455 75.0295 51.2714 69.8538 50.7238 69.156Z" fill="#A44D30"/>
<path d="M48.9245 71.9598L47.2316 70.2105L47.7104 69.8069L49.4002 71.5561L48.9245 71.9598Z" fill="#A44D30"/>
<path d="M48.2862 74.1158L43.8896 69.5628L44.3653 69.1591L48.765 73.7122L48.2862 74.1158Z" fill="#A44D30"/>
<path d="M44.3247 73.7246L41.1391 70.4264L41.6147 70.0228L44.8034 73.321L44.3247 73.7246Z" fill="#A44D30"/>
<path d="M36.4577 74.338C36.4577 74.338 38.9611 77.0948 37.9629 81.773" stroke="#2C1816" stroke-width="1.56461" stroke-miterlimit="10"/>
<path d="M33.995 72.1913C34.9801 72.1913 35.7787 71.645 35.7787 70.971C35.7787 70.2969 34.9801 69.7505 33.995 69.7505C33.0099 69.7505 32.2114 70.2969 32.2114 70.971C32.2114 71.645 33.0099 72.1913 33.995 72.1913Z" fill="#25283A"/>
<path d="M32.9842 70.9709C32.5962 71.2838 29.2291 80.49 28.6252 81.773C28.0213 83.056 33.632 83.3376 35.9319 78.165C37.9785 73.5682 33.416 70.3106 32.9842 70.9709Z" fill="#CD7257"/>
<path d="M32.9842 70.9707C32.9998 70.9487 33.0197 70.9301 33.0428 70.9162C33.0659 70.9022 33.0916 70.8931 33.1183 70.8896C33.0916 70.893 33.0658 70.9019 33.0427 70.9159C33.0196 70.9299 32.9997 70.9485 32.9842 70.9707Z" fill="#A44D30"/>
<path d="M28.5816 82.0046C28.5747 81.9248 28.5899 81.8448 28.6254 81.773C28.5877 81.844 28.5724 81.9247 28.5816 82.0046V82.0046Z" fill="#A44D30"/>
<path d="M33.1187 70.8896C33.9824 70.7394 37.8439 73.8655 35.935 78.165C33.7696 83.0185 28.719 83.0717 28.5845 82.0046C28.6877 83.2062 33.8228 84.17 36.4075 78.5843C38.6262 73.7966 34.0512 70.7206 33.1187 70.8896Z" fill="#A44D30"/>
<path d="M34.9433 73.8905L32.4837 74.6572L32.3241 74.0251L34.7868 73.2553L34.9433 73.8905Z" fill="#A44D30"/>
<path d="M36.6924 75.4896L30.29 77.4891L30.1335 76.8539L36.5328 74.8543L36.6924 75.4896Z" fill="#A44D30"/>
<path d="M34.4487 79.0162L29.8081 80.465L29.6516 79.8298L34.2891 78.3809L34.4487 79.0162Z" fill="#A44D30"/>
<path d="M24.842 74.2222C25.9896 74.2222 26.9198 73.1519 26.9198 71.8315C26.9198 70.5111 25.9896 69.4408 24.842 69.4408C23.6945 69.4408 22.7642 70.5111 22.7642 71.8315C22.7642 73.1519 23.6945 74.2222 24.842 74.2222Z" fill="#EB604D"/>
<path d="M31.0161 69.6316C31.9995 69.6316 32.7967 68.8345 32.7967 67.8511C32.7967 66.8677 31.9995 66.0706 31.0161 66.0706C30.0328 66.0706 29.2356 66.8677 29.2356 67.8511C29.2356 68.8345 30.0328 69.6316 31.0161 69.6316Z" fill="#EB604D"/>
<path d="M30.0898 66.4805C29.6548 66.1957 19.1781 65.4197 17.6761 65.1787C16.1741 64.9378 17.4884 70.4171 23.5059 71.2494C28.8443 71.9911 30.8971 66.7246 30.0898 66.4805Z" fill="#CD7257"/>
<path d="M30.0898 66.4805C30.1433 66.4995 30.1871 66.5389 30.2118 66.59C30.1868 66.5391 30.1431 66.4998 30.0898 66.4805V66.4805Z" fill="#A44D30"/>
<path d="M17.4257 65.2006C17.5061 65.1728 17.5921 65.1653 17.6761 65.1787C17.5922 65.1631 17.5056 65.1707 17.4257 65.2006V65.2006Z" fill="#A44D30"/>
<path d="M30.2118 66.59C30.6154 67.3848 28.497 71.9441 23.5058 71.2494C17.8732 70.4702 16.3618 65.6168 17.4257 65.2006C16.2147 65.6199 16.6966 70.8332 23.2117 71.8221C28.7848 72.6764 30.6624 67.4443 30.2118 66.59Z" fill="#A44D30"/>
<path d="M27.6395 69.1529L26.1375 66.9874L26.7477 66.6682L28.2497 68.8337L27.6395 69.1529Z" fill="#A44D30"/>
<path d="M26.488 71.2682L22.5828 65.6356L23.193 65.3133L27.0982 70.9459L26.488 71.2682Z" fill="#A44D30"/>
<path d="M22.1979 70.0509L19.3691 65.9704L19.9793 65.6481L22.8112 69.7286L22.1979 70.0509Z" fill="#A44D30"/>
<path d="M24.2663 60.5444C25.185 60.9404 26.0685 61.4136 26.9074 61.9588C27.8461 62.6441 29.1448 64.3495 29.1448 64.3495C29.1448 64.3495 30.5185 62.1058 28.2655 60.2377C26.2815 58.5823 24.2663 60.5444 24.2663 60.5444Z" fill="#CD7257"/>
<path d="M24.2663 60.5443C24.2663 60.5443 26.8041 59.2926 28.3343 60.6194C29.8645 61.9462 29.1635 64.3526 29.1635 64.3526C29.1635 64.3526 30.7501 61.2234 28.7317 59.8653C26.7134 58.5072 24.2663 60.5443 24.2663 60.5443Z" fill="#A44D30"/>
<path d="M42.7631 65.7796C43.6986 65.4134 44.6639 65.1286 45.6483 64.9284C46.7998 64.75 48.9183 65.0567 48.9183 65.0567C48.9183 65.0567 48.3206 62.4939 45.4042 62.7473C42.8163 62.9695 42.7631 65.7796 42.7631 65.7796Z" fill="#CD7257"/>
<path d="M42.7631 65.7796C42.7631 65.7796 43.7019 63.1166 45.7077 62.982C47.7136 62.8475 48.9183 65.0567 48.9183 65.0567C48.9183 65.0567 47.8481 61.7084 45.4605 62.1653C43.0729 62.6222 42.7631 65.7796 42.7631 65.7796Z" fill="#A44D30"/>
<path d="M44.2276 77.3233C43.2349 76.9234 42.2781 76.4397 41.3675 75.8776C40.3411 75.1735 38.9204 73.3898 38.9204 73.3898C38.9204 73.3898 37.5154 75.815 39.9625 77.7489C42.1373 79.4824 44.2276 77.3233 44.2276 77.3233Z" fill="#CD7257"/>
<path d="M44.2276 77.3233C44.2276 77.3233 41.5584 78.7095 39.8999 77.3452C38.2414 75.9808 38.9205 73.3898 38.9205 73.3898C38.9205 73.3898 37.3089 76.7694 39.4931 78.1588C41.6773 79.5482 44.2276 77.3233 44.2276 77.3233Z" fill="#A44D30"/>
<path d="M24.235 76.591C25.2455 76.3839 26.293 76.4518 27.2684 76.7876C28.2437 77.1233 29.1111 77.7146 29.78 78.4999" stroke="#2C1816" stroke-width="0.938769" stroke-miterlimit="10"/>
<path d="M38.7419 70.5986C38.7419 70.5986 41.6678 67.9794 46.4242 68.4425" stroke="#2C1816" stroke-width="1.87754" stroke-miterlimit="10"/>
<path d="M31.1819 60.0405C31.1819 60.0405 33.2566 63.3137 30.869 68.2391" stroke="#2C1816" stroke-width="1.56461" stroke-miterlimit="10"/>
<path d="M24.8032 79.5225C25.327 79.0983 25.249 78.1339 24.6291 77.3683C24.0092 76.6027 23.082 76.326 22.5582 76.7502C22.0344 77.1743 22.1123 78.1388 22.7322 78.9043C23.3522 79.6699 24.2794 79.9467 24.8032 79.5225Z" fill="#25283A"/>
<path d="M23.5242 60.5399C24.1532 59.7817 24.2425 58.8182 23.7238 58.3879C23.2051 57.9575 22.2747 58.2233 21.6457 58.9814C21.0167 59.7396 20.9274 60.703 21.4461 61.1334C21.9648 61.5637 22.8952 61.298 23.5242 60.5399Z" fill="#25283A"/>
<path d="M34.9344 57.2281C35.5633 56.4699 35.6527 55.5064 35.134 55.0761C34.6152 54.6457 33.6848 54.9115 33.0559 55.6696C32.4269 56.4278 32.3375 57.3912 32.8562 57.8216C33.375 58.2519 34.3054 57.9862 34.9344 57.2281Z" fill="#25283A"/>
<path d="M44.6152 63.7417C45.1989 63.4047 45.2728 62.4399 44.7803 61.5868C44.2877 60.7337 43.4153 60.3153 42.8316 60.6523C42.2478 60.9893 42.1739 61.9541 42.6665 62.8072C43.159 63.6603 44.0315 64.0787 44.6152 63.7417Z" fill="#25283A"/>
<path d="M28.4032 55.6221H25.8748V58.3257H28.4032V55.6221Z" fill="#FAE185"/>
<path d="M36.5641 64.8376H33.7759V67.6258H36.5641V64.8376Z" fill="#FAE185"/>
<path d="M22.6891 69.4188H20.192V71.916H22.6891V69.4188Z" fill="#FAE185"/>
<path d="M48.2736 78.4154C49.257 78.4154 50.0542 77.6182 50.0542 76.6349C50.0542 75.6515 49.257 74.8543 48.2736 74.8543C47.2903 74.8543 46.4931 75.6515 46.4931 76.6349C46.4931 77.6182 47.2903 78.4154 48.2736 78.4154Z" fill="#EB604D"/>
<path d="M58.8255 18.7128L58.2936 19.2448C55.4053 22.1331 51.1589 22.3928 47.8388 19.2448C46.3289 17.8057 45.4322 15.8397 45.3354 13.7561C45.2681 12.595 45.4459 11.4326 45.8572 10.3447C46.2686 9.25671 46.9043 8.26751 47.723 7.44135C48.5653 6.67073 49.6735 6.25681 50.8147 6.28667C52.3964 6.33626 53.919 6.89979 55.1518 7.89196C56.6069 8.99345 57.5426 9.7695 58.1027 10.2733C58.6128 10.7302 58.8255 10.9523 58.8255 10.9523C59.8528 11.9824 60.4297 13.3778 60.4297 14.8326C60.4297 16.2874 59.8528 17.6828 58.8255 18.7128V18.7128Z" fill="#E45B62"/>
<path d="M58.8255 18.7128L58.2935 19.2448C55.4053 22.1331 51.1589 22.3928 47.8388 19.2448C46.3289 17.8057 45.4322 15.8397 45.3354 13.7561C47.2974 16.7039 50.7552 18.9851 54.5072 16.9855C57.6552 15.3082 58.2278 12.4794 58.1026 10.2733C58.6127 10.7302 58.8255 10.9523 58.8255 10.9523C59.8528 11.9824 60.4297 13.3778 60.4297 14.8326C60.4297 16.2873 59.8528 17.6827 58.8255 18.7128V18.7128Z" fill="#C4373E"/>
<path d="M57.2858 11.1463C57.2858 11.1463 58.6063 11.8223 58.2934 12.5013C57.9805 13.1803 53.9125 12.5357 52.5231 9.84145C52.1413 9.07792 55.9465 10.1012 55.9465 10.1012L57.2858 11.1463Z" fill="#9D0100"/>
<path d="M52.8799 9.86023C52.7418 8.71165 52.3972 7.59748 51.8629 6.57141C52.7394 7.18001 53.4261 8.02396 53.8437 9.00595C53.8437 9.00595 54.7825 8.44895 54.7825 6.57141C55.0085 7.29023 55.1028 8.04395 55.061 8.79629C55.4531 8.55188 55.7891 8.2273 56.0469 7.84385C56.3046 7.4604 56.4784 7.02677 56.5568 6.57141C56.7983 7.83078 56.8866 9.11475 56.8196 10.3953C57.8694 10.0956 58.9456 9.89754 60.0333 9.8039C60.0333 9.8039 58.1996 10.7521 57.6989 11.5782H54.5384L53.0583 10.048L52.8799 9.86023Z" fill="#059D55"/>
<path d="M53.1302 8.69301C53.0645 9.16953 53.0645 9.65281 53.1302 10.1293L54.5384 11.5782H56.322L57.1388 10.5486C57.1388 10.5486 55.3676 10.6707 55.0359 11.0869L55.4177 9.83518C55.4177 9.83518 54.166 9.96035 54.0784 10.2044C53.9285 9.31449 53.8938 8.40896 53.9751 7.51016C53.9751 7.51016 53.2523 8.10159 53.1302 8.69301Z" fill="#1C4340"/>
<path d="M40.5101 118.041C40.5101 118.041 42.1436 114.336 45.5701 115.415C45.5701 115.415 45.7078 118.51 41.4677 118.335L40.5101 118.041Z" fill="#59A749"/>
<path d="M39.6245 117.69C39.6245 117.69 38.6169 115.5 39.7622 114.198C39.7622 114.198 42.1279 115.606 40.8762 117.831L39.6245 117.69Z" fill="#74CA63"/>
<path d="M37.6062 132.035C41.8818 132.035 45.3479 128.569 45.3479 124.293C45.3479 120.017 41.8818 116.551 37.6062 116.551C33.3305 116.551 29.8644 120.017 29.8644 124.293C29.8644 128.569 33.3305 132.035 37.6062 132.035Z" fill="#FEA500"/>
<path d="M45.3511 124.293C45.3511 125.703 44.9657 127.087 44.2367 128.294C43.5076 129.502 42.4626 130.487 41.2144 131.144C39.9662 131.801 38.5624 132.104 37.1544 132.021C35.7464 131.938 34.3878 131.472 33.2253 130.674C42.0028 128.633 43.774 122.813 44.1151 120.103C44.9242 121.35 45.3536 122.806 45.3511 124.293Z" fill="#D56500"/>
<path d="M161.777 35.6263C156.476 33.9271 152.139 28.742 153.641 20.9189C154.58 16.0623 156.999 14.0096 158.701 13.149C158.826 13.0864 158.954 13.027 159.07 12.9769C159.529 12.7672 160.014 12.6219 160.513 12.5451C160.397 13.077 160.291 13.5934 160.2 14.094C157.33 29.6181 166.493 30.9105 169.481 31.6177C170.731 31.9376 172.048 31.8887 173.271 31.4769C173.717 31.3312 174.138 31.1203 174.522 30.8511L174.879 31.746L174.979 31.9964C174.727 32.3781 174.41 32.7119 174.041 32.9821C171.725 34.8283 166.192 37.0469 161.777 35.6263Z" fill="#F9EA4A"/>
<path d="M161.777 35.6272C156.476 33.928 152.139 28.7429 153.641 20.9198C154.58 16.0632 156.999 14.0105 158.701 13.1499C158.701 13.1499 155.012 19.8903 157.165 25.4635C159.318 31.0366 163.21 33.1144 167.332 33.4962C170.652 33.8091 173.781 32.3478 174.87 31.7688L174.97 32.0192C174.718 32.4009 174.4 32.7347 174.031 33.0049C171.725 34.8292 166.193 37.0479 161.777 35.6272Z" fill="#E17818"/>
<path d="M174.016 33.0165L173.261 31.5019C173.707 31.3562 174.129 31.1453 174.513 30.8761L174.97 32.0214C174.714 32.4078 174.391 32.7449 174.016 33.0165V33.0165Z" fill="#252839"/>
<path d="M160.191 14.1065C159.783 13.7665 159.406 13.3928 159.061 12.9894C159.52 12.7797 160.005 12.6343 160.504 12.5576C160.388 13.0895 160.281 13.6058 160.191 14.1065Z" fill="#252839"/>
<path d="M180.978 119.713C181.804 119.929 182.777 120.633 183.86 122.123C184.548 123.043 184.98 124.448 185.193 126.103C185.769 130.591 184.764 136.927 183.065 140.526C181.335 144.221 176.844 147.247 171.95 147.936C167.569 148.562 164.193 146.459 163.586 143.733C163.51 143.41 163.476 143.079 163.486 142.748C163.551 140.804 165.923 138.076 165.923 138.076C166.753 137.073 167.885 136.364 169.149 136.054C171.165 135.619 172.804 135.575 175.004 133.892C177.204 132.208 177.31 129.758 177.454 128.688C177.493 128.118 177.503 127.547 177.483 126.976C177.464 125.362 177.458 123.118 178.005 121.585C178.249 120.934 178.685 120.374 179.257 119.979C179.437 119.864 179.633 119.775 179.839 119.716C179.856 118.718 179.795 117.72 179.654 116.731C179.653 116.716 179.657 116.701 179.666 116.689C179.674 116.676 179.686 116.667 179.7 116.662C179.714 116.657 179.73 116.657 179.744 116.661C179.758 116.666 179.771 116.675 179.779 116.687C180.323 117.633 180.727 118.652 180.978 119.713V119.713Z" fill="#7443CE"/>
<path d="M180.978 119.712C181.804 119.928 182.777 120.632 183.86 122.121C184.549 123.041 184.98 124.446 185.193 126.102L184.042 125.445L182.956 126.609L182.073 125.432L181.213 126.734L180.318 125.56L179.151 126.968L178.168 126.155L177.483 126.981C177.464 125.366 177.458 123.123 178.005 121.589C178.299 120.838 178.944 119.978 179.845 119.712C179.863 118.713 179.801 117.715 179.661 116.727C179.66 116.712 179.664 116.697 179.672 116.684C179.68 116.672 179.692 116.662 179.707 116.657C179.721 116.652 179.736 116.652 179.751 116.657C179.765 116.661 179.777 116.67 179.786 116.683C180.328 117.629 180.729 118.65 180.978 119.712Z" fill="#00A86F"/>
<path opacity="0.3" d="M180.978 119.712C181.804 119.928 182.777 120.632 183.86 122.121C184.548 123.041 184.98 124.446 185.193 126.102C185.769 130.589 184.764 136.926 183.065 140.524C181.335 144.22 176.844 147.246 171.95 147.934C167.569 148.56 164.193 146.457 163.586 143.732C168.233 144.12 176.084 142.94 180.365 135.962C182.665 132.082 181.479 122.584 179.263 119.978C179.443 119.862 179.639 119.773 179.845 119.715C179.863 118.717 179.801 117.718 179.661 116.73C179.66 116.715 179.664 116.7 179.672 116.687C179.68 116.675 179.692 116.665 179.706 116.66C179.721 116.655 179.736 116.655 179.75 116.66C179.765 116.664 179.777 116.674 179.786 116.686C180.327 117.632 180.729 118.651 180.978 119.712V119.712Z" fill="#000"/>
<defs>
<linearGradient id="paint0_linear_1586_1033" x1="72.6785" y1="162.704" x2="69.5024" y2="182.08" gradientUnits="userSpaceOnUse">
<stop offset="0.04" stop-color="#0479AB"/>
<stop offset="0.14" stop-color="#0470A1"/>
<stop offset="0.41" stop-color="#03608E"/>
<stop offset="0.68" stop-color="#025582"/>
<stop offset="0.95" stop-color="#02527E"/>
</linearGradient>
<linearGradient id="paint1_linear_1586_1033" x1="89.7078" y1="172.702" x2="88.6752" y2="205.428" gradientUnits="userSpaceOnUse">
<stop stop-color="#0479AB"/>
<stop offset="0.3" stop-color="#036594"/>
<stop offset="0.61" stop-color="#025784"/>
<stop offset="0.84" stop-color="#02527E"/>
</linearGradient>
</defs>
</svg>
