<svg width="91" height="103" viewBox="0 0 91 103" fill="none" xmlns="http://www.w3.org/2000/svg">
<path d="M78 90.125H71.5V92.0361C71.5 95.5902 70.5013 98.4233 68.5039 100.536C66.5065 102.648 64.0859 103.402 61.2422 102.799L10.2578 92.8408C7.41406 92.3044 4.99349 90.5944 2.99609 87.7109C0.998698 84.8275 0 81.6087 0 78.0547V12.875C0 9.32096 1.26953 6.28662 3.80859 3.77197C6.34766 1.25732 9.41146 0 13 0H78C81.5885 0 84.6523 1.25732 87.1914 3.77197C89.7305 6.28662 91 9.32096 91 12.875V77.25C91 80.804 89.7305 83.8384 87.1914 86.353C84.6523 88.8677 81.5885 90.125 78 90.125ZM13 41.9443C13 45.029 14.0156 47.8454 16.0469 50.3936C16.3177 50.7959 17.0456 51.4329 18.2305 52.3047C19.4154 53.1764 20.4648 54.0985 21.3789 55.0708C22.293 56.0431 22.75 56.9987 22.75 57.9375V70.8125C22.75 71.8184 23.8164 72.7404 25.9492 73.5786C28.082 74.4168 31.349 75.3724 35.75 76.4453C38.3906 77.1159 40.6758 77.3674 42.6055 77.1997C44.5352 77.0321 46.0417 76.6465 47.125 76.043C48.2083 75.4395 48.75 74.7689 48.75 74.0312V61.1562C48.75 60.2174 49.207 59.3289 50.1211 58.4907C51.0352 57.6525 52.1185 56.8981 53.3711 56.2275C54.6237 55.557 55.3516 55.1211 55.5547 54.9199C55.8932 54.6517 56.3841 54.3499 57.0273 54.0146C57.6706 53.6794 58.0768 53.3273 58.2461 52.9585C58.4154 52.5897 58.5 51.9359 58.5 50.9971C58.5 47.9795 57.5182 45.1966 55.5547 42.6484C53.5911 40.1003 51.2552 38.5579 48.5469 38.0215C46.8542 37.6862 45.263 37.8538 43.7734 38.5244C41.7422 35.1045 39.0508 33.0592 35.6992 32.3887C32.3477 31.7181 29.6901 32.6904 27.7266 35.3057C26.1693 34.0986 24.5781 33.3275 22.9531 32.9922C20.1771 32.4557 17.8242 33.0592 15.8945 34.8027C13.9648 36.5462 13 38.9268 13 41.9443ZM84.5 17.502C84.5 14.4173 83.3997 11.8021 81.1992 9.65625C78.9987 7.51042 76.375 6.4375 73.3281 6.4375H26.1016L61.2422 13.2773C64.0859 13.8809 66.5065 15.6243 68.5039 18.5078C70.5013 21.3913 71.5 24.5765 71.5 28.0635V83.6875H73.3281C76.375 83.6875 78.9987 82.5978 81.1992 80.4185C83.3997 78.2391 84.5 75.6406 84.5 72.623V17.502Z" fill="#27D87B"/>
</svg>
