<svg width="74" height="18" viewBox="0 0 74 18" fill="none" xmlns="http://www.w3.org/2000/svg">
<path d="M12.5518 15H11.5414V15.2969C11.5414 15.849 11.3862 16.2891 11.0757 16.6172C10.7652 16.9453 10.389 17.0625 9.94695 16.9688L2.022 15.4219C1.57997 15.3385 1.20372 15.0729 0.893245 14.625C0.582772 14.1771 0.427536 13.6771 0.427536 13.125V3C0.427536 2.44792 0.62487 1.97656 1.01954 1.58594C1.41421 1.19531 1.89044 1 2.44824 1H12.5518C13.1096 1 13.5858 1.19531 13.9805 1.58594C14.3751 1.97656 14.5725 2.44792 14.5725 3V13C14.5725 13.5521 14.3751 14.0234 13.9805 14.4141C13.5858 14.8047 13.1096 15 12.5518 15ZM2.44824 7.51562C2.44824 7.99479 2.60611 8.43229 2.92184 8.82812C2.96394 8.89062 3.07708 8.98958 3.26126 9.125C3.44544 9.26042 3.60857 9.40365 3.75065 9.55469C3.89273 9.70573 3.96377 9.85417 3.96377 10V12C3.96377 12.1562 4.12953 12.2995 4.46105 12.4297C4.79257 12.5599 5.30038 12.7083 5.98447 12.875C6.39493 12.9792 6.75013 13.0182 7.05008 12.9922C7.35003 12.9661 7.5842 12.9062 7.75259 12.8125C7.92098 12.7188 8.00518 12.6146 8.00518 12.5V10.5C8.00518 10.3542 8.07622 10.2161 8.2183 10.0859C8.36038 9.95573 8.52877 9.83854 8.72347 9.73438C8.91818 9.63021 9.03131 9.5625 9.06289 9.53125C9.11551 9.48958 9.19181 9.44271 9.2918 9.39062C9.39178 9.33854 9.45493 9.28385 9.48124 9.22656C9.50755 9.16927 9.5207 9.06771 9.5207 8.92188C9.5207 8.45312 9.3681 8.02083 9.06289 7.625C8.75768 7.22917 8.39458 6.98958 7.9736 6.90625C7.71049 6.85417 7.46316 6.88021 7.23163 6.98438C6.91589 6.45312 6.49754 6.13542 5.97658 6.03125C5.45562 5.92708 5.04253 6.07812 4.73732 6.48438C4.49526 6.29688 4.24793 6.17708 3.99534 6.125C3.56384 6.04167 3.19811 6.13542 2.89816 6.40625C2.59821 6.67708 2.44824 7.04688 2.44824 7.51562ZM13.5621 3.71875C13.5621 3.23958 13.3911 2.83333 13.049 2.5C12.707 2.16667 12.2992 2 11.8256 2H4.48473L9.94695 3.0625C10.389 3.15625 10.7652 3.42708 11.0757 3.875C11.3862 4.32292 11.5414 4.81771 11.5414 5.35938V14H11.8256C12.2992 14 12.707 13.8307 13.049 13.4922C13.3911 13.1536 13.5621 12.75 13.5621 12.2812V3.71875Z" fill="#27D87B"/>
<path d="M28.0045 14.084C27.1738 14.084 26.4318 13.9207 25.7785 13.594C25.1345 13.258 24.6258 12.8007 24.2525 12.222C23.8885 11.6433 23.7065 10.9807 23.7065 10.234V4.2H26.5065V10.108C26.5065 10.416 26.5718 10.6913 26.7025 10.934C26.8331 11.1673 27.0105 11.354 27.2345 11.494C27.4678 11.6247 27.7245 11.69 28.0045 11.69C28.3125 11.69 28.5831 11.6247 28.8165 11.494C29.0498 11.354 29.2365 11.1673 29.3765 10.934C29.5165 10.6913 29.5865 10.416 29.5865 10.108V4.2H32.3025V10.234C32.3025 10.9807 32.1158 11.6433 31.7425 12.222C31.3785 12.8007 30.8745 13.258 30.2305 13.594C29.5865 13.9207 28.8445 14.084 28.0045 14.084ZM34.4353 14V6.538H36.8713L36.9833 8.05L36.4513 8.218C36.5446 7.86333 36.7266 7.55067 36.9973 7.28C37.2679 7 37.5899 6.78067 37.9633 6.622C38.3366 6.46333 38.7286 6.384 39.1393 6.384C39.6993 6.384 40.1706 6.50067 40.5533 6.734C40.9453 6.958 41.2393 7.29867 41.4353 7.756C41.6406 8.204 41.7433 8.75467 41.7433 9.408V14H39.1393V9.618C39.1393 9.37533 39.1019 9.17467 39.0273 9.016C38.9526 8.848 38.8406 8.722 38.6913 8.638C38.5419 8.554 38.3646 8.51667 38.1593 8.526C38.0006 8.526 37.8513 8.54933 37.7113 8.596C37.5806 8.64267 37.4639 8.71733 37.3613 8.82C37.2586 8.91333 37.1793 9.02067 37.1233 9.142C37.0766 9.26333 37.0533 9.39867 37.0533 9.548V14H35.7513C35.4339 14 35.1633 14 34.9393 14C34.7246 14 34.5566 14 34.4353 14ZM43.7638 14V4.2H48.2018C48.8924 4.2 49.4758 4.298 49.9518 4.494C50.4371 4.69 50.8058 4.96533 51.0578 5.32C51.3098 5.67467 51.4358 6.09467 51.4358 6.58C51.4358 7.15867 51.3004 7.63933 51.0298 8.022C50.7591 8.40467 50.3671 8.66133 49.8538 8.792L49.8118 8.526C50.2411 8.62867 50.6144 8.79667 50.9318 9.03C51.2584 9.254 51.5104 9.534 51.6878 9.87C51.8651 10.1967 51.9538 10.5747 51.9538 11.004C51.9538 11.508 51.8604 11.9467 51.6738 12.32C51.4964 12.6933 51.2398 13.006 50.9038 13.258C50.5771 13.51 50.1944 13.6967 49.7558 13.818C49.3264 13.9393 48.8551 14 48.3418 14H43.7638ZM46.3538 11.774H48.2578C48.4724 11.774 48.6498 11.7413 48.7898 11.676C48.9391 11.6013 49.0511 11.494 49.1258 11.354C49.2098 11.214 49.2518 11.046 49.2518 10.85C49.2518 10.6633 49.2098 10.5093 49.1258 10.388C49.0418 10.2667 48.9204 10.1733 48.7618 10.108C48.6031 10.0333 48.4118 9.996 48.1878 9.996H46.3538V11.774ZM46.3538 8.078H47.7538C47.9778 8.078 48.1644 8.04533 48.3138 7.98C48.4631 7.91467 48.5751 7.82133 48.6498 7.7C48.7244 7.56933 48.7618 7.42 48.7618 7.252C48.7618 7 48.6778 6.79933 48.5098 6.65C48.3418 6.50067 48.0758 6.426 47.7118 6.426H46.3538V8.078ZM53.6895 14V4.2H58.2115C58.8742 4.2 59.4669 4.33533 59.9895 4.606C60.5122 4.87667 60.9182 5.24533 61.2075 5.712C61.5062 6.17867 61.6555 6.71533 61.6555 7.322C61.6555 7.97533 61.5062 8.554 61.2075 9.058C60.9182 9.562 60.5122 9.95867 59.9895 10.248C59.4669 10.528 58.8742 10.668 58.2115 10.668H56.2935V14H53.6895ZM58.9395 14L56.4475 9.576L59.2895 9.226L62.0615 14H58.9395ZM56.2935 8.68H57.8335C58.0762 8.68 58.2769 8.63333 58.4355 8.54C58.6035 8.43733 58.7295 8.302 58.8135 8.134C58.9069 7.95667 58.9535 7.75133 58.9535 7.518C58.9535 7.294 58.9069 7.10267 58.8135 6.944C58.7202 6.776 58.5802 6.65 58.3935 6.566C58.2162 6.47267 57.9922 6.426 57.7215 6.426H56.2935V8.68ZM67.7623 14.084C66.9316 14.084 66.1896 13.9207 65.5363 13.594C64.8923 13.258 64.3836 12.8007 64.0103 12.222C63.6463 11.6433 63.4643 10.9807 63.4643 10.234V4.2H66.2643V10.108C66.2643 10.416 66.3296 10.6913 66.4603 10.934C66.5909 11.1673 66.7683 11.354 66.9923 11.494C67.2256 11.6247 67.4823 11.69 67.7623 11.69C68.0703 11.69 68.3409 11.6247 68.5743 11.494C68.8076 11.354 68.9943 11.1673 69.1343 10.934C69.2743 10.6913 69.3443 10.416 69.3443 10.108V4.2H72.0603V10.234C72.0603 10.9807 71.8736 11.6433 71.5003 12.222C71.1363 12.8007 70.6323 13.258 69.9883 13.594C69.3443 13.9207 68.6023 14.084 67.7623 14.084Z" fill="#27D87B"/>
</svg>
