<svg width="24" height="24" viewBox="0 0 24 24" fill="none" xmlns="http://www.w3.org/2000/svg">
<path d="M7.5 20.5L7.12789 21.1512L7.13811 21.157L7.14851 21.1625L7.5 20.5ZM13 20.5L13.3354 21.1708L13.354 21.1615L13.3721 21.1512L13 20.5ZM5.3 12.75H16.5V11.25H5.3V12.75ZM16.5 12C16.6773 12.7287 16.677 12.7288 16.6768 12.7289C16.6767 12.7289 16.6764 12.729 16.6762 12.729C16.6759 12.7291 16.6757 12.7291 16.6754 12.7292C16.675 12.7293 16.6747 12.7294 16.6745 12.7294C16.6743 12.7295 16.6747 12.7294 16.6758 12.7291C16.678 12.7286 16.6827 12.7275 16.69 12.726C16.7044 12.7229 16.7284 12.7181 16.7606 12.7123C16.8253 12.7008 16.9212 12.6861 17.0372 12.6754C17.2756 12.6536 17.5691 12.6516 17.8448 12.71C18.1188 12.768 18.329 12.875 18.4715 13.0349C18.6056 13.1853 18.7501 13.4608 18.7501 14H20.2501C20.2501 13.1742 20.0196 12.5172 19.5912 12.0366C19.1711 11.5655 18.6313 11.3432 18.1554 11.2425C17.6809 11.1421 17.2245 11.152 16.9003 11.1817C16.7351 11.1969 16.5966 11.2179 16.4972 11.2356C16.4474 11.2445 16.4069 11.2526 16.3774 11.2589C16.3627 11.2621 16.3506 11.2648 16.3414 11.2669C16.3368 11.2679 16.333 11.2688 16.3298 11.2696C16.3283 11.2699 16.3269 11.2703 16.3257 11.2705C16.3251 11.2707 16.3245 11.2708 16.324 11.2709C16.3238 11.271 16.3234 11.2711 16.3233 11.2711C16.323 11.2712 16.3227 11.2713 16.5 12ZM12.6646 19.8292C12.5372 19.8929 12.2338 19.9739 11.7527 20.0327C11.297 20.0884 10.756 20.1159 10.2104 20.1142C9.6647 20.1124 9.1304 20.0815 8.68833 20.0251C8.2147 19.9647 7.94278 19.8859 7.85149 19.8375L7.14851 21.1625C7.50123 21.3497 8.01382 21.4512 8.49844 21.513C9.01462 21.5789 9.61233 21.6123 10.2056 21.6142C10.799 21.616 11.404 21.5865 11.9346 21.5217C12.4397 21.4599 12.9628 21.3571 13.3354 21.1708L12.6646 19.8292ZM7.87211 19.8488C6.43595 19.0281 5.70282 18.16 5.29718 17.1722C4.87573 16.1458 4.77483 14.9179 4.75501 13.2918L3.25512 13.3101C3.27502 14.9421 3.36954 16.4268 3.90961 17.742C4.46548 19.0957 5.45996 20.198 7.12789 21.1512L7.87211 19.8488ZM13.3721 21.1512C15.0191 20.2101 16.0102 19.123 16.5702 17.7906L15.1874 17.2094C14.7791 18.1809 14.0471 19.0378 12.6279 19.8488L13.3721 21.1512ZM16.5702 17.7906C17.2623 16.1441 17.25 14.1992 17.25 12H15.75C15.75 14.2966 15.7377 15.9001 15.1874 17.2094L16.5702 17.7906ZM18.7501 14C18.7501 14.9754 18.1174 15.6508 17.3086 16.1277C16.9132 16.3608 16.5112 16.5228 16.2043 16.6266C16.0522 16.6781 15.9267 16.7141 15.8413 16.7369C15.7987 16.7482 15.7664 16.7562 15.746 16.761C15.7358 16.7634 15.7287 16.7651 15.7247 16.766C15.7228 16.7664 15.7216 16.7667 15.7213 16.7667C15.7211 16.7668 15.7212 16.7668 15.7214 16.7667C15.7216 16.7667 15.7217 16.7666 15.722 16.7666C15.7221 16.7666 15.7223 16.7665 15.7224 16.7665C15.7226 16.7664 15.7229 16.7664 15.8788 17.5C16.0348 18.2336 16.0351 18.2335 16.0354 18.2335C16.0355 18.2335 16.0358 18.2334 16.036 18.2333C16.0365 18.2332 16.037 18.2331 16.0375 18.233C16.0387 18.2328 16.04 18.2325 16.0416 18.2321C16.0448 18.2314 16.0488 18.2305 16.0537 18.2295C16.0634 18.2273 16.0766 18.2242 16.093 18.2204C16.1256 18.2126 16.1711 18.2013 16.2275 18.1863C16.3402 18.1563 16.4976 18.1109 16.685 18.0475C17.0571 17.9216 17.5604 17.7205 18.0704 17.4199C19.0722 16.8292 20.2501 15.7547 20.2501 14H18.7501ZM5.3 11.25C4.17168 11.25 3.24119 12.167 3.25512 13.3101L4.75501 13.2918C4.75144 12.999 4.99238 12.75 5.3 12.75V11.25Z" fill="black"/>
<path d="M6.4955 9.55496C6.80199 9.83359 7.27632 9.811 7.55496 9.5045C7.83359 9.19801 7.811 8.72368 7.5045 8.44504L6.4955 9.55496ZM7.5045 3.44504C7.19801 3.16641 6.72368 3.189 6.44504 3.4955C6.16641 3.80199 6.189 4.27632 6.4955 4.55496L7.5045 3.44504ZM9.99549 9.55496C10.302 9.83359 10.7763 9.811 11.055 9.5045C11.3336 9.19801 11.311 8.72368 11.0045 8.44504L9.99549 9.55496ZM11.0045 3.44505C10.698 3.16641 10.2237 3.189 9.94504 3.4955C9.66641 3.80199 9.689 4.27632 9.99549 4.55495L11.0045 3.44505ZM13.4955 9.55496C13.802 9.83359 14.2763 9.811 14.555 9.5045C14.8336 9.19801 14.811 8.72368 14.5045 8.44504L13.4955 9.55496ZM14.5045 3.44504C14.198 3.16641 13.7237 3.189 13.445 3.4955C13.1664 3.80199 13.189 4.27632 13.4955 4.55496L14.5045 3.44504ZM7 9C7.5045 8.44504 7.50477 8.44529 7.50504 8.44553C7.50512 8.44561 7.50539 8.44585 7.50556 8.44601C7.50591 8.44632 7.50625 8.44663 7.50658 8.44694C7.50724 8.44754 7.50787 8.44813 7.50848 8.44869C7.50969 8.44981 7.51079 8.45083 7.51179 8.45177C7.51378 8.45363 7.51534 8.45512 7.51649 8.45625C7.51881 8.45849 7.51953 8.45927 7.51888 8.45859C7.51755 8.45721 7.51085 8.45015 7.5004 8.43749C7.47936 8.41198 7.44433 8.36522 7.40716 8.29765C7.33436 8.16528 7.25 7.94762 7.25 7.63636H5.75C5.75 8.2342 5.91564 8.69836 6.09284 9.02053C6.18067 9.18023 6.27064 9.30393 6.34335 9.39206C6.37977 9.43621 6.41214 9.47177 6.43815 9.49879C6.45117 9.51232 6.46264 9.52375 6.47228 9.5331C6.4771 9.53777 6.48146 9.54193 6.48534 9.54557C6.48728 9.54739 6.4891 9.54908 6.4908 9.55065C6.49164 9.55143 6.49246 9.55218 6.49324 9.5529C6.49363 9.55326 6.49402 9.55361 6.49439 9.55395C6.49458 9.55412 6.49486 9.55437 6.49495 9.55446C6.49522 9.55471 6.4955 9.55496 7 9ZM7.25 7.63636C7.25 7.46438 7.33173 7.31589 7.6048 6.94352C7.83173 6.63407 8.25 6.10074 8.25 5.36364H6.75C6.75 5.53562 6.66827 5.68411 6.3952 6.05648C6.16827 6.36593 5.75 6.89926 5.75 7.63636H7.25ZM8.25 5.36364C8.25 4.7658 8.08436 4.30164 7.90716 3.97947C7.81933 3.81977 7.72936 3.69607 7.65665 3.60794C7.62023 3.56379 7.58786 3.52823 7.56185 3.50121C7.54883 3.48768 7.53736 3.47625 7.52772 3.4669C7.5229 3.46223 7.51854 3.45807 7.51466 3.45443C7.51272 3.45261 7.5109 3.45092 7.5092 3.44935C7.50836 3.44857 7.50754 3.44782 7.50676 3.4471C7.50637 3.44674 7.50598 3.44639 7.50561 3.44605C7.50542 3.44588 7.50514 3.44563 7.50505 3.44554C7.50478 3.44529 7.5045 3.44504 7 4C6.4955 4.55496 6.49523 4.55471 6.49496 4.55447C6.49488 4.55439 6.49461 4.55415 6.49444 4.55399C6.49409 4.55368 6.49375 4.55337 6.49342 4.55306C6.49276 4.55246 6.49213 4.55187 6.49152 4.55131C6.49031 4.55019 6.48921 4.54917 6.48821 4.54823C6.48622 4.54637 6.48466 4.54488 6.48351 4.54375C6.48119 4.54151 6.48047 4.54073 6.48112 4.54141C6.48245 4.54279 6.48915 4.54985 6.4996 4.56251C6.52064 4.58802 6.55567 4.63478 6.59284 4.70235C6.66564 4.83472 6.75 5.05238 6.75 5.36364H8.25ZM10.5 9C11.0045 8.44504 11.0048 8.44529 11.005 8.44553C11.0051 8.44561 11.0054 8.44585 11.0056 8.44601C11.0059 8.44632 11.0062 8.44663 11.0066 8.44694C11.0072 8.44754 11.0079 8.44813 11.0085 8.44869C11.0097 8.44981 11.0108 8.45083 11.0118 8.45177C11.0138 8.45363 11.0153 8.45512 11.0165 8.45625C11.0188 8.45849 11.0195 8.45927 11.0189 8.45859C11.0175 8.45721 11.0109 8.45015 11.0004 8.43749C10.9794 8.41198 10.9443 8.36522 10.9072 8.29765C10.8344 8.16528 10.75 7.94762 10.75 7.63636H9.25C9.25 8.2342 9.41564 8.69836 9.59284 9.02053C9.68067 9.18023 9.77064 9.30393 9.84334 9.39206C9.87977 9.43621 9.91214 9.47177 9.93815 9.49879C9.95117 9.51232 9.96264 9.52375 9.97227 9.5331C9.9771 9.53777 9.98146 9.54193 9.98534 9.54557C9.98728 9.54739 9.9891 9.54908 9.99079 9.55065C9.99164 9.55143 9.99246 9.55218 9.99324 9.5529C9.99363 9.55326 9.99402 9.55361 9.99439 9.55395C9.99458 9.55412 9.99486 9.55437 9.99495 9.55446C9.99522 9.55471 9.99549 9.55496 10.5 9ZM10.75 7.63636C10.75 7.46438 10.8317 7.31589 11.1048 6.94352C11.3317 6.63407 11.75 6.10074 11.75 5.36364H10.25C10.25 5.53562 10.1683 5.68411 9.8952 6.05648C9.66827 6.36593 9.25 6.89926 9.25 7.63636H10.75ZM11.75 5.36364C11.75 4.7658 11.5844 4.30164 11.4072 3.97947C11.3193 3.81977 11.2294 3.69607 11.1567 3.60794C11.1202 3.56379 11.0879 3.52823 11.0618 3.50121C11.0488 3.48768 11.0374 3.47625 11.0277 3.4669C11.0229 3.46223 11.0185 3.45807 11.0147 3.45443C11.0127 3.45261 11.0109 3.45092 11.0092 3.44935C11.0084 3.44857 11.0075 3.44782 11.0068 3.4471C11.0064 3.44674 11.006 3.44639 11.0056 3.44605C11.0054 3.44588 11.0051 3.44563 11.005 3.44554C11.0048 3.44529 11.0045 3.44505 10.5 4C9.99549 4.55495 9.99523 4.55471 9.99496 4.55447C9.99487 4.55439 9.99461 4.55415 9.99444 4.55399C9.99409 4.55368 9.99375 4.55337 9.99342 4.55306C9.99276 4.55246 9.99213 4.55187 9.99152 4.55131C9.99031 4.55019 9.98921 4.54917 9.98821 4.54823C9.98622 4.54637 9.98466 4.54488 9.98351 4.54375C9.98119 4.54151 9.98047 4.54073 9.98112 4.54141C9.98245 4.54279 9.98914 4.54985 9.99959 4.56251C10.0206 4.58802 10.0557 4.63478 10.0928 4.70235C10.1656 4.83472 10.25 5.05238 10.25 5.36364H11.75ZM14 9C14.5045 8.44504 14.5048 8.44529 14.505 8.44553C14.5051 8.44561 14.5054 8.44585 14.5056 8.44601C14.5059 8.44632 14.5062 8.44663 14.5066 8.44694C14.5072 8.44754 14.5079 8.44813 14.5085 8.44869C14.5097 8.44981 14.5108 8.45083 14.5118 8.45177C14.5138 8.45363 14.5153 8.45512 14.5165 8.45625C14.5188 8.45849 14.5195 8.45927 14.5189 8.45859C14.5176 8.45721 14.5109 8.45015 14.5004 8.43749C14.4794 8.41198 14.4443 8.36522 14.4072 8.29765C14.3344 8.16528 14.25 7.94762 14.25 7.63636H12.75C12.75 8.2342 12.9156 8.69836 13.0928 9.02053C13.1807 9.18023 13.2706 9.30393 13.3433 9.39206C13.3798 9.43621 13.4121 9.47177 13.4382 9.49879C13.4512 9.51232 13.4626 9.52375 13.4723 9.5331C13.4771 9.53777 13.4815 9.54193 13.4853 9.54557C13.4873 9.54739 13.4891 9.54908 13.4908 9.55065C13.4916 9.55143 13.4925 9.55218 13.4932 9.5529C13.4936 9.55326 13.494 9.55361 13.4944 9.55395C13.4946 9.55412 13.4949 9.55437 13.495 9.55446C13.4952 9.55471 13.4955 9.55496 14 9ZM14.25 7.63636C14.25 7.46438 14.3317 7.31589 14.6048 6.94352C14.8317 6.63407 15.25 6.10074 15.25 5.36364H13.75C13.75 5.53562 13.6683 5.68411 13.3952 6.05648C13.1683 6.36593 12.75 6.89926 12.75 7.63636H14.25ZM15.25 5.36364C15.25 4.7658 15.0844 4.30164 14.9072 3.97947C14.8193 3.81977 14.7294 3.69607 14.6567 3.60794C14.6202 3.56379 14.5879 3.52823 14.5619 3.50121C14.5488 3.48768 14.5374 3.47625 14.5277 3.4669C14.5229 3.46223 14.5185 3.45807 14.5147 3.45443C14.5127 3.45261 14.5109 3.45092 14.5092 3.44935C14.5084 3.44857 14.5075 3.44782 14.5068 3.4471C14.5064 3.44674 14.506 3.44639 14.5056 3.44605C14.5054 3.44588 14.5051 3.44563 14.5051 3.44554C14.5048 3.44529 14.5045 3.44504 14 4C13.4955 4.55496 13.4952 4.55471 13.495 4.55447C13.4949 4.55439 13.4946 4.55415 13.4944 4.55399C13.4941 4.55368 13.4938 4.55337 13.4934 4.55306C13.4928 4.55246 13.4921 4.55187 13.4915 4.55131C13.4903 4.55019 13.4892 4.54917 13.4882 4.54823C13.4862 4.54637 13.4847 4.54488 13.4835 4.54375C13.4812 4.54151 13.4805 4.54073 13.4811 4.54141C13.4825 4.54279 13.4891 4.54985 13.4996 4.56251C13.5206 4.58802 13.5557 4.63478 13.5928 4.70235C13.6656 4.83472 13.75 5.05238 13.75 5.36364H15.25Z" fill="black"/>
</svg>
