<svg width="24" height="24" viewBox="0 0 24 24" fill="none" xmlns="http://www.w3.org/2000/svg">
<path d="M7.50001 19.108H8.25001V18.6295L7.81608 18.4278L7.50001 19.108ZM3.057 12.9982L2.31201 13.0848L3.057 12.9982ZM19.9496 12.9984L20.6957 13.0755L19.9496 12.9984ZM15.5 19.108L15.2026 18.4195L14.75 18.615V19.108H15.5ZM7.99551 9.55496C8.302 9.83359 8.77633 9.811 9.05497 9.5045C9.3336 9.19801 9.31101 8.72368 9.00451 8.44504L7.99551 9.55496ZM9.00451 3.44504C8.69802 3.16641 8.22369 3.189 7.94505 3.4955C7.66642 3.80199 7.68901 4.27632 7.99551 4.55496L9.00451 3.44504ZM11.4955 9.55496C11.802 9.83359 12.2763 9.811 12.555 9.5045C12.8336 9.19801 12.811 8.72368 12.5045 8.44504L11.4955 9.55496ZM12.5045 3.44504C12.198 3.16641 11.7237 3.189 11.4451 3.4955C11.1664 3.80199 11.189 4.27632 11.4955 4.55496L12.5045 3.44504ZM14.9955 9.55496C15.302 9.83359 15.7763 9.811 16.055 9.5045C16.3336 9.19801 16.311 8.72368 16.0045 8.44504L14.9955 9.55496ZM16.0045 3.44504C15.698 3.16641 15.2237 3.189 14.9451 3.4955C14.6664 3.80199 14.689 4.27632 14.9955 4.55496L16.0045 3.44504ZM4.00001 12.75H19V11.25H4.00001V12.75ZM7.81608 18.4278C5.72123 17.4543 4.10625 15.531 3.802 12.9117L2.31201 13.0848C2.6822 16.2717 4.66347 18.6168 7.18394 19.7881L7.81608 18.4278ZM6.75001 19.108V19.5H8.25001V19.108H6.75001ZM8.50001 21.25H14.5V19.75H8.50001V21.25ZM19.2036 12.9212C18.9146 15.7155 17.3018 17.5127 15.2026 18.4195L15.7974 19.7965C18.3447 18.6962 20.3455 16.462 20.6957 13.0755L19.2036 12.9212ZM16.25 19.5V19.108H14.75V19.5H16.25ZM14.5 21.25C15.4665 21.25 16.25 20.4665 16.25 19.5H14.75C14.75 19.6381 14.6381 19.75 14.5 19.75V21.25ZM6.75001 19.5C6.75001 20.4665 7.53351 21.25 8.50001 21.25V19.75C8.36194 19.75 8.25001 19.6381 8.25001 19.5H6.75001ZM19 12.75C19.072 12.75 19.1297 12.7791 19.1649 12.8153C19.1967 12.8482 19.2077 12.8822 19.2036 12.9212L20.6957 13.0755C20.8037 12.0309 19.9421 11.25 19 11.25V12.75ZM4.00001 11.25C3.06059 11.25 2.18971 12.0318 2.31201 13.0848L3.802 12.9117C3.79786 12.8761 3.80705 12.8454 3.83714 12.8142C3.8709 12.7793 3.92798 12.75 4.00001 12.75V11.25ZM8.50001 9C9.00451 8.44504 9.00478 8.44529 9.00505 8.44553C9.00514 8.44561 9.0054 8.44585 9.00557 8.44601C9.00592 8.44632 9.00626 8.44663 9.00659 8.44694C9.00725 8.44754 9.00788 8.44813 9.00849 8.44869C9.0097 8.44981 9.0108 8.45083 9.0118 8.45177C9.01379 8.45363 9.01535 8.45512 9.0165 8.45625C9.01882 8.45849 9.01954 8.45927 9.01889 8.45859C9.01756 8.45721 9.01086 8.45015 9.00041 8.43749C8.97937 8.41198 8.94434 8.36522 8.90717 8.29765C8.83437 8.16528 8.75001 7.94762 8.75001 7.63636H7.25001C7.25001 8.2342 7.41565 8.69836 7.59285 9.02053C7.68068 9.18023 7.77065 9.30393 7.84336 9.39206C7.87978 9.43621 7.91215 9.47177 7.93816 9.49879C7.95118 9.51232 7.96265 9.52375 7.97229 9.5331C7.97711 9.53777 7.98147 9.54193 7.98535 9.54557C7.98729 9.54739 7.98911 9.54908 7.99081 9.55065C7.99165 9.55143 7.99247 9.55218 7.99325 9.5529C7.99364 9.55326 7.99403 9.55361 7.9944 9.55395C7.99459 9.55412 7.99487 9.55437 7.99496 9.55446C7.99523 9.55471 7.99551 9.55496 8.50001 9ZM8.75001 7.63636C8.75001 7.46438 8.83174 7.31589 9.10481 6.94352C9.33174 6.63407 9.75001 6.10074 9.75001 5.36364H8.25001C8.25001 5.53562 8.16828 5.68411 7.89521 6.05648C7.66828 6.36593 7.25001 6.89926 7.25001 7.63636H8.75001ZM9.75001 5.36364C9.75001 4.7658 9.58437 4.30164 9.40717 3.97947C9.31934 3.81977 9.22937 3.69607 9.15666 3.60794C9.12024 3.56379 9.08787 3.52823 9.06186 3.50121C9.04884 3.48768 9.03737 3.47625 9.02773 3.4669C9.02291 3.46223 9.01855 3.45807 9.01467 3.45443C9.01273 3.45261 9.01091 3.45092 9.00921 3.44935C9.00837 3.44857 9.00755 3.44782 9.00677 3.4471C9.00638 3.44674 9.00599 3.44639 9.00562 3.44605C9.00543 3.44588 9.00515 3.44563 9.00506 3.44554C9.00479 3.44529 9.00451 3.44504 8.50001 4C7.99551 4.55496 7.99524 4.55471 7.99497 4.55447C7.99489 4.55439 7.99462 4.55415 7.99445 4.55399C7.9941 4.55368 7.99376 4.55337 7.99343 4.55306C7.99277 4.55246 7.99214 4.55187 7.99153 4.55131C7.99032 4.55019 7.98922 4.54917 7.98822 4.54823C7.98623 4.54637 7.98467 4.54488 7.98352 4.54375C7.9812 4.54151 7.98048 4.54073 7.98113 4.54141C7.98246 4.54279 7.98916 4.54985 7.99961 4.56251C8.02065 4.58802 8.05568 4.63478 8.09285 4.70235C8.16565 4.83472 8.25001 5.05238 8.25001 5.36364H9.75001ZM12 9C12.5045 8.44504 12.5048 8.44529 12.505 8.44553C12.5051 8.44561 12.5054 8.44585 12.5056 8.44601C12.5059 8.44632 12.5063 8.44663 12.5066 8.44694C12.5072 8.44754 12.5079 8.44813 12.5085 8.44869C12.5097 8.44981 12.5108 8.45083 12.5118 8.45177C12.5138 8.45363 12.5153 8.45512 12.5165 8.45625C12.5188 8.45849 12.5195 8.45927 12.5189 8.45859C12.5176 8.45721 12.5109 8.45015 12.5004 8.43749C12.4794 8.41198 12.4443 8.36522 12.4072 8.29765C12.3344 8.16528 12.25 7.94762 12.25 7.63636H10.75C10.75 8.2342 10.9157 8.69836 11.0928 9.02053C11.1807 9.18023 11.2706 9.30393 11.3434 9.39206C11.3798 9.43621 11.4121 9.47177 11.4382 9.49879C11.4512 9.51232 11.4626 9.52375 11.4723 9.5331C11.4771 9.53777 11.4815 9.54193 11.4854 9.54557C11.4873 9.54739 11.4891 9.54908 11.4908 9.55065C11.4917 9.55143 11.4925 9.55218 11.4933 9.5529C11.4936 9.55326 11.494 9.55361 11.4944 9.55395C11.4946 9.55412 11.4949 9.55437 11.495 9.55446C11.4952 9.55471 11.4955 9.55496 12 9ZM12.25 7.63636C12.25 7.46438 12.3317 7.31589 12.6048 6.94352C12.8317 6.63407 13.25 6.10074 13.25 5.36364H11.75C11.75 5.53562 11.6683 5.68411 11.3952 6.05648C11.1683 6.36593 10.75 6.89926 10.75 7.63636H12.25ZM13.25 5.36364C13.25 4.7658 13.0844 4.30164 12.9072 3.97947C12.8193 3.81977 12.7294 3.69607 12.6567 3.60794C12.6202 3.56379 12.5879 3.52823 12.5619 3.50121C12.5488 3.48768 12.5374 3.47625 12.5277 3.4669C12.5229 3.46223 12.5185 3.45807 12.5147 3.45443C12.5127 3.45261 12.5109 3.45092 12.5092 3.44935C12.5084 3.44857 12.5076 3.44782 12.5068 3.4471C12.5064 3.44674 12.506 3.44639 12.5056 3.44605C12.5054 3.44588 12.5052 3.44563 12.5051 3.44554C12.5048 3.44529 12.5045 3.44504 12 4C11.4955 4.55496 11.4952 4.55471 11.495 4.55447C11.4949 4.55439 11.4946 4.55415 11.4944 4.55399C11.4941 4.55368 11.4938 4.55337 11.4934 4.55306C11.4928 4.55246 11.4921 4.55187 11.4915 4.55131C11.4903 4.55019 11.4892 4.54917 11.4882 4.54823C11.4862 4.54637 11.4847 4.54488 11.4835 4.54375C11.4812 4.54151 11.4805 4.54073 11.4811 4.54141C11.4825 4.54279 11.4892 4.54985 11.4996 4.56251C11.5206 4.58802 11.5557 4.63478 11.5928 4.70235C11.6657 4.83472 11.75 5.05238 11.75 5.36364H13.25ZM15.5 9C16.0045 8.44504 16.0048 8.44529 16.0051 8.44553C16.0051 8.44561 16.0054 8.44585 16.0056 8.44601C16.0059 8.44632 16.0063 8.44663 16.0066 8.44694C16.0073 8.44754 16.0079 8.44813 16.0085 8.44869C16.0097 8.44981 16.0108 8.45083 16.0118 8.45177C16.0138 8.45363 16.0153 8.45512 16.0165 8.45625C16.0188 8.45849 16.0195 8.45927 16.0189 8.45859C16.0176 8.45721 16.0109 8.45015 16.0004 8.43749C15.9794 8.41198 15.9443 8.36522 15.9072 8.29765C15.8344 8.16528 15.75 7.94762 15.75 7.63636H14.25C14.25 8.2342 14.4157 8.69836 14.5928 9.02053C14.6807 9.18023 14.7707 9.30393 14.8434 9.39206C14.8798 9.43621 14.9121 9.47177 14.9382 9.49879C14.9512 9.51232 14.9626 9.52375 14.9723 9.5331C14.9771 9.53777 14.9815 9.54193 14.9854 9.54557C14.9873 9.54739 14.9891 9.54908 14.9908 9.55065C14.9917 9.55143 14.9925 9.55218 14.9933 9.5529C14.9936 9.55326 14.994 9.55361 14.9944 9.55395C14.9946 9.55412 14.9949 9.55437 14.995 9.55446C14.9952 9.55471 14.9955 9.55496 15.5 9ZM15.75 7.63636C15.75 7.46438 15.8317 7.31589 16.1048 6.94352C16.3317 6.63407 16.75 6.10074 16.75 5.36364H15.25C15.25 5.53562 15.1683 5.68411 14.8952 6.05648C14.6683 6.36593 14.25 6.89926 14.25 7.63636H15.75ZM16.75 5.36364C16.75 4.7658 16.5844 4.30164 16.4072 3.97947C16.3193 3.81977 16.2294 3.69607 16.1567 3.60794C16.1202 3.56379 16.0879 3.52823 16.0619 3.50121C16.0488 3.48768 16.0374 3.47625 16.0277 3.4669C16.0229 3.46223 16.0185 3.45807 16.0147 3.45443C16.0127 3.45261 16.0109 3.45092 16.0092 3.44935C16.0084 3.44857 16.0076 3.44782 16.0068 3.4471C16.0064 3.44674 16.006 3.44639 16.0056 3.44605C16.0054 3.44588 16.0052 3.44563 16.0051 3.44554C16.0048 3.44529 16.0045 3.44504 15.5 4C14.9955 4.55496 14.9952 4.55471 14.995 4.55447C14.9949 4.55439 14.9946 4.55415 14.9944 4.55399C14.9941 4.55368 14.9938 4.55337 14.9934 4.55306C14.9928 4.55246 14.9921 4.55187 14.9915 4.55131C14.9903 4.55019 14.9892 4.54917 14.9882 4.54823C14.9862 4.54637 14.9847 4.54488 14.9835 4.54375C14.9812 4.54151 14.9805 4.54073 14.9811 4.54141C14.9825 4.54279 14.9892 4.54985 14.9996 4.56251C15.0207 4.58802 15.0557 4.63478 15.0928 4.70235C15.1657 4.83472 15.25 5.05238 15.25 5.36364H16.75Z" fill="black"/>
</svg>
