<svg width="32" height="32" viewBox="0 0 32 32" fill="none" xmlns="http://www.w3.org/2000/svg">
<path d="M14.5 30C20.851 30 26 24.851 26 18.5C26 12.149 20.851 7 14.5 7C8.149 7 3 12.149 3 18.5C3 24.851 8.149 30 14.5 30Z" fill="url(#paint0_linear_3799_6148)"/>
<path d="M14.5 30C20.851 30 26 24.851 26 18.5C26 12.149 20.851 7 14.5 7C8.149 7 3 12.149 3 18.5C3 24.851 8.149 30 14.5 30Z" fill="url(#paint1_radial_3799_6148)"/>
<path d="M14.5 30C20.851 30 26 24.851 26 18.5C26 12.149 20.851 7 14.5 7C8.149 7 3 12.149 3 18.5C3 24.851 8.149 30 14.5 30Z" fill="url(#paint2_radial_3799_6148)"/>
<path d="M14.5 30C20.851 30 26 24.851 26 18.5C26 12.149 20.851 7 14.5 7C8.149 7 3 12.149 3 18.5C3 24.851 8.149 30 14.5 30Z" fill="url(#paint3_radial_3799_6148)"/>
<path d="M14.5 30C20.851 30 26 24.851 26 18.5C26 12.149 20.851 7 14.5 7C8.149 7 3 12.149 3 18.5C3 24.851 8.149 30 14.5 30Z" fill="url(#paint4_linear_3799_6148)"/>
<g filter="url(#filter0_f_3799_6148)">
<path d="M14.484 29.563C20.637 29.563 25.625 24.666 25.625 18.625C25.625 12.585 20.637 7.68701 14.485 7.68701C8.33199 7.68701 3.34399 12.584 3.34399 18.625C3.34399 24.665 8.33199 29.563 14.484 29.563Z" fill="url(#paint5_linear_3799_6148)"/>
<path d="M14.484 29.563C20.637 29.563 25.625 24.666 25.625 18.625C25.625 12.585 20.637 7.68701 14.485 7.68701C8.33199 7.68701 3.34399 12.584 3.34399 18.625C3.34399 24.665 8.33199 29.563 14.484 29.563Z" fill="url(#paint6_radial_3799_6148)"/>
<path d="M14.484 29.563C20.637 29.563 25.625 24.666 25.625 18.625C25.625 12.585 20.637 7.68701 14.485 7.68701C8.33199 7.68701 3.34399 12.584 3.34399 18.625C3.34399 24.665 8.33199 29.563 14.484 29.563Z" fill="url(#paint7_radial_3799_6148)"/>
<path d="M14.484 29.563C20.637 29.563 25.625 24.666 25.625 18.625C25.625 12.585 20.637 7.68701 14.485 7.68701C8.33199 7.68701 3.34399 12.584 3.34399 18.625C3.34399 24.665 8.33199 29.563 14.484 29.563Z" fill="url(#paint8_radial_3799_6148)"/>
</g>
<path d="M23.0501 9.97C25.2501 9.97 27.0301 11.76 27.0301 13.95C27.0274 15.0048 26.6073 16.0155 25.8614 16.7614C25.1156 17.5072 24.1048 17.9274 23.0501 17.93C21.9953 17.9274 20.9845 17.5072 20.2387 16.7614C19.4929 16.0155 19.0727 15.0048 19.0701 13.95C19.0701 11.76 20.8501 9.97 23.0501 9.97ZM23.0501 7.97C19.7501 7.97 17.0701 10.65 17.0701 13.95C17.0701 17.25 19.7501 19.93 23.0501 19.93C26.3501 19.93 29.0301 17.25 29.0301 13.95C29.0301 10.65 26.3501 7.97 23.0501 7.97Z" fill="#BFBAC9"/>
<path d="M23.0501 9.97C25.2501 9.97 27.0301 11.76 27.0301 13.95C27.0274 15.0048 26.6073 16.0155 25.8614 16.7614C25.1156 17.5072 24.1048 17.9274 23.0501 17.93C21.9953 17.9274 20.9845 17.5072 20.2387 16.7614C19.4929 16.0155 19.0727 15.0048 19.0701 13.95C19.0701 11.76 20.8501 9.97 23.0501 9.97ZM23.0501 7.97C19.7501 7.97 17.0701 10.65 17.0701 13.95C17.0701 17.25 19.7501 19.93 23.0501 19.93C26.3501 19.93 29.0301 17.25 29.0301 13.95C29.0301 10.65 26.3501 7.97 23.0501 7.97Z" fill="url(#paint9_radial_3799_6148)"/>
<path d="M23.0501 9.97C25.2501 9.97 27.0301 11.76 27.0301 13.95C27.0274 15.0048 26.6073 16.0155 25.8614 16.7614C25.1156 17.5072 24.1048 17.9274 23.0501 17.93C21.9953 17.9274 20.9845 17.5072 20.2387 16.7614C19.4929 16.0155 19.0727 15.0048 19.0701 13.95C19.0701 11.76 20.8501 9.97 23.0501 9.97ZM23.0501 7.97C19.7501 7.97 17.0701 10.65 17.0701 13.95C17.0701 17.25 19.7501 19.93 23.0501 19.93C26.3501 19.93 29.0301 17.25 29.0301 13.95C29.0301 10.65 26.3501 7.97 23.0501 7.97Z" fill="url(#paint10_radial_3799_6148)"/>
<path d="M21.4 12.38C20.5231 11.3956 19.4478 10.6078 18.2449 10.0683C17.0419 9.52889 15.7384 9.25001 14.42 9.25C13.1002 9.24999 11.7952 9.52882 10.5906 10.0682C9.38605 10.6076 8.309 11.3954 7.43004 12.38H5.04004V17.63C5.04004 22.8 9.25004 27.01 14.42 27.01C19.59 27.01 23.8 22.8 23.8 17.63V12.38H21.4Z" fill="url(#paint11_linear_3799_6148)"/>
<path d="M14.41 21.76C16.8978 21.76 19.2836 20.7718 21.0427 19.0127C22.8018 17.2536 23.79 14.8677 23.79 12.38C23.79 9.89227 22.8018 7.50643 21.0427 5.74734C19.2836 3.98825 16.8978 3 14.41 3C11.9223 3 9.53646 3.98825 7.77737 5.74734C6.01828 7.50643 5.03003 9.89227 5.03003 12.38C5.03003 14.8677 6.01828 17.2536 7.77737 19.0127C9.53646 20.7718 11.9223 21.76 14.41 21.76Z" fill="#C5BCD4"/>
<path d="M14.4101 20.67C16.6088 20.67 18.7174 19.7966 20.272 18.2419C21.8267 16.6872 22.7001 14.5786 22.7001 12.38C22.7001 10.1814 21.8267 8.07276 20.272 6.51808C18.7174 4.9634 16.6088 4.09 14.4101 4.09C12.2115 4.09 10.1029 4.9634 8.5482 6.51808C6.99353 8.07276 6.12012 10.1814 6.12012 12.38C6.12012 14.5786 6.99353 16.6872 8.5482 18.2419C10.1029 19.7966 12.2115 20.67 14.4101 20.67Z" fill="#835358"/>
<path d="M14.4101 20.67C16.6088 20.67 18.7174 19.7966 20.272 18.2419C21.8267 16.6872 22.7001 14.5786 22.7001 12.38C22.7001 10.1814 21.8267 8.07276 20.272 6.51808C18.7174 4.9634 16.6088 4.09 14.4101 4.09C12.2115 4.09 10.1029 4.9634 8.5482 6.51808C6.99353 8.07276 6.12012 10.1814 6.12012 12.38C6.12012 14.5786 6.99353 16.6872 8.5482 18.2419C10.1029 19.7966 12.2115 20.67 14.4101 20.67Z" fill="url(#paint12_radial_3799_6148)"/>
<path d="M14.4101 20.67C16.6088 20.67 18.7174 19.7966 20.272 18.2419C21.8267 16.6872 22.7001 14.5786 22.7001 12.38C22.7001 10.1814 21.8267 8.07276 20.272 6.51808C18.7174 4.9634 16.6088 4.09 14.4101 4.09C12.2115 4.09 10.1029 4.9634 8.5482 6.51808C6.99353 8.07276 6.12012 10.1814 6.12012 12.38C6.12012 14.5786 6.99353 16.6872 8.5482 18.2419C10.1029 19.7966 12.2115 20.67 14.4101 20.67Z" fill="url(#paint13_radial_3799_6148)"/>
<path d="M14.4101 20.67C16.6088 20.67 18.7174 19.7966 20.272 18.2419C21.8267 16.6872 22.7001 14.5786 22.7001 12.38C22.7001 10.1814 21.8267 8.07276 20.272 6.51808C18.7174 4.9634 16.6088 4.09 14.4101 4.09C12.2115 4.09 10.1029 4.9634 8.5482 6.51808C6.99353 8.07276 6.12012 10.1814 6.12012 12.38C6.12012 14.5786 6.99353 16.6872 8.5482 18.2419C10.1029 19.7966 12.2115 20.67 14.4101 20.67Z" fill="url(#paint14_radial_3799_6148)"/>
<g filter="url(#filter1_d_3799_6148)">
<path d="M14.4099 6.15999C18.6299 6.15999 22.1199 9.32999 22.6399 13.41C22.6799 13.07 22.7099 12.72 22.7099 12.37C22.7099 7.79999 18.9899 4.07999 14.4199 4.07999C9.84988 4.07999 6.12988 7.79999 6.12988 12.37C6.12988 12.72 6.14988 13.07 6.19988 13.41C6.69988 9.32999 10.1899 6.15999 14.4099 6.15999Z" fill="url(#paint15_linear_3799_6148)"/>
</g>
<defs>
<filter id="filter0_f_3799_6148" x="2.84399" y="7.18701" width="23.281" height="22.876" filterUnits="userSpaceOnUse" color-interpolation-filters="sRGB">
<feFlood flood-opacity="0" result="BackgroundImageFix"/>
<feBlend mode="normal" in="SourceGraphic" in2="BackgroundImageFix" result="shape"/>
<feGaussianBlur stdDeviation="0.25" result="effect1_foregroundBlur_3799_6148"/>
</filter>
<filter id="filter1_d_3799_6148" x="2.12988" y="4.07999" width="24.5801" height="17.33" filterUnits="userSpaceOnUse" color-interpolation-filters="sRGB">
<feFlood flood-opacity="0" result="BackgroundImageFix"/>
<feColorMatrix in="SourceAlpha" type="matrix" values="0 0 0 0 0 0 0 0 0 0 0 0 0 0 0 0 0 0 127 0" result="hardAlpha"/>
<feOffset dy="4"/>
<feGaussianBlur stdDeviation="2"/>
<feComposite in2="hardAlpha" operator="out"/>
<feColorMatrix type="matrix" values="0 0 0 0 0 0 0 0 0 0 0 0 0 0 0 0 0 0 0.25 0"/>
<feBlend mode="normal" in2="BackgroundImageFix" result="effect1_dropShadow_3799_6148"/>
<feBlend mode="normal" in="SourceGraphic" in2="effect1_dropShadow_3799_6148" result="shape"/>
</filter>
<linearGradient id="paint0_linear_3799_6148" x1="10.75" y1="9.125" x2="21.125" y2="30.875" gradientUnits="userSpaceOnUse">
<stop stop-color="#99989F"/>
<stop offset="0.453" stop-color="#A99BBE"/>
<stop offset="0.877" stop-color="#C7BBDA"/>
</linearGradient>
<radialGradient id="paint1_radial_3799_6148" cx="0" cy="0" r="1" gradientUnits="userSpaceOnUse" gradientTransform="translate(13.938 18.5) rotate(91.2454) scale(11.5027 12.1294)">
<stop offset="0.721" stop-color="#9C8BB4"/>
<stop offset="0.818" stop-color="#9D8FB2" stop-opacity="0"/>
</radialGradient>
<radialGradient id="paint2_radial_3799_6148" cx="0" cy="0" r="1" gradientUnits="userSpaceOnUse" gradientTransform="translate(24.375 13.563) rotate(90) scale(8.0625)">
<stop offset="0.504" stop-color="#9D98A8"/>
<stop offset="1" stop-color="#9F9AAA" stop-opacity="0"/>
</radialGradient>
<radialGradient id="paint3_radial_3799_6148" cx="0" cy="0" r="1" gradientUnits="userSpaceOnUse" gradientTransform="translate(25.125 12.813) rotate(55.0349) scale(10.906 6.12727)">
<stop offset="0.253" stop-color="#D1D0D7"/>
<stop offset="1" stop-color="#D3D2D9" stop-opacity="0"/>
</radialGradient>
<linearGradient id="paint4_linear_3799_6148" x1="15.375" y1="30.5" x2="15.375" y2="17.625" gradientUnits="userSpaceOnUse">
<stop stop-color="#AD95C8"/>
<stop offset="1" stop-color="#AD95C8" stop-opacity="0"/>
</linearGradient>
<linearGradient id="paint5_linear_3799_6148" x1="10.852" y1="9.70901" x2="20.605" y2="30.534" gradientUnits="userSpaceOnUse">
<stop stop-color="#99989F"/>
<stop offset="0.453" stop-color="#A99BBE"/>
<stop offset="0.877" stop-color="#C7BBDA"/>
</linearGradient>
<radialGradient id="paint6_radial_3799_6148" cx="0" cy="0" r="1" gradientUnits="userSpaceOnUse" gradientTransform="translate(14.125 18.625) rotate(92.831) scale(11.3889 12.2322)">
<stop offset="0.721" stop-color="#9C8BB4"/>
<stop offset="0.818" stop-color="#9D8FB2" stop-opacity="0"/>
</radialGradient>
<radialGradient id="paint7_radial_3799_6148" cx="0" cy="0" r="1" gradientUnits="userSpaceOnUse" gradientTransform="translate(13.6257 18.1245) rotate(64.428) scale(11.2938 10.2545)">
<stop offset="0.914" stop-color="#BCB2CD" stop-opacity="0"/>
<stop offset="0.989" stop-color="#BEB2CF"/>
</radialGradient>
<radialGradient id="paint8_radial_3799_6148" cx="0" cy="0" r="1" gradientUnits="userSpaceOnUse" gradientTransform="translate(24.05 13.929) rotate(90) scale(7.66814 7.81055)">
<stop offset="0.504" stop-color="#9D98A8"/>
<stop offset="1" stop-color="#9F9AAA" stop-opacity="0"/>
</radialGradient>
<radialGradient id="paint9_radial_3799_6148" cx="0" cy="0" r="1" gradientUnits="userSpaceOnUse" gradientTransform="translate(23.0501 13.95) rotate(90) scale(5.98)">
<stop offset="0.678" stop-color="#958DA3"/>
<stop offset="0.793" stop-color="#AF9DC6"/>
<stop offset="1" stop-color="#B4A3CA" stop-opacity="0"/>
</radialGradient>
<radialGradient id="paint10_radial_3799_6148" cx="0" cy="0" r="1" gradientUnits="userSpaceOnUse" gradientTransform="translate(23.6262 17.1877) rotate(88.078) scale(9.31774 7.06691)">
<stop offset="0.806" stop-color="#D9D6E0" stop-opacity="0"/>
<stop offset="0.907" stop-color="#D8D6E0"/>
<stop offset="1" stop-color="#D8D6E0" stop-opacity="0"/>
</radialGradient>
<linearGradient id="paint11_linear_3799_6148" x1="5.04004" y1="20.25" x2="23.8" y2="20.25" gradientUnits="userSpaceOnUse">
<stop stop-color="#A6A1B0"/>
<stop offset="0.258" stop-color="#B1A1C6"/>
<stop offset="0.644" stop-color="#B19BCB"/>
<stop offset="1" stop-color="#B5AEC1"/>
</linearGradient>
<radialGradient id="paint12_radial_3799_6148" cx="0" cy="0" r="1" gradientUnits="userSpaceOnUse" gradientTransform="translate(14.4101 12.876) rotate(90) scale(12.75 12.75)">
<stop offset="0.377" stop-color="#835358"/>
<stop offset="0.623" stop-color="#744C4D"/>
</radialGradient>
<radialGradient id="paint13_radial_3799_6148" cx="0" cy="0" r="1" gradientUnits="userSpaceOnUse" gradientTransform="translate(14.4101 12.875) rotate(90) scale(21.25 20.035)">
<stop offset="0.371" stop-color="#502728" stop-opacity="0"/>
<stop offset="0.405" stop-color="#552C2B"/>
</radialGradient>
<radialGradient id="paint14_radial_3799_6148" cx="0" cy="0" r="1" gradientUnits="userSpaceOnUse" gradientTransform="translate(14.4101 14.875) rotate(90) scale(15 14.3475)">
<stop offset="0.55" stop-color="#502728" stop-opacity="0"/>
<stop offset="0.596" stop-color="#552C2B"/>
</radialGradient>
<linearGradient id="paint15_linear_3799_6148" x1="6.12988" y1="10.438" x2="22.7099" y2="10.438" gradientUnits="userSpaceOnUse">
<stop stop-color="#A298A8"/>
<stop offset="0.49" stop-color="#9F8FAE"/>
<stop offset="1" stop-color="#8C8191"/>
</linearGradient>
</defs>
</svg>
