<svg width="33" height="32" viewBox="0 0 33 32" fill="none" xmlns="http://www.w3.org/2000/svg">
<path d="M21.098 29.98H11.908C9.80798 29.98 8.19798 28.09 8.54798 26.02L10.988 11.36H22.018L24.458 26.01C24.798 28.09 23.198 29.98 21.098 29.98Z" fill="#D6F9FF"/>
<path d="M21.098 29.98H11.908C9.80798 29.98 8.19798 28.09 8.54798 26.02L10.988 11.36H22.018L24.458 26.01C24.798 28.09 23.198 29.98 21.098 29.98Z" fill="url(#paint0_radial_3799_7315)"/>
<path d="M21.098 29.98H11.908C9.80798 29.98 8.19798 28.09 8.54798 26.02L10.988 11.36H22.018L24.458 26.01C24.798 28.09 23.198 29.98 21.098 29.98Z" fill="url(#paint1_linear_3799_7315)"/>
<path d="M21.098 29.98H11.908C9.80798 29.98 8.19798 28.09 8.54798 26.02L10.988 11.36H22.018L24.458 26.01C24.798 28.09 23.198 29.98 21.098 29.98Z" fill="url(#paint2_linear_3799_7315)"/>
<path d="M22.028 7.58002H10.988V11.35H22.028V7.58002Z" fill="url(#paint3_linear_3799_7315)"/>
<path d="M22.028 7.58002H10.988V11.35H22.028V7.58002Z" fill="url(#paint4_linear_3799_7315)"/>
<path d="M22.028 7.58002H10.988V11.35H22.028V7.58002Z" fill="url(#paint5_linear_3799_7315)"/>
<path d="M20.0081 2H12.9881C10.6781 2 8.9581 4.12 9.4281 6.38C9.5781 7.08 10.1881 7.58 10.9081 7.58H22.0981C22.8081 7.58 23.4281 7.08 23.5781 6.38C24.0481 4.12 22.3181 2 20.0081 2Z" fill="url(#paint6_linear_3799_7315)"/>
<path d="M20.0081 2H12.9881C10.6781 2 8.9581 4.12 9.4281 6.38C9.5781 7.08 10.1881 7.58 10.9081 7.58H22.0981C22.8081 7.58 23.4281 7.08 23.5781 6.38C24.0481 4.12 22.3181 2 20.0081 2Z" fill="url(#paint7_linear_3799_7315)"/>
<path d="M20.0081 2H12.9881C10.6781 2 8.9581 4.12 9.4281 6.38C9.5781 7.08 10.1881 7.58 10.9081 7.58H22.0981C22.8081 7.58 23.4281 7.08 23.5781 6.38C24.0481 4.12 22.3181 2 20.0081 2Z" fill="url(#paint8_radial_3799_7315)"/>
<path d="M20.0081 2H12.9881C10.6781 2 8.9581 4.12 9.4281 6.38C9.5781 7.08 10.1881 7.58 10.9081 7.58H22.0981C22.8081 7.58 23.4281 7.08 23.5781 6.38C24.0481 4.12 22.3181 2 20.0081 2Z" fill="url(#paint9_radial_3799_7315)"/>
<path d="M20.0081 2H12.9881C10.6781 2 8.9581 4.12 9.4281 6.38C9.5781 7.08 10.1881 7.58 10.9081 7.58H22.0981C22.8081 7.58 23.4281 7.08 23.5781 6.38C24.0481 4.12 22.3181 2 20.0081 2Z" fill="url(#paint10_radial_3799_7315)"/>
<path d="M20.0081 2H12.9881C10.6781 2 8.9581 4.12 9.4281 6.38C9.5781 7.08 10.1881 7.58 10.9081 7.58H22.0981C22.8081 7.58 23.4281 7.08 23.5781 6.38C24.0481 4.12 22.3181 2 20.0081 2Z" fill="url(#paint11_linear_3799_7315)"/>
<path d="M20.208 17.86H12.798C12.418 17.86 12.088 18.14 12.028 18.51L10.938 25.05C10.698 26.5 11.818 27.82 13.288 27.82H19.718C21.188 27.82 22.308 26.5 22.068 25.05L20.978 18.51C20.9451 18.3291 20.8502 18.1653 20.7097 18.0467C20.5692 17.9281 20.3919 17.8621 20.208 17.86Z" fill="url(#paint12_linear_3799_7315)"/>
<path d="M20.208 17.86H12.798C12.418 17.86 12.088 18.14 12.028 18.51L10.938 25.05C10.698 26.5 11.818 27.82 13.288 27.82H19.718C21.188 27.82 22.308 26.5 22.068 25.05L20.978 18.51C20.9451 18.3291 20.8502 18.1653 20.7097 18.0467C20.5692 17.9281 20.3919 17.8621 20.208 17.86Z" fill="url(#paint13_linear_3799_7315)"/>
<path d="M13.488 4.08C13.5589 4.08 13.6291 4.06603 13.6946 4.0389C13.7602 4.01176 13.8197 3.97198 13.8698 3.92184C13.92 3.87169 13.9598 3.81216 13.9869 3.74665C14.014 3.68113 14.028 3.61091 14.028 3.54C14.028 3.46909 14.014 3.39887 13.9869 3.33335C13.9598 3.26784 13.92 3.20831 13.8698 3.15816C13.8197 3.10802 13.7602 3.06824 13.6946 3.04111C13.6291 3.01397 13.5589 3 13.488 3C13.3448 3 13.2074 3.05689 13.1062 3.15816C13.0049 3.25943 12.948 3.39678 12.948 3.54C12.948 3.68322 13.0049 3.82057 13.1062 3.92184C13.2074 4.02311 13.3448 4.08 13.488 4.08Z" fill="url(#paint14_radial_3799_7315)"/>
<path d="M17.068 3.54C17.068 3.68322 17.0111 3.82057 16.9099 3.92184C16.8086 4.02311 16.6713 4.08 16.528 4.08C16.3848 4.08 16.2475 4.02311 16.1462 3.92184C16.0449 3.82057 15.988 3.68322 15.988 3.54C15.988 3.39678 16.0449 3.25943 16.1462 3.15816C16.2475 3.05689 16.3848 3 16.528 3C16.6713 3 16.8086 3.05689 16.9099 3.15816C17.0111 3.25943 17.068 3.39678 17.068 3.54Z" fill="url(#paint15_radial_3799_7315)"/>
<path d="M19.5681 4.08C19.639 4.08 19.7092 4.06603 19.7747 4.0389C19.8402 4.01176 19.8998 3.97198 19.9499 3.92184C20.0001 3.87169 20.0398 3.81216 20.067 3.74665C20.0941 3.68113 20.1081 3.61091 20.1081 3.54C20.1081 3.46909 20.0941 3.39887 20.067 3.33335C20.0398 3.26784 20.0001 3.20831 19.9499 3.15816C19.8998 3.10802 19.8402 3.06824 19.7747 3.04111C19.7092 3.01397 19.639 3 19.5681 3C19.4249 3 19.2875 3.05689 19.1862 3.15816C19.085 3.25943 19.0281 3.39678 19.0281 3.54C19.0281 3.68322 19.085 3.82057 19.1862 3.92184C19.2875 4.02311 19.4249 4.08 19.5681 4.08Z" fill="url(#paint16_radial_3799_7315)"/>
<path d="M15.6181 5.45998C15.6181 5.6032 15.5612 5.74055 15.4599 5.84182C15.3587 5.94309 15.2213 5.99998 15.0781 5.99998C14.9349 5.99998 14.7975 5.94309 14.6962 5.84182C14.595 5.74055 14.5381 5.6032 14.5381 5.45998C14.5381 5.31677 14.595 5.17941 14.6962 5.07815C14.7975 4.97688 14.9349 4.91998 15.0781 4.91998C15.2213 4.91998 15.3587 4.97688 15.4599 5.07815C15.5612 5.17941 15.6181 5.31677 15.6181 5.45998Z" fill="url(#paint17_radial_3799_7315)"/>
<path d="M18.508 5.45998C18.508 5.6032 18.4511 5.74055 18.3498 5.84182C18.2485 5.94309 18.1112 5.99998 17.968 5.99998C17.8248 5.99998 17.6874 5.94309 17.5861 5.84182C17.4849 5.74055 17.428 5.6032 17.428 5.45998C17.428 5.31677 17.4849 5.17941 17.5861 5.07815C17.6874 4.97688 17.8248 4.91998 17.968 4.91998C18.1112 4.91998 18.2485 4.97688 18.3498 5.07815C18.4511 5.17941 18.508 5.31677 18.508 5.45998Z" fill="url(#paint18_radial_3799_7315)"/>
<path d="M18.2279 14.064C18.1848 13.7922 18.2515 13.5143 18.4132 13.2916C18.575 13.0689 18.8185 12.9196 19.0904 12.8765C19.3622 12.8334 19.6401 12.9001 19.8628 13.0618C20.0855 13.2236 20.2348 13.4672 20.2779 13.739L22.3619 26.886C22.3832 27.0206 22.3779 27.1581 22.3461 27.2906C22.3143 27.4232 22.2567 27.5481 22.1766 27.6584C22.0965 27.7687 21.9955 27.8621 21.8793 27.9333C21.7631 28.0045 21.634 28.0522 21.4994 28.0735C21.3648 28.0949 21.2273 28.0895 21.0948 28.0577C20.9622 28.0259 20.8373 27.9683 20.727 27.8882C20.6167 27.8081 20.5233 27.7071 20.4521 27.5909C20.3809 27.4747 20.3332 27.3456 20.3119 27.211L18.2279 14.064Z" fill="url(#paint19_linear_3799_7315)"/>
<defs>
<radialGradient id="paint0_radial_3799_7315" cx="0" cy="0" r="1" gradientUnits="userSpaceOnUse" gradientTransform="translate(11.375 17.875) rotate(93.3665) scale(21.2867 6.12712)">
<stop stop-color="#B9E5FC"/>
<stop offset="1" stop-color="#CBEBFF" stop-opacity="0"/>
</radialGradient>
<linearGradient id="paint1_linear_3799_7315" x1="23.938" y1="18.813" x2="21.438" y2="19.25" gradientUnits="userSpaceOnUse">
<stop offset="0.267" stop-color="#BCE2FD"/>
<stop offset="0.66" stop-color="#C6E4FA" stop-opacity="0"/>
</linearGradient>
<linearGradient id="paint2_linear_3799_7315" x1="9.43798" y1="18.188" x2="11.813" y2="18.625" gradientUnits="userSpaceOnUse">
<stop offset="0.329" stop-color="#C1D9F0"/>
<stop offset="0.703" stop-color="#C6E4FA" stop-opacity="0"/>
</linearGradient>
<linearGradient id="paint3_linear_3799_7315" x1="10.988" y1="11.35" x2="22.028" y2="11.35" gradientUnits="userSpaceOnUse">
<stop stop-color="#949BA0"/>
<stop offset="0.086" stop-color="#A1ADB5"/>
<stop offset="0.375" stop-color="#92A3AF"/>
<stop offset="0.703" stop-color="#C0CDD6"/>
<stop offset="0.913" stop-color="#C4D0D8"/>
<stop offset="1" stop-color="#B1B8BD"/>
</linearGradient>
<linearGradient id="paint4_linear_3799_7315" x1="16.508" y1="7.58002" x2="16.508" y2="11.35" gradientUnits="userSpaceOnUse">
<stop stop-color="#879EAE"/>
<stop offset="0.128" stop-color="#708C9E" stop-opacity="0"/>
</linearGradient>
<linearGradient id="paint5_linear_3799_7315" x1="16.508" y1="11.35" x2="16.508" y2="9.46502" gradientUnits="userSpaceOnUse">
<stop stop-color="#879EAE"/>
<stop offset="0.128" stop-color="#708C9E" stop-opacity="0"/>
</linearGradient>
<linearGradient id="paint6_linear_3799_7315" x1="9.3501" y1="7.58" x2="23.6551" y2="7.58" gradientUnits="userSpaceOnUse">
<stop stop-color="#949496"/>
<stop offset="1" stop-color="#C0C2C5"/>
</linearGradient>
<linearGradient id="paint7_linear_3799_7315" x1="14.5631" y1="7.938" x2="14.5631" y2="5.844" gradientUnits="userSpaceOnUse">
<stop stop-color="#8699A7"/>
<stop offset="1" stop-color="#839BAA" stop-opacity="0"/>
</linearGradient>
<radialGradient id="paint8_radial_3799_7315" cx="0" cy="0" r="1" gradientUnits="userSpaceOnUse" gradientTransform="translate(16.5031 8.625) rotate(90) scale(3.0625 9.96954)">
<stop stop-color="#8CAFC5"/>
<stop offset="1" stop-color="#9ABDD2" stop-opacity="0"/>
</radialGradient>
<radialGradient id="paint9_radial_3799_7315" cx="0" cy="0" r="1" gradientUnits="userSpaceOnUse" gradientTransform="translate(20.1881 4.438) rotate(90) scale(2.125 5.44775)">
<stop stop-color="#D9DEE3"/>
<stop offset="1" stop-color="#DBE0E6" stop-opacity="0"/>
</radialGradient>
<radialGradient id="paint10_radial_3799_7315" cx="0" cy="0" r="1" gradientUnits="userSpaceOnUse" gradientTransform="translate(11.1874 4.79022) rotate(116.933) scale(4.96753 4.335)">
<stop offset="0.181" stop-color="#B8C0C7"/>
<stop offset="1" stop-color="#ACB2B7" stop-opacity="0"/>
</radialGradient>
<linearGradient id="paint11_linear_3799_7315" x1="16.0631" y1="8.125" x2="16.0631" y2="6.938" gradientUnits="userSpaceOnUse">
<stop offset="0.342" stop-color="#9CC0D6"/>
<stop offset="1" stop-color="#9CC0D6" stop-opacity="0"/>
</linearGradient>
<linearGradient id="paint12_linear_3799_7315" x1="10.905" y1="22.223" x2="21.75" y2="22.223" gradientUnits="userSpaceOnUse">
<stop stop-color="#CBD0D5"/>
<stop offset="0.308" stop-color="#C3CAD1"/>
<stop offset="0.729" stop-color="#DEE5EB"/>
<stop offset="1" stop-color="#EAEFF5"/>
</linearGradient>
<linearGradient id="paint13_linear_3799_7315" x1="15.75" y1="28.188" x2="15.75" y2="25.313" gradientUnits="userSpaceOnUse">
<stop offset="0.163" stop-color="#C0DFF3"/>
<stop offset="1" stop-color="#BEDFF5" stop-opacity="0"/>
</linearGradient>
<radialGradient id="paint14_radial_3799_7315" cx="0" cy="0" r="1" gradientUnits="userSpaceOnUse" gradientTransform="translate(12.948 4.08) rotate(-26.5651) scale(1.20748)">
<stop offset="0.311" stop-color="#95989C"/>
<stop offset="1" stop-color="#616A71"/>
</radialGradient>
<radialGradient id="paint15_radial_3799_7315" cx="0" cy="0" r="1" gradientUnits="userSpaceOnUse" gradientTransform="translate(15.988 4.08) rotate(-26.565) scale(1.20748)">
<stop offset="0.311" stop-color="#95989C"/>
<stop offset="1" stop-color="#616A71"/>
</radialGradient>
<radialGradient id="paint16_radial_3799_7315" cx="0" cy="0" r="1" gradientUnits="userSpaceOnUse" gradientTransform="translate(19.0281 4.08) rotate(-26.5651) scale(1.20748)">
<stop offset="0.311" stop-color="#95989C"/>
<stop offset="1" stop-color="#616A71"/>
</radialGradient>
<radialGradient id="paint17_radial_3799_7315" cx="0" cy="0" r="1" gradientUnits="userSpaceOnUse" gradientTransform="translate(14.5381 5.99998) rotate(-26.5651) scale(1.20748)">
<stop offset="0.311" stop-color="#95989C"/>
<stop offset="1" stop-color="#616A71"/>
</radialGradient>
<radialGradient id="paint18_radial_3799_7315" cx="0" cy="0" r="1" gradientUnits="userSpaceOnUse" gradientTransform="translate(17.428 5.99998) rotate(-26.5651) scale(1.20748)">
<stop offset="0.311" stop-color="#95989C"/>
<stop offset="1" stop-color="#616A71"/>
</radialGradient>
<linearGradient id="paint19_linear_3799_7315" x1="19.1249" y1="13.25" x2="21.3129" y2="27.375" gradientUnits="userSpaceOnUse">
<stop offset="0.428" stop-color="white"/>
<stop offset="0.871" stop-color="white" stop-opacity="0"/>
</linearGradient>
</defs>
</svg>
