<svg width="33" height="32" viewBox="0 0 33 32" fill="none" xmlns="http://www.w3.org/2000/svg">
<path d="M30.406 4C30.406 4 23.734 3.942 23.094 3.812C22.454 3.683 21.672 2 19.109 2H14.45C14.04 2 13.7 2.34 13.7 2.75C13.7 3.16 14.04 3.563 14.45 3.563H17.445C17.445 3.563 17.953 3.523 17.953 3.984C17.953 4.445 17.445 4.406 17.445 4.406H14.45C14.04 4.406 13.7 4.746 13.7 5.156C13.7 5.566 14.04 5.906 14.45 5.906H17.445C17.445 5.906 17.953 5.844 17.953 6.32C17.953 6.797 17.445 6.734 17.445 6.734H14.45C14.04 6.734 13.7 7.121 13.7 7.531C13.7 7.941 14.04 8.297 14.45 8.297H19.11C22.25 8.297 22.422 6.484 23.328 6.391C24.234 6.297 30.406 6.297 30.406 6.297V4Z" fill="url(#paint0_linear_3799_7606)"/>
<path d="M30.406 4C30.406 4 23.734 3.942 23.094 3.812C22.454 3.683 21.672 2 19.109 2H14.45C14.04 2 13.7 2.34 13.7 2.75C13.7 3.16 14.04 3.563 14.45 3.563H17.445C17.445 3.563 17.953 3.523 17.953 3.984C17.953 4.445 17.445 4.406 17.445 4.406H14.45C14.04 4.406 13.7 4.746 13.7 5.156C13.7 5.566 14.04 5.906 14.45 5.906H17.445C17.445 5.906 17.953 5.844 17.953 6.32C17.953 6.797 17.445 6.734 17.445 6.734H14.45C14.04 6.734 13.7 7.121 13.7 7.531C13.7 7.941 14.04 8.297 14.45 8.297H19.11C22.25 8.297 22.422 6.484 23.328 6.391C24.234 6.297 30.406 6.297 30.406 6.297V4Z" fill="url(#paint1_radial_3799_7606)"/>
<path d="M30.406 4C30.406 4 23.734 3.942 23.094 3.812C22.454 3.683 21.672 2 19.109 2H14.45C14.04 2 13.7 2.34 13.7 2.75C13.7 3.16 14.04 3.563 14.45 3.563H17.445C17.445 3.563 17.953 3.523 17.953 3.984C17.953 4.445 17.445 4.406 17.445 4.406H14.45C14.04 4.406 13.7 4.746 13.7 5.156C13.7 5.566 14.04 5.906 14.45 5.906H17.445C17.445 5.906 17.953 5.844 17.953 6.32C17.953 6.797 17.445 6.734 17.445 6.734H14.45C14.04 6.734 13.7 7.121 13.7 7.531C13.7 7.941 14.04 8.297 14.45 8.297H19.11C22.25 8.297 22.422 6.484 23.328 6.391C24.234 6.297 30.406 6.297 30.406 6.297V4Z" fill="url(#paint2_radial_3799_7606)"/>
<path d="M30.406 4C30.406 4 23.734 3.942 23.094 3.812C22.454 3.683 21.672 2 19.109 2H14.45C14.04 2 13.7 2.34 13.7 2.75C13.7 3.16 14.04 3.563 14.45 3.563H17.445C17.445 3.563 17.953 3.523 17.953 3.984C17.953 4.445 17.445 4.406 17.445 4.406H14.45C14.04 4.406 13.7 4.746 13.7 5.156C13.7 5.566 14.04 5.906 14.45 5.906H17.445C17.445 5.906 17.953 5.844 17.953 6.32C17.953 6.797 17.445 6.734 17.445 6.734H14.45C14.04 6.734 13.7 7.121 13.7 7.531C13.7 7.941 14.04 8.297 14.45 8.297H19.11C22.25 8.297 22.422 6.484 23.328 6.391C24.234 6.297 30.406 6.297 30.406 6.297V4Z" fill="url(#paint3_radial_3799_7606)"/>
<path d="M30.406 4C30.406 4 23.734 3.942 23.094 3.812C22.454 3.683 21.672 2 19.109 2H14.45C14.04 2 13.7 2.34 13.7 2.75C13.7 3.16 14.04 3.563 14.45 3.563H17.445C17.445 3.563 17.953 3.523 17.953 3.984C17.953 4.445 17.445 4.406 17.445 4.406H14.45C14.04 4.406 13.7 4.746 13.7 5.156C13.7 5.566 14.04 5.906 14.45 5.906H17.445C17.445 5.906 17.953 5.844 17.953 6.32C17.953 6.797 17.445 6.734 17.445 6.734H14.45C14.04 6.734 13.7 7.121 13.7 7.531C13.7 7.941 14.04 8.297 14.45 8.297H19.11C22.25 8.297 22.422 6.484 23.328 6.391C24.234 6.297 30.406 6.297 30.406 6.297V4Z" fill="url(#paint4_radial_3799_7606)"/>
<path d="M30.406 4C30.406 4 23.734 3.942 23.094 3.812C22.454 3.683 21.672 2 19.109 2H14.45C14.04 2 13.7 2.34 13.7 2.75C13.7 3.16 14.04 3.563 14.45 3.563H17.445C17.445 3.563 17.953 3.523 17.953 3.984C17.953 4.445 17.445 4.406 17.445 4.406H14.45C14.04 4.406 13.7 4.746 13.7 5.156C13.7 5.566 14.04 5.906 14.45 5.906H17.445C17.445 5.906 17.953 5.844 17.953 6.32C17.953 6.797 17.445 6.734 17.445 6.734H14.45C14.04 6.734 13.7 7.121 13.7 7.531C13.7 7.941 14.04 8.297 14.45 8.297H19.11C22.25 8.297 22.422 6.484 23.328 6.391C24.234 6.297 30.406 6.297 30.406 6.297V4Z" fill="url(#paint5_radial_3799_7606)"/>
<path d="M30.406 4C30.406 4 23.734 3.942 23.094 3.812C22.454 3.683 21.672 2 19.109 2H14.45C14.04 2 13.7 2.34 13.7 2.75C13.7 3.16 14.04 3.563 14.45 3.563H17.445C17.445 3.563 17.953 3.523 17.953 3.984C17.953 4.445 17.445 4.406 17.445 4.406H14.45C14.04 4.406 13.7 4.746 13.7 5.156C13.7 5.566 14.04 5.906 14.45 5.906H17.445C17.445 5.906 17.953 5.844 17.953 6.32C17.953 6.797 17.445 6.734 17.445 6.734H14.45C14.04 6.734 13.7 7.121 13.7 7.531C13.7 7.941 14.04 8.297 14.45 8.297H19.11C22.25 8.297 22.422 6.484 23.328 6.391C24.234 6.297 30.406 6.297 30.406 6.297V4Z" fill="url(#paint6_radial_3799_7606)"/>
<g filter="url(#filter0_f_3799_7606)">
<path d="M29.922 4.56304C29.922 4.56304 23.734 4.83304 23.094 4.70304C22.454 4.57304 21.672 2.60904 19.109 2.60904L14.844 2.32904C14.434 2.32904 14.363 2.34004 14.363 2.75004C14.363 3.16004 14.433 3.18804 14.843 3.18804H17.445C17.859 3.18804 18.235 3.52304 18.235 3.98404C18.235 4.44504 17.82 4.70404 17.445 4.70404H14.703C14.293 4.70404 14.222 4.74604 14.222 5.15604C14.222 5.56604 14.293 5.62504 14.703 5.62504H17.445C17.812 5.62504 18.235 5.84404 18.235 6.32004C18.235 6.79704 17.867 7.01604 17.445 7.01604H14.625C14.215 7.01604 14.144 7.12104 14.144 7.53104C14.144 7.94104 14.294 7.98404 14.704 7.98404H19.109C22.25 7.98404 22.469 6.07804 23.375 5.98404C24.281 5.89104 29.922 5.98404 29.922 5.98404V4.56304Z" fill="#B5AABB"/>
<path d="M29.922 4.56304C29.922 4.56304 23.734 4.83304 23.094 4.70304C22.454 4.57304 21.672 2.60904 19.109 2.60904L14.844 2.32904C14.434 2.32904 14.363 2.34004 14.363 2.75004C14.363 3.16004 14.433 3.18804 14.843 3.18804H17.445C17.859 3.18804 18.235 3.52304 18.235 3.98404C18.235 4.44504 17.82 4.70404 17.445 4.70404H14.703C14.293 4.70404 14.222 4.74604 14.222 5.15604C14.222 5.56604 14.293 5.62504 14.703 5.62504H17.445C17.812 5.62504 18.235 5.84404 18.235 6.32004C18.235 6.79704 17.867 7.01604 17.445 7.01604H14.625C14.215 7.01604 14.144 7.12104 14.144 7.53104C14.144 7.94104 14.294 7.98404 14.704 7.98404H19.109C22.25 7.98404 22.469 6.07804 23.375 5.98404C24.281 5.89104 29.922 5.98404 29.922 5.98404V4.56304Z" fill="url(#paint7_linear_3799_7606)"/>
<path d="M29.922 4.56304C29.922 4.56304 23.734 4.83304 23.094 4.70304C22.454 4.57304 21.672 2.60904 19.109 2.60904L14.844 2.32904C14.434 2.32904 14.363 2.34004 14.363 2.75004C14.363 3.16004 14.433 3.18804 14.843 3.18804H17.445C17.859 3.18804 18.235 3.52304 18.235 3.98404C18.235 4.44504 17.82 4.70404 17.445 4.70404H14.703C14.293 4.70404 14.222 4.74604 14.222 5.15604C14.222 5.56604 14.293 5.62504 14.703 5.62504H17.445C17.812 5.62504 18.235 5.84404 18.235 6.32004C18.235 6.79704 17.867 7.01604 17.445 7.01604H14.625C14.215 7.01604 14.144 7.12104 14.144 7.53104C14.144 7.94104 14.294 7.98404 14.704 7.98404H19.109C22.25 7.98404 22.469 6.07804 23.375 5.98404C24.281 5.89104 29.922 5.98404 29.922 5.98404V4.56304Z" fill="url(#paint8_radial_3799_7606)"/>
<path d="M29.922 4.56304C29.922 4.56304 23.734 4.83304 23.094 4.70304C22.454 4.57304 21.672 2.60904 19.109 2.60904L14.844 2.32904C14.434 2.32904 14.363 2.34004 14.363 2.75004C14.363 3.16004 14.433 3.18804 14.843 3.18804H17.445C17.859 3.18804 18.235 3.52304 18.235 3.98404C18.235 4.44504 17.82 4.70404 17.445 4.70404H14.703C14.293 4.70404 14.222 4.74604 14.222 5.15604C14.222 5.56604 14.293 5.62504 14.703 5.62504H17.445C17.812 5.62504 18.235 5.84404 18.235 6.32004C18.235 6.79704 17.867 7.01604 17.445 7.01604H14.625C14.215 7.01604 14.144 7.12104 14.144 7.53104C14.144 7.94104 14.294 7.98404 14.704 7.98404H19.109C22.25 7.98404 22.469 6.07804 23.375 5.98404C24.281 5.89104 29.922 5.98404 29.922 5.98404V4.56304Z" fill="url(#paint9_radial_3799_7606)"/>
</g>
<path d="M21.09 29.91H11.81C7.25003 29.91 4.53003 26.65 4.53003 22.63V19.75H28.37V22.63C28.37 26.65 25.906 29.91 21.09 29.91Z" fill="#9B86B5"/>
<path d="M21.09 29.91H11.81C7.25003 29.91 4.53003 26.65 4.53003 22.63V19.75H28.37V22.63C28.37 26.65 25.906 29.91 21.09 29.91Z" fill="url(#paint10_radial_3799_7606)"/>
<path d="M22.51 12.328H10.52C6.09 12.328 2.5 15.718 2.5 20.538C2.5 25.03 6.09 28.218 10.52 28.218H22.51C26.94 28.218 30.53 25.03 30.53 20.538C30.52 16.046 26.93 12.328 22.51 12.328Z" fill="url(#paint11_linear_3799_7606)"/>
<path d="M22.51 12.328H10.52C6.09 12.328 2.5 15.718 2.5 20.538C2.5 25.03 6.09 28.218 10.52 28.218H22.51C26.94 28.218 30.53 25.03 30.53 20.538C30.52 16.046 26.93 12.328 22.51 12.328Z" fill="url(#paint12_linear_3799_7606)"/>
<g filter="url(#filter1_f_3799_7606)">
<path d="M22.15 12.563H10.6C6.333 12.563 2.875 15.763 2.875 20.313C2.875 24.553 6.333 27.563 10.6 27.563H22.15C26.417 27.563 29.875 24.553 29.875 20.313C29.865 16.073 26.407 12.563 22.15 12.563Z" fill="url(#paint13_linear_3799_7606)"/>
<path d="M22.15 12.563H10.6C6.333 12.563 2.875 15.763 2.875 20.313C2.875 24.553 6.333 27.563 10.6 27.563H22.15C26.417 27.563 29.875 24.553 29.875 20.313C29.865 16.073 26.407 12.563 22.15 12.563Z" fill="url(#paint14_radial_3799_7606)"/>
</g>
<g filter="url(#filter2_f_3799_7606)">
<path d="M16.483 12C12.058 12 8.62299 13.309 5.99799 16.114C2.44199 19.901 5.64999 26.117 11.079 26.117H21.212C27.146 26.117 30.267 19.791 26.562 15.849C23.926 13.044 20.454 12 16.483 12Z" fill="url(#paint15_linear_3799_7606)"/>
</g>
<path d="M16.6 11.781C12.219 11.781 8.81903 13.094 6.21903 15.906C2.69903 19.704 5.87503 25.937 11.25 25.937H21.281C27.156 25.937 30.246 19.594 26.578 15.641C23.968 12.828 20.531 11.781 16.6 11.781Z" fill="#AD8E36"/>
<path d="M16.6 11.781C12.219 11.781 8.81903 13.094 6.21903 15.906C2.69903 19.704 5.87503 25.937 11.25 25.937H21.281C27.156 25.937 30.246 19.594 26.578 15.641C23.968 12.828 20.531 11.781 16.6 11.781Z" fill="url(#paint16_radial_3799_7606)"/>
<path d="M16.6 11.781C12.219 11.781 8.81903 13.094 6.21903 15.906C2.69903 19.704 5.87503 25.937 11.25 25.937H21.281C27.156 25.937 30.246 19.594 26.578 15.641C23.968 12.828 20.531 11.781 16.6 11.781Z" fill="url(#paint17_radial_3799_7606)"/>
<path d="M16.6 11.781C12.219 11.781 8.81903 13.094 6.21903 15.906C2.69903 19.704 5.87503 25.937 11.25 25.937H21.281C27.156 25.937 30.246 19.594 26.578 15.641C23.968 12.828 20.531 11.781 16.6 11.781Z" fill="url(#paint18_radial_3799_7606)"/>
<g filter="url(#filter3_f_3799_7606)">
<path d="M23.5309 14C25.1909 15.415 26.3009 17.782 25.2809 20.219C24.8539 21.241 23.1699 22.602 20.2339 23.031C19.0809 23.2 15.3089 23.131 13.1719 23.125C11.6089 23.125 10.2609 23.107 8.71893 21.469C6.96893 19.609 7.54693 17.406 9.40593 14.5C7.01593 15.578 5.65593 19.781 8.20293 22.36C9.05793 23.224 10.4059 24.078 13.1719 24.078H20.2339C23.2969 24.078 25.2919 22.371 26.0779 20.453C27.0879 17.988 25.4469 14.879 23.5309 14Z" fill="url(#paint19_linear_3799_7606)"/>
</g>
<path d="M9.18799 17.793C9.18799 20.903 12.868 22.221 16.531 22.219C20.164 22.216 23.781 20.919 23.781 17.792C23.781 14.466 20.164 13.053 16.531 13.062C12.867 13.072 9.18799 14.534 9.18799 17.793Z" fill="#BF2B3B"/>
<path d="M9.18799 17.793C9.18799 20.903 12.868 22.221 16.531 22.219C20.164 22.216 23.781 20.919 23.781 17.792C23.781 14.466 20.164 13.053 16.531 13.062C12.867 13.072 9.18799 14.534 9.18799 17.793Z" fill="url(#paint20_radial_3799_7606)"/>
<path d="M9.18799 17.793C9.18799 20.903 12.868 22.221 16.531 22.219C20.164 22.216 23.781 20.919 23.781 17.792C23.781 14.466 20.164 13.053 16.531 13.062C12.867 13.072 9.18799 14.534 9.18799 17.793Z" fill="url(#paint21_radial_3799_7606)"/>
<path d="M9.18799 17.793C9.18799 20.903 12.868 22.221 16.531 22.219C20.164 22.216 23.781 20.919 23.781 17.792C23.781 14.466 20.164 13.053 16.531 13.062C12.867 13.072 9.18799 14.534 9.18799 17.793Z" fill="url(#paint22_radial_3799_7606)"/>
<g filter="url(#filter4_f_3799_7606)">
<path d="M13.2809 19.914C13.6504 19.914 14.0047 19.7672 14.2659 19.506C14.5272 19.2448 14.6739 18.8904 14.6739 18.521C14.6739 18.1515 14.5272 17.7972 14.2659 17.536C14.0047 17.2748 13.6504 17.128 13.2809 17.128C12.9115 17.128 12.5572 17.2748 12.2959 17.536C12.0347 17.7972 11.8879 18.1515 11.8879 18.521C11.8879 18.8904 12.0347 19.2448 12.2959 19.506C12.5572 19.7672 12.9115 19.914 13.2809 19.914Z" fill="#B61738"/>
</g>
<g filter="url(#filter5_f_3799_7606)">
<path d="M19.8071 20.08C20.1766 20.08 20.5311 19.9332 20.7924 19.6719C21.0537 19.4106 21.2006 19.0561 21.2006 18.6865C21.2006 18.317 21.0537 17.9625 20.7924 17.7012C20.5311 17.4398 20.1766 17.293 19.8071 17.293C19.4376 17.293 19.0833 17.4398 18.8221 17.701C18.5608 17.9623 18.4141 18.3166 18.4141 18.686C18.4141 19.0555 18.5608 19.4098 18.8221 19.671C19.0833 19.9323 19.4376 20.08 19.8071 20.08Z" fill="#B61738"/>
</g>
<path d="M13.4869 19.914C13.8609 19.914 14.2195 19.7654 14.4839 19.501C14.7484 19.2366 14.8969 18.8779 14.8969 18.504C14.8969 18.13 14.7484 17.7714 14.4839 17.507C14.2195 17.2425 13.8609 17.094 13.4869 17.094C13.1129 17.094 12.7543 17.2425 12.4899 17.507C12.2255 17.7714 12.0769 18.13 12.0769 18.504C12.0769 18.8779 12.2255 19.2366 12.4899 19.501C12.7543 19.7654 13.1129 19.914 13.4869 19.914Z" fill="url(#paint23_radial_3799_7606)"/>
<g filter="url(#filter6_f_3799_7606)">
<path d="M16.4379 16.097C16.8074 16.097 17.1617 15.9503 17.4229 15.689C17.6842 15.4278 17.8309 15.0735 17.8309 14.704C17.8309 14.3346 17.6842 13.9803 17.4229 13.719C17.1617 13.4578 16.8074 13.311 16.4379 13.311C16.0685 13.311 15.7142 13.4578 15.4529 13.719C15.1917 13.9803 15.0449 14.3346 15.0449 14.704C15.0449 15.0735 15.1917 15.4278 15.4529 15.689C15.7142 15.9503 16.0685 16.097 16.4379 16.097Z" fill="#B61738"/>
</g>
<path d="M16.6 16.097C16.9695 16.097 17.3238 15.9503 17.585 15.689C17.8463 15.4278 17.993 15.0735 17.993 14.704C17.993 14.3346 17.8463 13.9803 17.585 13.719C17.3238 13.4578 16.9695 13.311 16.6 13.311C16.2306 13.311 15.8763 13.4578 15.615 13.719C15.3538 13.9803 15.207 14.3346 15.207 14.704C15.207 15.0735 15.3538 15.4278 15.615 15.689C15.8763 15.9503 16.2306 16.097 16.6 16.097Z" fill="url(#paint24_radial_3799_7606)"/>
<path d="M19.945 20.08C20.3203 20.08 20.6802 19.9309 20.9456 19.6656C21.2109 19.4002 21.36 19.0403 21.36 18.665C21.36 18.2897 21.2109 17.9298 20.9456 17.6644C20.6802 17.3991 20.3203 17.25 19.945 17.25C19.5697 17.25 19.2098 17.3991 18.9445 17.6644C18.6791 17.9298 18.53 18.2897 18.53 18.665C18.53 19.0403 18.6791 19.4002 18.9445 19.6656C19.2098 19.9309 19.5697 20.08 19.945 20.08Z" fill="url(#paint25_radial_3799_7606)"/>
<g filter="url(#filter7_f_3799_7606)">
<path d="M24.875 16.188C26 18.031 27.225 22.906 19.625 22.906C24.089 21.474 25.656 20.5 24.875 16.188Z" fill="url(#paint26_linear_3799_7606)"/>
</g>
<g filter="url(#filter8_f_3799_7606)">
<path d="M26.7661 19.375C26.7661 16.683 24.8131 14.344 23.2501 13.781C24.1041 14.146 26.5311 15.749 26.5311 19.375C26.5311 21.265 24.3351 24.235 21.1951 24.235H12.9141V24.453H21.1941C25.0701 24.453 26.7661 20.938 26.7661 19.375Z" fill="url(#paint27_radial_3799_7606)"/>
</g>
<g filter="url(#filter9_f_3799_7606)">
<path d="M6.21899 19.328C6.21899 16.636 8.14099 14.438 9.99999 13.906C9.14599 14.271 6.67199 15.702 6.67199 19.328C6.67199 21.218 9.07799 24.234 12.219 24.234H20.5V24.454H12.219C8.34399 24.454 6.21899 20.891 6.21899 19.328Z" fill="url(#paint28_linear_3799_7606)"/>
</g>
<path fill-rule="evenodd" clip-rule="evenodd" d="M15.01 3.73401C15.1427 3.73401 15.2698 3.78669 15.3636 3.88046C15.4574 3.97422 15.51 4.1014 15.51 4.23401V11.617C15.51 11.766 15.586 12 15.586 12C15.32 12.234 14.796 12.273 14.446 12.094C14.446 12.094 14.51 11.883 14.51 11.719V4.23401C14.51 4.1014 14.5627 3.97422 14.6565 3.88046C14.7503 3.78669 14.8774 3.73401 15.01 3.73401Z" fill="url(#paint29_linear_3799_7606)"/>
<path fill-rule="evenodd" clip-rule="evenodd" d="M17 6.03101C17.1326 6.03101 17.2598 6.08368 17.3536 6.17745C17.4473 6.27122 17.5 6.3984 17.5 6.53101V11.671C17.5 11.797 17.57 11.977 17.57 11.977C17.336 12.234 16.672 12.227 16.437 11.977C16.437 11.977 16.5 11.797 16.5 11.672V6.53201C16.5 6.3994 16.5527 6.27222 16.6465 6.17845C16.7402 6.08468 16.8674 6.03101 17 6.03101Z" fill="url(#paint30_linear_3799_7606)"/>
<path fill-rule="evenodd" clip-rule="evenodd" d="M19.0201 1.68801C19.1527 1.68801 19.2798 1.74069 19.3736 1.83446C19.4674 1.92823 19.5201 2.0554 19.5201 2.18801V11.859C19.5201 12.055 19.6101 12.234 19.6101 12.234C19.2501 12.398 18.6021 12.313 18.4141 12.078C18.4141 12.078 18.5201 11.93 18.5201 11.742V2.18701C18.5201 2.0544 18.5727 1.92723 18.6665 1.83346C18.7603 1.73969 18.8875 1.68801 19.0201 1.68801Z" fill="url(#paint31_linear_3799_7606)"/>
<defs>
<filter id="filter0_f_3799_7606" x="13.894" y="2.07904" width="16.2781" height="6.15503" filterUnits="userSpaceOnUse" color-interpolation-filters="sRGB">
<feFlood flood-opacity="0" result="BackgroundImageFix"/>
<feBlend mode="normal" in="SourceGraphic" in2="BackgroundImageFix" result="shape"/>
<feGaussianBlur stdDeviation="0.125" result="effect1_foregroundBlur_3799_7606"/>
</filter>
<filter id="filter1_f_3799_7606" x="2.375" y="12.063" width="28" height="16" filterUnits="userSpaceOnUse" color-interpolation-filters="sRGB">
<feFlood flood-opacity="0" result="BackgroundImageFix"/>
<feBlend mode="normal" in="SourceGraphic" in2="BackgroundImageFix" result="shape"/>
<feGaussianBlur stdDeviation="0.25" result="effect1_foregroundBlur_3799_7606"/>
</filter>
<filter id="filter2_f_3799_7606" x="4.25" y="11.75" width="24.1619" height="14.617" filterUnits="userSpaceOnUse" color-interpolation-filters="sRGB">
<feFlood flood-opacity="0" result="BackgroundImageFix"/>
<feBlend mode="normal" in="SourceGraphic" in2="BackgroundImageFix" result="shape"/>
<feGaussianBlur stdDeviation="0.125" result="effect1_foregroundBlur_3799_7606"/>
</filter>
<filter id="filter3_f_3799_7606" x="6.33398" y="13.5" width="20.5515" height="11.078" filterUnits="userSpaceOnUse" color-interpolation-filters="sRGB">
<feFlood flood-opacity="0" result="BackgroundImageFix"/>
<feBlend mode="normal" in="SourceGraphic" in2="BackgroundImageFix" result="shape"/>
<feGaussianBlur stdDeviation="0.25" result="effect1_foregroundBlur_3799_7606"/>
</filter>
<filter id="filter4_f_3799_7606" x="11.6379" y="16.878" width="3.28589" height="3.28601" filterUnits="userSpaceOnUse" color-interpolation-filters="sRGB">
<feFlood flood-opacity="0" result="BackgroundImageFix"/>
<feBlend mode="normal" in="SourceGraphic" in2="BackgroundImageFix" result="shape"/>
<feGaussianBlur stdDeviation="0.125" result="effect1_foregroundBlur_3799_7606"/>
</filter>
<filter id="filter5_f_3799_7606" x="18.1641" y="17.043" width="3.28662" height="3.28699" filterUnits="userSpaceOnUse" color-interpolation-filters="sRGB">
<feFlood flood-opacity="0" result="BackgroundImageFix"/>
<feBlend mode="normal" in="SourceGraphic" in2="BackgroundImageFix" result="shape"/>
<feGaussianBlur stdDeviation="0.125" result="effect1_foregroundBlur_3799_7606"/>
</filter>
<filter id="filter6_f_3799_7606" x="14.7949" y="13.061" width="3.28589" height="3.28601" filterUnits="userSpaceOnUse" color-interpolation-filters="sRGB">
<feFlood flood-opacity="0" result="BackgroundImageFix"/>
<feBlend mode="normal" in="SourceGraphic" in2="BackgroundImageFix" result="shape"/>
<feGaussianBlur stdDeviation="0.125" result="effect1_foregroundBlur_3799_7606"/>
</filter>
<filter id="filter7_f_3799_7606" x="19.125" y="15.688" width="7.08789" height="7.71802" filterUnits="userSpaceOnUse" color-interpolation-filters="sRGB">
<feFlood flood-opacity="0" result="BackgroundImageFix"/>
<feBlend mode="normal" in="SourceGraphic" in2="BackgroundImageFix" result="shape"/>
<feGaussianBlur stdDeviation="0.25" result="effect1_foregroundBlur_3799_7606"/>
</filter>
<filter id="filter8_f_3799_7606" x="12.4141" y="13.281" width="14.8521" height="11.672" filterUnits="userSpaceOnUse" color-interpolation-filters="sRGB">
<feFlood flood-opacity="0" result="BackgroundImageFix"/>
<feBlend mode="normal" in="SourceGraphic" in2="BackgroundImageFix" result="shape"/>
<feGaussianBlur stdDeviation="0.25" result="effect1_foregroundBlur_3799_7606"/>
</filter>
<filter id="filter9_f_3799_7606" x="5.71899" y="13.406" width="15.281" height="11.548" filterUnits="userSpaceOnUse" color-interpolation-filters="sRGB">
<feFlood flood-opacity="0" result="BackgroundImageFix"/>
<feBlend mode="normal" in="SourceGraphic" in2="BackgroundImageFix" result="shape"/>
<feGaussianBlur stdDeviation="0.25" result="effect1_foregroundBlur_3799_7606"/>
</filter>
<linearGradient id="paint0_linear_3799_7606" x1="13.7" y1="5.148" x2="29.875" y2="5.148" gradientUnits="userSpaceOnUse">
<stop stop-color="#888291"/>
<stop offset="0.055" stop-color="#AEADB3"/>
<stop offset="0.884" stop-color="#AFAEB3"/>
<stop offset="1" stop-color="#B1B1B6"/>
</linearGradient>
<radialGradient id="paint1_radial_3799_7606" cx="0" cy="0" r="1" gradientUnits="userSpaceOnUse" gradientTransform="translate(21.875 3.719) rotate(49.1596) scale(2.4371 1.65545)">
<stop stop-color="#D8D4DF"/>
<stop offset="1" stop-color="#CECBD6" stop-opacity="0"/>
</radialGradient>
<radialGradient id="paint2_radial_3799_7606" cx="0" cy="0" r="1" gradientUnits="userSpaceOnUse" gradientTransform="translate(26.469 6.5) rotate(90) scale(1.03125 7.1875)">
<stop stop-color="#9F83AD"/>
<stop offset="1" stop-color="#9F82AD" stop-opacity="0"/>
</radialGradient>
<radialGradient id="paint3_radial_3799_7606" cx="0" cy="0" r="1" gradientUnits="userSpaceOnUse" gradientTransform="translate(16.313 3.906) rotate(90) scale(1.24219 4.69078)">
<stop stop-color="#8E74A0"/>
<stop offset="1" stop-color="#8F74A2" stop-opacity="0"/>
</radialGradient>
<radialGradient id="paint4_radial_3799_7606" cx="0" cy="0" r="1" gradientUnits="userSpaceOnUse" gradientTransform="translate(16.313 6.281) rotate(90) scale(1.25 4.72028)">
<stop stop-color="#8E74A0"/>
<stop offset="1" stop-color="#8F74A2" stop-opacity="0"/>
</radialGradient>
<radialGradient id="paint5_radial_3799_7606" cx="0" cy="0" r="1" gradientUnits="userSpaceOnUse" gradientTransform="translate(18.5 8.469) rotate(90) scale(1.53125 12.6481)">
<stop stop-color="#9C816C"/>
<stop offset="0.695" stop-color="#9E8373" stop-opacity="0"/>
</radialGradient>
<radialGradient id="paint6_radial_3799_7606" cx="0" cy="0" r="1" gradientUnits="userSpaceOnUse" gradientTransform="translate(18.531 4.688) rotate(90) scale(3.60937 0.62628)">
<stop offset="0.438" stop-color="#85747F"/>
<stop offset="1" stop-color="#867680" stop-opacity="0"/>
</radialGradient>
<linearGradient id="paint7_linear_3799_7606" x1="17.844" y1="5.65604" x2="19.25" y2="5.65604" gradientUnits="userSpaceOnUse">
<stop stop-color="#7E6C77" stop-opacity="0"/>
<stop offset="0.467" stop-color="#7E6D77"/>
<stop offset="1" stop-color="#7E6E77" stop-opacity="0"/>
</linearGradient>
<radialGradient id="paint8_radial_3799_7606" cx="0" cy="0" r="1" gradientUnits="userSpaceOnUse" gradientTransform="translate(16.594 7.75004) rotate(90) scale(2.15625 0.65625)">
<stop offset="0.174" stop-color="#80736F"/>
<stop offset="1" stop-color="#7F7371" stop-opacity="0"/>
</radialGradient>
<radialGradient id="paint9_radial_3799_7606" cx="0" cy="0" r="1" gradientUnits="userSpaceOnUse" gradientTransform="translate(14.375 6.12504) rotate(90) scale(3.875 1.75)">
<stop offset="0.174" stop-color="#80736F"/>
<stop offset="1" stop-color="#7F7371" stop-opacity="0"/>
</radialGradient>
<radialGradient id="paint10_radial_3799_7606" cx="0" cy="0" r="1" gradientUnits="userSpaceOnUse" gradientTransform="translate(16.45 29.063) rotate(90) scale(2.25 11.1991)">
<stop stop-color="#AB85D4"/>
<stop offset="1" stop-color="#AB85D4" stop-opacity="0"/>
</radialGradient>
<linearGradient id="paint11_linear_3799_7606" x1="2.5" y1="19.5" x2="29.625" y2="19.5" gradientUnits="userSpaceOnUse">
<stop stop-color="#9A98A5"/>
<stop offset="1" stop-color="#F4F2FF"/>
</linearGradient>
<linearGradient id="paint12_linear_3799_7606" x1="16.515" y1="12.328" x2="16.515" y2="28.219" gradientUnits="userSpaceOnUse">
<stop offset="0.542" stop-color="#C8A0F5" stop-opacity="0"/>
<stop offset="1" stop-color="#BD8DEF"/>
</linearGradient>
<linearGradient id="paint13_linear_3799_7606" x1="3.25" y1="20.063" x2="29.875" y2="20.063" gradientUnits="userSpaceOnUse">
<stop stop-color="#BCB4C3"/>
<stop offset="1" stop-color="#DFD5DB"/>
</linearGradient>
<radialGradient id="paint14_radial_3799_7606" cx="0" cy="0" r="1" gradientUnits="userSpaceOnUse" gradientTransform="translate(13.3764 21.2504) rotate(87.166) scale(6.32023 15.3933)">
<stop stop-color="#9A56A5"/>
<stop offset="1" stop-color="#A68EAA" stop-opacity="0"/>
</radialGradient>
<linearGradient id="paint15_linear_3799_7606" x1="5.43799" y1="19.059" x2="28.162" y2="19.059" gradientUnits="userSpaceOnUse">
<stop stop-color="#8E6E6C"/>
<stop offset="1" stop-color="#B8A46E"/>
</linearGradient>
<radialGradient id="paint16_radial_3799_7606" cx="0" cy="0" r="1" gradientUnits="userSpaceOnUse" gradientTransform="translate(23.813 18.313) rotate(90) scale(15.1875 23.4537)">
<stop stop-color="#FFEB4A"/>
<stop offset="0.424" stop-color="#F8D640"/>
<stop offset="0.846" stop-color="#FFEF4F" stop-opacity="0"/>
</radialGradient>
<radialGradient id="paint17_radial_3799_7606" cx="0" cy="0" r="1" gradientUnits="userSpaceOnUse" gradientTransform="translate(16.45 26.688) rotate(90) scale(12.4375 28.2977)">
<stop offset="0.032" stop-color="#DA9360"/>
<stop offset="0.653" stop-color="#DA9260" stop-opacity="0"/>
</radialGradient>
<radialGradient id="paint18_radial_3799_7606" cx="0" cy="0" r="1" gradientUnits="userSpaceOnUse" gradientTransform="translate(21.375 17.5) rotate(120.277) scale(9.77014 7.6663)">
<stop stop-color="#FFF254"/>
<stop offset="1" stop-color="#FFF254" stop-opacity="0"/>
</radialGradient>
<linearGradient id="paint19_linear_3799_7606" x1="26.3859" y1="16.688" x2="6.88993" y2="16.875" gradientUnits="userSpaceOnUse">
<stop stop-color="#FFEB59"/>
<stop offset="0.501" stop-color="#EAB342"/>
<stop offset="1" stop-color="#D5AA38"/>
</linearGradient>
<radialGradient id="paint20_radial_3799_7606" cx="0" cy="0" r="1" gradientUnits="userSpaceOnUse" gradientTransform="translate(21.938 17.64) rotate(75.0089) scale(3.86595 7.66533)">
<stop stop-color="#FF6E9A"/>
<stop offset="1" stop-color="#DF2C66"/>
</radialGradient>
<radialGradient id="paint21_radial_3799_7606" cx="0" cy="0" r="1" gradientUnits="userSpaceOnUse" gradientTransform="translate(17.813 16.75) rotate(84.8414) scale(9.0366 14.8467)">
<stop offset="0.342" stop-color="#BB2635" stop-opacity="0"/>
<stop offset="0.714" stop-color="#D92B83"/>
<stop offset="1" stop-color="#B72733"/>
</radialGradient>
<radialGradient id="paint22_radial_3799_7606" cx="0" cy="0" r="1" gradientUnits="userSpaceOnUse" gradientTransform="translate(18.5633 18.1249) rotate(99.34) scale(9.62764 12.5668)">
<stop offset="0.473" stop-color="#B52833" stop-opacity="0"/>
<stop offset="0.729" stop-color="#AE2E36"/>
</radialGradient>
<radialGradient id="paint23_radial_3799_7606" cx="0" cy="0" r="1" gradientUnits="userSpaceOnUse" gradientTransform="translate(14.0175 18.2337) rotate(136.169) scale(2.19216)">
<stop stop-color="#916561"/>
<stop offset="0.848" stop-color="#6C2730"/>
</radialGradient>
<radialGradient id="paint24_radial_3799_7606" cx="0" cy="0" r="1" gradientUnits="userSpaceOnUse" gradientTransform="translate(17.1245 14.4378) rotate(136.169) scale(2.16597)">
<stop stop-color="#9B6E66"/>
<stop offset="0.847" stop-color="#6C2730"/>
</radialGradient>
<radialGradient id="paint25_radial_3799_7606" cx="0" cy="0" r="1" gradientUnits="userSpaceOnUse" gradientTransform="translate(20.4783 18.3945) rotate(136.169) scale(2.19946)">
<stop stop-color="#A17269"/>
<stop offset="0.82" stop-color="#793C4F"/>
</radialGradient>
<linearGradient id="paint26_linear_3799_7606" x1="24.054" y1="16.297" x2="19.463" y2="23.7" gradientUnits="userSpaceOnUse">
<stop stop-color="#F6CE2C"/>
<stop offset="1" stop-color="#F4C924"/>
</linearGradient>
<radialGradient id="paint27_radial_3799_7606" cx="0" cy="0" r="1" gradientUnits="userSpaceOnUse" gradientTransform="translate(25.4761 20.078) rotate(144.127) scale(6.82603 9.03445)">
<stop stop-color="#E7BE4C"/>
<stop offset="1" stop-color="#D79963" stop-opacity="0"/>
</radialGradient>
<linearGradient id="paint28_linear_3799_7606" x1="8.62499" y1="15.828" x2="8.62499" y2="24.453" gradientUnits="userSpaceOnUse">
<stop offset="0.471" stop-color="#AF9345"/>
<stop offset="0.841" stop-color="#D39A4A"/>
</linearGradient>
<linearGradient id="paint29_linear_3799_7606" x1="14.428" y1="7.81801" x2="16.194" y2="7.81801" gradientUnits="userSpaceOnUse">
<stop stop-color="#BA8C3D"/>
<stop offset="0.251" stop-color="#DEB030"/>
<stop offset="0.496" stop-color="#FFD851"/>
<stop offset="0.708" stop-color="#E8B83E"/>
</linearGradient>
<linearGradient id="paint30_linear_3799_7606" x1="16.418" y1="9.33201" x2="18.184" y2="9.33201" gradientUnits="userSpaceOnUse">
<stop stop-color="#BA8C3D"/>
<stop offset="0.251" stop-color="#DEB030"/>
<stop offset="0.496" stop-color="#FFD851"/>
<stop offset="0.708" stop-color="#E8B83E"/>
</linearGradient>
<linearGradient id="paint31_linear_3799_7606" x1="18.4381" y1="6.48301" x2="20.2041" y2="6.48301" gradientUnits="userSpaceOnUse">
<stop stop-color="#BA8C3D"/>
<stop offset="0.251" stop-color="#DEB030"/>
<stop offset="0.496" stop-color="#FFD851"/>
<stop offset="0.708" stop-color="#E8B83E"/>
</linearGradient>
</defs>
</svg>
