<svg width="33" height="32" viewBox="0 0 33 32" fill="none" xmlns="http://www.w3.org/2000/svg">
<path d="M21.857 12.066H11.153C6.371 12.066 2.5 15.947 2.5 20.729C2.49961 21.8654 2.72315 22.9908 3.15787 24.0408C3.59258 25.0908 4.22994 26.0449 5.03353 26.8485C5.83711 27.652 6.79117 28.2894 7.84117 28.7241C8.89118 29.1588 10.0166 29.3824 11.153 29.382H21.847C22.9834 29.3824 24.1087 29.1589 25.1586 28.7242C26.2085 28.2896 27.1625 27.6523 27.9661 26.8488C28.7697 26.0453 29.4071 25.0914 29.8418 24.0415C30.2766 22.9916 30.5003 21.8663 30.5 20.73C30.5026 19.5933 30.281 18.4672 29.8478 17.4163C29.4147 16.3654 28.7784 15.4102 27.9756 14.6055C27.1728 13.8008 26.2191 13.1624 25.1692 12.7268C24.1192 12.2912 22.9937 12.067 21.857 12.067V12.066Z" fill="url(#paint0_linear_3799_6746)"/>
<g filter="url(#filter0_f_3799_6746)">
<path d="M21.783 12.4839H11.258C6.557 12.4839 2.75 16.1539 2.75 20.6769C2.75 25.1979 6.557 28.8589 11.258 28.8589H21.773C26.475 28.8589 30.281 25.1989 30.281 20.6769C30.291 16.1549 26.485 12.4839 21.783 12.4839Z" fill="url(#paint1_linear_3799_6746)"/>
</g>
<g filter="url(#filter1_f_3799_6746)">
<path d="M21.917 14.823H11.093L4.51099 16.713V19.275C4.51086 20.1394 4.68101 20.9954 5.01174 21.794C5.34247 22.5926 5.82729 23.3182 6.43852 23.9295C7.04974 24.5407 7.77538 25.0255 8.57401 25.3562C9.37263 25.687 10.2286 25.8571 11.093 25.857H21.907C22.7714 25.8571 23.6273 25.687 24.426 25.3562C25.2246 25.0255 25.9502 24.5407 26.5615 23.9295C27.1727 23.3182 27.6575 22.5926 27.9882 21.794C28.319 20.9954 28.4891 20.1394 28.489 19.275V16.714L21.917 14.823Z" fill="url(#paint2_linear_3799_6746)"/>
</g>
<path d="M21.917 14.287H11.093L4.51099 16.177V18.738C4.51072 19.6025 4.68079 20.4585 5.01146 21.2573C5.34213 22.056 5.82693 22.7818 6.43816 23.3931C7.0494 24.0044 7.77509 24.4893 8.57378 24.8201C9.37247 25.1509 10.2285 25.3211 11.093 25.321H21.907C22.7715 25.3211 23.6275 25.1509 24.4262 24.8201C25.2249 24.4893 25.9506 24.0044 26.5618 23.3931C27.173 22.7818 27.6578 22.056 27.9885 21.2573C28.3192 20.4585 28.4893 19.6025 28.489 18.738V16.178L21.917 14.287Z" fill="url(#paint3_linear_3799_6746)"/>
<path d="M21.917 9.19495H11.093C10.2286 9.19482 9.37263 9.36498 8.57401 9.69571C7.77538 10.0264 7.04974 10.5113 6.43852 11.1225C5.8273 11.7337 5.34247 12.4593 5.01174 13.258C4.68101 14.0566 4.51086 14.9126 4.51099 15.7769C4.51072 16.6414 4.68079 17.4975 5.01146 18.2962C5.34213 19.095 5.82693 19.8207 6.43816 20.4321C7.0494 21.0434 7.77509 21.5283 8.57378 21.8591C9.37247 22.1899 10.2285 22.3601 11.093 22.36H21.907C22.7715 22.3601 23.6275 22.1899 24.4262 21.8591C25.2249 21.5283 25.9506 21.0434 26.5618 20.4321C27.173 19.8207 27.6578 19.095 27.9885 18.2962C28.3192 17.4975 28.4893 16.6414 28.489 15.7769C28.4911 14.9128 28.3226 14.0568 27.9932 13.2579C27.6638 12.4591 27.18 11.7331 26.5694 11.1216C25.9588 10.5101 25.2336 10.0252 24.4352 9.69456C23.6369 9.36394 22.7811 9.19416 21.917 9.19495Z" fill="url(#paint4_linear_3799_6746)"/>
<path d="M21.917 9.19495H11.093C10.2286 9.19482 9.37263 9.36498 8.57401 9.69571C7.77538 10.0264 7.04974 10.5113 6.43852 11.1225C5.8273 11.7337 5.34247 12.4593 5.01174 13.258C4.68101 14.0566 4.51086 14.9126 4.51099 15.7769C4.51072 16.6414 4.68079 17.4975 5.01146 18.2962C5.34213 19.095 5.82693 19.8207 6.43816 20.4321C7.0494 21.0434 7.77509 21.5283 8.57378 21.8591C9.37247 22.1899 10.2285 22.3601 11.093 22.36H21.907C22.7715 22.3601 23.6275 22.1899 24.4262 21.8591C25.2249 21.5283 25.9506 21.0434 26.5618 20.4321C27.173 19.8207 27.6578 19.095 27.9885 18.2962C28.3192 17.4975 28.4893 16.6414 28.489 15.7769C28.4911 14.9128 28.3226 14.0568 27.9932 13.2579C27.6638 12.4591 27.18 11.7331 26.5694 11.1216C25.9588 10.5101 25.2336 10.0252 24.4352 9.69456C23.6369 9.36394 22.7811 9.19416 21.917 9.19495Z" fill="url(#paint5_radial_3799_6746)"/>
<path d="M21.917 9.19495H11.093C10.2286 9.19482 9.37263 9.36498 8.57401 9.69571C7.77538 10.0264 7.04974 10.5113 6.43852 11.1225C5.8273 11.7337 5.34247 12.4593 5.01174 13.258C4.68101 14.0566 4.51086 14.9126 4.51099 15.7769C4.51072 16.6414 4.68079 17.4975 5.01146 18.2962C5.34213 19.095 5.82693 19.8207 6.43816 20.4321C7.0494 21.0434 7.77509 21.5283 8.57378 21.8591C9.37247 22.1899 10.2285 22.3601 11.093 22.36H21.907C22.7715 22.3601 23.6275 22.1899 24.4262 21.8591C25.2249 21.5283 25.9506 21.0434 26.5618 20.4321C27.173 19.8207 27.6578 19.095 27.9885 18.2962C28.3192 17.4975 28.4893 16.6414 28.489 15.7769C28.4911 14.9128 28.3226 14.0568 27.9932 13.2579C27.6638 12.4591 27.18 11.7331 26.5694 11.1216C25.9588 10.5101 25.2336 10.0252 24.4352 9.69456C23.6369 9.36394 22.7811 9.19416 21.917 9.19495Z" fill="url(#paint6_radial_3799_6746)"/>
<path d="M21.917 8.51495H11.093L4.51099 10.415V12.977C4.51086 13.8414 4.68101 14.6973 5.01174 15.4959C5.34247 16.2946 5.82729 17.0202 6.43852 17.6314C7.04974 18.2426 7.77538 18.7275 8.57401 19.0582C9.37263 19.3889 10.2286 19.5591 11.093 19.559H21.907C22.7715 19.5591 23.6275 19.3889 24.4262 19.0581C25.2249 18.7273 25.9506 18.2424 26.5618 17.6311C27.173 17.0197 27.6578 16.294 27.9885 15.4952C28.3192 14.6965 28.4893 13.8404 28.489 12.976V10.416L21.917 8.51495Z" fill="url(#paint7_linear_3799_6746)"/>
<path d="M21.916 3.422H11.092C10.2275 3.42187 9.37149 3.59206 8.5728 3.92285C7.77411 4.25364 7.04842 4.73855 6.43719 5.34988C5.82595 5.96121 5.34115 6.68697 5.01048 7.48571C4.67981 8.28445 4.50975 9.14052 4.51001 10.005C4.50988 10.8694 4.68004 11.7254 5.01077 12.524C5.3415 13.3226 5.82632 14.0482 6.43754 14.6595C7.04876 15.2707 7.77441 15.7555 8.57303 16.0862C9.37166 16.417 10.2276 16.5871 11.092 16.587H21.906C22.7705 16.5873 23.6266 16.4172 24.4253 16.0865C25.224 15.7559 25.9498 15.2711 26.5611 14.6598C27.1725 14.0486 27.6574 13.3229 27.9882 12.5242C28.319 11.7255 28.4891 10.8695 28.489 10.005C28.499 6.374 25.547 3.422 21.916 3.422Z" fill="url(#paint8_linear_3799_6746)"/>
<g filter="url(#filter2_f_3799_6746)">
<path d="M18.875 3.57898H11.187C7.60899 3.57898 4.71899 6.52898 4.71899 10.161C4.71899 13.802 7.61899 16.743 11.187 16.743H18.875V3.57898Z" fill="url(#paint9_linear_3799_6746)"/>
<path d="M18.875 3.57898H11.187C7.60899 3.57898 4.71899 6.52898 4.71899 10.161C4.71899 13.802 7.61899 16.743 11.187 16.743H18.875V3.57898Z" fill="url(#paint10_radial_3799_6746)"/>
<path d="M18.875 3.57898H11.187C7.60899 3.57898 4.71899 6.52898 4.71899 10.161C4.71899 13.802 7.61899 16.743 11.187 16.743H18.875V3.57898Z" fill="url(#paint11_radial_3799_6746)"/>
</g>
<path d="M19.9361 6.20398H13.0641C12.5792 6.20359 12.099 6.29878 11.651 6.48412C11.2029 6.66946 10.7958 6.9413 10.4529 7.28411C10.11 7.62692 9.83805 8.03396 9.65259 8.48195C9.46713 8.92995 9.37181 9.41011 9.37207 9.89498C9.37207 11.565 10.4821 12.986 12.0131 13.437C12.4731 13.577 12.7831 14.007 12.7831 14.487V20.299C12.7831 21.009 13.3331 21.609 14.0441 21.629C14.7641 21.639 15.3541 21.059 15.3541 20.349V14.677C15.3541 14.077 15.8341 13.597 16.4351 13.597C17.0351 13.597 17.5151 14.077 17.5151 14.677V16.327C17.5151 17.037 18.0651 17.638 18.7751 17.658C18.9454 17.6608 19.1146 17.6298 19.2729 17.5668C19.4312 17.5039 19.5754 17.4102 19.6973 17.2912C19.8192 17.1722 19.9163 17.0302 19.983 16.8735C20.0498 16.7167 20.0848 16.5483 20.0861 16.378V14.537C20.0861 14.047 20.4061 13.607 20.8861 13.477C21.6768 13.2712 22.377 12.8088 22.8768 12.1624C23.3766 11.516 23.6479 10.7221 23.6481 9.90498C23.6446 8.92257 23.2521 7.98154 22.5564 7.28789C21.8607 6.59425 20.9185 6.2045 19.9361 6.20398Z" fill="url(#paint12_radial_3799_6746)"/>
<path d="M19.9361 6.20398H13.0641C12.5792 6.20359 12.099 6.29878 11.651 6.48412C11.2029 6.66946 10.7958 6.9413 10.4529 7.28411C10.11 7.62692 9.83805 8.03396 9.65259 8.48195C9.46713 8.92995 9.37181 9.41011 9.37207 9.89498C9.37207 11.565 10.4821 12.986 12.0131 13.437C12.4731 13.577 12.7831 14.007 12.7831 14.487V20.299C12.7831 21.009 13.3331 21.609 14.0441 21.629C14.7641 21.639 15.3541 21.059 15.3541 20.349V14.677C15.3541 14.077 15.8341 13.597 16.4351 13.597C17.0351 13.597 17.5151 14.077 17.5151 14.677V16.327C17.5151 17.037 18.0651 17.638 18.7751 17.658C18.9454 17.6608 19.1146 17.6298 19.2729 17.5668C19.4312 17.5039 19.5754 17.4102 19.6973 17.2912C19.8192 17.1722 19.9163 17.0302 19.983 16.8735C20.0498 16.7167 20.0848 16.5483 20.0861 16.378V14.537C20.0861 14.047 20.4061 13.607 20.8861 13.477C21.6768 13.2712 22.377 12.8088 22.8768 12.1624C23.3766 11.516 23.6479 10.7221 23.6481 9.90498C23.6446 8.92257 23.2521 7.98154 22.5564 7.28789C21.8607 6.59425 20.9185 6.2045 19.9361 6.20398Z" fill="#884734"/>
<path d="M19.9361 6.20398H13.0641C12.5792 6.20359 12.099 6.29878 11.651 6.48412C11.2029 6.66946 10.7958 6.9413 10.4529 7.28411C10.11 7.62692 9.83805 8.03396 9.65259 8.48195C9.46713 8.92995 9.37181 9.41011 9.37207 9.89498C9.37207 11.565 10.4821 12.986 12.0131 13.437C12.4731 13.577 12.7831 14.007 12.7831 14.487V20.299C12.7831 21.009 13.3331 21.609 14.0441 21.629C14.7641 21.639 15.3541 21.059 15.3541 20.349V14.677C15.3541 14.077 15.8341 13.597 16.4351 13.597C17.0351 13.597 17.5151 14.077 17.5151 14.677V16.327C17.5151 17.037 18.0651 17.638 18.7751 17.658C18.9454 17.6608 19.1146 17.6298 19.2729 17.5668C19.4312 17.5039 19.5754 17.4102 19.6973 17.2912C19.8192 17.1722 19.9163 17.0302 19.983 16.8735C20.0498 16.7167 20.0848 16.5483 20.0861 16.378V14.537C20.0861 14.047 20.4061 13.607 20.8861 13.477C21.6768 13.2712 22.377 12.8088 22.8768 12.1624C23.3766 11.516 23.6479 10.7221 23.6481 9.90498C23.6446 8.92257 23.2521 7.98154 22.5564 7.28789C21.8607 6.59425 20.9185 6.2045 19.9361 6.20398Z" fill="url(#paint13_linear_3799_6746)"/>
<g filter="url(#filter3_f_3799_6746)">
<path d="M9.45288 9.80498C9.45288 11.4 10.6069 12.552 12.1059 12.982C12.5559 13.115 12.8609 13.526 12.8609 13.985V19.964C12.8609 20.642 13.3989 21.2 14.0949 21.219C14.7999 21.229 15.2499 20.85 15.2499 20.172V14.078C15.2499 13.505 15.8489 13.047 16.4369 13.047C17.0239 13.047 17.6569 13.505 17.6569 14.078V16.218C17.6569 16.897 18.0329 17.497 18.7289 17.516C19.4339 17.526 20.0119 16.896 20.0119 16.219V14.059C20.0119 13.591 20.3259 13.171 20.7959 13.047C22.3539 12.655 23.5939 11.439 23.5939 9.80498C23.5939 3.85898 9.45388 3.94698 9.45388 9.80498H9.45288Z" fill="url(#paint14_radial_3799_6746)"/>
<path d="M9.45288 9.80498C9.45288 11.4 10.6069 12.552 12.1059 12.982C12.5559 13.115 12.8609 13.526 12.8609 13.985V19.964C12.8609 20.642 13.3989 21.2 14.0949 21.219C14.7999 21.229 15.2499 20.85 15.2499 20.172V14.078C15.2499 13.505 15.8489 13.047 16.4369 13.047C17.0239 13.047 17.6569 13.505 17.6569 14.078V16.218C17.6569 16.897 18.0329 17.497 18.7289 17.516C19.4339 17.526 20.0119 16.896 20.0119 16.219V14.059C20.0119 13.591 20.3259 13.171 20.7959 13.047C22.3539 12.655 23.5939 11.439 23.5939 9.80498C23.5939 3.85898 9.45388 3.94698 9.45388 9.80498H9.45288Z" fill="url(#paint15_radial_3799_6746)"/>
<path d="M9.45288 9.80498C9.45288 11.4 10.6069 12.552 12.1059 12.982C12.5559 13.115 12.8609 13.526 12.8609 13.985V19.964C12.8609 20.642 13.3989 21.2 14.0949 21.219C14.7999 21.229 15.2499 20.85 15.2499 20.172V14.078C15.2499 13.505 15.8489 13.047 16.4369 13.047C17.0239 13.047 17.6569 13.505 17.6569 14.078V16.218C17.6569 16.897 18.0329 17.497 18.7289 17.516C19.4339 17.526 20.0119 16.896 20.0119 16.219V14.059C20.0119 13.591 20.3259 13.171 20.7959 13.047C22.3539 12.655 23.5939 11.439 23.5939 9.80498C23.5939 3.85898 9.45388 3.94698 9.45388 9.80498H9.45288Z" fill="url(#paint16_radial_3799_6746)"/>
<path d="M9.45288 9.80498C9.45288 11.4 10.6069 12.552 12.1059 12.982C12.5559 13.115 12.8609 13.526 12.8609 13.985V19.964C12.8609 20.642 13.3989 21.2 14.0949 21.219C14.7999 21.229 15.2499 20.85 15.2499 20.172V14.078C15.2499 13.505 15.8489 13.047 16.4369 13.047C17.0239 13.047 17.6569 13.505 17.6569 14.078V16.218C17.6569 16.897 18.0329 17.497 18.7289 17.516C19.4339 17.526 20.0119 16.896 20.0119 16.219V14.059C20.0119 13.591 20.3259 13.171 20.7959 13.047C22.3539 12.655 23.5939 11.439 23.5939 9.80498C23.5939 3.85898 9.45388 3.94698 9.45388 9.80498H9.45288Z" fill="url(#paint17_radial_3799_6746)"/>
<path d="M9.45288 9.80498C9.45288 11.4 10.6069 12.552 12.1059 12.982C12.5559 13.115 12.8609 13.526 12.8609 13.985V19.964C12.8609 20.642 13.3989 21.2 14.0949 21.219C14.7999 21.229 15.2499 20.85 15.2499 20.172V14.078C15.2499 13.505 15.8489 13.047 16.4369 13.047C17.0239 13.047 17.6569 13.505 17.6569 14.078V16.218C17.6569 16.897 18.0329 17.497 18.7289 17.516C19.4339 17.526 20.0119 16.896 20.0119 16.219V14.059C20.0119 13.591 20.3259 13.171 20.7959 13.047C22.3539 12.655 23.5939 11.439 23.5939 9.80498C23.5939 3.85898 9.45388 3.94698 9.45388 9.80498H9.45288Z" fill="url(#paint18_radial_3799_6746)"/>
<path d="M9.45288 9.80498C9.45288 11.4 10.6069 12.552 12.1059 12.982C12.5559 13.115 12.8609 13.526 12.8609 13.985V19.964C12.8609 20.642 13.3989 21.2 14.0949 21.219C14.7999 21.229 15.2499 20.85 15.2499 20.172V14.078C15.2499 13.505 15.8489 13.047 16.4369 13.047C17.0239 13.047 17.6569 13.505 17.6569 14.078V16.218C17.6569 16.897 18.0329 17.497 18.7289 17.516C19.4339 17.526 20.0119 16.896 20.0119 16.219V14.059C20.0119 13.591 20.3259 13.171 20.7959 13.047C22.3539 12.655 23.5939 11.439 23.5939 9.80498C23.5939 3.85898 9.45388 3.94698 9.45388 9.80498H9.45288Z" fill="url(#paint19_radial_3799_6746)"/>
<path d="M9.45288 9.80498C9.45288 11.4 10.6069 12.552 12.1059 12.982C12.5559 13.115 12.8609 13.526 12.8609 13.985V19.964C12.8609 20.642 13.3989 21.2 14.0949 21.219C14.7999 21.229 15.2499 20.85 15.2499 20.172V14.078C15.2499 13.505 15.8489 13.047 16.4369 13.047C17.0239 13.047 17.6569 13.505 17.6569 14.078V16.218C17.6569 16.897 18.0329 17.497 18.7289 17.516C19.4339 17.526 20.0119 16.896 20.0119 16.219V14.059C20.0119 13.591 20.3259 13.171 20.7959 13.047C22.3539 12.655 23.5939 11.439 23.5939 9.80498C23.5939 3.85898 9.45388 3.94698 9.45388 9.80498H9.45288Z" fill="url(#paint20_radial_3799_6746)"/>
</g>
<g filter="url(#filter4_f_3799_6746)">
<path d="M11.979 7.26599V7.64099C11.979 8.06199 12.171 8.48399 12.555 8.72099L15.592 10.511C16.159 10.871 16.861 10.871 17.418 10.511L20.455 8.72099C20.839 8.47399 21.031 8.05199 21.031 7.64099V7.26599H11.979Z" fill="#733919"/>
</g>
<path d="M17.905 5.11299L17.455 4.84299C17.1679 4.67118 16.8396 4.58044 16.505 4.58044C16.1704 4.58044 15.8421 4.67118 15.555 4.84299L15.105 5.11299H11.793V7.21299C11.793 7.62299 11.993 8.03299 12.393 8.26299L15.555 10.134C16.145 10.484 16.875 10.484 17.455 10.134L20.617 8.26399C21.017 8.02399 21.217 7.61399 21.217 7.21399V5.11199H17.906L17.905 5.11299Z" fill="url(#paint21_linear_3799_6746)"/>
<path d="M17.905 5.11299L17.455 4.84299C17.1679 4.67118 16.8396 4.58044 16.505 4.58044C16.1704 4.58044 15.8421 4.67118 15.555 4.84299L15.105 5.11299H11.793V7.21299C11.793 7.62299 11.993 8.03299 12.393 8.26299L15.555 10.134C16.145 10.484 16.875 10.484 17.455 10.134L20.617 8.26399C21.017 8.02399 21.217 7.61399 21.217 7.21399V5.11199H17.906L17.905 5.11299Z" fill="url(#paint22_radial_3799_6746)"/>
<path d="M15.555 2.26298L12.393 4.13298C11.593 4.60298 11.593 5.76298 12.393 6.24398L15.555 8.11398C16.145 8.46398 16.875 8.46398 17.455 8.11398L20.617 6.24398C21.417 5.77398 21.417 4.61398 20.617 4.13398L17.455 2.26298C17.1679 2.09116 16.8396 2.00043 16.505 2.00043C16.1704 2.00043 15.8421 2.09116 15.555 2.26298Z" fill="url(#paint23_linear_3799_6746)"/>
<path d="M22.992 28.414C23.816 28.414 24.484 27.746 24.484 26.922C24.484 26.098 23.816 25.43 22.992 25.43C22.168 25.43 21.5 26.098 21.5 26.922C21.5 27.746 22.168 28.414 22.992 28.414Z" fill="url(#paint24_radial_3799_6746)"/>
<path d="M25.0199 26.393C25.3159 26.393 25.5559 26.153 25.5559 25.857C25.5559 25.561 25.3159 25.321 25.0199 25.321C24.7239 25.321 24.4839 25.561 24.4839 25.857C24.4839 26.153 24.7239 26.393 25.0199 26.393Z" fill="url(#paint25_radial_3799_6746)"/>
<g filter="url(#filter5_f_3799_6746)">
<path d="M20.016 13.375C20.734 12.75 23.484 11.922 23.25 9.375C22.625 11.156 22.23 11.677 20.625 12.031C19.422 12.297 19.344 13.234 19.344 13.719L19.454 16.766H19.781C19.869 16.237 19.681 13.666 20.016 13.375Z" fill="url(#paint26_radial_3799_6746)"/>
</g>
<g filter="url(#filter6_f_3799_6746)">
<path d="M14.3279 17.047C14.3279 17.1133 14.3542 17.1769 14.4011 17.2238C14.448 17.2707 14.5116 17.297 14.5779 17.297C14.6442 17.297 14.7078 17.2707 14.7547 17.2238C14.8015 17.1769 14.8279 17.1133 14.8279 17.047H14.3279ZM17.7829 14.283C17.7829 14.3493 17.8092 14.4129 17.8561 14.4598C17.903 14.5067 17.9666 14.533 18.0329 14.533C18.0992 14.533 18.1628 14.5067 18.2097 14.4598C18.2565 14.4129 18.2829 14.3493 18.2829 14.283H17.7829ZM14.8279 17.047V14.283H14.3279V17.047H14.8279ZM14.8279 14.283C14.8279 13.975 14.9869 13.586 15.2679 13.271C15.5479 12.958 15.9179 12.75 16.3119 12.75V12.25C15.7379 12.25 15.2419 12.55 14.8959 12.938C14.5519 13.322 14.3279 13.825 14.3279 14.283H14.8279ZM16.3119 12.75C16.6999 12.75 17.0679 12.968 17.3469 13.291C17.6279 13.617 17.7829 14.007 17.7829 14.283H18.2829C18.2829 13.855 18.0609 13.353 17.7249 12.964C17.3859 12.572 16.8929 12.25 16.3119 12.25V12.75Z" fill="url(#paint27_linear_3799_6746)"/>
</g>
<g filter="url(#filter7_f_3799_6746)">
<path d="M21.8601 16.438C24.2501 16.438 27.5941 14.859 28.2501 11.453" stroke="url(#paint28_radial_3799_6746)" stroke-width="0.3" stroke-linecap="round"/>
</g>
<g filter="url(#filter8_f_3799_6746)">
<path d="M24.282 28.281C26.5 27.688 29.282 25.406 30.125 21.469" stroke="url(#paint29_radial_3799_6746)" stroke-width="0.3" stroke-linecap="round"/>
</g>
<g filter="url(#filter9_f_3799_6746)">
<path d="M21.1951 5.27295C21.1951 5.55495 21.0061 5.93795 20.6561 6.18795C20.3061 6.43795 18.2401 7.56295 17.0941 8.21795C16.8441 8.36095 16.2741 8.45295 15.7581 8.09395" stroke="url(#paint30_radial_3799_6746)" stroke-width="0.3" stroke-linecap="round"/>
</g>
<defs>
<filter id="filter0_f_3799_6746" x="2.25" y="11.9839" width="28.531" height="17.375" filterUnits="userSpaceOnUse" color-interpolation-filters="sRGB">
<feFlood flood-opacity="0" result="BackgroundImageFix"/>
<feBlend mode="normal" in="SourceGraphic" in2="BackgroundImageFix" result="shape"/>
<feGaussianBlur stdDeviation="0.25" result="effect1_foregroundBlur_3799_6746"/>
</filter>
<filter id="filter1_f_3799_6746" x="4.01099" y="14.323" width="24.978" height="12.034" filterUnits="userSpaceOnUse" color-interpolation-filters="sRGB">
<feFlood flood-opacity="0" result="BackgroundImageFix"/>
<feBlend mode="normal" in="SourceGraphic" in2="BackgroundImageFix" result="shape"/>
<feGaussianBlur stdDeviation="0.25" result="effect1_foregroundBlur_3799_6746"/>
</filter>
<filter id="filter2_f_3799_6746" x="4.46899" y="3.32898" width="14.656" height="13.664" filterUnits="userSpaceOnUse" color-interpolation-filters="sRGB">
<feFlood flood-opacity="0" result="BackgroundImageFix"/>
<feBlend mode="normal" in="SourceGraphic" in2="BackgroundImageFix" result="shape"/>
<feGaussianBlur stdDeviation="0.125" result="effect1_foregroundBlur_3799_6746"/>
</filter>
<filter id="filter3_f_3799_6746" x="9.20288" y="5.12842" width="14.6411" height="16.3408" filterUnits="userSpaceOnUse" color-interpolation-filters="sRGB">
<feFlood flood-opacity="0" result="BackgroundImageFix"/>
<feBlend mode="normal" in="SourceGraphic" in2="BackgroundImageFix" result="shape"/>
<feGaussianBlur stdDeviation="0.125" result="effect1_foregroundBlur_3799_6746"/>
</filter>
<filter id="filter4_f_3799_6746" x="11.479" y="6.76599" width="10.052" height="4.51501" filterUnits="userSpaceOnUse" color-interpolation-filters="sRGB">
<feFlood flood-opacity="0" result="BackgroundImageFix"/>
<feBlend mode="normal" in="SourceGraphic" in2="BackgroundImageFix" result="shape"/>
<feGaussianBlur stdDeviation="0.25" result="effect1_foregroundBlur_3799_6746"/>
</filter>
<filter id="filter5_f_3799_6746" x="18.844" y="8.875" width="4.92017" height="8.39099" filterUnits="userSpaceOnUse" color-interpolation-filters="sRGB">
<feFlood flood-opacity="0" result="BackgroundImageFix"/>
<feBlend mode="normal" in="SourceGraphic" in2="BackgroundImageFix" result="shape"/>
<feGaussianBlur stdDeviation="0.25" result="effect1_foregroundBlur_3799_6746"/>
</filter>
<filter id="filter6_f_3799_6746" x="13.5779" y="11.5" width="5.45508" height="6.547" filterUnits="userSpaceOnUse" color-interpolation-filters="sRGB">
<feFlood flood-opacity="0" result="BackgroundImageFix"/>
<feBlend mode="normal" in="SourceGraphic" in2="BackgroundImageFix" result="shape"/>
<feGaussianBlur stdDeviation="0.375" result="effect1_foregroundBlur_3799_6746"/>
</filter>
<filter id="filter7_f_3799_6746" x="21.4602" y="11.053" width="7.18994" height="5.78503" filterUnits="userSpaceOnUse" color-interpolation-filters="sRGB">
<feFlood flood-opacity="0" result="BackgroundImageFix"/>
<feBlend mode="normal" in="SourceGraphic" in2="BackgroundImageFix" result="shape"/>
<feGaussianBlur stdDeviation="0.125" result="effect1_foregroundBlur_3799_6746"/>
</filter>
<filter id="filter8_f_3799_6746" x="23.8818" y="21.069" width="6.64307" height="7.61206" filterUnits="userSpaceOnUse" color-interpolation-filters="sRGB">
<feFlood flood-opacity="0" result="BackgroundImageFix"/>
<feBlend mode="normal" in="SourceGraphic" in2="BackgroundImageFix" result="shape"/>
<feGaussianBlur stdDeviation="0.125" result="effect1_foregroundBlur_3799_6746"/>
</filter>
<filter id="filter9_f_3799_6746" x="15.3582" y="4.87292" width="6.23682" height="3.87146" filterUnits="userSpaceOnUse" color-interpolation-filters="sRGB">
<feFlood flood-opacity="0" result="BackgroundImageFix"/>
<feBlend mode="normal" in="SourceGraphic" in2="BackgroundImageFix" result="shape"/>
<feGaussianBlur stdDeviation="0.125" result="effect1_foregroundBlur_3799_6746"/>
</filter>
<linearGradient id="paint0_linear_3799_6746" x1="2.5" y1="21.125" x2="30.5" y2="21.125" gradientUnits="userSpaceOnUse">
<stop stop-color="#BBB7BC"/>
<stop offset="0.1" stop-color="#AD95C2"/>
<stop offset="0.232" stop-color="#C3A0E2"/>
<stop offset="0.804" stop-color="#C9A6E7"/>
<stop offset="1" stop-color="#D8D0DF"/>
</linearGradient>
<linearGradient id="paint1_linear_3799_6746" x1="3.313" y1="20.1249" x2="30.625" y2="20.1249" gradientUnits="userSpaceOnUse">
<stop stop-color="#BEB4B6"/>
<stop offset="0.158" stop-color="#DBCED5"/>
<stop offset="0.485" stop-color="#DFCDD2"/>
<stop offset="0.822" stop-color="#DFD1D6"/>
<stop offset="1" stop-color="#E3D8CD"/>
</linearGradient>
<linearGradient id="paint2_linear_3799_6746" x1="16.5" y1="14.823" x2="16.5" y2="26.563" gradientUnits="userSpaceOnUse">
<stop offset="0.886" stop-color="#B49D9F"/>
<stop offset="1" stop-color="#B49D9F" stop-opacity="0"/>
</linearGradient>
<linearGradient id="paint3_linear_3799_6746" x1="4.51099" y1="19.188" x2="28.489" y2="19.188" gradientUnits="userSpaceOnUse">
<stop stop-color="#B88C43"/>
<stop offset="0.156" stop-color="#C69039"/>
<stop offset="0.325" stop-color="#D99F3F"/>
<stop offset="0.758" stop-color="#D9A734"/>
<stop offset="1" stop-color="#ECD34C"/>
</linearGradient>
<linearGradient id="paint4_linear_3799_6746" x1="5.06299" y1="17.875" x2="28.489" y2="17.875" gradientUnits="userSpaceOnUse">
<stop stop-color="#A96E44"/>
<stop offset="0.147" stop-color="#B8784C"/>
<stop offset="0.339" stop-color="#BA774B"/>
<stop offset="0.59" stop-color="#D68C56"/>
<stop offset="0.819" stop-color="#E3985D"/>
<stop offset="1" stop-color="#EAAD74"/>
</linearGradient>
<radialGradient id="paint5_radial_3799_6746" cx="0" cy="0" r="1" gradientUnits="userSpaceOnUse" gradientTransform="translate(16.5 15.7769) rotate(90) scale(5.34759 13.25)">
<stop offset="0.661" stop-color="#99512C"/>
<stop offset="1" stop-color="#A6572F" stop-opacity="0"/>
</radialGradient>
<radialGradient id="paint6_radial_3799_6746" cx="0" cy="0" r="1" gradientUnits="userSpaceOnUse" gradientTransform="translate(12.75 19.4999) scale(2.875 2.85976)">
<stop stop-color="#934A28"/>
<stop offset="1" stop-color="#934A28" stop-opacity="0"/>
</radialGradient>
<linearGradient id="paint7_linear_3799_6746" x1="5.06299" y1="13.625" x2="28.489" y2="13.625" gradientUnits="userSpaceOnUse">
<stop stop-color="#B28C4C"/>
<stop offset="0.133" stop-color="#B97F33"/>
<stop offset="0.283" stop-color="#BD7628"/>
<stop offset="0.491" stop-color="#C37C28"/>
<stop offset="0.592" stop-color="#D08726"/>
<stop offset="0.696" stop-color="#D6922D"/>
<stop offset="0.816" stop-color="#DEA933"/>
<stop offset="1" stop-color="#E5CE53"/>
</linearGradient>
<linearGradient id="paint8_linear_3799_6746" x1="5.12501" y1="8.813" x2="28.489" y2="8.813" gradientUnits="userSpaceOnUse">
<stop stop-color="#CCA275"/>
<stop offset="0.144" stop-color="#D6A87A"/>
<stop offset="0.72" stop-color="#E1B17C"/>
<stop offset="1" stop-color="#E6B27D"/>
</linearGradient>
<linearGradient id="paint9_linear_3799_6746" x1="7.72199" y1="7.96498" x2="27.063" y2="7.96498" gradientUnits="userSpaceOnUse">
<stop offset="0.063" stop-color="#D4A778"/>
<stop offset="1" stop-color="#E7B27D"/>
</linearGradient>
<radialGradient id="paint10_radial_3799_6746" cx="0" cy="0" r="1" gradientUnits="userSpaceOnUse" gradientTransform="translate(10.375 9.81298) rotate(43.7811) scale(6.23279 5.61609)">
<stop stop-color="#B38258"/>
<stop offset="0.768" stop-color="#BB8F65" stop-opacity="0"/>
</radialGradient>
<radialGradient id="paint11_radial_3799_6746" cx="0" cy="0" r="1" gradientUnits="userSpaceOnUse" gradientTransform="translate(13.313 15.438) scale(2.375 4.25084)">
<stop stop-color="#AF774E"/>
<stop offset="1" stop-color="#AF774E" stop-opacity="0"/>
</radialGradient>
<radialGradient id="paint12_radial_3799_6746" cx="0" cy="0" r="1" gradientUnits="userSpaceOnUse" gradientTransform="translate(21.0001 10.063) rotate(157.605) scale(13.452 12.4487)">
<stop offset="0.025" stop-color="#9D623C"/>
<stop offset="1" stop-color="#82523E"/>
</radialGradient>
<linearGradient id="paint13_linear_3799_6746" x1="10.1251" y1="11.875" x2="23.6481" y2="11.875" gradientUnits="userSpaceOnUse">
<stop stop-color="#804B33"/>
<stop offset="1" stop-color="#9F5E3E"/>
</linearGradient>
<radialGradient id="paint14_radial_3799_6746" cx="0" cy="0" r="1" gradientUnits="userSpaceOnUse" gradientTransform="translate(20.9067 9.954) rotate(158.112) scale(13.1267 11.9293)">
<stop offset="0.025" stop-color="#9D623C"/>
<stop offset="1" stop-color="#82523E"/>
</radialGradient>
<radialGradient id="paint15_radial_3799_6746" cx="0" cy="0" r="1" gradientUnits="userSpaceOnUse" gradientTransform="translate(14.1439 8.99998) rotate(28.5274) scale(3.93616 2.10308)">
<stop stop-color="#764326"/>
<stop offset="1" stop-color="#733E21" stop-opacity="0"/>
</radialGradient>
<radialGradient id="paint16_radial_3799_6746" cx="0" cy="0" r="1" gradientUnits="userSpaceOnUse" gradientTransform="translate(11.2499 6.74998) rotate(130.882) scale(5.53857 5.37873)">
<stop stop-color="#724D3D"/>
<stop offset="1" stop-color="#724C3B" stop-opacity="0"/>
</radialGradient>
<radialGradient id="paint17_radial_3799_6746" cx="0" cy="0" r="1" gradientUnits="userSpaceOnUse" gradientTransform="translate(19.1554 17.6876) rotate(-165.256) scale(2.45586 1.62495)">
<stop stop-color="#8A4654"/>
<stop offset="1" stop-color="#8C4756" stop-opacity="0"/>
</radialGradient>
<radialGradient id="paint18_radial_3799_6746" cx="0" cy="0" r="1" gradientUnits="userSpaceOnUse" gradientTransform="translate(13.6559 19.875) rotate(-90) scale(3.375 1.27037)">
<stop stop-color="#884B4F"/>
<stop offset="1" stop-color="#864453" stop-opacity="0"/>
</radialGradient>
<radialGradient id="paint19_radial_3799_6746" cx="0" cy="0" r="1" gradientUnits="userSpaceOnUse" gradientTransform="translate(14.4059 16.063) rotate(99.7277) scale(1.1097 0.683325)">
<stop stop-color="#A37665"/>
<stop offset="1" stop-color="#A57867" stop-opacity="0"/>
</radialGradient>
<radialGradient id="paint20_radial_3799_6746" cx="0" cy="0" r="1" gradientUnits="userSpaceOnUse" gradientTransform="translate(19.3899 15.734) rotate(106.699) scale(0.978779 0.679904)">
<stop stop-color="#A67968"/>
<stop offset="1" stop-color="#A87B68" stop-opacity="0"/>
</radialGradient>
<linearGradient id="paint21_linear_3799_6746" x1="11.938" y1="7.48799" x2="21.217" y2="7.48799" gradientUnits="userSpaceOnUse">
<stop stop-color="#C7A22B"/>
<stop offset="1" stop-color="#E8C12E"/>
</linearGradient>
<radialGradient id="paint22_radial_3799_6746" cx="0" cy="0" r="1" gradientUnits="userSpaceOnUse" gradientTransform="translate(16.505 10.938) rotate(90) scale(3 3.44251)">
<stop stop-color="#DBA529"/>
<stop offset="1" stop-color="#D9A32B" stop-opacity="0"/>
</radialGradient>
<linearGradient id="paint23_linear_3799_6746" x1="14.898" y1="2.60198" x2="18.063" y2="7.62498" gradientUnits="userSpaceOnUse">
<stop offset="0.008" stop-color="#CFBA3A"/>
<stop offset="0.085" stop-color="#D5C137"/>
<stop offset="0.934" stop-color="#E7CE37"/>
</linearGradient>
<radialGradient id="paint24_radial_3799_6746" cx="0" cy="0" r="1" gradientUnits="userSpaceOnUse" gradientTransform="translate(24.077 26.922) rotate(180) scale(2.98437 2.82658)">
<stop stop-color="#A06740"/>
<stop offset="0.705" stop-color="#8E512E"/>
</radialGradient>
<radialGradient id="paint25_radial_3799_6746" cx="0" cy="0" r="1" gradientUnits="userSpaceOnUse" gradientTransform="translate(25.4099 25.857) rotate(180) scale(1.07227 1.01557)">
<stop stop-color="#A06740"/>
<stop offset="0.705" stop-color="#8E512E"/>
</radialGradient>
<radialGradient id="paint26_radial_3799_6746" cx="0" cy="0" r="1" gradientUnits="userSpaceOnUse" gradientTransform="translate(21.304 13.07) rotate(90) scale(7.80469 4.14003)">
<stop stop-color="#AD7C68"/>
<stop offset="1" stop-color="#AC7B65" stop-opacity="0"/>
</radialGradient>
<linearGradient id="paint27_linear_3799_6746" x1="14.5309" y1="13.503" x2="18.2499" y2="13.503" gradientUnits="userSpaceOnUse">
<stop stop-color="#A27764"/>
<stop offset="0.462" stop-color="#9C6F5E"/>
<stop offset="0.618" stop-color="#6F3F2E"/>
</linearGradient>
<radialGradient id="paint28_radial_3799_6746" cx="0" cy="0" r="1" gradientUnits="userSpaceOnUse" gradientTransform="translate(26.2201 14.5) rotate(-43.55) scale(3.49246 1.84992)">
<stop stop-color="#EFB992"/>
<stop offset="0.449" stop-color="#F1BD92"/>
<stop offset="0.988" stop-color="#F0BC8F" stop-opacity="0"/>
</radialGradient>
<radialGradient id="paint29_radial_3799_6746" cx="0" cy="0" r="1" gradientUnits="userSpaceOnUse" gradientTransform="translate(27.4689 25.8749) rotate(-51.506) scale(5.62974 2.98202)">
<stop stop-color="#EBE1F0"/>
<stop offset="0.449" stop-color="#EBE2F0"/>
<stop offset="0.988" stop-color="#E8DFEC" stop-opacity="0"/>
</radialGradient>
<radialGradient id="paint30_radial_3799_6746" cx="0" cy="0" r="1" gradientUnits="userSpaceOnUse" gradientTransform="translate(18.6881 7.31295) rotate(-29.8849) scale(3.32999 1.65375)">
<stop stop-color="#F0D151"/>
<stop offset="0.449" stop-color="#F2D359"/>
<stop offset="0.988" stop-color="#F3D357" stop-opacity="0"/>
</radialGradient>
</defs>
</svg>
