<svg width="32" height="32" viewBox="0 0 32 32" fill="none" xmlns="http://www.w3.org/2000/svg">
<path d="M16.331 2C13.761 2 11.351 3.28 9.91104 5.4L9.78104 5.59C6.9128 9.81781 5.61118 14.9146 6.10104 20L6.18104 20.8C6.68104 26.01 11.061 29.98 16.291 29.98C21.541 29.98 25.921 25.99 26.401 20.76L26.491 19.83C26.9704 14.7092 25.6323 9.58306 22.711 5.35C21.9971 4.31803 21.0438 3.47428 19.9328 2.8909C18.8217 2.30752 17.5859 2.00184 16.331 2Z" fill="#A6704C"/>
<path d="M16.331 2C13.761 2 11.351 3.28 9.91104 5.4L9.78104 5.59C6.9128 9.81781 5.61118 14.9146 6.10104 20L6.18104 20.8C6.68104 26.01 11.061 29.98 16.291 29.98C21.541 29.98 25.921 25.99 26.401 20.76L26.491 19.83C26.9704 14.7092 25.6323 9.58306 22.711 5.35C21.9971 4.31803 21.0438 3.47428 19.9328 2.8909C18.8217 2.30752 17.5859 2.00184 16.331 2Z" fill="url(#paint0_radial_3799_5635)"/>
<path d="M16.331 2C13.761 2 11.351 3.28 9.91104 5.4L9.78104 5.59C6.9128 9.81781 5.61118 14.9146 6.10104 20L6.18104 20.8C6.68104 26.01 11.061 29.98 16.291 29.98C21.541 29.98 25.921 25.99 26.401 20.76L26.491 19.83C26.9704 14.7092 25.6323 9.58306 22.711 5.35C21.9971 4.31803 21.0438 3.47428 19.9328 2.8909C18.8217 2.30752 17.5859 2.00184 16.331 2Z" fill="url(#paint1_radial_3799_5635)"/>
<defs>
<radialGradient id="paint0_radial_3799_5635" cx="0" cy="0" r="1" gradientUnits="userSpaceOnUse" gradientTransform="translate(22.7494 10.3744) rotate(89.708) scale(24.5003 16.2938)">
<stop offset="0.092" stop-color="#FFCA7F"/>
<stop offset="0.562" stop-color="#E5945B"/>
<stop offset="0.838" stop-color="#B87241"/>
<stop offset="1" stop-color="#9A6240"/>
</radialGradient>
<radialGradient id="paint1_radial_3799_5635" cx="0" cy="0" r="1" gradientUnits="userSpaceOnUse" gradientTransform="translate(16.2936 11.2495) rotate(97.431) scale(22.5645 27.4892)">
<stop offset="0.553" stop-color="#974668" stop-opacity="0"/>
<stop offset="0.904" stop-color="#984663"/>
</radialGradient>
</defs>
</svg>
