<svg width="32" height="32" viewBox="0 0 32 32" fill="none" xmlns="http://www.w3.org/2000/svg">
<path d="M24.52 13.01H7.5C5.57 13.01 4 14.58 4 16.51C4 18.44 5.57 20.01 7.5 20.01H24.52C26.45 20.01 28.02 18.44 28.02 16.51C28.02 14.58 26.45 13.01 24.52 13.01Z" fill="url(#paint0_linear_3799_5394)"/>
<path d="M24.52 13.01H7.5C5.57 13.01 4 14.58 4 16.51C4 18.44 5.57 20.01 7.5 20.01H24.52C26.45 20.01 28.02 18.44 28.02 16.51C28.02 14.58 26.45 13.01 24.52 13.01Z" fill="url(#paint1_linear_3799_5394)"/>
<path d="M24.52 13.01H7.5C5.57 13.01 4 14.58 4 16.51C4 18.44 5.57 20.01 7.5 20.01H24.52C26.45 20.01 28.02 18.44 28.02 16.51C28.02 14.58 26.45 13.01 24.52 13.01Z" fill="url(#paint2_radial_3799_5394)"/>
<path d="M24.52 13.01H7.5C5.57 13.01 4 14.58 4 16.51C4 18.44 5.57 20.01 7.5 20.01H24.52C26.45 20.01 28.02 18.44 28.02 16.51C28.02 14.58 26.45 13.01 24.52 13.01Z" fill="url(#paint3_radial_3799_5394)"/>
<path d="M24.52 13.01H7.5C5.57 13.01 4 14.58 4 16.51C4 18.44 5.57 20.01 7.5 20.01H24.52C26.45 20.01 28.02 18.44 28.02 16.51C28.02 14.58 26.45 13.01 24.52 13.01Z" fill="url(#paint4_radial_3799_5394)"/>
<path d="M24.52 13.01H7.5C5.57 13.01 4 14.58 4 16.51C4 18.44 5.57 20.01 7.5 20.01H24.52C26.45 20.01 28.02 18.44 28.02 16.51C28.02 14.58 26.45 13.01 24.52 13.01Z" fill="url(#paint5_radial_3799_5394)"/>
<g filter="url(#filter0_f_3799_5394)">
<path d="M21.52 9.28101H10.51C6.00999 9.28101 6.95299 15.171 10.5 15.171H15.969C17.594 15.171 21.396 15.365 21.396 15.365C25.339 15.365 26.036 9.28101 21.52 9.28101Z" fill="url(#paint6_linear_3799_5394)"/>
</g>
<path d="M21.5199 8.01001H10.5099C10.0503 8.00936 9.595 8.09924 9.17011 8.27452C8.74522 8.44981 8.35902 8.70706 8.03355 9.0316C7.37623 9.68704 7.00621 10.5768 7.00489 11.505C7.00356 12.4333 7.37104 13.324 8.02648 13.9814C8.68192 14.6387 9.57163 15.0087 10.4999 15.01H21.5099C23.4399 15.01 25.0099 13.44 25.0099 11.51C25.0199 9.57001 23.4499 8.01001 21.5199 8.01001Z" fill="url(#paint7_linear_3799_5394)"/>
<path d="M21.5199 8.01001H10.5099C10.0503 8.00936 9.595 8.09924 9.17011 8.27452C8.74522 8.44981 8.35902 8.70706 8.03355 9.0316C7.37623 9.68704 7.00621 10.5768 7.00489 11.505C7.00356 12.4333 7.37104 13.324 8.02648 13.9814C8.68192 14.6387 9.57163 15.0087 10.4999 15.01H21.5099C23.4399 15.01 25.0099 13.44 25.0099 11.51C25.0199 9.57001 23.4499 8.01001 21.5199 8.01001Z" fill="url(#paint8_radial_3799_5394)"/>
<path d="M21.5199 8.01001H10.5099C10.0503 8.00936 9.595 8.09924 9.17011 8.27452C8.74522 8.44981 8.35902 8.70706 8.03355 9.0316C7.37623 9.68704 7.00621 10.5768 7.00489 11.505C7.00356 12.4333 7.37104 13.324 8.02648 13.9814C8.68192 14.6387 9.57163 15.0087 10.4999 15.01H21.5099C23.4399 15.01 25.0099 13.44 25.0099 11.51C25.0199 9.57001 23.4499 8.01001 21.5199 8.01001Z" fill="url(#paint9_radial_3799_5394)"/>
<g filter="url(#filter1_f_3799_5394)">
<path d="M11.2029 7.14801C11.2029 9.59501 14.0029 9.83401 15.9629 9.68801C17.8399 9.54801 20.6089 9.56201 20.6089 7.14801C18.1029 4.76601 13.1839 5.20301 11.2029 7.14801Z" fill="#D73A7E"/>
</g>
<path d="M20.25 5.15C20.19 5.09 20.13 5.04 20.06 4.98L17.13 2.42C16.49 1.86 15.53 1.86 14.89 2.42L11.86 5.06C11.34 5.52 11.01 6.19 11.01 6.95C11.01 9.36 14.076 9.45 16.01 9.45C17.888 9.45 21.01 9.234 21.01 6.95C21.02 6.24 20.72 5.6 20.25 5.15Z" fill="#F252B5"/>
<path d="M20.25 5.15C20.19 5.09 20.13 5.04 20.06 4.98L17.13 2.42C16.49 1.86 15.53 1.86 14.89 2.42L11.86 5.06C11.34 5.52 11.01 6.19 11.01 6.95C11.01 9.36 14.076 9.45 16.01 9.45C17.888 9.45 21.01 9.234 21.01 6.95C21.02 6.24 20.72 5.6 20.25 5.15Z" fill="url(#paint10_radial_3799_5394)"/>
<path d="M20.25 5.15C20.19 5.09 20.13 5.04 20.06 4.98L17.13 2.42C16.49 1.86 15.53 1.86 14.89 2.42L11.86 5.06C11.34 5.52 11.01 6.19 11.01 6.95C11.01 9.36 14.076 9.45 16.01 9.45C17.888 9.45 21.01 9.234 21.01 6.95C21.02 6.24 20.72 5.6 20.25 5.15Z" fill="url(#paint11_radial_3799_5394)"/>
<path d="M20.25 5.15C20.19 5.09 20.13 5.04 20.06 4.98L17.13 2.42C16.49 1.86 15.53 1.86 14.89 2.42L11.86 5.06C11.34 5.52 11.01 6.19 11.01 6.95C11.01 9.36 14.076 9.45 16.01 9.45C17.888 9.45 21.01 9.234 21.01 6.95C21.02 6.24 20.72 5.6 20.25 5.15Z" fill="url(#paint12_radial_3799_5394)"/>
<path d="M25.2401 20.01H6.78011C6.50354 20.0095 6.23071 20.0738 5.98344 20.1977C5.73616 20.3216 5.52132 20.5016 5.3561 20.7234C5.19087 20.9452 5.07986 21.2026 5.03193 21.4749C4.98401 21.7473 5.00051 22.0271 5.08011 22.292L7.19011 29.359C7.31011 29.739 7.67011 30 8.08011 30H23.9501C24.3501 30 24.7101 29.74 24.8401 29.36L26.9501 22.292C27.0275 22.0264 27.0421 21.7465 26.9926 21.4743C26.9432 21.2021 26.8311 20.9452 26.6652 20.7238C26.4993 20.5024 26.2842 20.3227 26.0369 20.1988C25.7895 20.0749 25.5167 20.0103 25.2401 20.01Z" fill="url(#paint13_linear_3799_5394)"/>
<path d="M25.2401 20.01H6.78011C6.50354 20.0095 6.23071 20.0738 5.98344 20.1977C5.73616 20.3216 5.52132 20.5016 5.3561 20.7234C5.19087 20.9452 5.07986 21.2026 5.03193 21.4749C4.98401 21.7473 5.00051 22.0271 5.08011 22.292L7.19011 29.359C7.31011 29.739 7.67011 30 8.08011 30H23.9501C24.3501 30 24.7101 29.74 24.8401 29.36L26.9501 22.292C27.0275 22.0264 27.0421 21.7465 26.9926 21.4743C26.9432 21.2021 26.8311 20.9452 26.6652 20.7238C26.4993 20.5024 26.2842 20.3227 26.0369 20.1988C25.7895 20.0749 25.5167 20.0103 25.2401 20.01Z" fill="url(#paint14_radial_3799_5394)"/>
<path d="M25.2401 20.01H6.78011C6.50354 20.0095 6.23071 20.0738 5.98344 20.1977C5.73616 20.3216 5.52132 20.5016 5.3561 20.7234C5.19087 20.9452 5.07986 21.2026 5.03193 21.4749C4.98401 21.7473 5.00051 22.0271 5.08011 22.292L7.19011 29.359C7.31011 29.739 7.67011 30 8.08011 30H23.9501C24.3501 30 24.7101 29.74 24.8401 29.36L26.9501 22.292C27.0275 22.0264 27.0421 21.7465 26.9926 21.4743C26.9432 21.2021 26.8311 20.9452 26.6652 20.7238C26.4993 20.5024 26.2842 20.3227 26.0369 20.1988C25.7895 20.0749 25.5167 20.0103 25.2401 20.01Z" fill="url(#paint15_radial_3799_5394)"/>
<g filter="url(#filter2_f_3799_5394)">
<path d="M12.4229 10.524C12.2229 10.324 12.2229 10.014 12.4229 9.81401L13.1629 9.07401C13.3629 8.87401 13.6729 8.87401 13.8729 9.07401C14.0729 9.27401 14.0729 9.58401 13.8729 9.78401L13.1229 10.524C12.9329 10.724 12.6129 10.724 12.4229 10.524Z" fill="#C8397E"/>
</g>
<path d="M12.4229 10.295C12.2229 10.095 12.2229 9.78501 12.4229 9.58501L13.1629 8.84501C13.3629 8.64501 13.6729 8.64501 13.8729 8.84501C14.0729 9.04501 14.0729 9.35501 13.8729 9.55501L13.1229 10.295C12.9329 10.495 12.6129 10.495 12.4229 10.295Z" fill="url(#paint16_linear_3799_5394)"/>
<g filter="url(#filter3_f_3799_5394)">
<path d="M11.77 18.34C11.7197 18.291 11.6796 18.2324 11.6523 18.1676C11.6249 18.1029 11.6108 18.0333 11.6108 17.963C11.6108 17.8927 11.6249 17.8231 11.6523 17.7584C11.6796 17.6936 11.7197 17.635 11.77 17.586L12.556 16.8C12.6051 16.7495 12.6637 16.7093 12.7286 16.6819C12.7934 16.6544 12.8631 16.6403 12.9335 16.6403C13.0039 16.6403 13.0736 16.6544 13.1385 16.6819C13.2033 16.7093 13.262 16.7495 13.311 16.8C13.3614 16.849 13.4015 16.9076 13.4288 16.9724C13.4561 17.0371 13.4702 17.1067 13.4702 17.177C13.4702 17.2473 13.4561 17.3169 13.4288 17.3816C13.4015 17.4464 13.3614 17.505 13.311 17.554L12.524 18.341C12.475 18.3914 12.4164 18.4314 12.3517 18.4588C12.2869 18.4861 12.2173 18.5002 12.147 18.5002C12.0767 18.5002 12.0072 18.4861 11.9424 18.4588C11.8777 18.4314 11.819 18.3904 11.77 18.34Z" fill="#DC41B7"/>
</g>
<path d="M11.86 18.11C11.66 17.91 11.66 17.6 11.86 17.4L12.6 16.66C12.8 16.46 13.11 16.46 13.31 16.66C13.51 16.86 13.51 17.17 13.31 17.37L12.57 18.11C12.38 18.31 12.06 18.31 11.86 18.11Z" fill="url(#paint17_linear_3799_5394)"/>
<g filter="url(#filter4_f_3799_5394)">
<path d="M7.50596 16.819C7.30596 16.619 7.30596 16.309 7.50596 16.109L8.24596 15.369C8.44596 15.169 8.75596 15.169 8.95596 15.369C9.15596 15.569 9.15596 15.879 8.95596 16.079L8.21596 16.819C8.01596 17.009 7.70596 17.009 7.50596 16.819Z" fill="#D53275"/>
</g>
<path d="M7.30308 16.819C7.10308 16.619 7.10308 16.309 7.30308 16.109L8.04308 15.369C8.24308 15.169 8.55308 15.169 8.75308 15.369C8.95308 15.569 8.95308 15.879 8.75308 16.079L8.01308 16.819C7.81308 17.009 7.50308 17.009 7.30308 16.819Z" fill="url(#paint18_linear_3799_5394)"/>
<g filter="url(#filter5_f_3799_5394)">
<path d="M23.3761 17.112C23.3243 17.0709 23.2812 17.0199 23.2494 16.9618C23.2176 16.9038 23.1977 16.84 23.191 16.7742C23.1843 16.7084 23.1909 16.6419 23.2103 16.5786C23.2297 16.5154 23.2616 16.4567 23.3041 16.406L23.9661 15.595C24.0072 15.5431 24.0583 15.5 24.1163 15.4682C24.1743 15.4365 24.2381 15.4166 24.3039 15.4099C24.3697 15.4032 24.4362 15.4097 24.4995 15.4292C24.5627 15.4486 24.6214 15.4805 24.6721 15.523C24.8921 15.703 24.9221 16.011 24.7441 16.23L24.0821 17.04C23.9964 17.1407 23.8751 17.2044 23.7436 17.2178C23.612 17.2312 23.4804 17.1933 23.3761 17.112Z" fill="#C840AF"/>
</g>
<path d="M23.2989 16.819C23.0989 16.619 23.0989 16.309 23.2989 16.109L24.0389 15.369C24.2389 15.169 24.5489 15.169 24.7489 15.369C24.9489 15.569 24.9489 15.879 24.7489 16.079L24.0089 16.819C23.8089 17.009 23.4889 17.009 23.2989 16.819Z" fill="url(#paint19_linear_3799_5394)"/>
<path d="M23.2989 16.819C23.0989 16.619 23.0989 16.309 23.2989 16.109L24.0389 15.369C24.2389 15.169 24.5489 15.169 24.7489 15.369C24.9489 15.569 24.9489 15.879 24.7489 16.079L24.0089 16.819C23.8089 17.009 23.4889 17.009 23.2989 16.819Z" fill="url(#paint20_radial_3799_5394)"/>
<g filter="url(#filter6_f_3799_5394)">
<path d="M20.474 12.033C20.674 11.833 20.984 11.833 21.184 12.033L21.924 12.773C22.124 12.973 22.124 13.283 21.924 13.483C21.724 13.683 21.414 13.683 21.214 13.483L20.474 12.743C20.274 12.553 20.274 12.233 20.474 12.033Z" fill="url(#paint21_linear_3799_5394)"/>
<path d="M20.474 12.033C20.674 11.833 20.984 11.833 21.184 12.033L21.924 12.773C22.124 12.973 22.124 13.283 21.924 13.483C21.724 13.683 21.414 13.683 21.214 13.483L20.474 12.743C20.274 12.553 20.274 12.233 20.474 12.033Z" fill="#DA41D6"/>
</g>
<g filter="url(#filter7_f_3799_5394)">
<path d="M9.24707 13.258C9.24707 12.978 9.46707 12.758 9.74707 12.758H10.7971C11.0771 12.758 11.2971 12.978 11.2971 13.258C11.2971 13.538 11.0771 13.758 10.7971 13.758H9.74707C9.46707 13.758 9.24707 13.538 9.24707 13.258Z" fill="#B03F95"/>
</g>
<path d="M9.19995 13.43C9.19995 13.15 9.41995 12.93 9.69995 12.93H10.75C11.03 12.93 11.25 13.15 11.25 13.43C11.25 13.71 11.03 13.93 10.75 13.93H9.69995C9.41995 13.93 9.19995 13.71 9.19995 13.43Z" fill="url(#paint22_linear_3799_5394)"/>
<path d="M9.19995 13.43C9.19995 13.15 9.41995 12.93 9.69995 12.93H10.75C11.03 12.93 11.25 13.15 11.25 13.43C11.25 13.71 11.03 13.93 10.75 13.93H9.69995C9.41995 13.93 9.19995 13.71 9.19995 13.43Z" fill="url(#paint23_radial_3799_5394)"/>
<path d="M20.6461 11.83C20.8461 11.63 21.1561 11.63 21.3561 11.83L22.0961 12.57C22.2961 12.77 22.2961 13.08 22.0961 13.28C21.8961 13.48 21.5861 13.48 21.3861 13.28L20.6461 12.54C20.4461 12.35 20.4461 12.03 20.6461 11.83Z" fill="url(#paint24_linear_3799_5394)"/>
<path d="M20.6461 11.83C20.8461 11.63 21.1561 11.63 21.3561 11.83L22.0961 12.57C22.2961 12.77 22.2961 13.08 22.0961 13.28C21.8961 13.48 21.5861 13.48 21.3861 13.28L20.6461 12.54C20.4461 12.35 20.4461 12.03 20.6461 11.83Z" fill="url(#paint25_radial_3799_5394)"/>
<g filter="url(#filter8_f_3799_5394)">
<path d="M8.20309 29.897H23.9121C24.9321 29.897 25.2771 29.26 25.3841 28.91C25.3841 28.91 27.2841 22.919 27.1671 22.433C27.0951 22.176 26.7801 22.145 26.6871 22.343L26.5371 22.689L26.4321 22.433C26.3621 22.273 26.0131 22.067 25.6671 22.433L24.9331 23.292C24.8681 23.368 24.7531 23.391 24.7081 23.292L24.3701 22.51C24.1981 22.13 23.4881 22.038 22.9321 22.544L22.1441 23.292C21.9991 23.442 21.7751 23.472 21.6341 23.292L20.9441 22.432C20.5961 22.009 19.7771 22.193 19.2501 22.584L18.4101 23.292C18.2071 23.437 17.9561 23.46 17.7661 23.292L16.9821 22.51C16.5411 22.153 15.6361 22.026 15.0981 22.544L14.3181 23.292C14.1761 23.402 13.8781 23.419 13.7031 23.292L12.6811 22.432C12.2411 22.055 11.3981 22.124 11.0261 22.584L10.4641 23.292C10.3741 23.396 10.2071 23.442 9.99909 23.292L9.03909 22.432C8.66109 22.112 7.93909 22.107 7.70509 22.584L7.43509 23.186C7.43509 23.186 7.36109 23.442 7.22509 23.292L6.52109 22.432C6.02109 21.888 5.63709 22.432 5.56109 22.689L5.41109 22.342C5.28809 22.072 4.77809 22.342 4.96109 22.991L6.73109 28.91C6.80609 29.139 7.22609 29.897 8.20309 29.897Z" fill="url(#paint26_linear_3799_5394)"/>
<path d="M8.20309 29.897H23.9121C24.9321 29.897 25.2771 29.26 25.3841 28.91C25.3841 28.91 27.2841 22.919 27.1671 22.433C27.0951 22.176 26.7801 22.145 26.6871 22.343L26.5371 22.689L26.4321 22.433C26.3621 22.273 26.0131 22.067 25.6671 22.433L24.9331 23.292C24.8681 23.368 24.7531 23.391 24.7081 23.292L24.3701 22.51C24.1981 22.13 23.4881 22.038 22.9321 22.544L22.1441 23.292C21.9991 23.442 21.7751 23.472 21.6341 23.292L20.9441 22.432C20.5961 22.009 19.7771 22.193 19.2501 22.584L18.4101 23.292C18.2071 23.437 17.9561 23.46 17.7661 23.292L16.9821 22.51C16.5411 22.153 15.6361 22.026 15.0981 22.544L14.3181 23.292C14.1761 23.402 13.8781 23.419 13.7031 23.292L12.6811 22.432C12.2411 22.055 11.3981 22.124 11.0261 22.584L10.4641 23.292C10.3741 23.396 10.2071 23.442 9.99909 23.292L9.03909 22.432C8.66109 22.112 7.93909 22.107 7.70509 22.584L7.43509 23.186C7.43509 23.186 7.36109 23.442 7.22509 23.292L6.52109 22.432C6.02109 21.888 5.63709 22.432 5.56109 22.689L5.41109 22.342C5.28809 22.072 4.77809 22.342 4.96109 22.991L6.73109 28.91C6.80609 29.139 7.22609 29.897 8.20309 29.897Z" fill="url(#paint27_radial_3799_5394)"/>
<path d="M8.20309 29.897H23.9121C24.9321 29.897 25.2771 29.26 25.3841 28.91C25.3841 28.91 27.2841 22.919 27.1671 22.433C27.0951 22.176 26.7801 22.145 26.6871 22.343L26.5371 22.689L26.4321 22.433C26.3621 22.273 26.0131 22.067 25.6671 22.433L24.9331 23.292C24.8681 23.368 24.7531 23.391 24.7081 23.292L24.3701 22.51C24.1981 22.13 23.4881 22.038 22.9321 22.544L22.1441 23.292C21.9991 23.442 21.7751 23.472 21.6341 23.292L20.9441 22.432C20.5961 22.009 19.7771 22.193 19.2501 22.584L18.4101 23.292C18.2071 23.437 17.9561 23.46 17.7661 23.292L16.9821 22.51C16.5411 22.153 15.6361 22.026 15.0981 22.544L14.3181 23.292C14.1761 23.402 13.8781 23.419 13.7031 23.292L12.6811 22.432C12.2411 22.055 11.3981 22.124 11.0261 22.584L10.4641 23.292C10.3741 23.396 10.2071 23.442 9.99909 23.292L9.03909 22.432C8.66109 22.112 7.93909 22.107 7.70509 22.584L7.43509 23.186C7.43509 23.186 7.36109 23.442 7.22509 23.292L6.52109 22.432C6.02109 21.888 5.63709 22.432 5.56109 22.689L5.41109 22.342C5.28809 22.072 4.77809 22.342 4.96109 22.991L6.73109 28.91C6.80609 29.139 7.22609 29.897 8.20309 29.897Z" fill="url(#paint28_radial_3799_5394)"/>
<path d="M8.20309 29.897H23.9121C24.9321 29.897 25.2771 29.26 25.3841 28.91C25.3841 28.91 27.2841 22.919 27.1671 22.433C27.0951 22.176 26.7801 22.145 26.6871 22.343L26.5371 22.689L26.4321 22.433C26.3621 22.273 26.0131 22.067 25.6671 22.433L24.9331 23.292C24.8681 23.368 24.7531 23.391 24.7081 23.292L24.3701 22.51C24.1981 22.13 23.4881 22.038 22.9321 22.544L22.1441 23.292C21.9991 23.442 21.7751 23.472 21.6341 23.292L20.9441 22.432C20.5961 22.009 19.7771 22.193 19.2501 22.584L18.4101 23.292C18.2071 23.437 17.9561 23.46 17.7661 23.292L16.9821 22.51C16.5411 22.153 15.6361 22.026 15.0981 22.544L14.3181 23.292C14.1761 23.402 13.8781 23.419 13.7031 23.292L12.6811 22.432C12.2411 22.055 11.3981 22.124 11.0261 22.584L10.4641 23.292C10.3741 23.396 10.2071 23.442 9.99909 23.292L9.03909 22.432C8.66109 22.112 7.93909 22.107 7.70509 22.584L7.43509 23.186C7.43509 23.186 7.36109 23.442 7.22509 23.292L6.52109 22.432C6.02109 21.888 5.63709 22.432 5.56109 22.689L5.41109 22.342C5.28809 22.072 4.77809 22.342 4.96109 22.991L6.73109 28.91C6.80609 29.139 7.22609 29.897 8.20309 29.897Z" fill="url(#paint29_radial_3799_5394)"/>
<path d="M8.20309 29.897H23.9121C24.9321 29.897 25.2771 29.26 25.3841 28.91C25.3841 28.91 27.2841 22.919 27.1671 22.433C27.0951 22.176 26.7801 22.145 26.6871 22.343L26.5371 22.689L26.4321 22.433C26.3621 22.273 26.0131 22.067 25.6671 22.433L24.9331 23.292C24.8681 23.368 24.7531 23.391 24.7081 23.292L24.3701 22.51C24.1981 22.13 23.4881 22.038 22.9321 22.544L22.1441 23.292C21.9991 23.442 21.7751 23.472 21.6341 23.292L20.9441 22.432C20.5961 22.009 19.7771 22.193 19.2501 22.584L18.4101 23.292C18.2071 23.437 17.9561 23.46 17.7661 23.292L16.9821 22.51C16.5411 22.153 15.6361 22.026 15.0981 22.544L14.3181 23.292C14.1761 23.402 13.8781 23.419 13.7031 23.292L12.6811 22.432C12.2411 22.055 11.3981 22.124 11.0261 22.584L10.4641 23.292C10.3741 23.396 10.2071 23.442 9.99909 23.292L9.03909 22.432C8.66109 22.112 7.93909 22.107 7.70509 22.584L7.43509 23.186C7.43509 23.186 7.36109 23.442 7.22509 23.292L6.52109 22.432C6.02109 21.888 5.63709 22.432 5.56109 22.689L5.41109 22.342C5.28809 22.072 4.77809 22.342 4.96109 22.991L6.73109 28.91C6.80609 29.139 7.22609 29.897 8.20309 29.897Z" fill="url(#paint30_linear_3799_5394)"/>
<path d="M8.20309 29.897H23.9121C24.9321 29.897 25.2771 29.26 25.3841 28.91C25.3841 28.91 27.2841 22.919 27.1671 22.433C27.0951 22.176 26.7801 22.145 26.6871 22.343L26.5371 22.689L26.4321 22.433C26.3621 22.273 26.0131 22.067 25.6671 22.433L24.9331 23.292C24.8681 23.368 24.7531 23.391 24.7081 23.292L24.3701 22.51C24.1981 22.13 23.4881 22.038 22.9321 22.544L22.1441 23.292C21.9991 23.442 21.7751 23.472 21.6341 23.292L20.9441 22.432C20.5961 22.009 19.7771 22.193 19.2501 22.584L18.4101 23.292C18.2071 23.437 17.9561 23.46 17.7661 23.292L16.9821 22.51C16.5411 22.153 15.6361 22.026 15.0981 22.544L14.3181 23.292C14.1761 23.402 13.8781 23.419 13.7031 23.292L12.6811 22.432C12.2411 22.055 11.3981 22.124 11.0261 22.584L10.4641 23.292C10.3741 23.396 10.2071 23.442 9.99909 23.292L9.03909 22.432C8.66109 22.112 7.93909 22.107 7.70509 22.584L7.43509 23.186C7.43509 23.186 7.36109 23.442 7.22509 23.292L6.52109 22.432C6.02109 21.888 5.63709 22.432 5.56109 22.689L5.41109 22.342C5.28809 22.072 4.77809 22.342 4.96109 22.991L6.73109 28.91C6.80609 29.139 7.22609 29.897 8.20309 29.897Z" fill="#856E5F"/>
</g>
<g filter="url(#filter9_f_3799_5394)">
<path d="M18.212 10.295C18.012 10.095 18.012 9.78501 18.212 9.58501L18.952 8.84501C19.152 8.64501 19.462 8.64501 19.662 8.84501C19.862 9.04501 19.862 9.35501 19.662 9.55501L18.922 10.295C18.722 10.495 18.402 10.495 18.212 10.295Z" fill="#954093"/>
</g>
<g filter="url(#filter10_f_3799_5394)">
<path d="M18.2029 9.32L18.9179 8.65201C19.1179 8.45201 19.6249 8.488 19.7889 8.792C19.4449 9.113 18.6019 9.219 18.2029 9.32Z" fill="#954093"/>
</g>
<path d="M18.2899 10.17C18.0899 9.97001 18.0899 9.66001 18.2899 9.46001L19.0299 8.72001C19.2299 8.52001 19.5399 8.52001 19.7399 8.72001C19.9399 8.92001 19.9399 9.23001 19.7399 9.43001L18.9999 10.17C18.7999 10.37 18.4799 10.37 18.2899 10.17Z" fill="url(#paint31_linear_3799_5394)"/>
<path d="M18.2899 10.17C18.0899 9.97001 18.0899 9.66001 18.2899 9.46001L19.0299 8.72001C19.2299 8.52001 19.5399 8.52001 19.7399 8.72001C19.9399 8.92001 19.9399 9.23001 19.7399 9.43001L18.9999 10.17C18.7999 10.37 18.4799 10.37 18.2899 10.17Z" fill="url(#paint32_radial_3799_5394)"/>
<g filter="url(#filter11_f_3799_5394)">
<path d="M20.86 18.444C21.06 18.244 21.06 17.934 20.86 17.734L20.12 16.994C19.92 16.794 19.61 16.794 19.41 16.994C19.21 17.194 19.21 17.504 19.41 17.704L20.15 18.444C20.35 18.644 20.67 18.644 20.86 18.444Z" fill="#C53DD2"/>
</g>
<path d="M20.87 18.11C21.07 17.91 21.07 17.6 20.87 17.4L20.13 16.66C19.93 16.46 19.62 16.46 19.42 16.66C19.22 16.86 19.22 17.17 19.42 17.37L20.16 18.11C20.36 18.31 20.68 18.31 20.87 18.11Z" fill="url(#paint33_linear_3799_5394)"/>
<path d="M20.87 18.11C21.07 17.91 21.07 17.6 20.87 17.4L20.13 16.66C19.93 16.46 19.62 16.46 19.42 16.66C19.22 16.86 19.22 17.17 19.42 17.37L20.16 18.11C20.36 18.31 20.68 18.31 20.87 18.11Z" fill="url(#paint34_radial_3799_5394)"/>
<path d="M7.99992 30H23.9999C25.0399 30 25.3909 29.354 25.4999 29C25.4999 29 27.4359 22.928 27.3159 22.436C27.2419 22.176 26.9219 22.145 26.8259 22.345L26.6739 22.695L26.5669 22.436C26.4969 22.276 26.1409 22.066 25.7879 22.436L25.0399 23.306C24.9739 23.383 24.8579 23.406 24.8109 23.306L24.4669 22.514C24.2919 22.129 23.5679 22.036 23.0029 22.549L22.1999 23.307C22.0519 23.459 21.8239 23.488 21.6799 23.307L20.9779 22.437C20.6229 22.007 19.7879 22.193 19.2519 22.589L18.3969 23.307C18.1899 23.453 17.9329 23.477 17.7399 23.307L16.9419 22.514C16.4919 22.153 15.5709 22.024 15.0219 22.549L14.2279 23.307C14.0839 23.418 13.7799 23.436 13.6019 23.307L12.5609 22.437C12.1109 22.053 11.2539 22.123 10.8749 22.589L10.3029 23.307C10.2099 23.413 10.0409 23.459 9.82992 23.307L8.85192 22.437C8.46592 22.112 7.73092 22.106 7.49292 22.589L7.21792 23.199C7.21792 23.199 7.14192 23.459 7.00392 23.307L6.28692 22.437C5.77692 21.884 5.38592 22.437 5.30892 22.696L5.15692 22.344C5.02992 22.071 4.51092 22.344 4.69792 23.001L6.49992 29C6.57692 29.232 7.00392 30 7.99992 30Z" fill="url(#paint35_linear_3799_5394)"/>
<path d="M7.99992 30H23.9999C25.0399 30 25.3909 29.354 25.4999 29C25.4999 29 27.4359 22.928 27.3159 22.436C27.2419 22.176 26.9219 22.145 26.8259 22.345L26.6739 22.695L26.5669 22.436C26.4969 22.276 26.1409 22.066 25.7879 22.436L25.0399 23.306C24.9739 23.383 24.8579 23.406 24.8109 23.306L24.4669 22.514C24.2919 22.129 23.5679 22.036 23.0029 22.549L22.1999 23.307C22.0519 23.459 21.8239 23.488 21.6799 23.307L20.9779 22.437C20.6229 22.007 19.7879 22.193 19.2519 22.589L18.3969 23.307C18.1899 23.453 17.9329 23.477 17.7399 23.307L16.9419 22.514C16.4919 22.153 15.5709 22.024 15.0219 22.549L14.2279 23.307C14.0839 23.418 13.7799 23.436 13.6019 23.307L12.5609 22.437C12.1109 22.053 11.2539 22.123 10.8749 22.589L10.3029 23.307C10.2099 23.413 10.0409 23.459 9.82992 23.307L8.85192 22.437C8.46592 22.112 7.73092 22.106 7.49292 22.589L7.21792 23.199C7.21792 23.199 7.14192 23.459 7.00392 23.307L6.28692 22.437C5.77692 21.884 5.38592 22.437 5.30892 22.696L5.15692 22.344C5.02992 22.071 4.51092 22.344 4.69792 23.001L6.49992 29C6.57692 29.232 7.00392 30 7.99992 30Z" fill="url(#paint36_radial_3799_5394)"/>
<path d="M7.99992 30H23.9999C25.0399 30 25.3909 29.354 25.4999 29C25.4999 29 27.4359 22.928 27.3159 22.436C27.2419 22.176 26.9219 22.145 26.8259 22.345L26.6739 22.695L26.5669 22.436C26.4969 22.276 26.1409 22.066 25.7879 22.436L25.0399 23.306C24.9739 23.383 24.8579 23.406 24.8109 23.306L24.4669 22.514C24.2919 22.129 23.5679 22.036 23.0029 22.549L22.1999 23.307C22.0519 23.459 21.8239 23.488 21.6799 23.307L20.9779 22.437C20.6229 22.007 19.7879 22.193 19.2519 22.589L18.3969 23.307C18.1899 23.453 17.9329 23.477 17.7399 23.307L16.9419 22.514C16.4919 22.153 15.5709 22.024 15.0219 22.549L14.2279 23.307C14.0839 23.418 13.7799 23.436 13.6019 23.307L12.5609 22.437C12.1109 22.053 11.2539 22.123 10.8749 22.589L10.3029 23.307C10.2099 23.413 10.0409 23.459 9.82992 23.307L8.85192 22.437C8.46592 22.112 7.73092 22.106 7.49292 22.589L7.21792 23.199C7.21792 23.199 7.14192 23.459 7.00392 23.307L6.28692 22.437C5.77692 21.884 5.38592 22.437 5.30892 22.696L5.15692 22.344C5.02992 22.071 4.51092 22.344 4.69792 23.001L6.49992 29C6.57692 29.232 7.00392 30 7.99992 30Z" fill="url(#paint37_radial_3799_5394)"/>
<path d="M7.99992 30H23.9999C25.0399 30 25.3909 29.354 25.4999 29C25.4999 29 27.4359 22.928 27.3159 22.436C27.2419 22.176 26.9219 22.145 26.8259 22.345L26.6739 22.695L26.5669 22.436C26.4969 22.276 26.1409 22.066 25.7879 22.436L25.0399 23.306C24.9739 23.383 24.8579 23.406 24.8109 23.306L24.4669 22.514C24.2919 22.129 23.5679 22.036 23.0029 22.549L22.1999 23.307C22.0519 23.459 21.8239 23.488 21.6799 23.307L20.9779 22.437C20.6229 22.007 19.7879 22.193 19.2519 22.589L18.3969 23.307C18.1899 23.453 17.9329 23.477 17.7399 23.307L16.9419 22.514C16.4919 22.153 15.5709 22.024 15.0219 22.549L14.2279 23.307C14.0839 23.418 13.7799 23.436 13.6019 23.307L12.5609 22.437C12.1109 22.053 11.2539 22.123 10.8749 22.589L10.3029 23.307C10.2099 23.413 10.0409 23.459 9.82992 23.307L8.85192 22.437C8.46592 22.112 7.73092 22.106 7.49292 22.589L7.21792 23.199C7.21792 23.199 7.14192 23.459 7.00392 23.307L6.28692 22.437C5.77692 21.884 5.38592 22.437 5.30892 22.696L5.15692 22.344C5.02992 22.071 4.51092 22.344 4.69792 23.001L6.49992 29C6.57692 29.232 7.00392 30 7.99992 30Z" fill="url(#paint38_radial_3799_5394)"/>
<path d="M7.99992 30H23.9999C25.0399 30 25.3909 29.354 25.4999 29C25.4999 29 27.4359 22.928 27.3159 22.436C27.2419 22.176 26.9219 22.145 26.8259 22.345L26.6739 22.695L26.5669 22.436C26.4969 22.276 26.1409 22.066 25.7879 22.436L25.0399 23.306C24.9739 23.383 24.8579 23.406 24.8109 23.306L24.4669 22.514C24.2919 22.129 23.5679 22.036 23.0029 22.549L22.1999 23.307C22.0519 23.459 21.8239 23.488 21.6799 23.307L20.9779 22.437C20.6229 22.007 19.7879 22.193 19.2519 22.589L18.3969 23.307C18.1899 23.453 17.9329 23.477 17.7399 23.307L16.9419 22.514C16.4919 22.153 15.5709 22.024 15.0219 22.549L14.2279 23.307C14.0839 23.418 13.7799 23.436 13.6019 23.307L12.5609 22.437C12.1109 22.053 11.2539 22.123 10.8749 22.589L10.3029 23.307C10.2099 23.413 10.0409 23.459 9.82992 23.307L8.85192 22.437C8.46592 22.112 7.73092 22.106 7.49292 22.589L7.21792 23.199C7.21792 23.199 7.14192 23.459 7.00392 23.307L6.28692 22.437C5.77692 21.884 5.38592 22.437 5.30892 22.696L5.15692 22.344C5.02992 22.071 4.51092 22.344 4.69792 23.001L6.49992 29C6.57692 29.232 7.00392 30 7.99992 30Z" fill="url(#paint39_linear_3799_5394)"/>
<path d="M7.99992 30H23.9999C25.0399 30 25.3909 29.354 25.4999 29C25.4999 29 27.4359 22.928 27.3159 22.436C27.2419 22.176 26.9219 22.145 26.8259 22.345L26.6739 22.695L26.5669 22.436C26.4969 22.276 26.1409 22.066 25.7879 22.436L25.0399 23.306C24.9739 23.383 24.8579 23.406 24.8109 23.306L24.4669 22.514C24.2919 22.129 23.5679 22.036 23.0029 22.549L22.1999 23.307C22.0519 23.459 21.8239 23.488 21.6799 23.307L20.9779 22.437C20.6229 22.007 19.7879 22.193 19.2519 22.589L18.3969 23.307C18.1899 23.453 17.9329 23.477 17.7399 23.307L16.9419 22.514C16.4919 22.153 15.5709 22.024 15.0219 22.549L14.2279 23.307C14.0839 23.418 13.7799 23.436 13.6019 23.307L12.5609 22.437C12.1109 22.053 11.2539 22.123 10.8749 22.589L10.3029 23.307C10.2099 23.413 10.0409 23.459 9.82992 23.307L8.85192 22.437C8.46592 22.112 7.73092 22.106 7.49292 22.589L7.21792 23.199C7.21792 23.199 7.14192 23.459 7.00392 23.307L6.28692 22.437C5.77692 21.884 5.38592 22.437 5.30892 22.696L5.15692 22.344C5.02992 22.071 4.51092 22.344 4.69792 23.001L6.49992 29C6.57692 29.232 7.00392 30 7.99992 30Z" fill="url(#paint40_linear_3799_5394)"/>
<path d="M7.99992 30H23.9999C25.0399 30 25.3909 29.354 25.4999 29C25.4999 29 27.4359 22.928 27.3159 22.436C27.2419 22.176 26.9219 22.145 26.8259 22.345L26.6739 22.695L26.5669 22.436C26.4969 22.276 26.1409 22.066 25.7879 22.436L25.0399 23.306C24.9739 23.383 24.8579 23.406 24.8109 23.306L24.4669 22.514C24.2919 22.129 23.5679 22.036 23.0029 22.549L22.1999 23.307C22.0519 23.459 21.8239 23.488 21.6799 23.307L20.9779 22.437C20.6229 22.007 19.7879 22.193 19.2519 22.589L18.3969 23.307C18.1899 23.453 17.9329 23.477 17.7399 23.307L16.9419 22.514C16.4919 22.153 15.5709 22.024 15.0219 22.549L14.2279 23.307C14.0839 23.418 13.7799 23.436 13.6019 23.307L12.5609 22.437C12.1109 22.053 11.2539 22.123 10.8749 22.589L10.3029 23.307C10.2099 23.413 10.0409 23.459 9.82992 23.307L8.85192 22.437C8.46592 22.112 7.73092 22.106 7.49292 22.589L7.21792 23.199C7.21792 23.199 7.14192 23.459 7.00392 23.307L6.28692 22.437C5.77692 21.884 5.38592 22.437 5.30892 22.696L5.15692 22.344C5.02992 22.071 4.51092 22.344 4.69792 23.001L6.49992 29C6.57692 29.232 7.00392 30 7.99992 30Z" fill="url(#paint41_linear_3799_5394)"/>
<g filter="url(#filter12_f_3799_5394)">
<path d="M8.20993 29.897H23.7879C24.8009 29.897 25.1429 29.351 25.2479 29.051C25.2479 29.051 25.7819 27.363 26.2889 25.844C26.6659 24.715 27.0109 23.679 26.9609 23.502L26.9599 23.499C26.8899 23.281 26.8809 23.256 26.7899 23.424L26.6399 23.721L26.5359 23.501C26.4679 23.365 26.0779 23.188 25.7339 23.501L25.0619 24.238C24.9219 24.414 24.7579 24.456 24.6559 24.238C24.6559 24.238 24.4609 23.818 24.3049 23.502C24.1479 23.186 23.5149 23.072 23.0779 23.502L22.3359 24.238C22.1879 24.442 21.7729 24.506 21.5299 24.238L20.8459 23.502C20.4999 23.139 19.6839 23.252 19.2339 23.631C18.7849 24.009 18.4449 24.238 18.4449 24.238C18.2189 24.4 17.8979 24.442 17.6939 24.238L16.7969 23.424C16.3599 23.118 15.7839 22.98 15.2499 23.424L14.2739 24.238C14.0779 24.407 13.7339 24.414 13.5159 24.238L12.4919 23.424C12.0549 23.101 11.4939 23.031 11.1249 23.424L10.4529 24.238C10.3129 24.407 9.94493 24.392 9.78093 24.238L8.85093 23.424C8.52293 23.108 7.95093 23.016 7.71893 23.424C7.71893 23.424 7.43693 23.979 7.35893 24.147C7.28093 24.315 7.07893 24.343 6.92193 24.16L6.43693 23.424C5.94093 22.957 5.56993 23.502 5.49593 23.721L5.34693 23.424C5.22393 23.193 5.03693 23.335 5.21893 23.891L5.81193 25.859L6.75093 29.051C6.82493 29.248 7.24093 29.897 8.21093 29.897H8.20993Z" fill="url(#paint42_linear_3799_5394)"/>
<path d="M8.20993 29.897H23.7879C24.8009 29.897 25.1429 29.351 25.2479 29.051C25.2479 29.051 25.7819 27.363 26.2889 25.844C26.6659 24.715 27.0109 23.679 26.9609 23.502L26.9599 23.499C26.8899 23.281 26.8809 23.256 26.7899 23.424L26.6399 23.721L26.5359 23.501C26.4679 23.365 26.0779 23.188 25.7339 23.501L25.0619 24.238C24.9219 24.414 24.7579 24.456 24.6559 24.238C24.6559 24.238 24.4609 23.818 24.3049 23.502C24.1479 23.186 23.5149 23.072 23.0779 23.502L22.3359 24.238C22.1879 24.442 21.7729 24.506 21.5299 24.238L20.8459 23.502C20.4999 23.139 19.6839 23.252 19.2339 23.631C18.7849 24.009 18.4449 24.238 18.4449 24.238C18.2189 24.4 17.8979 24.442 17.6939 24.238L16.7969 23.424C16.3599 23.118 15.7839 22.98 15.2499 23.424L14.2739 24.238C14.0779 24.407 13.7339 24.414 13.5159 24.238L12.4919 23.424C12.0549 23.101 11.4939 23.031 11.1249 23.424L10.4529 24.238C10.3129 24.407 9.94493 24.392 9.78093 24.238L8.85093 23.424C8.52293 23.108 7.95093 23.016 7.71893 23.424C7.71893 23.424 7.43693 23.979 7.35893 24.147C7.28093 24.315 7.07893 24.343 6.92193 24.16L6.43693 23.424C5.94093 22.957 5.56993 23.502 5.49593 23.721L5.34693 23.424C5.22393 23.193 5.03693 23.335 5.21893 23.891L5.81193 25.859L6.75093 29.051C6.82493 29.248 7.24093 29.897 8.21093 29.897H8.20993Z" fill="url(#paint43_radial_3799_5394)"/>
<path d="M8.20993 29.897H23.7879C24.8009 29.897 25.1429 29.351 25.2479 29.051C25.2479 29.051 25.7819 27.363 26.2889 25.844C26.6659 24.715 27.0109 23.679 26.9609 23.502L26.9599 23.499C26.8899 23.281 26.8809 23.256 26.7899 23.424L26.6399 23.721L26.5359 23.501C26.4679 23.365 26.0779 23.188 25.7339 23.501L25.0619 24.238C24.9219 24.414 24.7579 24.456 24.6559 24.238C24.6559 24.238 24.4609 23.818 24.3049 23.502C24.1479 23.186 23.5149 23.072 23.0779 23.502L22.3359 24.238C22.1879 24.442 21.7729 24.506 21.5299 24.238L20.8459 23.502C20.4999 23.139 19.6839 23.252 19.2339 23.631C18.7849 24.009 18.4449 24.238 18.4449 24.238C18.2189 24.4 17.8979 24.442 17.6939 24.238L16.7969 23.424C16.3599 23.118 15.7839 22.98 15.2499 23.424L14.2739 24.238C14.0779 24.407 13.7339 24.414 13.5159 24.238L12.4919 23.424C12.0549 23.101 11.4939 23.031 11.1249 23.424L10.4529 24.238C10.3129 24.407 9.94493 24.392 9.78093 24.238L8.85093 23.424C8.52293 23.108 7.95093 23.016 7.71893 23.424C7.71893 23.424 7.43693 23.979 7.35893 24.147C7.28093 24.315 7.07893 24.343 6.92193 24.16L6.43693 23.424C5.94093 22.957 5.56993 23.502 5.49593 23.721L5.34693 23.424C5.22393 23.193 5.03693 23.335 5.21893 23.891L5.81193 25.859L6.75093 29.051C6.82493 29.248 7.24093 29.897 8.21093 29.897H8.20993Z" fill="url(#paint44_radial_3799_5394)"/>
<path d="M8.20993 29.897H23.7879C24.8009 29.897 25.1429 29.351 25.2479 29.051C25.2479 29.051 25.7819 27.363 26.2889 25.844C26.6659 24.715 27.0109 23.679 26.9609 23.502L26.9599 23.499C26.8899 23.281 26.8809 23.256 26.7899 23.424L26.6399 23.721L26.5359 23.501C26.4679 23.365 26.0779 23.188 25.7339 23.501L25.0619 24.238C24.9219 24.414 24.7579 24.456 24.6559 24.238C24.6559 24.238 24.4609 23.818 24.3049 23.502C24.1479 23.186 23.5149 23.072 23.0779 23.502L22.3359 24.238C22.1879 24.442 21.7729 24.506 21.5299 24.238L20.8459 23.502C20.4999 23.139 19.6839 23.252 19.2339 23.631C18.7849 24.009 18.4449 24.238 18.4449 24.238C18.2189 24.4 17.8979 24.442 17.6939 24.238L16.7969 23.424C16.3599 23.118 15.7839 22.98 15.2499 23.424L14.2739 24.238C14.0779 24.407 13.7339 24.414 13.5159 24.238L12.4919 23.424C12.0549 23.101 11.4939 23.031 11.1249 23.424L10.4529 24.238C10.3129 24.407 9.94493 24.392 9.78093 24.238L8.85093 23.424C8.52293 23.108 7.95093 23.016 7.71893 23.424C7.71893 23.424 7.43693 23.979 7.35893 24.147C7.28093 24.315 7.07893 24.343 6.92193 24.16L6.43693 23.424C5.94093 22.957 5.56993 23.502 5.49593 23.721L5.34693 23.424C5.22393 23.193 5.03693 23.335 5.21893 23.891L5.81193 25.859L6.75093 29.051C6.82493 29.248 7.24093 29.897 8.21093 29.897H8.20993Z" fill="url(#paint45_radial_3799_5394)"/>
</g>
<g filter="url(#filter13_f_3799_5394)">
<path d="M5.13309 22.77C5.01009 22.515 4.81409 22.77 4.99609 23.381L5.62009 25.367C12.5231 29.003 26.3361 25.414 26.3361 25.414C26.7041 24.197 27.1331 22.976 27.2031 22.734C27.2731 22.493 27.0691 22.462 26.9771 22.648L26.6481 23.43L26.5941 22.734C26.5941 22.547 26.1021 22.406 25.7341 22.855L25.0621 23.665C24.9221 23.859 24.9451 23.906 24.8441 23.665C24.8441 23.665 24.6481 23.203 24.4921 22.855C24.3361 22.507 23.5161 22.383 23.0781 22.855L22.3361 23.665C22.1881 23.891 22.0721 23.961 21.8281 23.665L21.1441 22.855C20.7981 22.455 19.6841 22.581 19.2341 22.997C18.7851 23.414 18.4451 23.665 18.4451 23.665C18.2191 23.844 17.8981 23.891 17.6941 23.665L16.7971 22.77C16.3601 22.433 15.6591 22.28 15.1251 22.77L14.1491 23.665C13.9531 23.852 13.7341 23.859 13.5161 23.665L12.4921 22.77C12.0551 22.413 11.2521 22.336 10.8821 22.77L10.2111 23.665C10.0711 23.852 9.94509 23.835 9.78109 23.665L8.85109 22.77C8.52309 22.422 7.95109 22.32 7.71909 22.77C7.71909 22.77 7.43709 23.381 7.35909 23.566C7.28109 23.751 7.07909 23.781 6.92209 23.58L6.22309 22.77C5.72709 22.256 5.35609 22.855 5.28109 23.097L5.13309 22.77Z" fill="url(#paint46_linear_3799_5394)"/>
<path d="M5.13309 22.77C5.01009 22.515 4.81409 22.77 4.99609 23.381L5.62009 25.367C12.5231 29.003 26.3361 25.414 26.3361 25.414C26.7041 24.197 27.1331 22.976 27.2031 22.734C27.2731 22.493 27.0691 22.462 26.9771 22.648L26.6481 23.43L26.5941 22.734C26.5941 22.547 26.1021 22.406 25.7341 22.855L25.0621 23.665C24.9221 23.859 24.9451 23.906 24.8441 23.665C24.8441 23.665 24.6481 23.203 24.4921 22.855C24.3361 22.507 23.5161 22.383 23.0781 22.855L22.3361 23.665C22.1881 23.891 22.0721 23.961 21.8281 23.665L21.1441 22.855C20.7981 22.455 19.6841 22.581 19.2341 22.997C18.7851 23.414 18.4451 23.665 18.4451 23.665C18.2191 23.844 17.8981 23.891 17.6941 23.665L16.7971 22.77C16.3601 22.433 15.6591 22.28 15.1251 22.77L14.1491 23.665C13.9531 23.852 13.7341 23.859 13.5161 23.665L12.4921 22.77C12.0551 22.413 11.2521 22.336 10.8821 22.77L10.2111 23.665C10.0711 23.852 9.94509 23.835 9.78109 23.665L8.85109 22.77C8.52309 22.422 7.95109 22.32 7.71909 22.77C7.71909 22.77 7.43709 23.381 7.35909 23.566C7.28109 23.751 7.07909 23.781 6.92209 23.58L6.22309 22.77C5.72709 22.256 5.35609 22.855 5.28109 23.097L5.13309 22.77Z" fill="url(#paint47_radial_3799_5394)"/>
<path d="M5.13309 22.77C5.01009 22.515 4.81409 22.77 4.99609 23.381L5.62009 25.367C12.5231 29.003 26.3361 25.414 26.3361 25.414C26.7041 24.197 27.1331 22.976 27.2031 22.734C27.2731 22.493 27.0691 22.462 26.9771 22.648L26.6481 23.43L26.5941 22.734C26.5941 22.547 26.1021 22.406 25.7341 22.855L25.0621 23.665C24.9221 23.859 24.9451 23.906 24.8441 23.665C24.8441 23.665 24.6481 23.203 24.4921 22.855C24.3361 22.507 23.5161 22.383 23.0781 22.855L22.3361 23.665C22.1881 23.891 22.0721 23.961 21.8281 23.665L21.1441 22.855C20.7981 22.455 19.6841 22.581 19.2341 22.997C18.7851 23.414 18.4451 23.665 18.4451 23.665C18.2191 23.844 17.8981 23.891 17.6941 23.665L16.7971 22.77C16.3601 22.433 15.6591 22.28 15.1251 22.77L14.1491 23.665C13.9531 23.852 13.7341 23.859 13.5161 23.665L12.4921 22.77C12.0551 22.413 11.2521 22.336 10.8821 22.77L10.2111 23.665C10.0711 23.852 9.94509 23.835 9.78109 23.665L8.85109 22.77C8.52309 22.422 7.95109 22.32 7.71909 22.77C7.71909 22.77 7.43709 23.381 7.35909 23.566C7.28109 23.751 7.07909 23.781 6.92209 23.58L6.22309 22.77C5.72709 22.256 5.35609 22.855 5.28109 23.097L5.13309 22.77Z" fill="url(#paint48_radial_3799_5394)"/>
<path d="M5.13309 22.77C5.01009 22.515 4.81409 22.77 4.99609 23.381L5.62009 25.367C12.5231 29.003 26.3361 25.414 26.3361 25.414C26.7041 24.197 27.1331 22.976 27.2031 22.734C27.2731 22.493 27.0691 22.462 26.9771 22.648L26.6481 23.43L26.5941 22.734C26.5941 22.547 26.1021 22.406 25.7341 22.855L25.0621 23.665C24.9221 23.859 24.9451 23.906 24.8441 23.665C24.8441 23.665 24.6481 23.203 24.4921 22.855C24.3361 22.507 23.5161 22.383 23.0781 22.855L22.3361 23.665C22.1881 23.891 22.0721 23.961 21.8281 23.665L21.1441 22.855C20.7981 22.455 19.6841 22.581 19.2341 22.997C18.7851 23.414 18.4451 23.665 18.4451 23.665C18.2191 23.844 17.8981 23.891 17.6941 23.665L16.7971 22.77C16.3601 22.433 15.6591 22.28 15.1251 22.77L14.1491 23.665C13.9531 23.852 13.7341 23.859 13.5161 23.665L12.4921 22.77C12.0551 22.413 11.2521 22.336 10.8821 22.77L10.2111 23.665C10.0711 23.852 9.94509 23.835 9.78109 23.665L8.85109 22.77C8.52309 22.422 7.95109 22.32 7.71909 22.77C7.71909 22.77 7.43709 23.381 7.35909 23.566C7.28109 23.751 7.07909 23.781 6.92209 23.58L6.22309 22.77C5.72709 22.256 5.35609 22.855 5.28109 23.097L5.13309 22.77Z" fill="url(#paint49_radial_3799_5394)"/>
</g>
<path fill-rule="evenodd" clip-rule="evenodd" d="M16.0129 25.125C16.1455 25.125 16.2727 25.1777 16.3665 25.2714C16.4603 25.3652 16.5129 25.4924 16.5129 25.625V30H15.5129V25.625C15.5129 25.4924 15.5656 25.3652 15.6594 25.2714C15.7532 25.1777 15.8803 25.125 16.0129 25.125Z" fill="url(#paint50_linear_3799_5394)"/>
<path fill-rule="evenodd" clip-rule="evenodd" d="M10.4631 25.01C10.5275 24.9969 10.5938 24.9965 10.6582 25.009C10.7227 25.0215 10.7841 25.0466 10.8389 25.0828C10.8937 25.119 10.9408 25.1656 10.9776 25.2201C11.0143 25.2745 11.04 25.3356 11.0531 25.4L11.9691 29.99H10.9631L10.0731 25.6C10.06 25.5356 10.0596 25.4693 10.0721 25.4049C10.0846 25.3404 10.1097 25.279 10.1459 25.2242C10.1821 25.1694 10.2288 25.1223 10.2832 25.0855C10.3376 25.0488 10.3988 25.0231 10.4631 25.01Z" fill="url(#paint51_linear_3799_5394)"/>
<g filter="url(#filter14_f_3799_5394)">
<path d="M16.5519 7.121C16.3519 7.321 16.0419 7.321 15.8419 7.121L15.1019 6.381C14.9019 6.181 14.9019 5.871 15.1019 5.671C15.3019 5.471 15.6119 5.471 15.8119 5.671L16.5519 6.421C16.7519 6.611 16.7519 6.931 16.5519 7.121Z" fill="#C5419E"/>
</g>
<path d="M16.725 6.83999C16.525 7.03999 16.215 7.03999 16.015 6.83999L15.275 6.09999C15.075 5.89999 15.075 5.58999 15.275 5.38999C15.475 5.18999 15.785 5.18999 15.985 5.38999L16.725 6.13999C16.925 6.32999 16.925 6.64999 16.725 6.83999Z" fill="url(#paint52_linear_3799_5394)"/>
<path d="M16.725 6.83999C16.525 7.03999 16.215 7.03999 16.015 6.83999L15.275 6.09999C15.075 5.89999 15.075 5.58999 15.275 5.38999C15.475 5.18999 15.785 5.18999 15.985 5.38999L16.725 6.13999C16.925 6.32999 16.925 6.64999 16.725 6.83999Z" fill="url(#paint53_radial_3799_5394)"/>
<path fill-rule="evenodd" clip-rule="evenodd" d="M21.5911 25.008C21.7214 25.0323 21.8368 25.1073 21.9118 25.2167C21.9868 25.326 22.0153 25.4606 21.9911 25.591L21.1491 30H20.1421L21.0091 25.409C21.0334 25.2786 21.1084 25.1633 21.2178 25.0883C21.3271 25.0132 21.4617 24.9847 21.5921 25.009L21.5911 25.008Z" fill="url(#paint54_linear_3799_5394)"/>
<g filter="url(#filter15_f_3799_5394)">
<path d="M16.725 13.923C16.525 14.123 16.215 14.123 16.015 13.923L15.275 13.183C15.075 12.983 15.075 12.673 15.275 12.473C15.475 12.273 15.785 12.273 15.985 12.473L16.725 13.213C16.925 13.413 16.925 13.723 16.725 13.923Z" fill="#D939B9"/>
</g>
<path d="M16.7299 13.735C16.5299 13.935 16.2199 13.935 16.0199 13.735L15.2799 12.995C15.0799 12.795 15.0799 12.485 15.2799 12.285C15.4799 12.085 15.7899 12.085 15.9899 12.285L16.7299 13.025C16.9299 13.225 16.9299 13.535 16.7299 13.735Z" fill="url(#paint55_linear_3799_5394)"/>
<path d="M16.7299 13.735C16.5299 13.935 16.2199 13.935 16.0199 13.735L15.2799 12.995C15.0799 12.795 15.0799 12.485 15.2799 12.285C15.4799 12.085 15.7899 12.085 15.9899 12.285L16.7299 13.025C16.9299 13.225 16.9299 13.535 16.7299 13.735Z" fill="url(#paint56_radial_3799_5394)"/>
<g filter="url(#filter16_f_3799_5394)">
<path d="M5.88989 22.469L6.79689 23.531" stroke="#64AFFF" stroke-width="0.25"/>
</g>
<defs>
<filter id="filter0_f_3799_5394" x="6.97729" y="8.78101" width="18.1602" height="7.08398" filterUnits="userSpaceOnUse" color-interpolation-filters="sRGB">
<feFlood flood-opacity="0" result="BackgroundImageFix"/>
<feBlend mode="normal" in="SourceGraphic" in2="BackgroundImageFix" result="shape"/>
<feGaussianBlur stdDeviation="0.25" result="effect1_foregroundBlur_3799_5394"/>
</filter>
<filter id="filter1_f_3799_5394" x="10.7029" y="5.02127" width="10.406" height="5.20044" filterUnits="userSpaceOnUse" color-interpolation-filters="sRGB">
<feFlood flood-opacity="0" result="BackgroundImageFix"/>
<feBlend mode="normal" in="SourceGraphic" in2="BackgroundImageFix" result="shape"/>
<feGaussianBlur stdDeviation="0.25" result="effect1_foregroundBlur_3799_5394"/>
</filter>
<filter id="filter2_f_3799_5394" x="12.0229" y="8.67401" width="2.25" height="2.25" filterUnits="userSpaceOnUse" color-interpolation-filters="sRGB">
<feFlood flood-opacity="0" result="BackgroundImageFix"/>
<feBlend mode="normal" in="SourceGraphic" in2="BackgroundImageFix" result="shape"/>
<feGaussianBlur stdDeviation="0.125" result="effect1_foregroundBlur_3799_5394"/>
</filter>
<filter id="filter3_f_3799_5394" x="11.1108" y="16.1403" width="2.85938" height="2.85989" filterUnits="userSpaceOnUse" color-interpolation-filters="sRGB">
<feFlood flood-opacity="0" result="BackgroundImageFix"/>
<feBlend mode="normal" in="SourceGraphic" in2="BackgroundImageFix" result="shape"/>
<feGaussianBlur stdDeviation="0.25" result="effect1_foregroundBlur_3799_5394"/>
</filter>
<filter id="filter4_f_3799_5394" x="7.10596" y="14.969" width="2.25" height="2.24249" filterUnits="userSpaceOnUse" color-interpolation-filters="sRGB">
<feFlood flood-opacity="0" result="BackgroundImageFix"/>
<feBlend mode="normal" in="SourceGraphic" in2="BackgroundImageFix" result="shape"/>
<feGaussianBlur stdDeviation="0.125" result="effect1_foregroundBlur_3799_5394"/>
</filter>
<filter id="filter5_f_3799_5394" x="22.9385" y="15.1573" width="2.17139" height="2.31308" filterUnits="userSpaceOnUse" color-interpolation-filters="sRGB">
<feFlood flood-opacity="0" result="BackgroundImageFix"/>
<feBlend mode="normal" in="SourceGraphic" in2="BackgroundImageFix" result="shape"/>
<feGaussianBlur stdDeviation="0.125" result="effect1_foregroundBlur_3799_5394"/>
</filter>
<filter id="filter6_f_3799_5394" x="20.074" y="11.633" width="2.25" height="2.25" filterUnits="userSpaceOnUse" color-interpolation-filters="sRGB">
<feFlood flood-opacity="0" result="BackgroundImageFix"/>
<feBlend mode="normal" in="SourceGraphic" in2="BackgroundImageFix" result="shape"/>
<feGaussianBlur stdDeviation="0.125" result="effect1_foregroundBlur_3799_5394"/>
</filter>
<filter id="filter7_f_3799_5394" x="8.99707" y="12.508" width="2.55005" height="1.5" filterUnits="userSpaceOnUse" color-interpolation-filters="sRGB">
<feFlood flood-opacity="0" result="BackgroundImageFix"/>
<feBlend mode="normal" in="SourceGraphic" in2="BackgroundImageFix" result="shape"/>
<feGaussianBlur stdDeviation="0.125" result="effect1_foregroundBlur_3799_5394"/>
</filter>
<filter id="filter8_f_3799_5394" x="4.82187" y="22.0887" width="22.4505" height="7.90831" filterUnits="userSpaceOnUse" color-interpolation-filters="sRGB">
<feFlood flood-opacity="0" result="BackgroundImageFix"/>
<feBlend mode="normal" in="SourceGraphic" in2="BackgroundImageFix" result="shape"/>
<feGaussianBlur stdDeviation="0.05" result="effect1_foregroundBlur_3799_5394"/>
</filter>
<filter id="filter9_f_3799_5394" x="17.812" y="8.44501" width="2.25" height="2.25" filterUnits="userSpaceOnUse" color-interpolation-filters="sRGB">
<feFlood flood-opacity="0" result="BackgroundImageFix"/>
<feBlend mode="normal" in="SourceGraphic" in2="BackgroundImageFix" result="shape"/>
<feGaussianBlur stdDeviation="0.125" result="effect1_foregroundBlur_3799_5394"/>
</filter>
<filter id="filter10_f_3799_5394" x="17.9529" y="8.27722" width="2.08594" height="1.29279" filterUnits="userSpaceOnUse" color-interpolation-filters="sRGB">
<feFlood flood-opacity="0" result="BackgroundImageFix"/>
<feBlend mode="normal" in="SourceGraphic" in2="BackgroundImageFix" result="shape"/>
<feGaussianBlur stdDeviation="0.125" result="effect1_foregroundBlur_3799_5394"/>
</filter>
<filter id="filter11_f_3799_5394" x="19.01" y="16.594" width="2.25" height="2.25" filterUnits="userSpaceOnUse" color-interpolation-filters="sRGB">
<feFlood flood-opacity="0" result="BackgroundImageFix"/>
<feBlend mode="normal" in="SourceGraphic" in2="BackgroundImageFix" result="shape"/>
<feGaussianBlur stdDeviation="0.125" result="effect1_foregroundBlur_3799_5394"/>
</filter>
<filter id="filter12_f_3799_5394" x="4.89307" y="22.8904" width="22.3228" height="7.25656" filterUnits="userSpaceOnUse" color-interpolation-filters="sRGB">
<feFlood flood-opacity="0" result="BackgroundImageFix"/>
<feBlend mode="normal" in="SourceGraphic" in2="BackgroundImageFix" result="shape"/>
<feGaussianBlur stdDeviation="0.125" result="effect1_foregroundBlur_3799_5394"/>
</filter>
<filter id="filter13_f_3799_5394" x="4.74812" y="22.2833" width="22.6434" height="4.88602" filterUnits="userSpaceOnUse" color-interpolation-filters="sRGB">
<feFlood flood-opacity="0" result="BackgroundImageFix"/>
<feBlend mode="normal" in="SourceGraphic" in2="BackgroundImageFix" result="shape"/>
<feGaussianBlur stdDeviation="0.087" result="effect1_foregroundBlur_3799_5394"/>
</filter>
<filter id="filter14_f_3799_5394" x="14.4519" y="5.021" width="2.75" height="2.75" filterUnits="userSpaceOnUse" color-interpolation-filters="sRGB">
<feFlood flood-opacity="0" result="BackgroundImageFix"/>
<feBlend mode="normal" in="SourceGraphic" in2="BackgroundImageFix" result="shape"/>
<feGaussianBlur stdDeviation="0.25" result="effect1_foregroundBlur_3799_5394"/>
</filter>
<filter id="filter15_f_3799_5394" x="14.625" y="11.823" width="2.75" height="2.75" filterUnits="userSpaceOnUse" color-interpolation-filters="sRGB">
<feFlood flood-opacity="0" result="BackgroundImageFix"/>
<feBlend mode="normal" in="SourceGraphic" in2="BackgroundImageFix" result="shape"/>
<feGaussianBlur stdDeviation="0.25" result="effect1_foregroundBlur_3799_5394"/>
</filter>
<filter id="filter16_f_3799_5394" x="5.54492" y="22.1378" width="1.59692" height="1.72437" filterUnits="userSpaceOnUse" color-interpolation-filters="sRGB">
<feFlood flood-opacity="0" result="BackgroundImageFix"/>
<feBlend mode="normal" in="SourceGraphic" in2="BackgroundImageFix" result="shape"/>
<feGaussianBlur stdDeviation="0.125" result="effect1_foregroundBlur_3799_5394"/>
</filter>
<linearGradient id="paint0_linear_3799_5394" x1="16.01" y1="13.01" x2="16.01" y2="20.01" gradientUnits="userSpaceOnUse">
<stop offset="0.418" stop-color="#FE5FD3"/>
<stop offset="0.856" stop-color="#EE49CD"/>
</linearGradient>
<linearGradient id="paint1_linear_3799_5394" x1="16.01" y1="13.01" x2="16.01" y2="20.01" gradientUnits="userSpaceOnUse">
<stop offset="0.887" stop-color="#DF499E" stop-opacity="0"/>
<stop offset="1" stop-color="#D14276"/>
</linearGradient>
<radialGradient id="paint2_radial_3799_5394" cx="0" cy="0" r="1" gradientUnits="userSpaceOnUse" gradientTransform="translate(25.813 15) rotate(-179.269) scale(9.8033 3.688)">
<stop stop-color="#FF85DE"/>
<stop offset="1" stop-color="#FF86DD" stop-opacity="0"/>
</radialGradient>
<radialGradient id="paint3_radial_3799_5394" cx="0" cy="0" r="1" gradientUnits="userSpaceOnUse" gradientTransform="translate(11.8128 10.3124) rotate(-103.764) scale(19.1757 25.0741)">
<stop offset="0.682" stop-color="#B74CAB" stop-opacity="0"/>
<stop offset="0.913" stop-color="#B44AAC"/>
</radialGradient>
<radialGradient id="paint4_radial_3799_5394" cx="0" cy="0" r="1" gradientUnits="userSpaceOnUse" gradientTransform="translate(1.75 11.063) rotate(34.6293) scale(13.748 18.4988)">
<stop offset="0.348" stop-color="#D64984"/>
<stop offset="1" stop-color="#EA56A7" stop-opacity="0"/>
</radialGradient>
<radialGradient id="paint5_radial_3799_5394" cx="0" cy="0" r="1" gradientUnits="userSpaceOnUse" gradientTransform="translate(17.5 17.625) rotate(83.8534) scale(8.17198 15.3102)">
<stop offset="0.794" stop-color="#E34E93" stop-opacity="0"/>
<stop offset="0.968" stop-color="#D74887"/>
</radialGradient>
<linearGradient id="paint6_linear_3799_5394" x1="22.438" y1="13.75" x2="8.68799" y2="13.75" gradientUnits="userSpaceOnUse">
<stop stop-color="#CA3AAB"/>
<stop offset="1" stop-color="#D3358D"/>
</linearGradient>
<linearGradient id="paint7_linear_3799_5394" x1="16.0049" y1="8.01001" x2="16.0049" y2="15.01" gradientUnits="userSpaceOnUse">
<stop stop-color="#FF85DE"/>
<stop offset="0.525" stop-color="#FC59CC"/>
<stop offset="1" stop-color="#E542CD"/>
</linearGradient>
<radialGradient id="paint8_radial_3799_5394" cx="0" cy="0" r="1" gradientUnits="userSpaceOnUse" gradientTransform="translate(22.0629 9.87501) rotate(90) scale(2.75 4.9375)">
<stop stop-color="#FF8DE6"/>
<stop offset="1" stop-color="#FF90E9" stop-opacity="0"/>
</radialGradient>
<radialGradient id="paint9_radial_3799_5394" cx="0" cy="0" r="1" gradientUnits="userSpaceOnUse" gradientTransform="translate(9.18789 10) rotate(90) scale(4.5 10)">
<stop stop-color="#F543A3"/>
<stop offset="1" stop-color="#F54BAE" stop-opacity="0"/>
</radialGradient>
<radialGradient id="paint10_radial_3799_5394" cx="0" cy="0" r="1" gradientUnits="userSpaceOnUse" gradientTransform="translate(19.063 3.5) rotate(90) scale(4.75 10.2422)">
<stop offset="0.171" stop-color="#FF8AE0"/>
<stop offset="1" stop-color="#FF8AE0" stop-opacity="0"/>
</radialGradient>
<radialGradient id="paint11_radial_3799_5394" cx="0" cy="0" r="1" gradientUnits="userSpaceOnUse" gradientTransform="translate(19.063 9.14) rotate(66.3183) scale(0.972525 1.74232)">
<stop offset="0.173" stop-color="#A941A3"/>
<stop offset="1" stop-color="#CD46C2" stop-opacity="0"/>
</radialGradient>
<radialGradient id="paint12_radial_3799_5394" cx="0" cy="0" r="1" gradientUnits="userSpaceOnUse" gradientTransform="translate(13.547 9.313) rotate(6.7817) scale(1.1644 1.10692)">
<stop offset="0.359" stop-color="#E0417F"/>
<stop offset="1" stop-color="#E33E92" stop-opacity="0"/>
</radialGradient>
<linearGradient id="paint13_linear_3799_5394" x1="16.0131" y1="20.01" x2="16.0131" y2="30" gradientUnits="userSpaceOnUse">
<stop stop-color="#E8885E"/>
<stop offset="0.035" stop-color="#EF976C"/>
<stop offset="0.091" stop-color="#ECA079"/>
<stop offset="0.262" stop-color="#F0979B"/>
<stop offset="1" stop-color="#E8885E" stop-opacity="0"/>
</linearGradient>
<radialGradient id="paint14_radial_3799_5394" cx="0" cy="0" r="1" gradientUnits="userSpaceOnUse" gradientTransform="translate(19.8751 21.188) rotate(90) scale(1.0625 9.84375)">
<stop stop-color="#FAB188"/>
<stop offset="1" stop-color="#FBB188" stop-opacity="0"/>
</radialGradient>
<radialGradient id="paint15_radial_3799_5394" cx="0" cy="0" r="1" gradientUnits="userSpaceOnUse" gradientTransform="translate(16.5631 23.125) rotate(90) scale(7.8125 17.2182)">
<stop offset="0.632" stop-color="#BE674C" stop-opacity="0"/>
<stop offset="0.784" stop-color="#C0674C"/>
</radialGradient>
<linearGradient id="paint16_linear_3799_5394" x1="12.7029" y1="9.35901" x2="13.4379" y2="10.047" gradientUnits="userSpaceOnUse">
<stop stop-color="#FCAC40"/>
<stop offset="0.403" stop-color="#FFA43C"/>
<stop offset="0.89" stop-color="#F37E41"/>
</linearGradient>
<linearGradient id="paint17_linear_3799_5394" x1="12.188" y1="17.078" x2="13" y2="17.844" gradientUnits="userSpaceOnUse">
<stop stop-color="#D4B3D6"/>
<stop offset="0.393" stop-color="#D8B6F8"/>
<stop offset="0.961" stop-color="#C887ED"/>
</linearGradient>
<linearGradient id="paint18_linear_3799_5394" x1="7.58208" y1="15.88" x2="8.31408" y2="16.568" gradientUnits="userSpaceOnUse">
<stop stop-color="#E89C43"/>
<stop offset="0.403" stop-color="#F3913F"/>
<stop offset="0.89" stop-color="#EA6542"/>
</linearGradient>
<linearGradient id="paint19_linear_3799_5394" x1="23.5789" y1="15.88" x2="24.5349" y2="16.777" gradientUnits="userSpaceOnUse">
<stop stop-color="#FFA83E"/>
<stop offset="0.292" stop-color="#FFB84C"/>
<stop offset="0.55" stop-color="#FFA83A"/>
<stop offset="0.81" stop-color="#CC6E53"/>
</linearGradient>
<radialGradient id="paint20_radial_3799_5394" cx="0" cy="0" r="1" gradientUnits="userSpaceOnUse" gradientTransform="translate(23.3439 16.828) rotate(43.5891) scale(1.12177 0.653572)">
<stop stop-color="#EF6F45"/>
<stop offset="1" stop-color="#EE6E46" stop-opacity="0"/>
</radialGradient>
<linearGradient id="paint21_linear_3799_5394" x1="21.606" y1="12.393" x2="20.809" y2="13.205" gradientUnits="userSpaceOnUse">
<stop offset="0.264" stop-color="#EFEBF7"/>
<stop offset="0.488" stop-color="#DBC8F4"/>
<stop offset="0.931" stop-color="#CA95EB"/>
</linearGradient>
<linearGradient id="paint22_linear_3799_5394" x1="10.225" y1="12.93" x2="10.225" y2="13.93" gradientUnits="userSpaceOnUse">
<stop stop-color="#35A6FF"/>
<stop offset="0.461" stop-color="#299DFF"/>
<stop offset="1" stop-color="#396BFF"/>
</linearGradient>
<radialGradient id="paint23_radial_3799_5394" cx="0" cy="0" r="1" gradientUnits="userSpaceOnUse" gradientTransform="translate(10.9 13.2498) rotate(111.037) scale(0.43526 0.48151)">
<stop stop-color="#40AAFF"/>
<stop offset="1" stop-color="#43ACFF" stop-opacity="0"/>
</radialGradient>
<linearGradient id="paint24_linear_3799_5394" x1="21.7771" y1="12.19" x2="20.9811" y2="13.002" gradientUnits="userSpaceOnUse">
<stop offset="0.264" stop-color="#EFEBF7"/>
<stop offset="0.488" stop-color="#DBC8F4"/>
<stop offset="0.931" stop-color="#CA95EB"/>
</linearGradient>
<radialGradient id="paint25_radial_3799_5394" cx="0" cy="0" r="1" gradientUnits="userSpaceOnUse" gradientTransform="translate(22.0601 13.346) rotate(142.352) scale(0.690688 0.502992)">
<stop stop-color="#C187F1"/>
<stop offset="1" stop-color="#C595F1" stop-opacity="0"/>
</radialGradient>
<linearGradient id="paint26_linear_3799_5394" x1="16.0471" y1="22.189" x2="16.2741" y2="30.421" gradientUnits="userSpaceOnUse">
<stop offset="0.823" stop-color="#58A0FF"/>
<stop offset="0.915" stop-color="#5473FF"/>
<stop offset="0.953" stop-color="#7163FF"/>
</linearGradient>
<radialGradient id="paint27_radial_3799_5394" cx="0" cy="0" r="1" gradientUnits="userSpaceOnUse" gradientTransform="translate(16.3641 22.189) rotate(90) scale(8.32465 8.16098)">
<stop offset="0.195" stop-color="#508EFF"/>
<stop offset="1" stop-color="#508FFF" stop-opacity="0"/>
</radialGradient>
<radialGradient id="paint28_radial_3799_5394" cx="0" cy="0" r="1" gradientUnits="userSpaceOnUse" gradientTransform="translate(5.50309 26.043) scale(1.84082 5.36829)">
<stop offset="0.112" stop-color="#4686D7"/>
<stop offset="1" stop-color="#4992F5" stop-opacity="0"/>
</radialGradient>
<radialGradient id="paint29_radial_3799_5394" cx="0" cy="0" r="1" gradientUnits="userSpaceOnUse" gradientTransform="translate(26.7961 26.043) rotate(-170.679) scale(2.86037 8.33931)">
<stop offset="0.112" stop-color="#4686D7"/>
<stop offset="1" stop-color="#4992F5" stop-opacity="0"/>
</radialGradient>
<linearGradient id="paint30_linear_3799_5394" x1="26.9491" y1="23.976" x2="5.44209" y2="23.976" gradientUnits="userSpaceOnUse">
<stop offset="0.09" stop-color="#5FB6FF"/>
<stop offset="0.107" stop-color="#4394F4"/>
<stop offset="0.171" stop-color="#60B4FF"/>
<stop offset="0.25" stop-color="#5599FF"/>
<stop offset="0.327" stop-color="#65AFFF"/>
<stop offset="0.629" stop-color="#61AEFF"/>
<stop offset="0.806" stop-color="#62AFFF"/>
<stop offset="0.919" stop-color="#469DF3"/>
<stop offset="1" stop-color="#4F9BE5"/>
</linearGradient>
<linearGradient id="paint31_linear_3799_5394" x1="18.6249" y1="9.14101" x2="19.4219" y2="9.94501" gradientUnits="userSpaceOnUse">
<stop stop-color="#388EF1"/>
<stop offset="0.356" stop-color="#3AA5FF"/>
<stop offset="0.917" stop-color="#4571FD"/>
</linearGradient>
<radialGradient id="paint32_radial_3799_5394" cx="0" cy="0" r="1" gradientUnits="userSpaceOnUse" gradientTransform="translate(18.4699 10.125) rotate(45.9707) scale(0.651961 0.430209)">
<stop stop-color="#3673FF"/>
<stop offset="1" stop-color="#3673FF" stop-opacity="0"/>
</radialGradient>
<linearGradient id="paint33_linear_3799_5394" x1="20.535" y1="17.081" x2="19.738" y2="17.885" gradientUnits="userSpaceOnUse">
<stop stop-color="#39A1FF"/>
<stop offset="0.356" stop-color="#40A1FF"/>
<stop offset="0.917" stop-color="#3876FF"/>
</linearGradient>
<radialGradient id="paint34_radial_3799_5394" cx="0" cy="0" r="1" gradientUnits="userSpaceOnUse" gradientTransform="translate(20.69 18.064) rotate(134.029) scale(0.651961 0.430209)">
<stop stop-color="#3673FF"/>
<stop offset="1" stop-color="#3673FF" stop-opacity="0"/>
</radialGradient>
<linearGradient id="paint35_linear_3799_5394" x1="15.9889" y1="22.189" x2="16.2189" y2="30.531" gradientUnits="userSpaceOnUse">
<stop offset="0.823" stop-color="#58A0FF"/>
<stop offset="0.915" stop-color="#5473FF"/>
<stop offset="0.953" stop-color="#7163FF"/>
</linearGradient>
<radialGradient id="paint36_radial_3799_5394" cx="0" cy="0" r="1" gradientUnits="userSpaceOnUse" gradientTransform="translate(16.3129 22.189) rotate(90) scale(8.43604 8.3125)">
<stop offset="0.195" stop-color="#508EFF"/>
<stop offset="1" stop-color="#508FFF" stop-opacity="0"/>
</radialGradient>
<radialGradient id="paint37_radial_3799_5394" cx="0" cy="0" r="1" gradientUnits="userSpaceOnUse" gradientTransform="translate(5.24992 26.095) scale(1.875 5.44012)">
<stop offset="0.112" stop-color="#4686D7"/>
<stop offset="1" stop-color="#4992F5" stop-opacity="0"/>
</radialGradient>
<radialGradient id="paint38_radial_3799_5394" cx="0" cy="0" r="1" gradientUnits="userSpaceOnUse" gradientTransform="translate(26.9379 26.095) rotate(-170.726) scale(2.91308 8.45201)">
<stop offset="0.112" stop-color="#4686D7"/>
<stop offset="1" stop-color="#4992F5" stop-opacity="0"/>
</radialGradient>
<linearGradient id="paint39_linear_3799_5394" x1="27.0939" y1="24" x2="5.18791" y2="24" gradientUnits="userSpaceOnUse">
<stop offset="0.011" stop-color="#59B9FF"/>
<stop offset="0.021" stop-color="#5FB6FF"/>
<stop offset="0.09" stop-color="#5FB6FF"/>
<stop offset="0.107" stop-color="#4394F4"/>
<stop offset="0.171" stop-color="#60B4FF"/>
<stop offset="0.25" stop-color="#5599FF"/>
<stop offset="0.327" stop-color="#65AFFF"/>
<stop offset="0.629" stop-color="#61AEFF"/>
<stop offset="0.806" stop-color="#62AFFF"/>
<stop offset="0.919" stop-color="#469DF3"/>
<stop offset="1" stop-color="#4F9BE5"/>
</linearGradient>
<linearGradient id="paint40_linear_3799_5394" x1="26.5309" y1="25.781" x2="25.4999" y2="25.469" gradientUnits="userSpaceOnUse">
<stop stop-color="#477CC5"/>
<stop offset="1" stop-color="#4881CB" stop-opacity="0"/>
</linearGradient>
<linearGradient id="paint41_linear_3799_5394" x1="15.9889" y1="22.189" x2="15.9889" y2="30" gradientUnits="userSpaceOnUse">
<stop offset="0.852" stop-color="#5676F9" stop-opacity="0"/>
<stop offset="1" stop-color="#5477F7"/>
</linearGradient>
<linearGradient id="paint42_linear_3799_5394" x1="15.9889" y1="23.293" x2="16.1579" y2="30.347" gradientUnits="userSpaceOnUse">
<stop offset="0.823" stop-color="#58A0FF"/>
<stop offset="0.915" stop-color="#5473FF"/>
<stop offset="0.953" stop-color="#7163FF"/>
</linearGradient>
<radialGradient id="paint43_radial_3799_5394" cx="0" cy="0" r="1" gradientUnits="userSpaceOnUse" gradientTransform="translate(16.3039 23.293) rotate(90) scale(7.13262 8.09304)">
<stop offset="0.195" stop-color="#508EFF"/>
<stop offset="1" stop-color="#508FFF" stop-opacity="0"/>
</radialGradient>
<radialGradient id="paint44_radial_3799_5394" cx="0" cy="0" r="1" gradientUnits="userSpaceOnUse" gradientTransform="translate(5.53393 26.595) scale(1.8255 4.5996)">
<stop offset="0.112" stop-color="#4686D7"/>
<stop offset="1" stop-color="#4992F5" stop-opacity="0"/>
</radialGradient>
<radialGradient id="paint45_radial_3799_5394" cx="0" cy="0" r="1" gradientUnits="userSpaceOnUse" gradientTransform="translate(26.6479 26.595) rotate(-171.929) scale(2.8271 7.16905)">
<stop offset="0.112" stop-color="#4686D7"/>
<stop offset="1" stop-color="#4992F5" stop-opacity="0"/>
</radialGradient>
<linearGradient id="paint46_linear_3799_5394" x1="15.9891" y1="22.625" x2="16.1941" y2="30.392" gradientUnits="userSpaceOnUse">
<stop offset="0.823" stop-color="#58A0FF"/>
<stop offset="0.915" stop-color="#5473FF"/>
<stop offset="0.953" stop-color="#7163FF"/>
</linearGradient>
<radialGradient id="paint47_radial_3799_5394" cx="0" cy="0" r="1" gradientUnits="userSpaceOnUse" gradientTransform="translate(16.3041 22.625) rotate(90) scale(7.85379 8.09304)">
<stop offset="0.195" stop-color="#508EFF"/>
<stop offset="1" stop-color="#508FFF" stop-opacity="0"/>
</radialGradient>
<radialGradient id="paint48_radial_3799_5394" cx="0" cy="0" r="1" gradientUnits="userSpaceOnUse" gradientTransform="translate(5.53409 26.26) scale(1.8255 5.06465)">
<stop offset="0.112" stop-color="#4686D7"/>
<stop offset="1" stop-color="#4992F5" stop-opacity="0"/>
</radialGradient>
<radialGradient id="paint49_radial_3799_5394" cx="0" cy="0" r="1" gradientUnits="userSpaceOnUse" gradientTransform="translate(26.6481 26.26) rotate(-171.125) scale(2.83302 7.87741)">
<stop offset="0.112" stop-color="#4686D7"/>
<stop offset="1" stop-color="#4992F5" stop-opacity="0"/>
</radialGradient>
<linearGradient id="paint50_linear_3799_5394" x1="16.0129" y1="25.125" x2="16.0129" y2="30" gradientUnits="userSpaceOnUse">
<stop stop-color="#2B8BFF"/>
<stop offset="0.839" stop-color="#2C8AFF"/>
<stop offset="1" stop-color="#4063FF"/>
</linearGradient>
<linearGradient id="paint51_linear_3799_5394" x1="11.0161" y1="25" x2="11.0161" y2="29.99" gradientUnits="userSpaceOnUse">
<stop stop-color="#2B8BFF"/>
<stop offset="0.839" stop-color="#2C8AFF"/>
<stop offset="1" stop-color="#4063FF"/>
</linearGradient>
<linearGradient id="paint52_linear_3799_5394" x1="16.406" y1="5.74999" x2="15.609" y2="6.56299" gradientUnits="userSpaceOnUse">
<stop offset="0.264" stop-color="#EFEBF7"/>
<stop offset="0.488" stop-color="#DBC8F4"/>
<stop offset="0.931" stop-color="#CA95EB"/>
</linearGradient>
<radialGradient id="paint53_radial_3799_5394" cx="0" cy="0" r="1" gradientUnits="userSpaceOnUse" gradientTransform="translate(16.688 6.90499) rotate(142.352) scale(0.690688 0.502992)">
<stop stop-color="#C187F1"/>
<stop offset="1" stop-color="#C595F1" stop-opacity="0"/>
</radialGradient>
<linearGradient id="paint54_linear_3799_5394" x1="21.0701" y1="25" x2="21.0701" y2="30" gradientUnits="userSpaceOnUse">
<stop stop-color="#2B8BFF"/>
<stop offset="0.839" stop-color="#2C8AFF"/>
<stop offset="1" stop-color="#4063FF"/>
</linearGradient>
<linearGradient id="paint55_linear_3799_5394" x1="16.3279" y1="12.617" x2="15.6329" y2="13.352" gradientUnits="userSpaceOnUse">
<stop stop-color="#FFB248"/>
<stop offset="0.397" stop-color="#FFA43E"/>
<stop offset="0.847" stop-color="#F17F4D"/>
</linearGradient>
<radialGradient id="paint56_radial_3799_5394" cx="0" cy="0" r="1" gradientUnits="userSpaceOnUse" gradientTransform="translate(15.781 12.6093) rotate(52.786) scale(1.60179)">
<stop offset="0.77" stop-color="#DB644C" stop-opacity="0"/>
<stop offset="0.924" stop-color="#DB644C"/>
</radialGradient>
</defs>
</svg>
