<svg xmlns="http://www.w3.org/2000/svg" width="32" height="32" viewBox="0 0 32 32"><g fill="none"><path fill="url(#f355id0)" fill-rule="evenodd" d="M15.25 2.75A.75.75 0 0 1 16 2h4v1.5h-3.25V8a.75.75 0 0 1-1.5 0V2.75Z" clip-rule="evenodd"/><path fill="url(#f355id1)" fill-rule="evenodd" d="M15.446 2.244A.748.748 0 0 1 16 2h4v1.5h-3.25l-1.304-1.256Z" clip-rule="evenodd"/><path fill="url(#f355ida)" fill-rule="evenodd" d="M15.446 2.244A.748.748 0 0 1 16 2h4v1.5h-3.25l-1.304-1.256Z" clip-rule="evenodd"/><ellipse cx="20" cy="2.75" fill="url(#f355id2)" rx=".5" ry=".75"/><path fill="url(#f355id3)" d="M8.583 18L9.5 29c.065.55.5 1 1 1h11c.5 0 .96-.444 1-1l.917-11l-.233-.141H8.78L8.583 18Z"/><path fill="url(#f355id4)" d="M8.583 18L9.5 29c.065.55.5 1 1 1h11c.5 0 .96-.444 1-1l.917-11l-.233-.141H8.78L8.583 18Z"/><path fill="url(#f355id5)" d="M8.583 18L9.5 29c.065.55.5 1 1 1h11c.5 0 .96-.444 1-1l.917-11l-.233-.141H8.78L8.583 18Z"/><path fill="url(#f355id6)" fill-rule="evenodd" d="M23.417 18H8.583L8 11h16l-.583 7Z" clip-rule="evenodd"/><path fill="url(#f355id7)" fill-rule="evenodd" d="M23.417 18H8.583L8 11h16l-.583 7Z" clip-rule="evenodd"/><path fill="url(#f355idb)" d="M11.5 8L11 9v1h10V9l-.5-1c-.237-.491-.5-1-1.5-1h-6c-1 0-1.254.516-1.5 1Z"/><path fill="url(#f355id8)" d="M11.5 8L11 9v1h10V9l-.5-1c-.237-.491-.5-1-1.5-1h-6c-1 0-1.254.516-1.5 1Z"/><path stroke="#D1CFD9" stroke-linecap="round" stroke-linejoin="round" stroke-width="2" d="M8 10h16"/><path stroke="url(#f355idc)" stroke-linecap="round" stroke-linejoin="round" stroke-width="2" d="M8 10h16"/><path stroke="url(#f355idd)" stroke-linecap="round" stroke-linejoin="round" stroke-width="2" d="M8 10h16"/><path stroke="url(#f355id9)" stroke-linecap="round" stroke-linejoin="round" stroke-width="2" d="M8 10h16"/><defs><linearGradient id="f355id0" x1="15.25" x2="16.844" y1="5.375" y2="5.375" gradientUnits="userSpaceOnUse"><stop stop-color="#C63344"/><stop offset=".294" stop-color="#D92354"/><stop offset=".688" stop-color="#EE466D"/><stop offset="1" stop-color="#F34459"/></linearGradient><linearGradient id="f355id1" x1="17.723" x2="17.723" y1="2" y2="3.5" gradientUnits="userSpaceOnUse"><stop stop-color="#E43356"/><stop offset=".5" stop-color="#DE2F5E"/><stop offset="1" stop-color="#CD3047"/></linearGradient><linearGradient id="f355id2" x1="20" x2="20" y1="2" y2="3.5" gradientUnits="userSpaceOnUse"><stop offset=".073" stop-color="#980F2C"/><stop offset=".563" stop-color="#A22A44"/><stop offset="1" stop-color="#A60B2E"/></linearGradient><linearGradient id="f355id3" x1="8.583" x2="23.417" y1="23" y2="23" gradientUnits="userSpaceOnUse"><stop stop-color="#A8A1B5"/><stop offset=".298" stop-color="#C3B2DA"/><stop offset=".593" stop-color="#EFE3FF"/><stop offset=".82" stop-color="#F6EDFF"/><stop offset="1" stop-color="#E7E3F2"/></linearGradient><linearGradient id="f355id4" x1="16" x2="16" y1="29.125" y2="30" gradientUnits="userSpaceOnUse"><stop stop-color="#CDA8F6" stop-opacity="0"/><stop offset="1" stop-color="#C99BF7"/></linearGradient><linearGradient id="f355id5" x1="23.031" x2="22.094" y1="23.25" y2="23.188" gradientUnits="userSpaceOnUse"><stop stop-color="#D9D5E7"/><stop offset=".723" stop-color="#E8E5F1" stop-opacity="0"/></linearGradient><linearGradient id="f355id6" x1="8" x2="24" y1="14.5" y2="14.5" gradientUnits="userSpaceOnUse"><stop stop-color="#BB454C"/><stop offset=".168" stop-color="#BF304E"/><stop offset=".344" stop-color="#D31F55"/><stop offset=".547" stop-color="#ED2B64"/><stop offset=".863" stop-color="#FF3669"/><stop offset="1" stop-color="#FF4D58"/></linearGradient><linearGradient id="f355id7" x1="16" x2="16" y1="10.313" y2="12.375" gradientUnits="userSpaceOnUse"><stop stop-color="#BE1E4E"/><stop offset="1" stop-color="#C21E51" stop-opacity="0"/></linearGradient><linearGradient id="f355id8" x1="16" x2="16" y1="7" y2="7.25" gradientUnits="userSpaceOnUse"><stop stop-color="#C4C2C3"/><stop offset="1" stop-color="#C8C7CB" stop-opacity="0"/></linearGradient><linearGradient id="f355id9" x1="16" x2="16" y1="10" y2="11" gradientUnits="userSpaceOnUse"><stop stop-color="#CBB7E4" stop-opacity="0"/><stop offset="1" stop-color="#BE90CC"/></linearGradient><radialGradient id="f355ida" cx="0" cy="0" r="1" gradientTransform="rotate(134.326 7.375 4.33) scale(.93919 1.1541)" gradientUnits="userSpaceOnUse"><stop stop-color="#CD2E4A"/><stop offset="1" stop-color="#D82453" stop-opacity="0"/></radialGradient><radialGradient id="f355idb" cx="0" cy="0" r="1" gradientTransform="matrix(1.0625 8.0625 -9.06971 1.19523 19.5 7.938)" gradientUnits="userSpaceOnUse"><stop stop-color="#fff"/><stop offset="1" stop-color="#9C9DA0"/></radialGradient><radialGradient id="f355idc" cx="0" cy="0" r="1" gradientTransform="matrix(0 .875 -7.90625 0 22.125 9.625)" gradientUnits="userSpaceOnUse"><stop stop-color="#fff"/><stop offset="1" stop-color="#fff" stop-opacity="0"/></radialGradient><radialGradient id="f355idd" cx="0" cy="0" r="1" gradientTransform="rotate(99.462 -.332 7.932) scale(2.66121 8.56552)" gradientUnits="userSpaceOnUse"><stop stop-color="#9E9DA4"/><stop offset="1" stop-color="#A2A2A6" stop-opacity="0"/></radialGradient></defs></g></svg>