<svg width="150" height="150" viewBox="0 0 150 150" fill="none" xmlns="http://www.w3.org/2000/svg">
<path d="M77.3438 131.25C107.114 131.25 131.25 107.114 131.25 77.3438C131.25 47.5734 107.114 23.4375 77.3438 23.4375C47.5734 23.4375 23.4375 47.5734 23.4375 77.3438C23.4375 107.114 47.5734 131.25 77.3438 131.25Z" fill="#CDCDCD"/>
<path d="M77.3438 114.844C87.2894 114.844 96.8276 110.893 103.86 103.86C110.893 96.8276 114.844 87.2894 114.844 77.3438C114.844 67.3981 110.893 57.8599 103.86 50.8272C96.8276 43.7946 87.2894 39.8438 77.3438 39.8438C67.3981 39.8438 57.8599 43.7946 50.8272 50.8272C43.7946 57.8599 39.8438 67.3981 39.8438 77.3438C39.8438 87.2894 43.7946 96.8276 50.8272 103.86C57.8599 110.893 67.3981 114.844 77.3438 114.844Z" fill="#E2E2E2"/>
<path d="M31.9688 29.5781C31.1234 29.5781 30.3126 29.914 29.7148 30.5117C29.1171 31.1095 28.7812 31.9203 28.7812 32.7656V45.375C28.7812 46.3125 28.0312 47.0156 27.1406 47.0156C26.2031 47.0156 25.5 46.2656 25.5 45.375V32.9063C25.5 31.1719 24.1406 29.625 22.4063 29.5781C20.5781 29.5313 19.0781 30.9844 19.0781 32.7656V45.375C19.0781 46.3125 18.3281 47.0156 17.4375 47.0156C16.5 47.0156 15.7969 46.2656 15.7969 45.375V32.9063C15.7969 31.1719 14.4375 29.625 12.7031 29.5781C10.875 29.5313 9.375 30.9844 9.375 32.7656V54.2344C9.375 58.4625 11.4234 62.2359 14.5734 64.5891C17.3906 66.1781 17.3906 73.4531 17.3906 73.4531V120.422C17.3906 122.859 19.3594 124.828 21.7969 124.828H22.875C25.3125 124.828 27.2812 122.859 27.2812 120.422V73.4531C27.2812 73.4531 27.2812 66.4641 30.0984 64.5891C31.711 63.3867 33.0206 61.8246 33.9231 60.0269C34.8256 58.2293 35.296 56.2458 35.2969 54.2344V32.7656C35.2494 31.9115 34.8793 31.1072 34.2615 30.5154C33.6437 29.9237 32.8242 29.5887 31.9688 29.5781ZM132.938 29.5781C137.156 29.5781 140.578 33 140.578 37.2188V120.469C140.578 122.906 138.609 124.875 136.172 124.875H135.094C132.656 124.875 130.687 122.906 130.687 120.469V80.0766C128.094 78.8988 125.895 76.9969 124.357 74.5994C122.819 72.202 122.006 69.4111 122.016 66.5625V40.5469C122.004 39.1073 122.279 37.6798 122.823 36.347C123.368 35.0142 124.171 33.8027 125.187 32.7825C126.203 31.7624 127.411 30.9539 128.741 30.4038C130.072 29.8538 131.498 29.5731 132.938 29.5781Z" fill="#999999"/>
</svg>
