<svg width="32" height="32" viewBox="0 0 32 32" fill="none" xmlns="http://www.w3.org/2000/svg">
<path d="M20.7399 29.96H11.4599C7.43992 29.96 4.16992 26.7 4.16992 22.67V19.79H28.0199V22.67C28.0226 23.6272 27.8361 24.5756 27.4713 25.4606C27.1065 26.3456 26.5705 27.1498 25.8941 27.8272C25.2177 28.5045 24.4142 29.0416 23.5297 29.4076C22.6452 29.7736 21.6972 29.9613 20.7399 29.96Z" fill="url(#paint0_linear_3799_5455)"/>
<path d="M20.7399 29.96H11.4599C7.43992 29.96 4.16992 26.7 4.16992 22.67V19.79H28.0199V22.67C28.0226 23.6272 27.8361 24.5756 27.4713 25.4606C27.1065 26.3456 26.5705 27.1498 25.8941 27.8272C25.2177 28.5045 24.4142 29.0416 23.5297 29.4076C22.6452 29.7736 21.6972 29.9613 20.7399 29.96Z" fill="url(#paint1_radial_3799_5455)"/>
<path d="M22.02 11.06H10.02C7.89296 11.06 5.85305 11.905 4.349 13.409C2.84496 14.913 2 16.953 2 19.08C2 21.207 2.84496 23.247 4.349 24.751C5.85305 26.255 7.89296 27.1 10.02 27.1H22.02C24.147 27.1 26.187 26.255 27.691 24.751C29.195 23.247 30.04 21.207 30.04 19.08C30.04 16.953 29.195 14.913 27.691 13.409C26.187 11.905 24.147 11.06 22.02 11.06Z" fill="url(#paint2_linear_3799_5455)"/>
<path d="M22.02 11.06H10.02C7.89296 11.06 5.85305 11.905 4.349 13.409C2.84496 14.913 2 16.953 2 19.08C2 21.207 2.84496 23.247 4.349 24.751C5.85305 26.255 7.89296 27.1 10.02 27.1H22.02C24.147 27.1 26.187 26.255 27.691 24.751C29.195 23.247 30.04 21.207 30.04 19.08C30.04 16.953 29.195 14.913 27.691 13.409C26.187 11.905 24.147 11.06 22.02 11.06Z" fill="url(#paint3_radial_3799_5455)"/>
<path d="M22.02 11.06H10.02C7.89296 11.06 5.85305 11.905 4.349 13.409C2.84496 14.913 2 16.953 2 19.08C2 21.207 2.84496 23.247 4.349 24.751C5.85305 26.255 7.89296 27.1 10.02 27.1H22.02C24.147 27.1 26.187 26.255 27.691 24.751C29.195 23.247 30.04 21.207 30.04 19.08C30.04 16.953 29.195 14.913 27.691 13.409C26.187 11.905 24.147 11.06 22.02 11.06Z" fill="url(#paint4_radial_3799_5455)"/>
<path d="M22.02 11.06H10.02C7.89296 11.06 5.85305 11.905 4.349 13.409C2.84496 14.913 2 16.953 2 19.08C2 21.207 2.84496 23.247 4.349 24.751C5.85305 26.255 7.89296 27.1 10.02 27.1H22.02C24.147 27.1 26.187 26.255 27.691 24.751C29.195 23.247 30.04 21.207 30.04 19.08C30.04 16.953 29.195 14.913 27.691 13.409C26.187 11.905 24.147 11.06 22.02 11.06Z" fill="url(#paint5_radial_3799_5455)"/>
<path d="M22.02 11.06H10.02C7.89296 11.06 5.85305 11.905 4.349 13.409C2.84496 14.913 2 16.953 2 19.08C2 21.207 2.84496 23.247 4.349 24.751C5.85305 26.255 7.89296 27.1 10.02 27.1H22.02C24.147 27.1 26.187 26.255 27.691 24.751C29.195 23.247 30.04 21.207 30.04 19.08C30.04 16.953 29.195 14.913 27.691 13.409C26.187 11.905 24.147 11.06 22.02 11.06Z" fill="url(#paint6_radial_3799_5455)"/>
<path d="M22.02 13.28C25.22 13.28 27.82 15.88 27.82 19.08C27.82 22.28 25.22 24.88 22.02 24.88H10.02C6.81997 24.88 4.21997 22.28 4.21997 19.08C4.21997 15.88 6.81997 13.28 10.02 13.28H22.02Z" fill="url(#paint7_linear_3799_5455)"/>
<path d="M22.02 13.28C25.22 13.28 27.82 15.88 27.82 19.08C27.82 22.28 25.22 24.88 22.02 24.88H10.02C6.81997 24.88 4.21997 22.28 4.21997 19.08C4.21997 15.88 6.81997 13.28 10.02 13.28H22.02Z" fill="url(#paint8_radial_3799_5455)"/>
<g filter="url(#filter0_f_3799_5455)">
<path d="M5.08789 15.54C4.73489 16.7 5.47989 17.86 6.70089 17.86H18.3509C19.5719 17.86 20.4699 16.69 20.1069 15.54C20.1069 15.54 7.32789 8.34 5.08789 15.54Z" fill="url(#paint9_linear_3799_5455)"/>
</g>
<path d="M13.3099 10C9.76992 10 6.77992 12.33 5.78992 15.54C5.43992 16.7 6.31992 17.86 7.52992 17.86H19.0799C20.2899 17.86 21.1799 16.69 20.8199 15.54C20.3238 13.9357 19.3271 12.5323 17.9757 11.5354C16.6243 10.5385 14.9892 10.0004 13.3099 10Z" fill="#EFEBF4"/>
<path d="M13.3099 10C9.76992 10 6.77992 12.33 5.78992 15.54C5.43992 16.7 6.31992 17.86 7.52992 17.86H19.0799C20.2899 17.86 21.1799 16.69 20.8199 15.54C20.3238 13.9357 19.3271 12.5323 17.9757 11.5354C16.6243 10.5385 14.9892 10.0004 13.3099 10Z" fill="url(#paint10_radial_3799_5455)"/>
<path d="M13.3099 10C9.76992 10 6.77992 12.33 5.78992 15.54C5.43992 16.7 6.31992 17.86 7.52992 17.86H19.0799C20.2899 17.86 21.1799 16.69 20.8199 15.54C20.3238 13.9357 19.3271 12.5323 17.9757 11.5354C16.6243 10.5385 14.9892 10.0004 13.3099 10Z" fill="url(#paint11_radial_3799_5455)"/>
<path d="M13.3099 10C9.76992 10 6.77992 12.33 5.78992 15.54C5.43992 16.7 6.31992 17.86 7.52992 17.86H19.0799C20.2899 17.86 21.1799 16.69 20.8199 15.54C20.3238 13.9357 19.3271 12.5323 17.9757 11.5354C16.6243 10.5385 14.9892 10.0004 13.3099 10Z" fill="url(#paint12_radial_3799_5455)"/>
<path d="M13.3099 10C9.76992 10 6.77992 12.33 5.78992 15.54C5.43992 16.7 6.31992 17.86 7.52992 17.86H19.0799C20.2899 17.86 21.1799 16.69 20.8199 15.54C20.3238 13.9357 19.3271 12.5323 17.9757 11.5354C16.6243 10.5385 14.9892 10.0004 13.3099 10Z" fill="url(#paint13_radial_3799_5455)"/>
<g filter="url(#filter1_f_3799_5455)">
<path d="M7.42999 20C7.82199 20 8.13999 19.835 8.13999 19.569C8.13999 19.255 7.82199 19 7.42999 19C7.03699 19 6.71899 19.255 6.71899 19.569C6.71899 19.846 7.03799 20 7.42999 20Z" fill="#BF462A"/>
</g>
<g filter="url(#filter2_f_3799_5455)">
<path d="M9.27006 23.477C9.66406 23.477 9.98206 23.311 9.98206 23.045C9.98206 22.731 9.66406 22.477 9.27106 22.477C8.87806 22.477 8.56006 22.731 8.56006 23.045C8.56006 23.323 8.87806 23.477 9.27006 23.477Z" fill="#BF462A"/>
</g>
<g filter="url(#filter3_f_3799_5455)">
<path d="M12.552 20.898C12.945 20.898 13.262 20.733 13.262 20.468C13.262 20.153 12.945 19.898 12.552 19.898C12.159 19.898 11.842 20.153 11.842 20.468C11.842 20.745 12.159 20.898 12.552 20.898Z" fill="#BF462A"/>
</g>
<path d="M7.78 20.102C8.21 20.102 8.56 19.875 8.56 19.51C8.56 19.3031 8.47782 19.1047 8.33154 18.9585C8.18526 18.8122 7.98687 18.73 7.78 18.73C7.57313 18.73 7.37473 18.8122 7.22846 18.9585C7.08218 19.1047 7 19.3031 7 19.51C7 19.89 7.35 20.102 7.78 20.102Z" fill="url(#paint14_radial_3799_5455)"/>
<path d="M12.8901 20.977C13.3201 20.977 13.6701 20.75 13.6701 20.385C13.6701 20.1781 13.5879 19.9797 13.4417 19.8335C13.2954 19.6872 13.097 19.605 12.8901 19.605C12.6832 19.605 12.4848 19.6872 12.3386 19.8335C12.1923 19.9797 12.1101 20.1781 12.1101 20.385C12.1101 20.765 12.4591 20.977 12.8901 20.977Z" fill="url(#paint15_radial_3799_5455)"/>
<g filter="url(#filter4_f_3799_5455)">
<path d="M23.5831 17.05C22.5931 17.05 21.5231 17.666 21.3871 18.167C21.3481 18.309 21.3681 18.562 21.9581 18.562H25.2161C25.5411 18.562 25.7731 18.463 25.7301 18.229C25.5971 17.493 24.5741 17.05 23.5831 17.05Z" fill="#E35A2F"/>
</g>
<g filter="url(#filter5_f_3799_5455)">
<path d="M22.9559 21.278C21.9659 21.278 20.8959 21.895 20.7599 22.395C20.7199 22.538 20.7399 22.791 21.3299 22.791H24.5889C24.9139 22.791 25.1449 22.691 25.1029 22.457C24.9699 21.721 23.9459 21.278 22.9559 21.278Z" fill="#E35A2F"/>
</g>
<path d="M9.59201 23.477C10.023 23.477 10.372 23.25 10.372 22.885C10.372 22.6781 10.2898 22.4797 10.1436 22.3335C9.99728 22.1872 9.79888 22.105 9.59201 22.105C9.38514 22.105 9.18675 22.1872 9.04047 22.3335C8.89419 22.4797 8.81201 22.6781 8.81201 22.885C8.81201 23.265 9.16201 23.477 9.59201 23.477Z" fill="url(#paint16_radial_3799_5455)"/>
<path d="M23.7339 16.734C22.7129 16.734 21.7149 17.592 21.5749 18.134C21.5349 18.288 21.5549 18.562 22.1639 18.562H25.5239C25.8599 18.562 26.0979 18.455 26.0539 18.202C25.9169 17.404 24.7559 16.734 23.7339 16.734Z" fill="url(#paint17_linear_3799_5455)"/>
<path d="M23.7339 16.734C22.7129 16.734 21.7149 17.592 21.5749 18.134C21.5349 18.288 21.5549 18.562 22.1639 18.562H25.5239C25.8599 18.562 26.0979 18.455 26.0539 18.202C25.9169 17.404 24.7559 16.734 23.7339 16.734Z" fill="url(#paint18_radial_3799_5455)"/>
<path d="M23.7339 16.734C22.7129 16.734 21.7149 17.592 21.5749 18.134C21.5349 18.288 21.5549 18.562 22.1639 18.562H25.5239C25.8599 18.562 26.0979 18.455 26.0539 18.202C25.9169 17.404 24.7559 16.734 23.7339 16.734Z" fill="url(#paint19_radial_3799_5455)"/>
<path d="M23.2189 21.016C22.1969 21.016 21.1529 21.838 21.0129 22.373C20.9729 22.526 20.9929 22.797 21.6009 22.797H24.9619C25.2969 22.797 25.5359 22.691 25.4919 22.44C25.3549 21.653 24.2399 21.016 23.2189 21.016Z" fill="url(#paint20_linear_3799_5455)"/>
<path d="M23.2189 21.016C22.1969 21.016 21.1529 21.838 21.0129 22.373C20.9729 22.526 20.9929 22.797 21.6009 22.797H24.9619C25.2969 22.797 25.5359 22.691 25.4919 22.44C25.3549 21.653 24.2399 21.016 23.2189 21.016Z" fill="url(#paint21_radial_3799_5455)"/>
<path d="M23.2189 21.016C22.1969 21.016 21.1529 21.838 21.0129 22.373C20.9729 22.526 20.9929 22.797 21.6009 22.797H24.9619C25.2969 22.797 25.5359 22.691 25.4919 22.44C25.3549 21.653 24.2399 21.016 23.2189 21.016Z" fill="url(#paint22_radial_3799_5455)"/>
<g filter="url(#filter6_f_3799_5455)">
<path d="M18.2081 19.188C17.2181 19.188 16.1481 19.804 16.0121 20.304C15.9731 20.447 15.9931 20.7 16.5831 20.7H19.8411C20.1661 20.7 20.3981 20.601 20.3551 20.367C20.2221 19.631 19.1991 19.188 18.2081 19.188Z" fill="#E35A2F"/>
</g>
<path d="M18.5279 18.88C17.5059 18.88 16.4029 19.742 16.2629 20.277C16.2229 20.429 16.2429 20.7 16.8509 20.7H20.2119C20.5469 20.7 20.7859 20.594 20.7419 20.344C20.6049 19.556 19.5489 18.88 18.5279 18.88Z" fill="url(#paint23_linear_3799_5455)"/>
<path d="M18.5279 18.88C17.5059 18.88 16.4029 19.742 16.2629 20.277C16.2229 20.429 16.2429 20.7 16.8509 20.7H20.2119C20.5469 20.7 20.7859 20.594 20.7419 20.344C20.6049 19.556 19.5489 18.88 18.5279 18.88Z" fill="url(#paint24_radial_3799_5455)"/>
<path d="M18.5279 18.88C17.5059 18.88 16.4029 19.742 16.2629 20.277C16.2229 20.429 16.2429 20.7 16.8509 20.7H20.2119C20.5469 20.7 20.7859 20.594 20.7419 20.344C20.6049 19.556 19.5489 18.88 18.5279 18.88Z" fill="url(#paint25_radial_3799_5455)"/>
<path d="M12.146 10.918C12.2094 10.8768 12.2866 10.8624 12.3606 10.8779C12.4346 10.8935 12.4995 10.9377 12.541 11.001L12.954 11.633C12.9955 11.6965 13.01 11.7739 12.9945 11.8482C12.9789 11.9225 12.9345 11.9875 12.871 12.029C12.8074 12.0705 12.73 12.0851 12.6558 12.0695C12.5815 12.054 12.5165 12.0095 12.475 11.946L12.062 11.314C12.0414 11.2825 12.0273 11.2473 12.0205 11.2103C12.0136 11.1733 12.014 11.1354 12.0219 11.0986C12.0297 11.0618 12.0446 11.0269 12.0659 10.9959C12.0872 10.965 12.1144 10.9385 12.146 10.918Z" fill="#DCDADD"/>
<path d="M15.2499 11.53C15.2918 11.467 15.3571 11.4231 15.4313 11.4081C15.5056 11.3931 15.5827 11.4082 15.6459 11.45L16.3949 11.927C16.4568 11.9693 16.4996 12.0342 16.5142 12.1077C16.5287 12.1813 16.5138 12.2576 16.4727 12.3202C16.4315 12.3829 16.3674 12.4269 16.2941 12.4427C16.2208 12.4586 16.1443 12.445 16.0809 12.405L15.3309 11.927C15.2677 11.8852 15.2236 11.82 15.2084 11.7458C15.1933 11.6715 15.2082 11.5943 15.2499 11.531V11.53Z" fill="#E3E1E4"/>
<path d="M12.7189 13.281C12.7836 13.2415 12.8614 13.2293 12.9351 13.2471C13.0087 13.265 13.0724 13.3113 13.1119 13.376L13.5479 14.069C13.585 14.1336 13.5954 14.2102 13.5769 14.2824C13.5585 14.3546 13.5125 14.4167 13.4489 14.4555C13.3853 14.4944 13.3091 14.5068 13.2364 14.4903C13.1638 14.4738 13.1004 14.4295 13.0599 14.367L12.6229 13.674C12.6034 13.6419 12.5904 13.6063 12.5846 13.5691C12.5789 13.532 12.5806 13.4941 12.5895 13.4576C12.5984 13.4211 12.6144 13.3867 12.6366 13.3564C12.6588 13.3261 12.6868 13.3005 12.7189 13.281Z" fill="#DBD5DF"/>
<path d="M16.227 13.758C16.2995 13.7802 16.3603 13.8302 16.3959 13.8972C16.4315 13.9641 16.4391 14.0425 16.417 14.115L16.16 14.948C16.1495 14.9845 16.1318 15.0185 16.1081 15.0481C16.0843 15.0776 16.0549 15.1022 16.0215 15.1203C15.9882 15.1384 15.9516 15.1497 15.9138 15.1535C15.876 15.1573 15.8379 15.1535 15.8016 15.1425C15.7653 15.1314 15.7316 15.1132 15.7024 15.0889C15.6732 15.0647 15.6491 15.0349 15.6316 15.0012C15.614 14.9676 15.6033 14.9308 15.6001 14.893C15.5969 14.8552 15.6013 14.8171 15.613 14.781L15.87 13.948C15.8921 13.8755 15.9422 13.8147 16.0091 13.7791C16.0761 13.7434 16.1544 13.7359 16.227 13.758Z" fill="#D7D1DA"/>
<path d="M15.033 15.857C15.047 15.8919 15.0539 15.9293 15.0534 15.9669C15.0529 16.0045 15.045 16.0416 15.0302 16.0762C15.0153 16.1107 14.9938 16.142 14.9668 16.1682C14.9398 16.1945 14.908 16.2151 14.873 16.229L14.063 16.549C13.9939 16.5716 13.9188 16.5671 13.853 16.5363C13.7871 16.5056 13.7354 16.4509 13.7084 16.3834C13.6814 16.3159 13.6812 16.2407 13.7076 16.173C13.7341 16.1053 13.7854 16.0503 13.851 16.019L14.661 15.698C14.6959 15.684 14.7333 15.6771 14.7709 15.6776C14.8085 15.6781 14.8456 15.686 14.8802 15.7008C14.9147 15.7157 14.946 15.7372 14.9722 15.7642C14.9985 15.7912 15.0191 15.822 15.033 15.857Z" fill="#C0ABB3"/>
<path d="M18.3519 14.933C18.4276 14.9303 18.5013 14.9577 18.5567 15.0093C18.6122 15.0609 18.645 15.1323 18.6479 15.208L18.6779 16.08C18.6751 16.1521 18.6452 16.2205 18.5942 16.2714C18.5431 16.3224 18.4747 16.3522 18.4026 16.3549C18.3305 16.3575 18.2601 16.3328 18.2054 16.2858C18.1508 16.2387 18.1159 16.1727 18.1079 16.101L18.0769 15.23C18.0754 15.1924 18.0814 15.155 18.0944 15.1197C18.1074 15.0844 18.1273 15.0521 18.1528 15.0245C18.1783 14.9969 18.2091 14.9746 18.2432 14.9589C18.2774 14.9432 18.3143 14.9344 18.3519 14.933Z" fill="#D0C5CA"/>
<path d="M10.2 15.4C10.2407 15.3362 10.305 15.2911 10.3788 15.2746C10.4526 15.2581 10.53 15.2716 10.594 15.312L11.328 15.783C11.3596 15.8032 11.387 15.8295 11.4085 15.8603C11.43 15.8911 11.4452 15.9258 11.4533 15.9625C11.4614 15.9992 11.4621 16.0371 11.4556 16.074C11.449 16.111 11.4352 16.1463 11.415 16.178C11.3948 16.2096 11.3685 16.237 11.3377 16.2585C11.3069 16.28 11.2722 16.2952 11.2355 16.3033C11.1614 16.3196 11.0839 16.3058 11.02 16.265L10.287 15.795C10.2551 15.7748 10.2275 15.7486 10.2059 15.7178C10.1842 15.6869 10.1688 15.6521 10.1606 15.6153C10.1524 15.5785 10.1516 15.5404 10.1582 15.5033C10.1648 15.4662 10.1786 15.4307 10.199 15.399L10.2 15.4Z" fill="#CDBBC5"/>
<path d="M10.4921 12.2C10.5662 12.216 10.6309 12.2609 10.672 12.3246C10.7131 12.3884 10.7271 12.4659 10.7111 12.54L10.5251 13.392C10.5073 13.4642 10.4621 13.5266 10.399 13.566C10.336 13.6054 10.2601 13.6187 10.1874 13.6031C10.1147 13.5875 10.051 13.5442 10.0096 13.4824C9.96833 13.4206 9.95272 13.3451 9.9661 13.272L10.1521 12.42C10.1599 12.3832 10.175 12.3483 10.1963 12.3173C10.2176 12.2864 10.2449 12.2599 10.2765 12.2395C10.308 12.219 10.3433 12.205 10.3803 12.1982C10.4174 12.1915 10.4553 12.1921 10.4921 12.2Z" fill="#D6D2D9"/>
<path d="M8.72204 14.286C8.7517 14.3557 8.75246 14.4344 8.72415 14.5047C8.69583 14.5751 8.64076 14.6313 8.57104 14.661L7.76704 14.999C7.73216 15.0158 7.69422 15.0254 7.65553 15.0271C7.61683 15.0289 7.57819 15.0227 7.54194 15.0091C7.50569 14.9955 7.47259 14.9746 7.44464 14.9478C7.4167 14.9209 7.39449 14.8887 7.37938 14.8531C7.36426 14.8174 7.35654 14.779 7.35669 14.7403C7.35684 14.7016 7.36486 14.6633 7.38026 14.6277C7.39566 14.5922 7.41811 14.5602 7.44627 14.5336C7.47442 14.507 7.50768 14.4863 7.54404 14.473L8.34704 14.134C8.38164 14.1193 8.41879 14.1116 8.45637 14.1113C8.49394 14.111 8.53121 14.1182 8.56604 14.1323C8.60086 14.1464 8.63257 14.1672 8.65933 14.1936C8.6861 14.22 8.70741 14.2514 8.72204 14.286Z" fill="#C3BEC8"/>
<g filter="url(#filter7_f_3799_5455)">
<path d="M18.5941 20C19.0061 19.988 20.0571 20.177 20.5001 20.344C20.1001 19.794 19.0311 19.5 18.4841 19.5C18.1721 19.5 18.1811 20.012 18.5941 20Z" fill="url(#paint26_linear_3799_5455)"/>
</g>
<g filter="url(#filter8_f_3799_5455)">
<path d="M23.9829 17.727C24.3959 17.714 25.4469 17.904 25.8899 18.07C25.4899 17.52 24.4199 17.227 23.8739 17.227C23.5609 17.227 23.5699 17.739 23.9829 17.727Z" fill="url(#paint27_linear_3799_5455)"/>
</g>
<g filter="url(#filter9_f_3799_5455)">
<path d="M23.42 21.984C23.833 21.972 24.884 22.161 25.327 22.328C24.927 21.778 23.858 21.484 23.311 21.484C22.999 21.484 23.007 21.997 23.42 21.984Z" fill="url(#paint28_linear_3799_5455)"/>
</g>
<g filter="url(#filter10_f_3799_5455)">
<path d="M29.047 19.25C29.047 17.062 28.391 14.312 26.484 13.031C28.125 13.453 29.828 15.844 29.828 19.125C29.828 24.088 26.484 26.281 19.594 25.938C28.594 25.125 29.047 21.438 29.047 19.25Z" fill="url(#paint29_radial_3799_5455)"/>
<path d="M29.047 19.25C29.047 17.062 28.391 14.312 26.484 13.031C28.125 13.453 29.828 15.844 29.828 19.125C29.828 24.088 26.484 26.281 19.594 25.938C28.594 25.125 29.047 21.438 29.047 19.25Z" fill="url(#paint30_radial_3799_5455)"/>
</g>
<defs>
<filter id="filter0_f_3799_5455" x="4" y="11.34" width="17.1882" height="7.51999" filterUnits="userSpaceOnUse" color-interpolation-filters="sRGB">
<feFlood flood-opacity="0" result="BackgroundImageFix"/>
<feBlend mode="normal" in="SourceGraphic" in2="BackgroundImageFix" result="shape"/>
<feGaussianBlur stdDeviation="0.5" result="effect1_foregroundBlur_3799_5455"/>
</filter>
<filter id="filter1_f_3799_5455" x="6.21899" y="18.5" width="2.4209" height="2" filterUnits="userSpaceOnUse" color-interpolation-filters="sRGB">
<feFlood flood-opacity="0" result="BackgroundImageFix"/>
<feBlend mode="normal" in="SourceGraphic" in2="BackgroundImageFix" result="shape"/>
<feGaussianBlur stdDeviation="0.25" result="effect1_foregroundBlur_3799_5455"/>
</filter>
<filter id="filter2_f_3799_5455" x="8.06006" y="21.977" width="2.42212" height="2" filterUnits="userSpaceOnUse" color-interpolation-filters="sRGB">
<feFlood flood-opacity="0" result="BackgroundImageFix"/>
<feBlend mode="normal" in="SourceGraphic" in2="BackgroundImageFix" result="shape"/>
<feGaussianBlur stdDeviation="0.25" result="effect1_foregroundBlur_3799_5455"/>
</filter>
<filter id="filter3_f_3799_5455" x="11.342" y="19.398" width="2.41992" height="2" filterUnits="userSpaceOnUse" color-interpolation-filters="sRGB">
<feFlood flood-opacity="0" result="BackgroundImageFix"/>
<feBlend mode="normal" in="SourceGraphic" in2="BackgroundImageFix" result="shape"/>
<feGaussianBlur stdDeviation="0.25" result="effect1_foregroundBlur_3799_5455"/>
</filter>
<filter id="filter4_f_3799_5455" x="21.1248" y="16.8" width="4.8606" height="2.01199" filterUnits="userSpaceOnUse" color-interpolation-filters="sRGB">
<feFlood flood-opacity="0" result="BackgroundImageFix"/>
<feBlend mode="normal" in="SourceGraphic" in2="BackgroundImageFix" result="shape"/>
<feGaussianBlur stdDeviation="0.125" result="effect1_foregroundBlur_3799_5455"/>
</filter>
<filter id="filter5_f_3799_5455" x="20.4971" y="21.028" width="4.86084" height="2.013" filterUnits="userSpaceOnUse" color-interpolation-filters="sRGB">
<feFlood flood-opacity="0" result="BackgroundImageFix"/>
<feBlend mode="normal" in="SourceGraphic" in2="BackgroundImageFix" result="shape"/>
<feGaussianBlur stdDeviation="0.125" result="effect1_foregroundBlur_3799_5455"/>
</filter>
<filter id="filter6_f_3799_5455" x="15.7498" y="18.938" width="4.8606" height="2.01199" filterUnits="userSpaceOnUse" color-interpolation-filters="sRGB">
<feFlood flood-opacity="0" result="BackgroundImageFix"/>
<feBlend mode="normal" in="SourceGraphic" in2="BackgroundImageFix" result="shape"/>
<feGaussianBlur stdDeviation="0.125" result="effect1_foregroundBlur_3799_5455"/>
</filter>
<filter id="filter7_f_3799_5455" x="17.7654" y="19" width="3.23462" height="1.84399" filterUnits="userSpaceOnUse" color-interpolation-filters="sRGB">
<feFlood flood-opacity="0" result="BackgroundImageFix"/>
<feBlend mode="normal" in="SourceGraphic" in2="BackgroundImageFix" result="shape"/>
<feGaussianBlur stdDeviation="0.25" result="effect1_foregroundBlur_3799_5455"/>
</filter>
<filter id="filter8_f_3799_5455" x="23.1543" y="16.727" width="3.2356" height="1.84299" filterUnits="userSpaceOnUse" color-interpolation-filters="sRGB">
<feFlood flood-opacity="0" result="BackgroundImageFix"/>
<feBlend mode="normal" in="SourceGraphic" in2="BackgroundImageFix" result="shape"/>
<feGaussianBlur stdDeviation="0.25" result="effect1_foregroundBlur_3799_5455"/>
</filter>
<filter id="filter9_f_3799_5455" x="22.5918" y="20.984" width="3.23511" height="1.84399" filterUnits="userSpaceOnUse" color-interpolation-filters="sRGB">
<feFlood flood-opacity="0" result="BackgroundImageFix"/>
<feBlend mode="normal" in="SourceGraphic" in2="BackgroundImageFix" result="shape"/>
<feGaussianBlur stdDeviation="0.25" result="effect1_foregroundBlur_3799_5455"/>
</filter>
<filter id="filter10_f_3799_5455" x="19.094" y="12.531" width="11.2339" height="13.9417" filterUnits="userSpaceOnUse" color-interpolation-filters="sRGB">
<feFlood flood-opacity="0" result="BackgroundImageFix"/>
<feBlend mode="normal" in="SourceGraphic" in2="BackgroundImageFix" result="shape"/>
<feGaussianBlur stdDeviation="0.25" result="effect1_foregroundBlur_3799_5455"/>
</filter>
<linearGradient id="paint0_linear_3799_5455" x1="5.18792" y1="26.25" x2="27.4999" y2="26.25" gradientUnits="userSpaceOnUse">
<stop stop-color="#6F6A72"/>
<stop offset="0.218" stop-color="#726681"/>
<stop offset="0.529" stop-color="#8D7EA3"/>
<stop offset="1" stop-color="#C4BBD1"/>
</linearGradient>
<radialGradient id="paint1_radial_3799_5455" cx="0" cy="0" r="1" gradientUnits="userSpaceOnUse" gradientTransform="translate(18.4999 24.875) rotate(90) scale(4.12496 12.75)">
<stop offset="0.483" stop-color="#8D79A9"/>
<stop offset="0.758" stop-color="#8E7AAA" stop-opacity="0"/>
</radialGradient>
<linearGradient id="paint2_linear_3799_5455" x1="16.02" y1="11.06" x2="16.02" y2="27.1" gradientUnits="userSpaceOnUse">
<stop stop-color="#B4B3B3"/>
<stop offset="0.016" stop-color="#D3D1D2"/>
<stop offset="0.651" stop-color="#DDDBDD"/>
<stop offset="0.912" stop-color="#D8D3DF"/>
<stop offset="0.959" stop-color="#C9BEDA"/>
<stop offset="1" stop-color="#A28FBE"/>
</linearGradient>
<radialGradient id="paint3_radial_3799_5455" cx="0" cy="0" r="1" gradientUnits="userSpaceOnUse" gradientTransform="translate(19.437 18.062) rotate(89.061) scale(11.439 17.4693)">
<stop offset="0.916" stop-color="#888786" stop-opacity="0"/>
<stop offset="1" stop-color="#8E8C8D"/>
</radialGradient>
<radialGradient id="paint4_radial_3799_5455" cx="0" cy="0" r="1" gradientUnits="userSpaceOnUse" gradientTransform="translate(9.188 8.125) rotate(90.9316) scale(7.68852 8.3476)">
<stop stop-color="#847E80"/>
<stop offset="1" stop-color="#A39FA2" stop-opacity="0"/>
</radialGradient>
<radialGradient id="paint5_radial_3799_5455" cx="0" cy="0" r="1" gradientUnits="userSpaceOnUse" gradientTransform="translate(21.813 18.25) rotate(102.308) scale(7.03673 8.27331)">
<stop offset="0.737" stop-color="#A69490"/>
<stop offset="0.839" stop-color="#C1BEC1"/>
<stop offset="0.94" stop-color="#D0CFD1" stop-opacity="0"/>
</radialGradient>
<radialGradient id="paint6_radial_3799_5455" cx="0" cy="0" r="1" gradientUnits="userSpaceOnUse" gradientTransform="translate(7.563 28.188) rotate(94.7636) scale(3.763 11.7548)">
<stop stop-color="#A59AB7"/>
<stop offset="0.865" stop-color="#A396B6" stop-opacity="0"/>
</radialGradient>
<linearGradient id="paint7_linear_3799_5455" x1="4.21997" y1="19.688" x2="28.875" y2="16.438" gradientUnits="userSpaceOnUse">
<stop stop-color="#F66B25"/>
<stop offset="1" stop-color="#FF8E36"/>
</linearGradient>
<radialGradient id="paint8_radial_3799_5455" cx="0" cy="0" r="1" gradientUnits="userSpaceOnUse" gradientTransform="translate(14.938 19.08) rotate(89.2243) scale(9.23332 13.5285)">
<stop offset="0.907" stop-color="#C54F2D" stop-opacity="0"/>
<stop offset="0.954" stop-color="#CC562E"/>
</radialGradient>
<linearGradient id="paint9_linear_3799_5455" x1="9.43789" y1="18.094" x2="9.43789" y2="12.813" gradientUnits="userSpaceOnUse">
<stop offset="0.314" stop-color="#863B1F"/>
<stop offset="0.763" stop-color="#6B605D"/>
</linearGradient>
<radialGradient id="paint10_radial_3799_5455" cx="0" cy="0" r="1" gradientUnits="userSpaceOnUse" gradientTransform="translate(13.3069 16.813) rotate(90) scale(5.875 11.3526)">
<stop stop-color="#E7DDEA"/>
<stop offset="1" stop-color="#E8E0EC" stop-opacity="0"/>
</radialGradient>
<radialGradient id="paint11_radial_3799_5455" cx="0" cy="0" r="1" gradientUnits="userSpaceOnUse" gradientTransform="translate(15.469 18.0307) rotate(90.535) scale(3.3439 17.5244)">
<stop stop-color="#C3867E"/>
<stop offset="0.774" stop-color="#C38680" stop-opacity="0"/>
</radialGradient>
<radialGradient id="paint12_radial_3799_5455" cx="0" cy="0" r="1" gradientUnits="userSpaceOnUse" gradientTransform="translate(15.0629 18.625) rotate(153.354) scale(19.7892 16.7763)">
<stop offset="0.477" stop-color="#CBC9CB" stop-opacity="0"/>
<stop offset="0.574" stop-color="#B3B1B2"/>
</radialGradient>
<radialGradient id="paint13_radial_3799_5455" cx="0" cy="0" r="1" gradientUnits="userSpaceOnUse" gradientTransform="translate(18.8751 13.9293) rotate(114.759) scale(4.32782 9.48491)">
<stop stop-color="#FCFBFC"/>
<stop offset="0.637" stop-color="#FCFBFC" stop-opacity="0"/>
</radialGradient>
<radialGradient id="paint14_radial_3799_5455" cx="0" cy="0" r="1" gradientUnits="userSpaceOnUse" gradientTransform="translate(8.04677 19.2353) rotate(115.159) scale(1.13934 1.29585)">
<stop stop-color="#84F08B"/>
<stop offset="0.453" stop-color="#3FB848"/>
<stop offset="0.809" stop-color="#4D9237"/>
</radialGradient>
<radialGradient id="paint15_radial_3799_5455" cx="0" cy="0" r="1" gradientUnits="userSpaceOnUse" gradientTransform="translate(13.1565 20.1101) rotate(115.159) scale(1.13934 1.29585)">
<stop stop-color="#84F08B"/>
<stop offset="0.453" stop-color="#3FB848"/>
<stop offset="0.809" stop-color="#4D9237"/>
</radialGradient>
<radialGradient id="paint16_radial_3799_5455" cx="0" cy="0" r="1" gradientUnits="userSpaceOnUse" gradientTransform="translate(9.86001 22.61) rotate(115.159) scale(1.13934 1.29584)">
<stop stop-color="#84F08B"/>
<stop offset="0.453" stop-color="#3FB848"/>
<stop offset="0.809" stop-color="#4D9237"/>
</radialGradient>
<linearGradient id="paint17_linear_3799_5455" x1="21.5629" y1="18.563" x2="26.0599" y2="18.563" gradientUnits="userSpaceOnUse">
<stop stop-color="#D59935"/>
<stop offset="0.514" stop-color="#FFD43C"/>
<stop offset="1" stop-color="#FFF353"/>
</linearGradient>
<radialGradient id="paint18_radial_3799_5455" cx="0" cy="0" r="1" gradientUnits="userSpaceOnUse" gradientTransform="translate(24.3749 18.737) rotate(91.9659) scale(0.910676 2.8601)">
<stop offset="0.375" stop-color="#FF9027"/>
<stop offset="1" stop-color="#FF8826" stop-opacity="0"/>
</radialGradient>
<radialGradient id="paint19_radial_3799_5455" cx="0" cy="0" r="1" gradientUnits="userSpaceOnUse" gradientTransform="translate(20.8439 17.648) rotate(51.8211) scale(1.1628 8.96396)">
<stop offset="0.423" stop-color="#C68B33"/>
<stop offset="1" stop-color="#C78D34" stop-opacity="0"/>
</radialGradient>
<linearGradient id="paint20_linear_3799_5455" x1="20.9999" y1="22.797" x2="25.4969" y2="22.797" gradientUnits="userSpaceOnUse">
<stop stop-color="#D59935"/>
<stop offset="0.514" stop-color="#FFD43C"/>
<stop offset="1" stop-color="#FFF353"/>
</linearGradient>
<radialGradient id="paint21_radial_3799_5455" cx="0" cy="0" r="1" gradientUnits="userSpaceOnUse" gradientTransform="translate(23.8129 22.968) rotate(92.0182) scale(0.887341 2.86002)">
<stop offset="0.375" stop-color="#FF9027"/>
<stop offset="1" stop-color="#FF8826" stop-opacity="0"/>
</radialGradient>
<radialGradient id="paint22_radial_3799_5455" cx="0" cy="0" r="1" gradientUnits="userSpaceOnUse" gradientTransform="translate(20.2809 21.906) rotate(51.0954) scale(1.14446 8.87396)">
<stop offset="0.423" stop-color="#C68B33"/>
<stop offset="1" stop-color="#C78D34" stop-opacity="0"/>
</radialGradient>
<linearGradient id="paint23_linear_3799_5455" x1="16.2499" y1="20.7" x2="20.7469" y2="20.7" gradientUnits="userSpaceOnUse">
<stop stop-color="#D59935"/>
<stop offset="0.514" stop-color="#FFD43C"/>
<stop offset="1" stop-color="#FFF353"/>
</linearGradient>
<radialGradient id="paint24_radial_3799_5455" cx="0" cy="0" r="1" gradientUnits="userSpaceOnUse" gradientTransform="translate(19.0622 20.8757) rotate(91.975) scale(0.906791 2.8601)">
<stop offset="0.375" stop-color="#FF9027"/>
<stop offset="1" stop-color="#FF8826" stop-opacity="0"/>
</radialGradient>
<radialGradient id="paint25_radial_3799_5455" cx="0" cy="0" r="1" gradientUnits="userSpaceOnUse" gradientTransform="translate(15.5309 19.79) rotate(51.702) scale(1.15974 8.94926)">
<stop offset="0.423" stop-color="#C68B33"/>
<stop offset="1" stop-color="#C78D34" stop-opacity="0"/>
</radialGradient>
<linearGradient id="paint26_linear_3799_5455" x1="20.4061" y1="20.016" x2="18.1251" y2="19.5" gradientUnits="userSpaceOnUse">
<stop offset="0.603" stop-color="#FFF872"/>
<stop offset="1" stop-color="#FFF16E" stop-opacity="0"/>
</linearGradient>
<linearGradient id="paint27_linear_3799_5455" x1="25.7959" y1="17.742" x2="23.5149" y2="17.227" gradientUnits="userSpaceOnUse">
<stop offset="0.603" stop-color="#FFF872"/>
<stop offset="1" stop-color="#FFF16E" stop-opacity="0"/>
</linearGradient>
<linearGradient id="paint28_linear_3799_5455" x1="25.233" y1="22" x2="22.952" y2="21.484" gradientUnits="userSpaceOnUse">
<stop offset="0.603" stop-color="#FFF872"/>
<stop offset="1" stop-color="#FFF16E" stop-opacity="0"/>
</linearGradient>
<radialGradient id="paint29_radial_3799_5455" cx="0" cy="0" r="1" gradientUnits="userSpaceOnUse" gradientTransform="translate(29.125 19.297) rotate(118.281) scale(9.10207 10.3118)">
<stop stop-color="#FFFEFF"/>
<stop offset="1" stop-color="#FDFBFE" stop-opacity="0"/>
</radialGradient>
<radialGradient id="paint30_radial_3799_5455" cx="0" cy="0" r="1" gradientUnits="userSpaceOnUse" gradientTransform="translate(25.688 24.3123) rotate(145.763) scale(5.44324 3.911)">
<stop stop-color="#FDFBFF"/>
<stop offset="1" stop-color="#FBF9FF" stop-opacity="0"/>
</radialGradient>
</defs>
</svg>
