<svg width="33" height="32" viewBox="0 0 33 32" fill="none" xmlns="http://www.w3.org/2000/svg">
<path d="M16.49 10.42V6" stroke="#8ECB1F" stroke-width="2" stroke-miterlimit="10" stroke-linecap="round" stroke-linejoin="round"/>
<path d="M16.49 10.42V6" stroke="url(#paint0_radial_3799_8032)" stroke-width="2" stroke-miterlimit="10" stroke-linecap="round" stroke-linejoin="round"/>
<path d="M20.47 9.98999H12.5C6.97 9.98999 2.5 14.47 2.5 19.99C2.5 25.52 6.98 29.99 12.5 29.99H20.46C25.99 29.99 30.46 25.51 30.46 19.99C30.47 14.47 25.99 9.98999 20.47 9.98999Z" fill="url(#paint1_radial_3799_8032)"/>
<path d="M20.47 9.98999H12.5C6.97 9.98999 2.5 14.47 2.5 19.99C2.5 25.52 6.98 29.99 12.5 29.99H20.46C25.99 29.99 30.46 25.51 30.46 19.99C30.47 14.47 25.99 9.98999 20.47 9.98999Z" fill="url(#paint2_radial_3799_8032)"/>
<path d="M20.47 9.98999H12.5C6.97 9.98999 2.5 14.47 2.5 19.99C2.5 25.52 6.98 29.99 12.5 29.99H20.46C25.99 29.99 30.46 25.51 30.46 19.99C30.47 14.47 25.99 9.98999 20.47 9.98999Z" fill="url(#paint3_radial_3799_8032)"/>
<path d="M22.71 7H28.47C28.47 10.13 25.94 12.66 22.81 12.66H17.05C17.05 9.53 19.58 7 22.71 7Z" fill="#93CC2E"/>
<path d="M22.71 7H28.47C28.47 10.13 25.94 12.66 22.81 12.66H17.05C17.05 9.53 19.58 7 22.71 7Z" fill="url(#paint4_radial_3799_8032)"/>
<path d="M22.71 7H28.47C28.47 10.13 25.94 12.66 22.81 12.66H17.05C17.05 9.53 19.58 7 22.71 7Z" fill="url(#paint5_radial_3799_8032)"/>
<path d="M22.71 7H28.47C28.47 10.13 25.94 12.66 22.81 12.66H17.05C17.05 9.53 19.58 7 22.71 7Z" fill="url(#paint6_radial_3799_8032)"/>
<g filter="url(#filter0_f_3799_8032)">
<path d="M28.047 7.375C27.849 8.125 27.062 11 24.562 11.688" stroke="url(#paint7_linear_3799_8032)" stroke-width="0.5"/>
</g>
<g filter="url(#filter1_f_3799_8032)">
<path d="M27.906 7.5C27.708 8.25 26.625 10.875 24.125 11.563" stroke="url(#paint8_linear_3799_8032)" stroke-width="0.5"/>
</g>
<path d="M10.14 12.66H15.9C15.9 9.53 13.37 7 10.24 7H4.47998C4.47998 10.13 7.00998 12.66 10.14 12.66Z" fill="#85BA1F"/>
<path d="M10.14 12.66H15.9C15.9 9.53 13.37 7 10.24 7H4.47998C4.47998 10.13 7.00998 12.66 10.14 12.66Z" fill="url(#paint9_radial_3799_8032)"/>
<path d="M10.14 12.66H15.9C15.9 9.53 13.37 7 10.24 7H4.47998C4.47998 10.13 7.00998 12.66 10.14 12.66Z" fill="url(#paint10_radial_3799_8032)"/>
<g filter="url(#filter2_f_3799_8032)">
<path fill-rule="evenodd" clip-rule="evenodd" d="M5.84399 15.406H11.587C13.291 15.406 14.821 14.659 15.854 13.734C16.87 14.439 18.564 15.188 20.485 15.188L26.219 15.656C26.219 14.142 23.69 12.66 20.585 12.66H16.78C17.06 12.218 17.213 11.783 17.21 11.406L11.477 12.66C8.36199 12.66 5.84399 13.888 5.84399 15.406Z" fill="#96CB36"/>
<path fill-rule="evenodd" clip-rule="evenodd" d="M5.84399 15.406H11.587C13.291 15.406 14.821 14.659 15.854 13.734C16.87 14.439 18.564 15.188 20.485 15.188L26.219 15.656C26.219 14.142 23.69 12.66 20.585 12.66H16.78C17.06 12.218 17.213 11.783 17.21 11.406L11.477 12.66C8.36199 12.66 5.84399 13.888 5.84399 15.406Z" fill="#B81D25"/>
</g>
<path fill-rule="evenodd" clip-rule="evenodd" d="M6.25 15.07H12.02C12.8824 15.0708 13.7335 14.874 14.508 14.4947C15.2825 14.1154 15.9598 13.5637 16.488 12.882C17.0167 13.5642 17.6947 14.1161 18.4699 14.4954C19.2451 14.8746 20.097 15.0712 20.96 15.07H26.72C26.72 11.95 24.18 9.41003 21.06 9.41003H11.91C8.78 9.41003 6.25 11.94 6.25 15.07Z" fill="#80AF1F"/>
<path fill-rule="evenodd" clip-rule="evenodd" d="M6.25 15.07H12.02C12.8824 15.0708 13.7335 14.874 14.508 14.4947C15.2825 14.1154 15.9598 13.5637 16.488 12.882C17.0167 13.5642 17.6947 14.1161 18.4699 14.4954C19.2451 14.8746 20.097 15.0712 20.96 15.07H26.72C26.72 11.95 24.18 9.41003 21.06 9.41003H11.91C8.78 9.41003 6.25 11.94 6.25 15.07Z" fill="url(#paint11_radial_3799_8032)"/>
<path fill-rule="evenodd" clip-rule="evenodd" d="M6.25 15.07H12.02C12.8824 15.0708 13.7335 14.874 14.508 14.4947C15.2825 14.1154 15.9598 13.5637 16.488 12.882C17.0167 13.5642 17.6947 14.1161 18.4699 14.4954C19.2451 14.8746 20.097 15.0712 20.96 15.07H26.72C26.72 11.95 24.18 9.41003 21.06 9.41003H11.91C8.78 9.41003 6.25 11.94 6.25 15.07Z" fill="url(#paint12_radial_3799_8032)"/>
<g filter="url(#filter3_f_3799_8032)">
<path d="M16.906 5.625V9.781" stroke="#BFF079" stroke-width="0.3" stroke-linecap="round"/>
</g>
<g filter="url(#filter4_f_3799_8032)">
<path d="M15.8999 5.625V9.781" stroke="#A2DA38" stroke-width="0.2" stroke-linecap="round"/>
</g>
<g filter="url(#filter5_f_3799_8032)">
<path d="M16.83 6.00001C17.0123 6.00001 17.16 5.84196 17.16 5.64701C17.16 5.45205 17.0123 5.29401 16.83 5.29401C16.6477 5.29401 16.5 5.45205 16.5 5.64701C16.5 5.84196 16.6477 6.00001 16.83 6.00001Z" fill="#CEFB8E"/>
</g>
<g filter="url(#filter6_f_3799_8032)">
<path fill-rule="evenodd" clip-rule="evenodd" d="M17.7811 13.828C17.2461 13.397 16.7661 12.891 16.5471 12.453V11.469C16.8111 11.748 17.7751 12.832 18.2921 13.249C18.8131 13.669 19.3691 14.041 19.8271 14.201C20.0431 14.277 20.4441 14.338 20.9801 14.381C21.5061 14.422 22.1381 14.445 22.7991 14.456C24.1201 14.476 25.1701 14.443 26.0791 14.406L26.5621 14.906C25.3061 14.9541 24.049 14.9708 22.7921 14.956C22.1251 14.946 21.5221 14.999 20.9801 14.956C20.4461 14.913 19.9251 14.803 19.6401 14.703C19.0981 14.513 18.3171 14.26 17.7811 13.828Z" fill="url(#paint13_linear_3799_8032)"/>
<path fill-rule="evenodd" clip-rule="evenodd" d="M17.7811 13.828C17.2461 13.397 16.7661 12.891 16.5471 12.453V11.469C16.8111 11.748 17.7751 12.832 18.2921 13.249C18.8131 13.669 19.3691 14.041 19.8271 14.201C20.0431 14.277 20.4441 14.338 20.9801 14.381C21.5061 14.422 22.1381 14.445 22.7991 14.456C24.1201 14.476 25.1701 14.443 26.0791 14.406L26.5621 14.906C25.3061 14.9541 24.049 14.9708 22.7921 14.956C22.1251 14.946 21.5221 14.999 20.9801 14.956C20.4461 14.913 19.9251 14.803 19.6401 14.703C19.0981 14.513 18.3171 14.26 17.7811 13.828Z" fill="url(#paint14_linear_3799_8032)"/>
</g>
<g filter="url(#filter7_f_3799_8032)">
<path fill-rule="evenodd" clip-rule="evenodd" d="M15.2661 13.734C15.8011 13.303 16.2021 12.747 16.4801 12.453V11.593C16.2161 11.873 15.4651 12.833 14.9481 13.248C14.4271 13.668 13.8711 14.041 13.4131 14.202C13.1971 14.277 12.7961 14.338 12.2601 14.38C11.7341 14.422 11.1021 14.445 10.4411 14.455C9.2229 14.4698 8.0045 14.4535 6.78712 14.406L6.42212 14.906C7.33712 14.943 9.11612 14.976 10.4491 14.956C11.1151 14.946 11.7591 14.922 12.3001 14.879C12.8341 14.836 13.2941 14.773 13.5781 14.674C14.1889 14.4562 14.7593 14.1386 15.2661 13.734Z" fill="url(#paint15_linear_3799_8032)"/>
</g>
<defs>
<filter id="filter0_f_3799_8032" x="24.0956" y="6.91116" width="4.59321" height="5.41786" filterUnits="userSpaceOnUse" color-interpolation-filters="sRGB">
<feFlood flood-opacity="0" result="BackgroundImageFix"/>
<feBlend mode="normal" in="SourceGraphic" in2="BackgroundImageFix" result="shape"/>
<feGaussianBlur stdDeviation="0.2" result="effect1_foregroundBlur_3799_8032"/>
</filter>
<filter id="filter1_f_3799_8032" x="23.6586" y="7.03616" width="4.88911" height="5.16786" filterUnits="userSpaceOnUse" color-interpolation-filters="sRGB">
<feFlood flood-opacity="0" result="BackgroundImageFix"/>
<feBlend mode="normal" in="SourceGraphic" in2="BackgroundImageFix" result="shape"/>
<feGaussianBlur stdDeviation="0.2" result="effect1_foregroundBlur_3799_8032"/>
</filter>
<filter id="filter2_f_3799_8032" x="4.84399" y="10.406" width="22.375" height="6.25" filterUnits="userSpaceOnUse" color-interpolation-filters="sRGB">
<feFlood flood-opacity="0" result="BackgroundImageFix"/>
<feBlend mode="normal" in="SourceGraphic" in2="BackgroundImageFix" result="shape"/>
<feGaussianBlur stdDeviation="0.5" result="effect1_foregroundBlur_3799_8032"/>
</filter>
<filter id="filter3_f_3799_8032" x="15.7561" y="4.47498" width="2.2998" height="6.45605" filterUnits="userSpaceOnUse" color-interpolation-filters="sRGB">
<feFlood flood-opacity="0" result="BackgroundImageFix"/>
<feBlend mode="normal" in="SourceGraphic" in2="BackgroundImageFix" result="shape"/>
<feGaussianBlur stdDeviation="0.5" result="effect1_foregroundBlur_3799_8032"/>
</filter>
<filter id="filter4_f_3799_8032" x="15.2998" y="5.02502" width="1.2002" height="5.35596" filterUnits="userSpaceOnUse" color-interpolation-filters="sRGB">
<feFlood flood-opacity="0" result="BackgroundImageFix"/>
<feBlend mode="normal" in="SourceGraphic" in2="BackgroundImageFix" result="shape"/>
<feGaussianBlur stdDeviation="0.25" result="effect1_foregroundBlur_3799_8032"/>
</filter>
<filter id="filter5_f_3799_8032" x="16" y="4.79401" width="1.65991" height="1.70599" filterUnits="userSpaceOnUse" color-interpolation-filters="sRGB">
<feFlood flood-opacity="0" result="BackgroundImageFix"/>
<feBlend mode="normal" in="SourceGraphic" in2="BackgroundImageFix" result="shape"/>
<feGaussianBlur stdDeviation="0.25" result="effect1_foregroundBlur_3799_8032"/>
</filter>
<filter id="filter6_f_3799_8032" x="16.3471" y="11.269" width="10.4149" height="3.90409" filterUnits="userSpaceOnUse" color-interpolation-filters="sRGB">
<feFlood flood-opacity="0" result="BackgroundImageFix"/>
<feBlend mode="normal" in="SourceGraphic" in2="BackgroundImageFix" result="shape"/>
<feGaussianBlur stdDeviation="0.1" result="effect1_foregroundBlur_3799_8032"/>
</filter>
<filter id="filter7_f_3799_8032" x="6.22212" y="11.393" width="10.4581" height="3.76902" filterUnits="userSpaceOnUse" color-interpolation-filters="sRGB">
<feFlood flood-opacity="0" result="BackgroundImageFix"/>
<feBlend mode="normal" in="SourceGraphic" in2="BackgroundImageFix" result="shape"/>
<feGaussianBlur stdDeviation="0.1" result="effect1_foregroundBlur_3799_8032"/>
</filter>
<radialGradient id="paint0_radial_3799_8032" cx="0" cy="0" r="1" gradientUnits="userSpaceOnUse" gradientTransform="translate(-nan -nan) rotate(-nan) scale(-nan -nan)">
<stop stop-color="#98D31D"/>
<stop offset="0.582" stop-color="#7BB933"/>
<stop offset="1" stop-color="#9DD538" stop-opacity="0"/>
</radialGradient>
<radialGradient id="paint1_radial_3799_8032" cx="0" cy="0" r="1" gradientUnits="userSpaceOnUse" gradientTransform="translate(21.125 14.3754) rotate(137.703) scale(20.6174)">
<stop stop-color="#FF738E"/>
<stop offset="0.34" stop-color="#E31B61"/>
<stop offset="0.756" stop-color="#DD456A"/>
<stop offset="1" stop-color="#EB307B"/>
</radialGradient>
<radialGradient id="paint2_radial_3799_8032" cx="0" cy="0" r="1" gradientUnits="userSpaceOnUse" gradientTransform="translate(20.8749 14.3759) rotate(130.885) scale(24.6355 14.1886)">
<stop stop-color="#B91B46" stop-opacity="0"/>
<stop offset="0.733" stop-color="#B31E47" stop-opacity="0"/>
<stop offset="1" stop-color="#AC2248"/>
</radialGradient>
<radialGradient id="paint3_radial_3799_8032" cx="0" cy="0" r="1" gradientUnits="userSpaceOnUse" gradientTransform="translate(12.3127 16.5622) rotate(67.051) scale(7.53378 7.7933)">
<stop stop-color="#D91253"/>
<stop offset="1" stop-color="#D81254" stop-opacity="0"/>
</radialGradient>
<radialGradient id="paint4_radial_3799_8032" cx="0" cy="0" r="1" gradientUnits="userSpaceOnUse" gradientTransform="translate(19.188 11.188) rotate(7.5819) scale(11.1601 3.0852)">
<stop stop-color="#BFF96A"/>
<stop offset="1" stop-color="#BCF56A" stop-opacity="0"/>
</radialGradient>
<radialGradient id="paint5_radial_3799_8032" cx="0" cy="0" r="1" gradientUnits="userSpaceOnUse" gradientTransform="translate(24 9.063) rotate(165.964) scale(7.73082 3.02932)">
<stop stop-color="#81B335" stop-opacity="0"/>
<stop offset="0.574" stop-color="#82B632" stop-opacity="0"/>
<stop offset="1" stop-color="#83BA2D"/>
</radialGradient>
<radialGradient id="paint6_radial_3799_8032" cx="0" cy="0" r="1" gradientUnits="userSpaceOnUse" gradientTransform="translate(27.063 9) rotate(164.539) scale(6.09559 2.85683)">
<stop offset="0.34" stop-color="#9ED347"/>
<stop offset="1" stop-color="#9DD43E" stop-opacity="0"/>
</radialGradient>
<linearGradient id="paint7_linear_3799_8032" x1="25.189" y1="10.719" x2="30.625" y2="3.063" gradientUnits="userSpaceOnUse">
<stop stop-color="#BFF079"/>
<stop offset="1" stop-color="#BFF079" stop-opacity="0"/>
</linearGradient>
<linearGradient id="paint8_linear_3799_8032" x1="24.908" y1="10.598" x2="30.344" y2="2.941" gradientUnits="userSpaceOnUse">
<stop stop-color="#BFF079"/>
<stop offset="1" stop-color="#BFF079" stop-opacity="0"/>
</linearGradient>
<radialGradient id="paint9_radial_3799_8032" cx="0" cy="0" r="1" gradientUnits="userSpaceOnUse" gradientTransform="translate(10.75 9.83) rotate(-90) scale(6.955 21.6683)">
<stop stop-color="#ADE742"/>
<stop offset="0.82" stop-color="#9BD03C" stop-opacity="0"/>
</radialGradient>
<radialGradient id="paint10_radial_3799_8032" cx="0" cy="0" r="1" gradientUnits="userSpaceOnUse" gradientTransform="translate(10.19 7) rotate(65.8568) scale(7.32856 6.919)">
<stop stop-color="#84B72D" stop-opacity="0"/>
<stop offset="0.597" stop-color="#86B837" stop-opacity="0"/>
<stop offset="1" stop-color="#87B93B"/>
</radialGradient>
<radialGradient id="paint11_radial_3799_8032" cx="0" cy="0" r="1" gradientUnits="userSpaceOnUse" gradientTransform="translate(22.2194 16.2508) rotate(-56.348) scale(13.1395 12.6753)">
<stop offset="0.252" stop-color="#BFF96A"/>
<stop offset="0.613" stop-color="#BDF66A" stop-opacity="0.17"/>
</radialGradient>
<radialGradient id="paint12_radial_3799_8032" cx="0" cy="0" r="1" gradientUnits="userSpaceOnUse" gradientTransform="translate(13.093 13.063) rotate(47.372) scale(3.7376 3.47709)">
<stop stop-color="#97D121"/>
<stop offset="1" stop-color="#98D120" stop-opacity="0"/>
</radialGradient>
<linearGradient id="paint13_linear_3799_8032" x1="17.2051" y1="14.126" x2="18.3891" y2="11.045" gradientUnits="userSpaceOnUse">
<stop stop-color="#84C21C"/>
<stop offset="0.304" stop-color="#9BDA3B"/>
<stop offset="0.667" stop-color="#95D432"/>
<stop offset="1" stop-color="#91CF21"/>
</linearGradient>
<linearGradient id="paint14_linear_3799_8032" x1="16.9061" y1="14.126" x2="26.4061" y2="14.126" gradientUnits="userSpaceOnUse">
<stop stop-color="#82C11A"/>
<stop offset="0.181" stop-color="#9CDA3D"/>
<stop offset="0.628" stop-color="#9AD938"/>
<stop offset="1" stop-color="#91CF25"/>
</linearGradient>
<linearGradient id="paint15_linear_3799_8032" x1="16.1251" y1="14.126" x2="6.83412" y2="14.126" gradientUnits="userSpaceOnUse">
<stop stop-color="#AEDD79"/>
<stop offset="0.304" stop-color="#90C72E"/>
<stop offset="0.667" stop-color="#87AF45"/>
<stop offset="1" stop-color="#91CF21"/>
</linearGradient>
</defs>
</svg>
