<svg width="33" height="32" viewBox="0 0 33 32" fill="none" xmlns="http://www.w3.org/2000/svg">
<path d="M5.00005 7.28099C5.34405 7.64099 5.69205 7.84099 5.98405 7.94499C7.19105 8.37199 7.82305 7.53499 8.25005 8.06199L12.254 13.479L14.929 11.541L10.891 6.12499C10.386 5.42199 12.35 4.61299 11.125 2.93699C10.445 2.00699 9.42205 1.80499 8.50005 2.19499C7.88805 2.45499 7.71905 2.93699 7.44905 3.49799C7.33105 3.74299 7.18405 3.89399 6.95105 3.85499C6.37239 3.77123 5.78401 3.9185 5.31305 4.26499C4.43505 4.89499 4.26305 6.50999 5.00005 7.28099Z" fill="url(#paint0_linear_3799_7063)"/>
<path d="M5.00005 7.28099C5.34405 7.64099 5.69205 7.84099 5.98405 7.94499C6.95105 8.28699 9.57805 7.94499 7.79705 4.53099C9.90705 7.42099 12.563 4.62499 11.125 2.93699C10.269 1.93199 9.42205 1.80499 8.50005 2.19499C7.88805 2.45499 7.71905 2.93699 7.44905 3.49799C7.33105 3.74299 7.18405 3.89399 6.95105 3.85499C6.37239 3.77123 5.78401 3.91851 5.31305 4.26499C4.43505 4.89499 4.26305 6.50999 5.00005 7.28099Z" fill="url(#paint1_radial_3799_7063)"/>
<path d="M5.00005 7.28099C5.34405 7.64099 5.69205 7.84099 5.98405 7.94499C6.95105 8.28699 9.57805 7.94499 7.79705 4.53099C9.90705 7.42099 12.563 4.62499 11.125 2.93699C10.269 1.93199 9.42205 1.80499 8.50005 2.19499C7.88805 2.45499 7.71905 2.93699 7.44905 3.49799C7.33105 3.74299 7.18405 3.89399 6.95105 3.85499C6.37239 3.77123 5.78401 3.91851 5.31305 4.26499C4.43505 4.89499 4.26305 6.50999 5.00005 7.28099Z" fill="url(#paint2_radial_3799_7063)"/>
<path d="M5.00005 7.28099C5.34405 7.64099 5.69205 7.84099 5.98405 7.94499C6.95105 8.28699 9.57805 7.94499 7.79705 4.53099C9.90705 7.42099 12.563 4.62499 11.125 2.93699C10.269 1.93199 9.42205 1.80499 8.50005 2.19499C7.88805 2.45499 7.71905 2.93699 7.44905 3.49799C7.33105 3.74299 7.18405 3.89399 6.95105 3.85499C6.37239 3.77123 5.78401 3.91851 5.31305 4.26499C4.43505 4.89499 4.26305 6.50999 5.00005 7.28099Z" fill="url(#paint3_radial_3799_7063)"/>
<path d="M11.906 26.031C14.759 30.177 20.654 31.375 24.759 28.411C28.674 25.576 29.714 19.911 27 15.906C25.256 13.348 22.469 12.031 19.75 11.781C17.53 11.577 16.55 9.84601 15.125 8.43801C14.115 7.43801 12.753 7.11801 11.656 7.87501L9.83398 9.12601C8.72798 9.88101 8.52398 11.529 9.28098 12.626C10.219 14.406 11.031 15.563 10.844 17.594C10.588 20.364 10.166 23.505 11.906 26.031Z" fill="#D1815D"/>
<path d="M11.906 26.031C14.759 30.177 20.654 31.375 24.759 28.411C28.674 25.576 29.714 19.911 27 15.906C25.256 13.348 22.469 12.031 19.75 11.781C17.53 11.577 16.55 9.84601 15.125 8.43801C14.115 7.43801 12.753 7.11801 11.656 7.87501L9.83398 9.12601C8.72798 9.88101 8.52398 11.529 9.28098 12.626C10.219 14.406 11.031 15.563 10.844 17.594C10.588 20.364 10.166 23.505 11.906 26.031Z" fill="url(#paint4_radial_3799_7063)"/>
<path d="M11.906 26.031C14.759 30.177 20.654 31.375 24.759 28.411C28.674 25.576 29.714 19.911 27 15.906C25.256 13.348 22.469 12.031 19.75 11.781C17.53 11.577 16.55 9.84601 15.125 8.43801C14.115 7.43801 12.753 7.11801 11.656 7.87501L9.83398 9.12601C8.72798 9.88101 8.52398 11.529 9.28098 12.626C10.219 14.406 11.031 15.563 10.844 17.594C10.588 20.364 10.166 23.505 11.906 26.031Z" fill="url(#paint5_radial_3799_7063)"/>
<path d="M11.906 26.031C14.759 30.177 20.654 31.375 24.759 28.411C28.674 25.576 29.714 19.911 27 15.906C25.256 13.348 22.469 12.031 19.75 11.781C17.53 11.577 16.55 9.84601 15.125 8.43801C14.115 7.43801 12.753 7.11801 11.656 7.87501L9.83398 9.12601C8.72798 9.88101 8.52398 11.529 9.28098 12.626C10.219 14.406 11.031 15.563 10.844 17.594C10.588 20.364 10.166 23.505 11.906 26.031Z" fill="url(#paint6_radial_3799_7063)"/>
<path d="M11.906 26.031C14.759 30.177 20.654 31.375 24.759 28.411C28.674 25.576 29.714 19.911 27 15.906C25.256 13.348 22.469 12.031 19.75 11.781C17.53 11.577 16.55 9.84601 15.125 8.43801C14.115 7.43801 12.753 7.11801 11.656 7.87501L9.83398 9.12601C8.72798 9.88101 8.52398 11.529 9.28098 12.626C10.219 14.406 11.031 15.563 10.844 17.594C10.588 20.364 10.166 23.505 11.906 26.031Z" fill="url(#paint7_radial_3799_7063)"/>
<path d="M11.906 26.031C14.759 30.177 20.654 31.375 24.759 28.411C28.674 25.576 29.714 19.911 27 15.906C25.256 13.348 22.469 12.031 19.75 11.781C17.53 11.577 16.55 9.84601 15.125 8.43801C14.115 7.43801 12.753 7.11801 11.656 7.87501L9.83398 9.12601C8.72798 9.88101 8.52398 11.529 9.28098 12.626C10.219 14.406 11.031 15.563 10.844 17.594C10.588 20.364 10.166 23.505 11.906 26.031Z" fill="url(#paint8_radial_3799_7063)"/>
<path d="M11.906 26.031C14.759 30.177 20.654 31.375 24.759 28.411C28.674 25.576 29.714 19.911 27 15.906C25.256 13.348 22.469 12.031 19.75 11.781C17.53 11.577 16.55 9.84601 15.125 8.43801C14.115 7.43801 12.753 7.11801 11.656 7.87501L9.83398 9.12601C8.72798 9.88101 8.52398 11.529 9.28098 12.626C10.219 14.406 11.031 15.563 10.844 17.594C10.588 20.364 10.166 23.505 11.906 26.031Z" fill="url(#paint9_radial_3799_7063)"/>
<path d="M22.5 17C23.0523 17 23.5 16.5523 23.5 16C23.5 15.4477 23.0523 15 22.5 15C21.9477 15 21.5 15.4477 21.5 16C21.5 16.5523 21.9477 17 22.5 17Z" fill="#E78A61"/>
<path d="M24.5781 19.391C25.1304 19.391 25.5781 18.9433 25.5781 18.391C25.5781 17.8387 25.1304 17.391 24.5781 17.391C24.0258 17.391 23.5781 17.8387 23.5781 18.391C23.5781 18.9433 24.0258 19.391 24.5781 19.391Z" fill="#E78A61"/>
<path d="M21.5 20C22.0523 20 22.5 19.5523 22.5 19C22.5 18.4477 22.0523 18 21.5 18C20.9477 18 20.5 18.4477 20.5 19C20.5 19.5523 20.9477 20 21.5 20Z" fill="#E78A61"/>
<g filter="url(#filter0_f_3799_7063)">
<path d="M10.263 9.75C9.86699 10.104 9.17599 10.975 9.82599 12.375" stroke="url(#paint10_linear_3799_7063)" stroke-width="0.5" stroke-linecap="round"/>
</g>
<g filter="url(#filter1_f_3799_7063)">
<path d="M10.572 5.55799C10.429 6.04799 9.69401 6.26399 8.93101 6.04199C8.16701 5.81899 7.66401 5.24099 7.80701 4.75099C7.95001 4.26099 8.64501 4.18099 9.40901 4.40399C10.172 4.62599 10.715 5.06799 10.572 5.55799Z" fill="#D3B2EE"/>
</g>
<g filter="url(#filter2_f_3799_7063)">
<path d="M7.98413 7.563C8.39113 7.25 8.58813 6.475 8.31313 5.5" stroke="url(#paint11_linear_3799_7063)" stroke-width="0.5"/>
</g>
<defs>
<filter id="filter0_f_3799_7063" x="7.80884" y="8" width="4.2041" height="6.12506" filterUnits="userSpaceOnUse" color-interpolation-filters="sRGB">
<feFlood flood-opacity="0" result="BackgroundImageFix"/>
<feBlend mode="normal" in="SourceGraphic" in2="BackgroundImageFix" result="shape"/>
<feGaussianBlur stdDeviation="0.75" result="effect1_foregroundBlur_3799_7063"/>
</filter>
<filter id="filter1_f_3799_7063" x="6.78271" y="3.28577" width="4.81226" height="3.84351" filterUnits="userSpaceOnUse" color-interpolation-filters="sRGB">
<feFlood flood-opacity="0" result="BackgroundImageFix"/>
<feBlend mode="normal" in="SourceGraphic" in2="BackgroundImageFix" result="shape"/>
<feGaussianBlur stdDeviation="0.5" result="effect1_foregroundBlur_3799_7063"/>
</filter>
<filter id="filter2_f_3799_7063" x="7.33179" y="4.93213" width="1.8584" height="3.32904" filterUnits="userSpaceOnUse" color-interpolation-filters="sRGB">
<feFlood flood-opacity="0" result="BackgroundImageFix"/>
<feBlend mode="normal" in="SourceGraphic" in2="BackgroundImageFix" result="shape"/>
<feGaussianBlur stdDeviation="0.25" result="effect1_foregroundBlur_3799_7063"/>
</filter>
<linearGradient id="paint0_linear_3799_7063" x1="8.81305" y1="8.49999" x2="11.688" y2="6.43799" gradientUnits="userSpaceOnUse">
<stop stop-color="#B394CB"/>
<stop offset="0.472" stop-color="#E3D6E9"/>
<stop offset="0.699" stop-color="#FAF2F9"/>
</linearGradient>
<radialGradient id="paint1_radial_3799_7063" cx="0" cy="0" r="1" gradientUnits="userSpaceOnUse" gradientTransform="translate(7.12505 5.43799) rotate(125.362) scale(2.37581 2.44332)">
<stop stop-color="#F4E8FF"/>
<stop offset="1" stop-color="#CAC7CF"/>
</radialGradient>
<radialGradient id="paint2_radial_3799_7063" cx="0" cy="0" r="1" gradientUnits="userSpaceOnUse" gradientTransform="translate(6.00005 9.87499) rotate(-56.9761) scale(4.47257 4.58191)">
<stop offset="0.421" stop-color="#C489EE"/>
<stop offset="1" stop-color="#C68FEE" stop-opacity="0"/>
</radialGradient>
<radialGradient id="paint3_radial_3799_7063" cx="0" cy="0" r="1" gradientUnits="userSpaceOnUse" gradientTransform="translate(10.2503 3.50025) rotate(120.261) scale(4.41397 4.52188)">
<stop offset="0.074" stop-color="#FAF4FF"/>
<stop offset="0.846" stop-color="#C5C2C7" stop-opacity="0"/>
</radialGradient>
<radialGradient id="paint4_radial_3799_7063" cx="0" cy="0" r="1" gradientUnits="userSpaceOnUse" gradientTransform="translate(24.3098 17.0803) rotate(123.104) scale(16.8519 17.0088)">
<stop offset="0.057" stop-color="#FFC995"/>
<stop offset="0.594" stop-color="#C07554"/>
<stop offset="0.792" stop-color="#B26B50"/>
<stop offset="1" stop-color="#80584B"/>
</radialGradient>
<radialGradient id="paint5_radial_3799_7063" cx="0" cy="0" r="1" gradientUnits="userSpaceOnUse" gradientTransform="translate(16.125 8.62501) rotate(43.6361) scale(7.42673 5.33268)">
<stop stop-color="#FFD2B0"/>
<stop offset="1" stop-color="#FCB682" stop-opacity="0"/>
</radialGradient>
<radialGradient id="paint6_radial_3799_7063" cx="0" cy="0" r="1" gradientUnits="userSpaceOnUse" gradientTransform="translate(21.3118 13.4372) rotate(118.025) scale(26.3382 26.5835)">
<stop offset="0.385" stop-color="#C66576" stop-opacity="0"/>
<stop offset="0.615" stop-color="#AE4B94"/>
<stop offset="0.695" stop-color="#BD68C6"/>
</radialGradient>
<radialGradient id="paint7_radial_3799_7063" cx="0" cy="0" r="1" gradientUnits="userSpaceOnUse" gradientTransform="translate(30.607 22) rotate(95.868) scale(9.60375 9.69318)">
<stop stop-color="#FFAF79"/>
<stop offset="1" stop-color="#FFAD78" stop-opacity="0"/>
</radialGradient>
<radialGradient id="paint8_radial_3799_7063" cx="0" cy="0" r="1" gradientUnits="userSpaceOnUse" gradientTransform="translate(10.938 19.625) rotate(74.5923) scale(8.23341 6.83931)">
<stop stop-color="#956A56"/>
<stop offset="1" stop-color="#B27759" stop-opacity="0"/>
</radialGradient>
<radialGradient id="paint9_radial_3799_7063" cx="0" cy="0" r="1" gradientUnits="userSpaceOnUse" gradientTransform="translate(9.06298 13.875) rotate(75.1243) scale(4.13871 4.17725)">
<stop stop-color="#874E46"/>
<stop offset="1" stop-color="#874E45" stop-opacity="0"/>
</radialGradient>
<linearGradient id="paint10_linear_3799_7063" x1="9.52799" y1="11.545" x2="10.051" y2="11.503" gradientUnits="userSpaceOnUse">
<stop stop-color="#A57359"/>
<stop offset="0.89" stop-color="#DEDCD9"/>
</linearGradient>
<linearGradient id="paint11_linear_3799_7063" x1="7.82813" y1="7.422" x2="8.21213" y2="5.172" gradientUnits="userSpaceOnUse">
<stop stop-color="#C390E6"/>
<stop offset="1" stop-color="#DCC2F2"/>
</linearGradient>
</defs>
</svg>
