<svg width="33" height="32" viewBox="0 0 33 32" fill="none" xmlns="http://www.w3.org/2000/svg">
<path d="M23.4199 14.557L18.0799 9.89697C17.0799 9.30697 15.8399 9.30697 14.8399 9.89697L9.50988 14.557L7.72988 14.517C6.6497 14.4922 5.58915 14.8083 4.6988 15.4204C3.80845 16.0325 3.13354 16.9095 2.76988 17.927C2.37988 18.957 2.40988 20.107 2.86988 21.107C3.18988 21.817 3.70988 22.417 4.36988 22.837L13.0199 28.047C14.0626 28.6655 15.2525 28.9919 16.4649 28.9919C17.6772 28.9919 18.8672 28.6655 19.9099 28.047L28.5599 22.837C29.2099 22.417 29.7299 21.817 30.0599 21.107C30.5199 20.107 30.5599 18.957 30.1599 17.927C29.7984 16.9073 29.1244 16.0278 28.2338 15.4137C27.3431 14.7996 26.2814 14.4823 25.1999 14.507L23.4199 14.557Z" fill="url(#paint0_linear_3799_8114)"/>
<path d="M23.4199 14.557L18.0799 9.89697C17.0799 9.30697 15.8399 9.30697 14.8399 9.89697L9.50988 14.557L7.72988 14.517C6.6497 14.4922 5.58915 14.8083 4.6988 15.4204C3.80845 16.0325 3.13354 16.9095 2.76988 17.927C2.37988 18.957 2.40988 20.107 2.86988 21.107C3.18988 21.817 3.70988 22.417 4.36988 22.837L13.0199 28.047C14.0626 28.6655 15.2525 28.9919 16.4649 28.9919C17.6772 28.9919 18.8672 28.6655 19.9099 28.047L28.5599 22.837C29.2099 22.417 29.7299 21.817 30.0599 21.107C30.5199 20.107 30.5599 18.957 30.1599 17.927C29.7984 16.9073 29.1244 16.0278 28.2338 15.4137C27.3431 14.7996 26.2814 14.4823 25.1999 14.507L23.4199 14.557Z" fill="url(#paint1_radial_3799_8114)"/>
<path d="M23.4199 14.557L18.0799 9.89697C17.0799 9.30697 15.8399 9.30697 14.8399 9.89697L9.50988 14.557L7.72988 14.517C6.6497 14.4922 5.58915 14.8083 4.6988 15.4204C3.80845 16.0325 3.13354 16.9095 2.76988 17.927C2.37988 18.957 2.40988 20.107 2.86988 21.107C3.18988 21.817 3.70988 22.417 4.36988 22.837L13.0199 28.047C14.0626 28.6655 15.2525 28.9919 16.4649 28.9919C17.6772 28.9919 18.8672 28.6655 19.9099 28.047L28.5599 22.837C29.2099 22.417 29.7299 21.817 30.0599 21.107C30.5199 20.107 30.5599 18.957 30.1599 17.927C29.7984 16.9073 29.1244 16.0278 28.2338 15.4137C27.3431 14.7996 26.2814 14.4823 25.1999 14.507L23.4199 14.557Z" fill="url(#paint2_radial_3799_8114)"/>
<path d="M23.4199 14.557L18.0799 9.89697C17.0799 9.30697 15.8399 9.30697 14.8399 9.89697L9.50988 14.557L7.72988 14.517C6.6497 14.4922 5.58915 14.8083 4.6988 15.4204C3.80845 16.0325 3.13354 16.9095 2.76988 17.927C2.37988 18.957 2.40988 20.107 2.86988 21.107C3.18988 21.817 3.70988 22.417 4.36988 22.837L13.0199 28.047C14.0626 28.6655 15.2525 28.9919 16.4649 28.9919C17.6772 28.9919 18.8672 28.6655 19.9099 28.047L28.5599 22.837C29.2099 22.417 29.7299 21.817 30.0599 21.107C30.5199 20.107 30.5599 18.957 30.1599 17.927C29.7984 16.9073 29.1244 16.0278 28.2338 15.4137C27.3431 14.7996 26.2814 14.4823 25.1999 14.507L23.4199 14.557Z" fill="url(#paint3_radial_3799_8114)"/>
<path d="M23.4199 14.557L18.0799 9.89697C17.0799 9.30697 15.8399 9.30697 14.8399 9.89697L9.50988 14.557L7.72988 14.517C6.6497 14.4922 5.58915 14.8083 4.6988 15.4204C3.80845 16.0325 3.13354 16.9095 2.76988 17.927C2.37988 18.957 2.40988 20.107 2.86988 21.107C3.18988 21.817 3.70988 22.417 4.36988 22.837L13.0199 28.047C14.0626 28.6655 15.2525 28.9919 16.4649 28.9919C17.6772 28.9919 18.8672 28.6655 19.9099 28.047L28.5599 22.837C29.2099 22.417 29.7299 21.817 30.0599 21.107C30.5199 20.107 30.5599 18.957 30.1599 17.927C29.7984 16.9073 29.1244 16.0278 28.2338 15.4137C27.3431 14.7996 26.2814 14.4823 25.1999 14.507L23.4199 14.557Z" fill="url(#paint4_radial_3799_8114)"/>
<path d="M14.57 9.51798L5.01997 15.178C3.61997 16.008 3.61997 18.028 5.01997 18.848L14.57 24.508C15.74 25.198 17.19 25.198 18.36 24.508L27.91 18.848C29.31 18.018 29.31 15.998 27.91 15.178L18.36 9.51798C17.7859 9.17915 17.1315 9.00043 16.465 9.00043C15.7984 9.00043 15.144 9.17915 14.57 9.51798Z" fill="url(#paint5_radial_3799_8114)"/>
<path d="M14.57 9.51798L5.01997 15.178C3.61997 16.008 3.61997 18.028 5.01997 18.848L14.57 24.508C15.74 25.198 17.19 25.198 18.36 24.508L27.91 18.848C29.31 18.018 29.31 15.998 27.91 15.178L18.36 9.51798C17.7859 9.17915 17.1315 9.00043 16.465 9.00043C15.7984 9.00043 15.144 9.17915 14.57 9.51798Z" fill="url(#paint6_radial_3799_8114)"/>
<path d="M14.57 9.51798L5.01997 15.178C3.61997 16.008 3.61997 18.028 5.01997 18.848L14.57 24.508C15.74 25.198 17.19 25.198 18.36 24.508L27.91 18.848C29.31 18.018 29.31 15.998 27.91 15.178L18.36 9.51798C17.7859 9.17915 17.1315 9.00043 16.465 9.00043C15.7984 9.00043 15.144 9.17915 14.57 9.51798Z" fill="url(#paint7_linear_3799_8114)"/>
<path d="M14.57 9.51798L5.01997 15.178C3.61997 16.008 3.61997 18.028 5.01997 18.848L14.57 24.508C15.74 25.198 17.19 25.198 18.36 24.508L27.91 18.848C29.31 18.018 29.31 15.998 27.91 15.178L18.36 9.51798C17.7859 9.17915 17.1315 9.00043 16.465 9.00043C15.7984 9.00043 15.144 9.17915 14.57 9.51798Z" fill="url(#paint8_linear_3799_8114)"/>
<path d="M15.9799 19.878L14.5199 20.738C14.1099 20.978 14.1099 21.578 14.5199 21.828L15.9799 22.688C16.2799 22.868 16.6499 22.868 16.9399 22.688L18.3999 21.828C18.8099 21.588 18.8099 20.988 18.3999 20.738L16.9399 19.878C16.7954 19.7896 16.6293 19.7429 16.4599 19.7429C16.2905 19.7429 16.1244 19.7896 15.9799 19.878Z" fill="url(#paint9_radial_3799_8114)"/>
<path d="M12.2299 17.707L10.7699 18.567C10.3599 18.807 10.3599 19.407 10.7699 19.657L12.2299 20.517C12.5299 20.697 12.8999 20.697 13.1899 20.517L14.6499 19.657C15.0599 19.417 15.0599 18.817 14.6499 18.567L13.1899 17.707C13.0454 17.6186 12.8793 17.5718 12.7099 17.5718C12.5405 17.5718 12.3744 17.6186 12.2299 17.707Z" fill="url(#paint10_radial_3799_8114)"/>
<path d="M8.46989 15.537L7.00989 16.397C6.59989 16.637 6.59989 17.237 7.00989 17.487L8.46989 18.347C8.76989 18.527 9.13989 18.527 9.42989 18.347L10.8899 17.487C11.2999 17.247 11.2999 16.647 10.8899 16.397L9.42989 15.537C9.28538 15.4486 9.11928 15.4019 8.94989 15.4019C8.7805 15.4019 8.6144 15.4486 8.46989 15.537Z" fill="url(#paint11_radial_3799_8114)"/>
<path d="M19.7399 17.558L18.2799 18.418C17.8699 18.658 17.8699 19.258 18.2799 19.508L19.7399 20.368C20.0399 20.548 20.4099 20.548 20.6999 20.368L22.1599 19.508C22.5699 19.268 22.5699 18.668 22.1599 18.418L20.6999 17.558C20.5554 17.4696 20.3893 17.4229 20.2199 17.4229C20.0505 17.4229 19.8844 17.4696 19.7399 17.558Z" fill="url(#paint12_radial_3799_8114)"/>
<path opacity="0.5" d="M15.9799 15.387L14.5199 16.247C14.1099 16.487 14.1099 17.087 14.5199 17.337L15.9799 18.197C16.2799 18.377 16.6499 18.377 16.9399 18.197L18.3999 17.337C18.8099 17.097 18.8099 16.497 18.3999 16.247L16.9399 15.387C16.7954 15.2986 16.6293 15.2518 16.4599 15.2518C16.2905 15.2518 16.1244 15.2986 15.9799 15.387Z" fill="url(#paint13_linear_3799_8114)"/>
<path d="M12.2299 13.217L10.7699 14.077C10.3599 14.317 10.3599 14.917 10.7699 15.167L12.2299 16.027C12.5299 16.207 12.8999 16.207 13.1899 16.027L14.6499 15.167C15.0599 14.927 15.0599 14.327 14.6499 14.077L13.1899 13.217C13.0454 13.1286 12.8793 13.0818 12.7099 13.0818C12.5405 13.0818 12.3744 13.1286 12.2299 13.217Z" fill="url(#paint14_radial_3799_8114)"/>
<path d="M23.4999 15.238L22.0399 16.098C21.6299 16.338 21.6299 16.938 22.0399 17.188L23.4999 18.058C23.7999 18.238 24.1699 18.238 24.4599 18.058L25.9199 17.198C26.3299 16.958 26.3299 16.358 25.9199 16.108L24.4599 15.248C24.3172 15.1559 24.1512 15.1061 23.9814 15.1043C23.8115 15.1025 23.6446 15.1489 23.4999 15.238Z" fill="url(#paint15_radial_3799_8114)"/>
<path d="M19.7399 13.068L18.2799 13.928C17.8699 14.168 17.8699 14.768 18.2799 15.018L19.7399 15.878C20.0399 16.058 20.4099 16.058 20.6999 15.878L22.1599 15.018C22.5699 14.778 22.5699 14.178 22.1599 13.928L20.6999 13.068C20.5554 12.9796 20.3893 12.9329 20.2199 12.9329C20.0505 12.9329 19.8844 12.9796 19.7399 13.068Z" fill="url(#paint16_radial_3799_8114)"/>
<path d="M15.9799 10.898L14.5199 11.758C14.1099 11.998 14.1099 12.598 14.5199 12.848L15.9799 13.708C16.2799 13.888 16.6499 13.888 16.9399 13.708L18.3999 12.848C18.8099 12.608 18.8099 12.008 18.3999 11.758L16.9499 10.898C16.8035 10.8097 16.6358 10.7631 16.4649 10.7631C16.294 10.7631 16.1263 10.8097 15.9799 10.898Z" fill="url(#paint17_radial_3799_8114)"/>
<g filter="url(#filter0_f_3799_8114)">
<path d="M17.6199 15.642L17.2329 15.37C16.9908 15.1967 16.7006 15.1035 16.4029 15.1035C16.1052 15.1035 15.815 15.1967 15.5729 15.37L15.1779 15.642H12.3069V17.775C12.3069 18.193 12.4769 18.744 12.8269 18.985L15.5729 20.609C15.8149 20.7824 16.1052 20.8756 16.4029 20.8756C16.7006 20.8756 16.9909 20.7824 17.2329 20.609L20.1229 18.984C20.4729 18.744 20.4999 18.183 20.4999 17.774V15.642H17.6199Z" fill="#7A4423"/>
</g>
<path d="M17.8199 15.357L17.3899 15.097C16.8199 14.757 16.1099 14.757 15.5399 15.097L15.0999 15.357H11.8999V17.397C11.8999 17.797 12.0899 18.187 12.4799 18.417L15.5399 20.227C16.1099 20.567 16.8199 20.567 17.3899 20.227L20.4499 18.417C20.8399 18.187 21.0299 17.787 21.0299 17.397V15.357H17.8199Z" fill="url(#paint18_linear_3799_8114)"/>
<path d="M17.8199 15.357L17.3899 15.097C16.8199 14.757 16.1099 14.757 15.5399 15.097L15.0999 15.357H11.8999V17.397C11.8999 17.797 12.0899 18.187 12.4799 18.417L15.5399 20.227C16.1099 20.567 16.8199 20.567 17.3899 20.227L20.4499 18.417C20.8399 18.187 21.0299 17.787 21.0299 17.397V15.357H17.8199Z" fill="#E7BB2B"/>
<path d="M15.54 12.588L12.48 14.408C12.3017 14.5132 12.1539 14.663 12.0512 14.8428C11.9485 15.0225 11.8945 15.226 11.8945 15.433C11.8945 15.64 11.9485 15.8434 12.0512 16.0232C12.1539 16.203 12.3017 16.3528 12.48 16.458L15.54 18.268C16.11 18.608 16.82 18.608 17.39 18.268L20.45 16.458C21.23 15.998 21.23 14.868 20.45 14.408L17.39 12.598C16.82 12.248 16.11 12.248 15.54 12.588Z" fill="#EAD237"/>
<g filter="url(#filter1_f_3799_8114)">
<path d="M29.1879 16.969C29.4219 17.5 29.1559 18.291 27.7499 19.062C25.8119 20.125 18.7969 24.953 16.4059 24.953C14.2659 24.953 8.07789 20.963 4.57789 18.609C3.94789 18.186 3.71789 17.406 4.28089 16.719" stroke="url(#paint19_linear_3799_8114)" stroke-width="0.75" stroke-linecap="round"/>
</g>
<g filter="url(#filter2_f_3799_8114)">
<path d="M20.8438 16.016C20.7038 16.296 20.5958 16.325 20.3278 16.516C19.9778 16.766 18.1778 17.75 17.0308 18.406" stroke="url(#paint20_radial_3799_8114)" stroke-width="0.3" stroke-linecap="round"/>
</g>
<g filter="url(#filter3_f_3799_8114)">
<path d="M12.3069 16.092C12.4469 16.373 12.5549 16.401 12.8219 16.592C13.1719 16.842 14.9739 17.826 16.1189 18.482" stroke="url(#paint21_radial_3799_8114)" stroke-width="0.3" stroke-linecap="round"/>
</g>
<defs>
<filter id="filter0_f_3799_8114" x="11.3069" y="14.1035" width="10.1931" height="7.77209" filterUnits="userSpaceOnUse" color-interpolation-filters="sRGB">
<feFlood flood-opacity="0" result="BackgroundImageFix"/>
<feBlend mode="normal" in="SourceGraphic" in2="BackgroundImageFix" result="shape"/>
<feGaussianBlur stdDeviation="0.5" result="effect1_foregroundBlur_3799_8114"/>
</filter>
<filter id="filter1_f_3799_8114" x="3.33569" y="16.094" width="26.5527" height="9.48401" filterUnits="userSpaceOnUse" color-interpolation-filters="sRGB">
<feFlood flood-opacity="0" result="BackgroundImageFix"/>
<feBlend mode="normal" in="SourceGraphic" in2="BackgroundImageFix" result="shape"/>
<feGaussianBlur stdDeviation="0.125" result="effect1_foregroundBlur_3799_8114"/>
</filter>
<filter id="filter2_f_3799_8114" x="16.6306" y="15.616" width="4.61328" height="3.19006" filterUnits="userSpaceOnUse" color-interpolation-filters="sRGB">
<feFlood flood-opacity="0" result="BackgroundImageFix"/>
<feBlend mode="normal" in="SourceGraphic" in2="BackgroundImageFix" result="shape"/>
<feGaussianBlur stdDeviation="0.125" result="effect1_foregroundBlur_3799_8114"/>
</filter>
<filter id="filter3_f_3799_8114" x="11.9067" y="15.692" width="4.61206" height="3.19006" filterUnits="userSpaceOnUse" color-interpolation-filters="sRGB">
<feFlood flood-opacity="0" result="BackgroundImageFix"/>
<feBlend mode="normal" in="SourceGraphic" in2="BackgroundImageFix" result="shape"/>
<feGaussianBlur stdDeviation="0.125" result="effect1_foregroundBlur_3799_8114"/>
</filter>
<linearGradient id="paint0_linear_3799_8114" x1="29.1879" y1="21.625" x2="4.18788" y2="21.625" gradientUnits="userSpaceOnUse">
<stop stop-color="#F8C199"/>
<stop offset="0.994" stop-color="#EE9D67"/>
</linearGradient>
<radialGradient id="paint1_radial_3799_8114" cx="0" cy="0" r="1" gradientUnits="userSpaceOnUse" gradientTransform="translate(28.3749 23.312) rotate(150.132) scale(25.2256 3.96982)">
<stop stop-color="#D28890"/>
<stop offset="0.858" stop-color="#D4868E" stop-opacity="0"/>
<stop offset="1" stop-color="#DB7E89" stop-opacity="0"/>
</radialGradient>
<radialGradient id="paint2_radial_3799_8114" cx="0" cy="0" r="1" gradientUnits="userSpaceOnUse" gradientTransform="translate(16.4679 29.687) rotate(90) scale(5.0625 3.47277)">
<stop offset="0.46" stop-color="#E2878B"/>
<stop offset="1" stop-color="#E48C8C" stop-opacity="0"/>
</radialGradient>
<radialGradient id="paint3_radial_3799_8114" cx="0" cy="0" r="1" gradientUnits="userSpaceOnUse" gradientTransform="translate(7.37488 24.5) rotate(28.7151) scale(16.3907 2.40419)">
<stop stop-color="#DE887C"/>
<stop offset="1" stop-color="#E28C7F" stop-opacity="0"/>
</radialGradient>
<radialGradient id="paint4_radial_3799_8114" cx="0" cy="0" r="1" gradientUnits="userSpaceOnUse" gradientTransform="translate(31.4372 18.1873) rotate(137.07) scale(3.67051 5.2482)">
<stop stop-color="#FAC796"/>
<stop offset="1" stop-color="#F9C796" stop-opacity="0"/>
</radialGradient>
<radialGradient id="paint5_radial_3799_8114" cx="0" cy="0" r="1" gradientUnits="userSpaceOnUse" gradientTransform="translate(7.12515 17.7503) rotate(10.766) scale(18.068 28.176)">
<stop stop-color="#F3A363"/>
<stop offset="1" stop-color="#EEBA87"/>
</radialGradient>
<radialGradient id="paint6_radial_3799_8114" cx="0" cy="0" r="1" gradientUnits="userSpaceOnUse" gradientTransform="translate(9.87497 23.563) rotate(17.2415) scale(15.1822 13.4553)">
<stop stop-color="#E59B59"/>
<stop offset="1" stop-color="#E49B59" stop-opacity="0"/>
</radialGradient>
<linearGradient id="paint7_linear_3799_8114" x1="8.06297" y1="22.375" x2="14" y2="14.75" gradientUnits="userSpaceOnUse">
<stop offset="0.126" stop-color="#E29754"/>
<stop offset="0.255" stop-color="#E29856" stop-opacity="0"/>
</linearGradient>
<linearGradient id="paint8_linear_3799_8114" x1="20.875" y1="22.625" x2="17.875" y2="17.813" gradientUnits="userSpaceOnUse">
<stop stop-color="#E6A868"/>
<stop offset="0.26" stop-color="#E8AB6B" stop-opacity="0"/>
</linearGradient>
<radialGradient id="paint9_radial_3799_8114" cx="0" cy="0" r="1" gradientUnits="userSpaceOnUse" gradientTransform="translate(15.4379 21.688) rotate(90) scale(1.6875 4.4516)">
<stop offset="0.583" stop-color="#B1764B"/>
<stop offset="0.817" stop-color="#8F5630"/>
</radialGradient>
<radialGradient id="paint10_radial_3799_8114" cx="0" cy="0" r="1" gradientUnits="userSpaceOnUse" gradientTransform="translate(11.7929 19.113) rotate(92.8737) scale(2.09513 4.19271)">
<stop offset="0.583" stop-color="#A76E47"/>
<stop offset="0.817" stop-color="#8F5630"/>
</radialGradient>
<radialGradient id="paint11_radial_3799_8114" cx="0" cy="0" r="1" gradientUnits="userSpaceOnUse" gradientTransform="translate(8.03289 16.942) rotate(92.8737) scale(2.09514 4.19271)">
<stop offset="0.583" stop-color="#A26F4E"/>
<stop offset="0.817" stop-color="#8F5630"/>
</radialGradient>
<radialGradient id="paint12_radial_3799_8114" cx="0" cy="0" r="1" gradientUnits="userSpaceOnUse" gradientTransform="translate(19.1879 19.313) rotate(89.6712) scale(1.74253 4.59674)">
<stop offset="0.583" stop-color="#B2764A"/>
<stop offset="0.817" stop-color="#8F5630"/>
</radialGradient>
<linearGradient id="paint13_linear_3799_8114" x1="17.7229" y1="15.536" x2="15.2079" y2="18.051" gradientUnits="userSpaceOnUse">
<stop stop-color="#9C634D"/>
<stop offset="0.385" stop-color="#7F4B3B"/>
<stop offset="0.755" stop-color="#6B392F"/>
<stop offset="1" stop-color="#63332A"/>
</linearGradient>
<radialGradient id="paint14_radial_3799_8114" cx="0" cy="0" r="1" gradientUnits="userSpaceOnUse" gradientTransform="translate(11.7929 14.623) rotate(92.8737) scale(2.09514 4.19271)">
<stop offset="0.583" stop-color="#AC7752"/>
<stop offset="0.817" stop-color="#8F5630"/>
</radialGradient>
<radialGradient id="paint15_radial_3799_8114" cx="0" cy="0" r="1" gradientUnits="userSpaceOnUse" gradientTransform="translate(23.0629 16.648) rotate(92.8656) scale(2.1011 4.19274)">
<stop offset="0.583" stop-color="#A4704E"/>
<stop offset="0.817" stop-color="#8F5630"/>
</radialGradient>
<radialGradient id="paint16_radial_3799_8114" cx="0" cy="0" r="1" gradientUnits="userSpaceOnUse" gradientTransform="translate(19.3029 14.473) rotate(92.8737) scale(2.09514 4.19271)">
<stop offset="0.583" stop-color="#A97451"/>
<stop offset="0.817" stop-color="#8F5630"/>
</radialGradient>
<radialGradient id="paint17_radial_3799_8114" cx="0" cy="0" r="1" gradientUnits="userSpaceOnUse" gradientTransform="translate(15.5429 12.303) rotate(92.8737) scale(2.09513 4.19271)">
<stop offset="0.583" stop-color="#AD7853"/>
<stop offset="0.817" stop-color="#8F5630"/>
</radialGradient>
<linearGradient id="paint18_linear_3799_8114" x1="12.0399" y1="17.663" x2="21.0309" y2="17.663" gradientUnits="userSpaceOnUse">
<stop stop-color="#C7A22B"/>
<stop offset="1" stop-color="#E8C12E"/>
</linearGradient>
<linearGradient id="paint19_linear_3799_8114" x1="3.98389" y1="18.5" x2="18.1699" y2="5.61399" gradientUnits="userSpaceOnUse">
<stop stop-color="#F0A264" stop-opacity="0"/>
<stop offset="0.124" stop-color="#F4AE75"/>
<stop offset="0.368" stop-color="#F5B98F"/>
<stop offset="0.969" stop-color="#FDCEA1"/>
<stop offset="1" stop-color="#FDCEA1" stop-opacity="0"/>
</linearGradient>
<radialGradient id="paint20_radial_3799_8114" cx="0" cy="0" r="1" gradientUnits="userSpaceOnUse" gradientTransform="translate(19.3438 17.21) rotate(145.72) scale(4.84089 4.89453)">
<stop stop-color="#F4D154"/>
<stop offset="1" stop-color="#F4D154" stop-opacity="0"/>
</radialGradient>
<radialGradient id="paint21_radial_3799_8114" cx="0" cy="0" r="1" gradientUnits="userSpaceOnUse" gradientTransform="translate(13.8069 17.287) rotate(34.2799) scale(4.84088 4.89453)">
<stop stop-color="#F0CB4B"/>
<stop offset="1" stop-color="#F4D154" stop-opacity="0"/>
</radialGradient>
</defs>
</svg>
