<svg width="32" height="32" viewBox="0 0 32 32" fill="none" xmlns="http://www.w3.org/2000/svg">
<path d="M17.8749 22.713C17.6919 22.14 16.9849 21.688 16.0619 21.797C14.6159 21.967 13.3479 22.265 12.2969 22.713C11.9289 22.87 11.3829 22.473 11.6419 22.168L13.3689 20.126C13.7689 19.676 13.7579 18.987 13.3219 18.579C12.8749 18.167 12.3299 18.221 11.7679 18.647C11.5479 18.814 10.6719 19.641 10.0309 20.234C9.65892 20.58 9.06192 20.594 9.06192 19.844L9.55592 16.119C9.61342 15.8375 9.55742 15.5446 9.40011 15.3042C9.2428 15.0637 8.99691 14.8951 8.71592 14.835C8.13292 14.712 7.51292 14.729 7.39092 15.313L6.65992 19.349C6.33692 20.889 5.50192 22.346 4.45292 23.516C3.40592 24.5 2.12492 26.141 3.12492 27.376L5.53092 29.606C6.76592 30.688 8.43992 28.82 9.35392 27.798C10.4059 26.617 11.6049 25.799 13.1089 25.31L17.1089 24.266C17.6819 24.083 18.0689 23.288 17.8749 22.713Z" fill="#7FCF71"/>
<path d="M17.8749 22.713C17.6919 22.14 16.9849 21.688 16.0619 21.797C14.6159 21.967 13.3479 22.265 12.2969 22.713C11.9289 22.87 11.3829 22.473 11.6419 22.168L13.3689 20.126C13.7689 19.676 13.7579 18.987 13.3219 18.579C12.8749 18.167 12.3299 18.221 11.7679 18.647C11.5479 18.814 10.6719 19.641 10.0309 20.234C9.65892 20.58 9.06192 20.594 9.06192 19.844L9.55592 16.119C9.61342 15.8375 9.55742 15.5446 9.40011 15.3042C9.2428 15.0637 8.99691 14.8951 8.71592 14.835C8.13292 14.712 7.51292 14.729 7.39092 15.313L6.65992 19.349C6.33692 20.889 5.50192 22.346 4.45292 23.516C3.40592 24.5 2.12492 26.141 3.12492 27.376L5.53092 29.606C6.76592 30.688 8.43992 28.82 9.35392 27.798C10.4059 26.617 11.6049 25.799 13.1089 25.31L17.1089 24.266C17.6819 24.083 18.0689 23.288 17.8749 22.713Z" fill="url(#paint0_linear_3799_4647)"/>
<path d="M17.8749 22.713C17.6919 22.14 16.9849 21.688 16.0619 21.797C14.6159 21.967 13.3479 22.265 12.2969 22.713C11.9289 22.87 11.3829 22.473 11.6419 22.168L13.3689 20.126C13.7689 19.676 13.7579 18.987 13.3219 18.579C12.8749 18.167 12.3299 18.221 11.7679 18.647C11.5479 18.814 10.6719 19.641 10.0309 20.234C9.65892 20.58 9.06192 20.594 9.06192 19.844L9.55592 16.119C9.61342 15.8375 9.55742 15.5446 9.40011 15.3042C9.2428 15.0637 8.99691 14.8951 8.71592 14.835C8.13292 14.712 7.51292 14.729 7.39092 15.313L6.65992 19.349C6.33692 20.889 5.50192 22.346 4.45292 23.516C3.40592 24.5 2.12492 26.141 3.12492 27.376L5.53092 29.606C6.76592 30.688 8.43992 28.82 9.35392 27.798C10.4059 26.617 11.6049 25.799 13.1089 25.31L17.1089 24.266C17.6819 24.083 18.0689 23.288 17.8749 22.713Z" fill="url(#paint1_linear_3799_4647)"/>
<path d="M17.8749 22.713C17.6919 22.14 16.9849 21.688 16.0619 21.797C14.6159 21.967 13.3479 22.265 12.2969 22.713C11.9289 22.87 11.3829 22.473 11.6419 22.168L13.3689 20.126C13.7689 19.676 13.7579 18.987 13.3219 18.579C12.8749 18.167 12.3299 18.221 11.7679 18.647C11.5479 18.814 10.6719 19.641 10.0309 20.234C9.65892 20.58 9.06192 20.594 9.06192 19.844L9.55592 16.119C9.61342 15.8375 9.55742 15.5446 9.40011 15.3042C9.2428 15.0637 8.99691 14.8951 8.71592 14.835C8.13292 14.712 7.51292 14.729 7.39092 15.313L6.65992 19.349C6.33692 20.889 5.50192 22.346 4.45292 23.516C3.40592 24.5 2.12492 26.141 3.12492 27.376L5.53092 29.606C6.76592 30.688 8.43992 28.82 9.35392 27.798C10.4059 26.617 11.6049 25.799 13.1089 25.31L17.1089 24.266C17.6819 24.083 18.0689 23.288 17.8749 22.713Z" fill="url(#paint2_radial_3799_4647)"/>
<path d="M17.8749 22.713C17.6919 22.14 16.9849 21.688 16.0619 21.797C14.6159 21.967 13.3479 22.265 12.2969 22.713C11.9289 22.87 11.3829 22.473 11.6419 22.168L13.3689 20.126C13.7689 19.676 13.7579 18.987 13.3219 18.579C12.8749 18.167 12.3299 18.221 11.7679 18.647C11.5479 18.814 10.6719 19.641 10.0309 20.234C9.65892 20.58 9.06192 20.594 9.06192 19.844L9.55592 16.119C9.61342 15.8375 9.55742 15.5446 9.40011 15.3042C9.2428 15.0637 8.99691 14.8951 8.71592 14.835C8.13292 14.712 7.51292 14.729 7.39092 15.313L6.65992 19.349C6.33692 20.889 5.50192 22.346 4.45292 23.516C3.40592 24.5 2.12492 26.141 3.12492 27.376L5.53092 29.606C6.76592 30.688 8.43992 28.82 9.35392 27.798C10.4059 26.617 11.6049 25.799 13.1089 25.31L17.1089 24.266C17.6819 24.083 18.0689 23.288 17.8749 22.713Z" fill="url(#paint3_radial_3799_4647)"/>
<path d="M17.8749 22.713C17.6919 22.14 16.9849 21.688 16.0619 21.797C14.6159 21.967 13.3479 22.265 12.2969 22.713C11.9289 22.87 11.3829 22.473 11.6419 22.168L13.3689 20.126C13.7689 19.676 13.7579 18.987 13.3219 18.579C12.8749 18.167 12.3299 18.221 11.7679 18.647C11.5479 18.814 10.6719 19.641 10.0309 20.234C9.65892 20.58 9.06192 20.594 9.06192 19.844L9.55592 16.119C9.61342 15.8375 9.55742 15.5446 9.40011 15.3042C9.2428 15.0637 8.99691 14.8951 8.71592 14.835C8.13292 14.712 7.51292 14.729 7.39092 15.313L6.65992 19.349C6.33692 20.889 5.50192 22.346 4.45292 23.516C3.40592 24.5 2.12492 26.141 3.12492 27.376L5.53092 29.606C6.76592 30.688 8.43992 28.82 9.35392 27.798C10.4059 26.617 11.6049 25.799 13.1089 25.31L17.1089 24.266C17.6819 24.083 18.0689 23.288 17.8749 22.713Z" fill="url(#paint4_radial_3799_4647)"/>
<g filter="url(#filter0_f_3799_4647)">
<path d="M9.28088 14.951C9.28446 14.8184 9.23521 14.6898 9.14398 14.5935C9.05274 14.4972 8.92699 14.4411 8.79438 14.4375C8.66177 14.4339 8.53317 14.4832 8.43687 14.5744C8.34057 14.6656 8.28446 14.7914 8.28088 14.924L9.28088 14.951ZM7.07788 21.344C7.04473 21.4725 7.06398 21.6089 7.1314 21.7232C7.19882 21.8375 7.30888 21.9203 7.43738 21.9535C7.56588 21.9867 7.70228 21.9674 7.81658 21.9C7.93089 21.8326 8.01373 21.7225 8.04688 21.594L7.07788 21.344ZM8.28088 14.924C8.25688 15.827 8.02388 17.179 7.75688 18.452C7.55173 19.4209 7.32534 20.3851 7.07788 21.344L8.04688 21.594C8.17288 21.106 8.46688 19.941 8.73488 18.657C9.00188 17.384 9.25388 15.954 9.28088 14.951L8.28088 14.924Z" fill="url(#paint5_linear_3799_4647)"/>
</g>
<g filter="url(#filter1_f_3799_4647)">
<path d="M13.419 17.91C13.4595 17.8583 13.5098 17.8151 13.567 17.7829C13.6242 17.7506 13.6872 17.73 13.7524 17.7221C13.8176 17.7142 13.8837 17.7192 13.9469 17.7369C14.0102 17.7545 14.0693 17.7845 14.121 17.825C14.1727 17.8655 14.2159 17.9158 14.2481 17.973C14.2803 18.0302 14.301 18.0932 14.3089 18.1584C14.3168 18.2236 14.3118 18.2897 14.2941 18.3529C14.2765 18.4162 14.2465 18.4753 14.206 18.527L13.419 17.91ZM10.329 23.06C10.2453 23.1594 10.1262 23.2223 9.99691 23.2354C9.86762 23.2485 9.73832 23.2107 9.63639 23.1301C9.53446 23.0495 9.46792 22.9324 9.45086 22.8036C9.4338 22.6747 9.46757 22.5443 9.54501 22.44L10.329 23.06ZM14.206 18.527C13.525 19.399 12.696 20.354 11.969 21.178C11.232 22.014 10.616 22.699 10.329 23.06L9.54501 22.44C9.85301 22.05 10.502 21.33 11.219 20.517C11.945 19.693 12.757 18.756 13.419 17.91L14.206 18.527Z" fill="url(#paint6_linear_3799_4647)"/>
</g>
<path fill-rule="evenodd" clip-rule="evenodd" d="M27.8468 15.648C27.7876 15.5644 27.7532 15.4659 27.7475 15.3636C27.7419 15.2614 27.7652 15.1596 27.8148 15.07C28.7783 13.3407 29.1254 11.3352 28.7992 9.38264C28.473 7.43008 27.4928 5.64636 26.0196 4.3241C24.5463 3.00185 22.6673 2.21958 20.691 2.10564C18.7147 1.99169 16.7583 2.55283 15.1428 3.697C15.0591 3.75569 14.9607 3.78963 14.8586 3.79493C14.7566 3.80024 14.6551 3.7767 14.5658 3.727C13.721 3.26551 12.7877 2.98895 11.8278 2.91564C10.868 2.84233 9.90348 2.97396 8.99837 3.3018C8.09326 3.62964 7.26821 4.14619 6.57794 4.81718C5.88768 5.48818 5.34798 6.29828 4.99465 7.19375C4.64132 8.08921 4.48244 9.04957 4.52854 10.0111C4.57465 10.9727 4.82469 11.9134 5.26207 12.771C5.69945 13.6285 6.31419 14.3833 7.06549 14.9851C7.81678 15.587 8.68747 16.0223 9.6198 16.262C9.8738 16.327 10.0498 16.562 10.0468 16.824V16.874C10.0467 17.5545 10.1891 18.2274 10.4648 18.8495C10.7405 19.4716 11.1434 20.0291 11.6475 20.4861C12.1516 20.9431 12.7458 21.2896 13.3919 21.5031C14.038 21.7167 14.7216 21.7926 15.3988 21.726C15.5211 21.7138 15.6441 21.7413 15.7495 21.8045C15.8549 21.8678 15.9371 21.9633 15.9838 22.077C16.571 23.5414 17.6497 24.7558 19.0346 25.5116C20.4195 26.2674 22.0244 26.5176 23.5737 26.2192C25.123 25.9207 26.5201 25.0923 27.5251 23.8761C28.5302 22.6599 29.0806 21.1318 29.0818 19.554C29.0838 18.1559 28.6524 16.7916 27.8468 15.649V15.648Z" fill="url(#paint7_linear_3799_4647)"/>
<path d="M11.291 16.469C15.0416 16.469 18.082 13.4286 18.082 9.67799C18.082 5.92743 15.0416 2.88699 11.291 2.88699C7.54043 2.88699 4.5 5.92743 4.5 9.67799C4.5 13.4286 7.54043 16.469 11.291 16.469Z" fill="#1BAA74"/>
<path d="M11.291 16.469C15.0416 16.469 18.082 13.4286 18.082 9.67799C18.082 5.92743 15.0416 2.88699 11.291 2.88699C7.54043 2.88699 4.5 5.92743 4.5 9.67799C4.5 13.4286 7.54043 16.469 11.291 16.469Z" fill="url(#paint8_radial_3799_4647)"/>
<path d="M11.291 16.469C15.0416 16.469 18.082 13.4286 18.082 9.67799C18.082 5.92743 15.0416 2.88699 11.291 2.88699C7.54043 2.88699 4.5 5.92743 4.5 9.67799C4.5 13.4286 7.54043 16.469 11.291 16.469Z" fill="url(#paint9_radial_3799_4647)"/>
<path d="M11.291 16.469C15.0416 16.469 18.082 13.4286 18.082 9.67799C18.082 5.92743 15.0416 2.88699 11.291 2.88699C7.54043 2.88699 4.5 5.92743 4.5 9.67799C4.5 13.4286 7.54043 16.469 11.291 16.469Z" fill="url(#paint10_radial_3799_4647)"/>
<path d="M11.291 16.469C15.0416 16.469 18.082 13.4286 18.082 9.67799C18.082 5.92743 15.0416 2.88699 11.291 2.88699C7.54043 2.88699 4.5 5.92743 4.5 9.67799C4.5 13.4286 7.54043 16.469 11.291 16.469Z" fill="url(#paint11_radial_3799_4647)"/>
<path d="M22.291 26.344C26.0416 26.344 29.082 23.3036 29.082 19.553C29.082 15.8024 26.0416 12.762 22.291 12.762C18.5404 12.762 15.5 15.8024 15.5 19.553C15.5 23.3036 18.5404 26.344 22.291 26.344Z" fill="#1EA392"/>
<path d="M22.291 26.344C26.0416 26.344 29.082 23.3036 29.082 19.553C29.082 15.8024 26.0416 12.762 22.291 12.762C18.5404 12.762 15.5 15.8024 15.5 19.553C15.5 23.3036 18.5404 26.344 22.291 26.344Z" fill="url(#paint12_radial_3799_4647)"/>
<path d="M22.291 26.344C26.0416 26.344 29.082 23.3036 29.082 19.553C29.082 15.8024 26.0416 12.762 22.291 12.762C18.5404 12.762 15.5 15.8024 15.5 19.553C15.5 23.3036 18.5404 26.344 22.291 26.344Z" fill="url(#paint13_radial_3799_4647)"/>
<path d="M22.291 26.344C26.0416 26.344 29.082 23.3036 29.082 19.553C29.082 15.8024 26.0416 12.762 22.291 12.762C18.5404 12.762 15.5 15.8024 15.5 19.553C15.5 23.3036 18.5404 26.344 22.291 26.344Z" fill="url(#paint14_radial_3799_4647)"/>
<path d="M22.291 26.344C26.0416 26.344 29.082 23.3036 29.082 19.553C29.082 15.8024 26.0416 12.762 22.291 12.762C18.5404 12.762 15.5 15.8024 15.5 19.553C15.5 23.3036 18.5404 26.344 22.291 26.344Z" fill="url(#paint15_radial_3799_4647)"/>
<path d="M28.9159 10.823C28.9187 12.4238 28.4792 13.9942 27.6459 15.361L16.8049 18.203C15.4824 17.2497 14.2194 16.2164 13.0229 15.109L14.7809 3.84399C16.2609 2.68999 18.165 2.09399 20.186 2.09399C22.5013 2.09399 24.7218 3.01376 26.359 4.65095C27.9962 6.28814 28.9159 8.50865 28.9159 10.824V10.823Z" fill="#1EB776"/>
<path d="M28.9159 10.823C28.9187 12.4238 28.4792 13.9942 27.6459 15.361L16.8049 18.203C15.4824 17.2497 14.2194 16.2164 13.0229 15.109L14.7809 3.84399C16.2609 2.68999 18.165 2.09399 20.186 2.09399C22.5013 2.09399 24.7218 3.01376 26.359 4.65095C27.9962 6.28814 28.9159 8.50865 28.9159 10.824V10.823Z" fill="url(#paint16_radial_3799_4647)"/>
<path d="M28.9159 10.823C28.9187 12.4238 28.4792 13.9942 27.6459 15.361L16.8049 18.203C15.4824 17.2497 14.2194 16.2164 13.0229 15.109L14.7809 3.84399C16.2609 2.68999 18.165 2.09399 20.186 2.09399C22.5013 2.09399 24.7218 3.01376 26.359 4.65095C27.9962 6.28814 28.9159 8.50865 28.9159 10.824V10.823Z" fill="url(#paint17_radial_3799_4647)"/>
<path d="M16.797 18.219L15.845 21.661C15.117 21.8013 14.3665 21.7737 13.6507 21.5803C12.9349 21.3869 12.2727 21.0328 11.7144 20.5449C11.1561 20.057 10.7164 19.4481 10.4289 18.7647C10.1414 18.0813 10.0135 17.3413 10.055 16.601L13.015 15.094C14.3867 15.9935 15.655 17.0415 16.797 18.219Z" fill="#1A8B87"/>
<path d="M16.797 18.219L15.845 21.661C15.117 21.8013 14.3665 21.7737 13.6507 21.5803C12.9349 21.3869 12.2727 21.0328 11.7144 20.5449C11.1561 20.057 10.7164 19.4481 10.4289 18.7647C10.1414 18.0813 10.0135 17.3413 10.055 16.601L13.015 15.094C14.3867 15.9935 15.655 17.0415 16.797 18.219Z" fill="url(#paint18_radial_3799_4647)"/>
<path d="M16.797 18.219L15.845 21.661C15.117 21.8013 14.3665 21.7737 13.6507 21.5803C12.9349 21.3869 12.2727 21.0328 11.7144 20.5449C11.1561 20.057 10.7164 19.4481 10.4289 18.7647C10.1414 18.0813 10.0135 17.3413 10.055 16.601L13.015 15.094C14.3867 15.9935 15.655 17.0415 16.797 18.219Z" fill="url(#paint19_radial_3799_4647)"/>
<path d="M16.797 18.219L15.845 21.661C15.117 21.8013 14.3665 21.7737 13.6507 21.5803C12.9349 21.3869 12.2727 21.0328 11.7144 20.5449C11.1561 20.057 10.7164 19.4481 10.4289 18.7647C10.1414 18.0813 10.0135 17.3413 10.055 16.601L13.015 15.094C14.3867 15.9935 15.655 17.0415 16.797 18.219Z" fill="url(#paint20_linear_3799_4647)"/>
<g filter="url(#filter2_f_3799_4647)">
<path d="M17.156 18.219L26.969 15.547" stroke="url(#paint21_linear_3799_4647)" stroke-linecap="round"/>
</g>
<g filter="url(#filter3_f_3799_4647)">
<path d="M13.188 14.75L14.938 4.46899" stroke="url(#paint22_linear_3799_4647)" stroke-linecap="round"/>
</g>
<g filter="url(#filter4_f_3799_4647)">
<path d="M16.812 18.031L13.25 15.094" stroke="#157A7E" stroke-linecap="round"/>
</g>
<g filter="url(#filter5_f_3799_4647)">
<path d="M13.219 15.219L10.531 16.188" stroke="#0C8184" stroke-linecap="round"/>
</g>
<g filter="url(#filter6_f_3799_4647)">
<path d="M16.125 21.188L16.906 18.531" stroke="#14786C" stroke-linecap="round"/>
</g>
<g filter="url(#filter7_f_3799_4647)">
<path d="M20.25 17.375L27.563 15.422C27.563 15.422 25.375 16.297 24.055 16.632C22.735 16.969 20.25 17.375 20.25 17.375Z" fill="url(#paint23_linear_3799_4647)"/>
</g>
<g filter="url(#filter8_f_3799_4647)">
<path d="M8.1719 22.047L8.4839 20.891L9.0309 21.109L8.1709 22.047H8.1719Z" fill="#4FCC88"/>
</g>
<g filter="url(#filter9_f_3799_4647)">
<path d="M10.7349 24.163L11.6019 23.579L11.2659 23.147L10.7349 24.163Z" fill="#76CD7D"/>
</g>
<defs>
<filter id="filter0_f_3799_4647" x="6.06201" y="13.4373" width="4.21899" height="9.53204" filterUnits="userSpaceOnUse" color-interpolation-filters="sRGB">
<feFlood flood-opacity="0" result="BackgroundImageFix"/>
<feBlend mode="normal" in="SourceGraphic" in2="BackgroundImageFix" result="shape"/>
<feGaussianBlur stdDeviation="0.5" result="effect1_foregroundBlur_3799_4647"/>
</filter>
<filter id="filter1_f_3799_4647" x="8.44653" y="16.7185" width="6.86597" height="7.51947" filterUnits="userSpaceOnUse" color-interpolation-filters="sRGB">
<feFlood flood-opacity="0" result="BackgroundImageFix"/>
<feBlend mode="normal" in="SourceGraphic" in2="BackgroundImageFix" result="shape"/>
<feGaussianBlur stdDeviation="0.5" result="effect1_foregroundBlur_3799_4647"/>
</filter>
<filter id="filter2_f_3799_4647" x="15.6558" y="14.0469" width="12.8135" height="5.67224" filterUnits="userSpaceOnUse" color-interpolation-filters="sRGB">
<feFlood flood-opacity="0" result="BackgroundImageFix"/>
<feBlend mode="normal" in="SourceGraphic" in2="BackgroundImageFix" result="shape"/>
<feGaussianBlur stdDeviation="0.5" result="effect1_foregroundBlur_3799_4647"/>
</filter>
<filter id="filter3_f_3799_4647" x="11.688" y="2.9689" width="4.75" height="13.2812" filterUnits="userSpaceOnUse" color-interpolation-filters="sRGB">
<feFlood flood-opacity="0" result="BackgroundImageFix"/>
<feBlend mode="normal" in="SourceGraphic" in2="BackgroundImageFix" result="shape"/>
<feGaussianBlur stdDeviation="0.5" result="effect1_foregroundBlur_3799_4647"/>
</filter>
<filter id="filter4_f_3799_4647" x="11.75" y="13.594" width="6.56201" height="5.93701" filterUnits="userSpaceOnUse" color-interpolation-filters="sRGB">
<feFlood flood-opacity="0" result="BackgroundImageFix"/>
<feBlend mode="normal" in="SourceGraphic" in2="BackgroundImageFix" result="shape"/>
<feGaussianBlur stdDeviation="0.5" result="effect1_foregroundBlur_3799_4647"/>
</filter>
<filter id="filter5_f_3799_4647" x="9.03076" y="13.7189" width="5.68848" height="3.96927" filterUnits="userSpaceOnUse" color-interpolation-filters="sRGB">
<feFlood flood-opacity="0" result="BackgroundImageFix"/>
<feBlend mode="normal" in="SourceGraphic" in2="BackgroundImageFix" result="shape"/>
<feGaussianBlur stdDeviation="0.5" result="effect1_foregroundBlur_3799_4647"/>
</filter>
<filter id="filter6_f_3799_4647" x="14.6248" y="17.0309" width="3.78149" height="5.65726" filterUnits="userSpaceOnUse" color-interpolation-filters="sRGB">
<feFlood flood-opacity="0" result="BackgroundImageFix"/>
<feBlend mode="normal" in="SourceGraphic" in2="BackgroundImageFix" result="shape"/>
<feGaussianBlur stdDeviation="0.5" result="effect1_foregroundBlur_3799_4647"/>
</filter>
<filter id="filter7_f_3799_4647" x="20" y="15.172" width="7.81299" height="2.453" filterUnits="userSpaceOnUse" color-interpolation-filters="sRGB">
<feFlood flood-opacity="0" result="BackgroundImageFix"/>
<feBlend mode="normal" in="SourceGraphic" in2="BackgroundImageFix" result="shape"/>
<feGaussianBlur stdDeviation="0.125" result="effect1_foregroundBlur_3799_4647"/>
</filter>
<filter id="filter8_f_3799_4647" x="7.6709" y="20.391" width="1.86011" height="2.15601" filterUnits="userSpaceOnUse" color-interpolation-filters="sRGB">
<feFlood flood-opacity="0" result="BackgroundImageFix"/>
<feBlend mode="normal" in="SourceGraphic" in2="BackgroundImageFix" result="shape"/>
<feGaussianBlur stdDeviation="0.25" result="effect1_foregroundBlur_3799_4647"/>
</filter>
<filter id="filter9_f_3799_4647" x="10.2349" y="22.647" width="1.86694" height="2.01599" filterUnits="userSpaceOnUse" color-interpolation-filters="sRGB">
<feFlood flood-opacity="0" result="BackgroundImageFix"/>
<feBlend mode="normal" in="SourceGraphic" in2="BackgroundImageFix" result="shape"/>
<feGaussianBlur stdDeviation="0.25" result="effect1_foregroundBlur_3799_4647"/>
</filter>
<linearGradient id="paint0_linear_3799_4647" x1="14.8749" y1="17.125" x2="4.49992" y2="29.932" gradientUnits="userSpaceOnUse">
<stop offset="0.273" stop-color="#288742"/>
<stop offset="0.474" stop-color="#45BD6C"/>
<stop offset="0.677" stop-color="#7ED071"/>
<stop offset="1" stop-color="#85CE6E"/>
</linearGradient>
<linearGradient id="paint1_linear_3799_4647" x1="0.24992" y1="30.625" x2="5.37492" y2="25.188" gradientUnits="userSpaceOnUse">
<stop offset="0.049" stop-color="#6BA871"/>
<stop offset="0.424" stop-color="#417E4A"/>
<stop offset="0.812" stop-color="#68AC62" stop-opacity="0"/>
</linearGradient>
<radialGradient id="paint2_radial_3799_4647" cx="0" cy="0" r="1" gradientUnits="userSpaceOnUse" gradientTransform="translate(11.0629 27.625) rotate(137.003) scale(6.32363 2.7155)">
<stop stop-color="#85C671"/>
<stop offset="1" stop-color="#6EAC66" stop-opacity="0"/>
</radialGradient>
<radialGradient id="paint3_radial_3799_4647" cx="0" cy="0" r="1" gradientUnits="userSpaceOnUse" gradientTransform="translate(16.8117 24.8751) rotate(155.118) scale(7.13002 3.26967)">
<stop stop-color="#43AE9E"/>
<stop offset="1" stop-color="#379C89" stop-opacity="0"/>
</radialGradient>
<radialGradient id="paint4_radial_3799_4647" cx="0" cy="0" r="1" gradientUnits="userSpaceOnUse" gradientTransform="translate(4.68792 21.375) rotate(121.875) scale(8.75826 3.80092)">
<stop stop-color="#1C790D"/>
<stop offset="1" stop-color="#6BAA55" stop-opacity="0"/>
</radialGradient>
<linearGradient id="paint5_linear_3799_4647" x1="8.17188" y1="14.938" x2="8.17188" y2="21.469" gradientUnits="userSpaceOnUse">
<stop stop-color="#27A682"/>
<stop offset="1" stop-color="#37BA83"/>
</linearGradient>
<linearGradient id="paint6_linear_3799_4647" x1="14.003" y1="18.415" x2="9.74701" y2="22.554" gradientUnits="userSpaceOnUse">
<stop stop-color="#27A2A6"/>
<stop offset="1" stop-color="#4DBF85"/>
</linearGradient>
<linearGradient id="paint7_linear_3799_4647" x1="25.5628" y1="4.813" x2="12.1558" y2="21.5" gradientUnits="userSpaceOnUse">
<stop stop-color="#20BF72"/>
<stop offset="1" stop-color="#17836E"/>
</linearGradient>
<radialGradient id="paint8_radial_3799_4647" cx="0" cy="0" r="1" gradientUnits="userSpaceOnUse" gradientTransform="translate(14.5007 6.62481) rotate(145.222) scale(8.21798)">
<stop stop-color="#49C88A"/>
<stop offset="1" stop-color="#1BAB6D"/>
</radialGradient>
<radialGradient id="paint9_radial_3799_4647" cx="0" cy="0" r="1" gradientUnits="userSpaceOnUse" gradientTransform="translate(12.7507 6.37443) rotate(169.875) scale(8.88841)">
<stop offset="0.433" stop-color="#29C675"/>
<stop offset="0.911" stop-color="#278259"/>
</radialGradient>
<radialGradient id="paint10_radial_3799_4647" cx="0" cy="0" r="1" gradientUnits="userSpaceOnUse" gradientTransform="translate(14.2502 8.06223) rotate(109.25) scale(4.17068)">
<stop stop-color="#73DCAA"/>
<stop offset="1" stop-color="#50C78F" stop-opacity="0"/>
</radialGradient>
<radialGradient id="paint11_radial_3799_4647" cx="0" cy="0" r="1" gradientUnits="userSpaceOnUse" gradientTransform="translate(10.6244 17.4368) rotate(88.516) scale(12.0665)">
<stop stop-color="#0B777C"/>
<stop offset="0.489" stop-color="#179693"/>
<stop offset="1" stop-color="#189B93" stop-opacity="0"/>
</radialGradient>
<radialGradient id="paint12_radial_3799_4647" cx="0" cy="0" r="1" gradientUnits="userSpaceOnUse" gradientTransform="translate(24.687 17.9373) rotate(100.339) scale(9.40267)">
<stop stop-color="#5AD299"/>
<stop offset="1" stop-color="#33B784" stop-opacity="0"/>
</radialGradient>
<radialGradient id="paint13_radial_3799_4647" cx="0" cy="0" r="1" gradientUnits="userSpaceOnUse" gradientTransform="translate(26.1877 18.688) rotate(115.017) scale(13.4493)">
<stop offset="0.277" stop-color="#3272A6" stop-opacity="0"/>
<stop offset="0.79" stop-color="#2572A1"/>
</radialGradient>
<radialGradient id="paint14_radial_3799_4647" cx="0" cy="0" r="1" gradientUnits="userSpaceOnUse" gradientTransform="translate(23.625 22.187) rotate(48.062) scale(10.7545 41.5156)">
<stop offset="0.299" stop-color="#157A6A" stop-opacity="0"/>
<stop offset="0.849" stop-color="#187A51"/>
</radialGradient>
<radialGradient id="paint15_radial_3799_4647" cx="0" cy="0" r="1" gradientUnits="userSpaceOnUse" gradientTransform="translate(26.2506 16.9388) rotate(128.29) scale(4.53889)">
<stop stop-color="#52D292"/>
<stop offset="1" stop-color="#58D196" stop-opacity="0"/>
</radialGradient>
<radialGradient id="paint16_radial_3799_4647" cx="0" cy="0" r="1" gradientUnits="userSpaceOnUse" gradientTransform="translate(24.3753 7.6878) rotate(141.04) scale(13.0212 12.8457)">
<stop stop-color="#52E691"/>
<stop offset="0.534" stop-color="#20C376"/>
<stop offset="1" stop-color="#1DA860"/>
</radialGradient>
<radialGradient id="paint17_radial_3799_4647" cx="0" cy="0" r="1" gradientUnits="userSpaceOnUse" gradientTransform="translate(12.4997 20.5621) rotate(-20.788) scale(14.4401 14.2455)">
<stop offset="0.281" stop-color="#117B7F"/>
<stop offset="0.61" stop-color="#189D96"/>
<stop offset="1" stop-color="#179C95" stop-opacity="0"/>
</radialGradient>
<radialGradient id="paint18_radial_3799_4647" cx="0" cy="0" r="1" gradientUnits="userSpaceOnUse" gradientTransform="translate(14.9374 16.9689) rotate(136.317) scale(3.84591 3.90108)">
<stop stop-color="#208A83"/>
<stop offset="1" stop-color="#208C82" stop-opacity="0"/>
</radialGradient>
<radialGradient id="paint19_radial_3799_4647" cx="0" cy="0" r="1" gradientUnits="userSpaceOnUse" gradientTransform="translate(15.063 16.813) rotate(93.331) scale(11.8325 14.0952)">
<stop offset="0.211" stop-color="#09687D" stop-opacity="0"/>
<stop offset="0.474" stop-color="#187796"/>
<stop offset="0.569" stop-color="#146B89"/>
</radialGradient>
<linearGradient id="paint20_linear_3799_4647" x1="11.688" y1="15.625" x2="13" y2="17.125" gradientUnits="userSpaceOnUse">
<stop stop-color="#17836D"/>
<stop offset="1" stop-color="#158185" stop-opacity="0"/>
</linearGradient>
<linearGradient id="paint21_linear_3799_4647" x1="17.344" y1="18.094" x2="27.156" y2="15.5" gradientUnits="userSpaceOnUse">
<stop stop-color="#157A7E"/>
<stop offset="1" stop-color="#2DC47F"/>
</linearGradient>
<linearGradient id="paint22_linear_3799_4647" x1="13.043" y1="14.512" x2="14.583" y2="4.47999" gradientUnits="userSpaceOnUse">
<stop stop-color="#157A7E"/>
<stop offset="1" stop-color="#2DC47F"/>
</linearGradient>
<linearGradient id="paint23_linear_3799_4647" x1="27.125" y1="15.781" x2="21.406" y2="17.375" gradientUnits="userSpaceOnUse">
<stop stop-color="#64D9A1"/>
<stop offset="1" stop-color="#57CD97" stop-opacity="0"/>
</linearGradient>
</defs>
</svg>
