<svg width="24" height="24" viewBox="0 0 24 24" fill="none" xmlns="http://www.w3.org/2000/svg">
<path d="M5.99995 9.56555V10.3156H6.74995L6.74995 9.56555L5.99995 9.56555ZM19.7533 9.06561L20.4327 8.74796L20.4327 8.74796L19.7533 9.06561ZM14 7.49999H13.25C13.25 7.85868 13.504 8.16715 13.856 8.23604C14.208 8.30492 14.5595 8.11492 14.6947 7.78269L14 7.49999ZM6 11.25C5.34191 11.25 4.92626 11.1152 4.70242 10.9789C4.47887 10.8429 4.5 10.7507 4.5 10.7828C4.5 10.8149 4.47887 10.7227 4.70241 10.5866C4.92624 10.4504 5.34188 10.3156 5.99995 10.3156V8.81555C5.15806 8.81555 4.44871 8.98503 3.92256 9.30527C3.39612 9.62567 2.99999 10.1421 3 10.7828C3.00001 11.4235 3.39613 11.9399 3.92258 12.2603C4.44874 12.5805 5.15809 12.75 6 12.75V11.25ZM6.74995 9.56555C6.74995 9.20515 6.91133 8.93577 7.21017 8.7274C7.53003 8.50438 7.99995 8.36523 8.50981 8.35854C9.02027 8.35185 9.48647 8.47894 9.80084 8.68989C10.0913 8.88478 10.25 9.14183 10.25 9.49999H11.75C11.75 8.57537 11.2837 7.87854 10.6366 7.44433C10.0135 7.02618 9.22969 6.84897 8.49014 6.85867C7.74998 6.86837 6.96989 7.06631 6.35224 7.49697C5.71357 7.94228 5.24995 8.64317 5.24995 9.56555L6.74995 9.56555ZM11 10.25C11.397 10.25 11.871 10.3532 12.22 10.577C12.5338 10.7782 12.75 11.0707 12.75 11.5656L14.25 11.5656C14.25 10.4949 13.7161 9.75455 13.0298 9.31437C12.3788 8.89682 11.6028 8.74998 11 8.74999L11 10.25ZM11 8.74999C10.3972 8.74999 9.62124 8.89682 8.97019 9.31437C8.28387 9.75455 7.74999 10.4949 7.74998 11.5656L9.24998 11.5656C9.24998 11.0707 9.46624 10.7782 9.77998 10.577C10.129 10.3532 10.603 10.25 11 10.25L11 8.74999ZM19.0739 9.38327C19.2514 9.76304 19.2692 10.0456 19.2368 10.2508C19.2034 10.462 19.1076 10.648 18.9751 10.8126C18.8406 10.9797 18.6791 11.111 18.5448 11.2021C18.4791 11.2467 18.4239 11.279 18.3877 11.2989C18.3698 11.3088 18.3568 11.3154 18.3501 11.3188C18.3467 11.3205 18.3449 11.3214 18.3448 11.3214C18.3448 11.3214 18.3452 11.3213 18.346 11.3209C18.3464 11.3207 18.3469 11.3204 18.3476 11.3201C18.3479 11.32 18.3483 11.3198 18.3486 11.3196C18.3488 11.3195 18.3491 11.3194 18.3492 11.3194C18.3495 11.3192 18.3499 11.3191 18.6642 12C18.9786 12.6809 18.9789 12.6808 18.9793 12.6806C18.9794 12.6806 18.9797 12.6804 18.98 12.6803C18.9805 12.6801 18.981 12.6798 18.9816 12.6795C18.9827 12.679 18.984 12.6784 18.9854 12.6778C18.9882 12.6765 18.9914 12.6749 18.9952 12.6731C19.0027 12.6695 19.0121 12.6649 19.0234 12.6592C19.0458 12.6479 19.0755 12.6326 19.111 12.613C19.1819 12.574 19.2775 12.5177 19.387 12.4434C19.603 12.2968 19.889 12.0695 20.1437 11.753C20.4004 11.434 20.6352 11.0113 20.7184 10.4849C20.8025 9.9524 20.7227 9.36817 20.4327 8.74796L19.0739 9.38327ZM9.74245 7.60606C9.84373 6.89714 10.135 6.45092 10.4641 6.18449C10.8001 5.91244 11.2233 5.78911 11.6481 5.81146C12.5003 5.85632 13.25 6.45918 13.25 7.49999H14.75C14.75 5.54081 13.2496 4.39368 11.7269 4.31353C10.9641 4.27339 10.1686 4.49381 9.52028 5.01862C8.86503 5.54907 8.40626 6.35284 8.25753 7.39393L9.74245 7.60606ZM15.1794 12.3176C15.7884 11.0151 16.6366 10.02 17.5878 9.79557L17.2434 8.33565C15.5847 8.72698 14.4711 10.2909 13.8206 11.6824L15.1794 12.3176ZM17.5878 9.79557C17.8927 9.72365 18.3909 9.64439 18.8186 9.62391C19.0362 9.61348 19.1972 9.62038 19.2929 9.63642C19.3417 9.64459 19.339 9.6497 19.3081 9.63474C19.2814 9.62185 19.1543 9.55524 19.0739 9.38327L20.4327 8.74796C20.3118 8.48948 20.1028 8.3529 19.9613 8.28443C19.8155 8.21389 19.6648 8.1778 19.5408 8.15703C19.2909 8.11517 19.0071 8.11315 18.7468 8.12562C18.2187 8.15092 17.629 8.24467 17.2434 8.33565L17.5878 9.79557ZM14.6947 7.78269C14.7433 7.66326 14.8615 7.54092 15.0982 7.46652C15.3387 7.39094 15.6467 7.38746 15.938 7.47587C16.2262 7.56334 16.4507 7.72521 16.582 7.93107C16.7051 8.12407 16.7921 8.42606 16.6843 8.89905L18.1469 9.23218C18.3313 8.42236 18.2137 7.69975 17.8466 7.12429C17.4876 6.5617 16.9362 6.21126 16.3737 6.04053C15.8143 5.87074 15.197 5.86316 14.6485 6.03552C14.0963 6.20907 13.5619 6.58673 13.3053 7.2173L14.6947 7.78269Z" fill="black"/>
<path d="M19.2049 16.9638L19.8492 17.3478L19.2049 16.9638ZM15.6127 19.6713V20.4213V19.6713ZM16.3572 19.52L16.6626 20.2049L16.3572 19.52ZM19.9648 13.9996L20.7136 14.0423L19.9648 13.9996ZM6.00004 12.75H18V11.25H6.00004V12.75ZM15.6127 18.9213C13.6401 18.9213 10.0457 18.9213 8.38602 18.9213V20.4213C10.0457 20.4213 13.6401 20.4213 15.6127 20.4213V18.9213ZM7.94013 18.8333C6.39931 18.1634 5.65004 17.4746 5.25385 16.7654C4.84797 16.0389 4.74514 15.178 4.73587 13.9948L3.23592 14.0066C3.24548 15.2269 3.34165 16.4182 3.94436 17.497C4.55677 18.5932 5.6257 19.4627 7.34211 20.2089L7.94013 18.8333ZM16.6626 20.2049C17.5725 19.7991 18.2185 19.3561 18.7219 18.8591C19.2213 18.366 19.5517 17.8468 19.8492 17.3478L18.5607 16.5797C18.2777 17.0545 18.0263 17.4379 17.668 17.7917C17.3136 18.1415 16.8259 18.4897 16.0517 18.835L16.6626 20.2049ZM19.8492 17.3478C20.4535 16.3339 20.6466 15.219 20.7136 14.0423L19.2161 13.957C19.1545 15.0373 18.984 15.8697 18.5607 16.5797L19.8492 17.3478ZM15.6127 20.4213C15.9596 20.4213 16.3201 20.3577 16.6626 20.2049L16.0517 18.835C15.9264 18.8909 15.7782 18.9213 15.6127 18.9213V20.4213ZM8.38602 18.9213C8.22325 18.9213 8.07232 18.8907 7.94013 18.8333L7.34211 20.2089C7.6797 20.3557 8.03653 20.4213 8.38602 20.4213V18.9213ZM18 12.75C18.7134 12.75 19.2522 13.3232 19.2161 13.957L20.7136 14.0423C20.8032 12.4705 19.4958 11.25 18 11.25V12.75ZM6.00004 11.25C4.49323 11.25 3.22389 12.4714 3.23592 14.0066L4.73587 13.9948C4.7306 13.3209 5.29771 12.75 6.00004 12.75V11.25Z" fill="black"/>
</svg>
